<svg width="432" height="376" viewBox="0 0 432 376" fill="none" xmlns="http://www.w3.org/2000/svg">
<path opacity="0.1" d="M397.001 83.1896C397.001 78.2189 393.739 73.2482 387.215 69.4771L292.528 14.7527C279.48 7.21133 258.127 7.21133 245.078 14.7527L241.979 16.5434L241.867 16.4775L182.958 50.6561L43.7907 131.089C36.7412 135.165 33.5082 140.639 34.0762 146.002C34.0762 146 34.0754 145.995 34.0754 145.993V165.55C33.9922 166.343 33.9922 167.138 34.0754 167.932V167.934C34.5559 172.5 37.7897 176.983 43.7915 180.452L138.478 235.182C151.525 242.726 172.879 242.726 185.927 235.183L387.216 118.842C393.74 115.07 397.002 110.101 397.002 105.129L397.001 83.1896ZM38.0529 154.065C38.1629 154.182 38.2754 154.299 38.3906 154.415C38.2763 154.299 38.1637 154.182 38.0529 154.065ZM36.1845 151.697C36.233 151.773 36.2797 151.847 36.3308 151.921C36.2789 151.847 36.2321 151.773 36.1845 151.697ZM37.3533 153.272C37.4434 153.382 37.5352 153.49 37.6304 153.597C37.536 153.49 37.4442 153.382 37.3533 153.272ZM38.827 154.848C38.9568 154.972 39.0919 155.096 39.227 155.219C39.0919 155.096 38.9568 154.971 38.827 154.848ZM40.5958 156.372C40.775 156.51 40.9603 156.647 41.1473 156.785C40.9603 156.648 40.7742 156.511 40.5958 156.372ZM41.5863 157.108C41.8071 157.263 42.0383 157.414 42.2686 157.566C42.0383 157.415 41.808 157.263 41.5863 157.108Z" fill="#070707"/>
<path d="M43.7859 149.419C30.738 141.876 30.738 129.535 43.7859 121.994L245.073 5.65605C258.121 -1.88535 279.474 -1.88535 292.524 5.65605L387.21 60.3813C400.258 67.9227 400.258 80.264 387.21 87.8063L185.922 204.15C172.873 211.69 151.519 211.69 138.472 204.147L43.7859 149.419Z" fill="#FAFBFF"/>
<path d="M397.002 74.0957C397.002 79.0664 393.739 84.0371 387.215 87.8082L185.927 204.153C172.878 211.693 151.525 211.693 138.478 204.15L43.7911 149.421C37.7893 145.952 34.5546 141.466 34.0749 136.901V156.457C33.9918 157.251 33.9918 158.045 34.0749 158.839V158.842C34.5554 163.407 37.7893 167.891 43.7911 171.361L138.478 226.089C151.525 233.633 172.878 233.633 185.927 226.091L387.215 109.749C393.739 105.977 397.002 101.008 397.002 96.0369V74.0957Z" fill="#E7E9F2"/>
<path d="M70.3892 106.871L241.867 7.38184L382.432 90.794L210.205 190.163L70.3892 106.871Z" fill="url(#paint0_linear_38_14132)"/>
<path d="M99.106 168.262C90.666 163.384 90.666 155.401 99.106 150.523C107.546 145.646 121.357 145.646 129.797 150.523C138.238 155.401 138.238 163.384 129.797 168.262C121.357 173.141 107.546 173.141 99.106 168.262Z" fill="#D8DAE5"/>
<path d="M101.836 166.679C94.9038 162.669 94.9038 156.114 101.836 152.107C108.77 148.102 120.115 148.102 127.049 152.107C133.981 156.114 133.981 162.669 127.049 166.679C120.115 170.688 108.77 170.688 101.836 166.679Z" fill="#E7E9F2"/>
<path d="M76.0828 174.069C72.952 172.259 70.3892 173.089 70.3892 175.912C70.3892 178.736 72.952 182.526 76.0828 184.336L100.229 198.292C103.36 200.102 105.922 199.274 105.922 196.449C105.922 193.626 103.36 189.835 100.229 188.025L76.0828 174.069Z" fill="#D8DAE5"/>
<path d="M330.34 126.126C333.473 124.316 336.035 125.145 336.035 127.969C336.035 130.792 333.473 134.584 330.34 136.394L306.194 150.349C303.064 152.16 300.502 151.329 300.502 148.506C300.502 145.682 303.064 141.892 306.194 140.081L330.34 126.126Z" fill="#D8DAE5"/>
<path d="M368.696 104.117C371.827 102.307 374.39 103.136 374.39 105.96C374.39 108.784 371.827 112.577 368.696 114.386L357.701 120.661C354.57 122.471 352.007 121.642 352.007 118.817C352.007 115.995 354.57 112.204 357.701 110.393L368.696 104.117Z" fill="#D8DAE5"/>
<path d="M316.402 30.3819C314.008 28.9692 310.082 28.951 307.676 30.3429L306.677 30.9193C304.271 32.3113 304.26 34.6055 306.654 36.0183L330.341 50.0064C332.736 51.42 336.661 51.4382 339.067 50.0471L340.066 49.4699C342.473 48.0788 342.484 45.7854 340.089 44.3718L316.402 30.3819Z" fill="#D8DAE5"/>
<path opacity="0.2" d="M70.3892 106.869L382.432 90.792L210.205 190.161L70.3892 106.869Z" fill="white"/>
<path opacity="0.05" d="M152.72 129.357C150.327 127.943 146.4 127.926 143.994 129.318L142.995 129.894C140.588 131.285 140.578 133.58 142.971 134.994L166.659 148.982C169.053 150.397 172.98 150.414 175.386 149.024L176.385 148.446C178.792 147.055 178.802 144.76 176.408 143.348L152.72 129.357Z" fill="#070707"/>
<path d="M176.831 80.2538L153.854 66.9756C150.511 65.0436 147.449 64.7359 145.117 65.7855C144.688 65.9797 144.283 66.2215 143.904 66.5075L140.237 68.6891L141.262 70.4659C140.886 71.6594 140.682 73.0392 140.682 74.5898V101.145C140.682 109.52 146.61 119.796 153.854 123.984L155.002 124.648L161.907 138.359L168.333 133.136L176.83 137.264C178.178 138.042 179.481 138.558 180.706 138.826L181.802 140.723L186.09 138.192C188.503 136.823 190.004 133.864 190.004 129.651V103.093C190.004 94.7187 184.078 84.441 176.831 80.2538Z" fill="#6E9A63"/>
<path d="M157.189 139.331L161.909 138.36L163.53 136.26L160.358 133.879L157.189 139.331Z" fill="#6E9A63"/>
<path d="M173.041 82.5385L150.064 69.2602C142.819 65.0739 136.891 68.4992 136.891 76.8744V103.431C136.891 111.804 142.819 122.081 150.064 126.268L151.213 126.932L157.201 139.332L163.624 134.108L173.042 139.55C180.289 143.738 186.214 140.312 186.214 131.939V105.379C186.213 97.0033 180.288 86.7257 173.041 82.5385Z" fill="#BCE8B1"/>
<path d="M175.597 108.376C175.597 103.317 172.017 97.1068 167.64 94.5768C164.587 92.8122 161.924 93.2906 160.593 95.4557C159.138 92.3719 156.827 89.5732 154.23 88.072C149.853 85.5421 146.273 87.6118 146.273 92.6709C146.273 95.1575 147.141 97.9198 148.541 100.388H148.539L148.541 100.391C149.297 101.725 150.208 102.97 151.223 104.042L162.188 118.963L172.919 113.681C173.046 113.625 173.174 113.568 173.293 113.498L173.305 113.491H173.302C174.719 112.646 175.597 110.878 175.597 108.376Z" fill="white"/>
<path opacity="0.05" d="M279.918 56.5541C277.525 55.1405 273.598 55.1232 271.192 56.5151L270.192 57.0915C267.787 58.4843 267.775 60.7786 270.169 62.1913L293.857 76.1795C296.251 77.5931 300.178 77.6113 302.583 76.2202L303.581 75.6421C305.989 74.2519 306 71.9576 303.605 70.544L279.918 56.5541Z" fill="#070707"/>
<path d="M318.456 50.7465C318.457 39.1834 307.71 24.9899 294.576 19.2071C287.652 16.1571 281.394 16.0331 277.024 18.2901L277.023 18.2883L277.011 18.2962C276.578 18.5198 276.165 18.7711 275.771 19.0433L271.482 21.6227L272.411 22.6896C271.311 24.6155 270.699 26.9712 270.699 29.7179C270.699 38.0974 276.341 47.855 284.445 54.7958L286.22 58.9596L285.129 67.4067L288.366 65.9584L294.068 61.0258C294.238 61.1038 294.407 61.1853 294.576 61.2616C299.506 63.4319 304.097 64.1209 307.912 63.522L308.605 64.3203L312.087 62.1977C312.632 61.9194 313.149 61.6057 313.633 61.2547L313.647 61.2469C316.661 59.0523 318.456 55.4693 318.456 50.7465Z" fill="#6E9A63"/>
<path d="M290.389 21.7262C277.256 15.9434 266.511 20.6731 266.511 32.2388C266.511 40.6192 272.154 50.3777 280.258 57.3167L285.131 67.4097L289.881 63.5458C290.05 63.623 290.218 63.7045 290.389 63.7807C303.522 69.5627 314.266 64.8312 314.266 53.2673C314.269 41.7043 303.522 27.5108 290.389 21.7262Z" fill="#BCE8B1"/>
<path d="M289.297 38.5355C287.438 37.7156 285.915 38.3864 285.915 40.0246C285.915 41.6618 287.438 43.6726 289.297 44.4926C291.158 45.3099 292.679 44.6399 292.679 43.0026C292.68 41.3637 291.158 39.3537 289.297 38.5355Z" fill="white"/>
<path d="M276.437 31.4834C274.578 30.6643 273.056 31.3343 273.056 32.9724C273.056 34.6105 274.578 36.6214 276.437 37.4404C278.298 38.2586 279.818 37.5886 279.818 35.9505C279.821 34.3124 278.299 32.3024 276.437 31.4834Z" fill="white"/>
<path d="M302.698 46.2885C300.836 45.4703 299.315 46.1403 299.315 47.7792C299.315 49.4156 300.837 51.4264 302.698 52.2455C304.557 53.0645 306.079 52.3946 306.079 50.7573C306.08 49.1192 304.558 47.1075 302.698 46.2885Z" fill="white"/>
<path opacity="0.05" d="M187.827 74.5912C185.434 73.1776 181.506 73.1603 179.1 74.5522L178.101 75.1286C175.695 76.5206 175.684 78.8148 178.078 80.2284L261.448 129.69C263.841 131.105 267.767 131.123 270.174 129.732L271.171 129.154C273.579 127.763 273.59 125.469 271.194 124.055L187.827 74.5912Z" fill="#070707"/>
<path d="M188.838 30.6279V83.0546L254.367 120.926V68.497L188.838 30.6279Z" fill="#6E9A63"/>
<path d="M188.838 30.6279L216.008 79.5079L254.367 68.497L188.838 30.6279Z" fill="#E5F6DF"/>
<path d="M188.838 83.0546L210.836 70.2027L188.838 30.6279V83.0546Z" fill="#BCE8B1"/>
<path d="M254.362 68.4951V120.924L227.226 76.2844L254.362 68.4951Z" fill="#BCE8B1"/>
<path d="M188.834 30.6223L194.897 27.5879L260.426 65.457V117.885L254.364 120.921V68.4914L188.834 30.6223Z" fill="#6E9A63"/>
<path d="M249.121 50.3666C240.109 45.1567 232.739 49.4175 232.739 59.8338C232.739 70.2511 240.109 83.0353 249.121 88.2426C258.129 93.4499 265.502 89.1891 265.502 78.7736C265.502 68.3581 258.131 55.5748 249.121 50.3666Z" fill="#F15268"/>
<path d="M237.351 49.3548L237.358 49.3636C237.398 49.3382 237.435 49.3058 237.476 49.2812L237.351 49.3548Z" fill="#E03D58"/>
<path d="M259.825 89.7702L259.834 89.7825L259.939 89.7168C259.899 89.7326 259.864 89.7536 259.825 89.7702Z" fill="#E03D58"/>
<path d="M254.165 47.3255C249.8 44.8007 245.828 44.5173 242.884 46.0626L242.877 46.0514L242.763 46.1198C242.63 46.1918 242.504 46.2715 242.376 46.3512L237.597 49.208C240.562 47.5248 244.634 47.7701 249.114 50.3599C258.123 55.5689 265.495 68.3523 265.495 78.7677C265.495 83.2739 264.11 86.6229 261.815 88.5557L264.51 86.8942C268.187 85.5395 270.548 81.6219 270.548 75.7333C270.548 65.3187 263.177 52.5345 254.165 47.3255Z" fill="#E03D58"/>
<path d="M252.823 73.0624C252.82 73.832 252.381 74.2619 251.834 74.0556L251.658 73.988L251.657 75.8515C251.654 76.6116 251.232 77.025 250.685 76.7997C250.141 76.5726 249.719 75.822 249.72 75.0801L249.722 73.2574L244.209 71.1746L244.191 71.1677L244.174 71.1616C243.961 71.0819 243.751 70.9354 243.575 70.6684C243.135 70.0825 243.082 69.3103 243.417 68.8969L249.947 60.1403C249.964 60.1438 249.964 60.1195 249.982 60.1004C250 60.0805 250.018 60.0597 250.036 60.0164C250.089 60.0034 250.107 59.9834 250.124 59.9635C250.142 59.9427 250.178 59.9262 250.195 59.9063C250.23 59.889 250.248 59.8699 250.301 59.8811C250.318 59.8369 250.336 59.8161 250.371 59.8239C250.389 59.804 250.424 59.8118 250.478 59.7997C250.496 59.804 250.53 59.8118 250.549 59.791C250.583 59.7979 250.636 59.8101 250.671 59.8179C250.671 59.8179 250.69 59.8222 250.707 59.8257C250.725 59.8291 250.725 59.8291 250.742 59.8335C250.778 59.8413 250.832 59.8525 250.849 59.8569C250.884 59.8889 250.902 59.8933 250.937 59.9011C250.953 59.9288 251.007 59.941 251.043 59.973C251.06 59.9765 251.096 60.0086 251.114 60.012C251.149 60.0692 251.184 60.1004 251.201 60.1299C251.236 60.162 251.253 60.1897 251.29 60.2226C251.29 60.2226 251.307 60.2261 251.307 60.2504C251.325 60.2538 251.362 60.2859 251.362 60.311C251.396 60.3665 251.414 60.396 251.433 60.4246C251.449 60.4532 251.466 60.5061 251.484 60.5338C251.501 60.5615 251.519 60.591 251.555 60.6725C251.555 60.6967 251.572 60.7496 251.59 60.7791C251.608 60.832 251.608 60.8562 251.626 60.9342C251.626 60.9585 251.643 61.0114 251.643 61.0356C251.661 61.0894 251.661 61.1136 251.661 61.1873C251.661 61.2358 251.678 61.2644 251.678 61.3138C251.678 61.3381 251.678 61.3624 251.678 61.3867L251.664 71.2934L251.839 71.354C252.385 71.543 252.824 72.3161 252.823 73.0624ZM249.732 64.6958L246.218 69.4022L249.724 70.6199L249.732 64.6958Z" fill="#F15268"/>
<path d="M252.583 68.6016C252.583 70.4974 252.036 72.1502 251.23 73.2899C250.421 74.4334 249.442 74.9572 248.524 74.9572C247.606 74.9572 246.627 74.4334 245.818 73.2899C245.012 72.1502 244.466 70.4974 244.466 68.6016C244.466 66.7059 245.012 65.0531 245.818 63.9133C246.627 62.7699 247.606 62.2461 248.524 62.2461C249.442 62.2461 250.421 62.7699 251.23 63.9133C252.036 65.0531 252.583 66.7059 252.583 68.6016Z" stroke="white" stroke-width="3"/>
<path d="M15.767 338.32L15.467 333.1H17.567L17.267 338.32H15.767ZM19.267 338.32L18.947 333.1H21.047L20.767 338.32H19.267ZM24.4443 348V333.1H26.3443L34.7043 344.64L33.8043 344.78V333.1H36.1443V348H34.2443L25.9443 336.38L26.8043 336.22V348H24.4443ZM44.2295 348.24C43.1895 348.24 42.2361 347.993 41.3695 347.5C40.5161 347.007 39.8361 346.333 39.3295 345.48C38.8228 344.627 38.5695 343.66 38.5695 342.58C38.5695 341.487 38.8228 340.52 39.3295 339.68C39.8361 338.827 40.5161 338.16 41.3695 337.68C42.2228 337.187 43.1761 336.94 44.2295 336.94C45.2961 336.94 46.2495 337.187 47.0895 337.68C47.9428 338.16 48.6161 338.827 49.1095 339.68C49.6161 340.52 49.8695 341.487 49.8695 342.58C49.8695 343.673 49.6161 344.647 49.1095 345.5C48.6028 346.353 47.9228 347.027 47.0695 347.52C46.2161 348 45.2695 348.24 44.2295 348.24ZM44.2295 346.14C44.8695 346.14 45.4361 345.987 45.9295 345.68C46.4228 345.373 46.8095 344.953 47.0895 344.42C47.3828 343.873 47.5295 343.26 47.5295 342.58C47.5295 341.9 47.3828 341.293 47.0895 340.76C46.8095 340.227 46.4228 339.807 45.9295 339.5C45.4361 339.193 44.8695 339.04 44.2295 339.04C43.6028 339.04 43.0361 339.193 42.5295 339.5C42.0361 339.807 41.6428 340.227 41.3495 340.76C41.0695 341.293 40.9295 341.9 40.9295 342.58C40.9295 343.26 41.0695 343.873 41.3495 344.42C41.6428 344.953 42.0361 345.373 42.5295 345.68C43.0361 345.987 43.6028 346.14 44.2295 346.14ZM55.572 348V337.18H57.732V339.3L57.472 339.02C57.7386 338.34 58.1653 337.827 58.752 337.48C59.3386 337.12 60.0186 336.94 60.792 336.94C61.592 336.94 62.2986 337.113 62.912 337.46C63.5253 337.807 64.0053 338.287 64.352 338.9C64.6986 339.513 64.872 340.22 64.872 341.02V348H62.632V341.62C62.632 341.073 62.532 340.613 62.332 340.24C62.132 339.853 61.8453 339.56 61.472 339.36C61.112 339.147 60.6986 339.04 60.232 339.04C59.7653 339.04 59.3453 339.147 58.972 339.36C58.612 339.56 58.332 339.853 58.132 340.24C57.932 340.627 57.832 341.087 57.832 341.62V348H55.572ZM72.3707 348.24C71.2907 348.24 70.3307 347.993 69.4907 347.5C68.664 346.993 68.0174 346.313 67.5507 345.46C67.084 344.593 66.8507 343.627 66.8507 342.56C66.8507 341.467 67.084 340.5 67.5507 339.66C68.0307 338.82 68.6707 338.16 69.4707 337.68C70.2707 337.187 71.1774 336.94 72.1907 336.94C73.004 336.94 73.7307 337.08 74.3707 337.36C75.0107 337.64 75.5507 338.027 75.9907 338.52C76.4307 339 76.764 339.553 76.9907 340.18C77.2307 340.807 77.3507 341.473 77.3507 342.18C77.3507 342.353 77.344 342.533 77.3307 342.72C77.3174 342.907 77.2907 343.08 77.2507 343.24H68.6307V341.44H75.9707L74.8907 342.26C75.024 341.607 74.9774 341.027 74.7507 340.52C74.5374 340 74.204 339.593 73.7507 339.3C73.3107 338.993 72.7907 338.84 72.1907 338.84C71.5907 338.84 71.0574 338.993 70.5907 339.3C70.124 339.593 69.764 340.02 69.5107 340.58C69.2574 341.127 69.1574 341.793 69.2107 342.58C69.144 343.313 69.244 343.953 69.5107 344.5C69.7907 345.047 70.1774 345.473 70.6707 345.78C71.1774 346.087 71.7507 346.24 72.3907 346.24C73.044 346.24 73.5974 346.093 74.0507 345.8C74.5174 345.507 74.884 345.127 75.1507 344.66L76.9907 345.56C76.7774 346.067 76.444 346.527 75.9907 346.94C75.5507 347.34 75.0174 347.66 74.3907 347.9C73.7774 348.127 73.104 348.24 72.3707 348.24ZM82.1763 348L78.4563 337.18H80.8563L83.6963 345.8H82.8563L85.7563 337.18H87.8163L90.6963 345.8H89.8563L92.7163 337.18H95.1163L91.3763 348H89.3363L86.4163 339.18H87.1563L84.2363 348H82.1763ZM100.162 348V337.18H102.322V339.3L102.062 339.02C102.328 338.34 102.755 337.827 103.342 337.48C103.928 337.12 104.608 336.94 105.382 336.94C106.182 336.94 106.888 337.113 107.502 337.46C108.115 337.807 108.595 338.287 108.942 338.9C109.288 339.513 109.462 340.22 109.462 341.02V348H107.222V341.62C107.222 341.073 107.122 340.613 106.922 340.24C106.722 339.853 106.435 339.56 106.062 339.36C105.702 339.147 105.288 339.04 104.822 339.04C104.355 339.04 103.935 339.147 103.562 339.36C103.202 339.56 102.922 339.853 102.722 340.24C102.522 340.627 102.422 341.087 102.422 341.62V348H100.162ZM117.101 348.24C116.061 348.24 115.107 347.993 114.241 347.5C113.387 347.007 112.707 346.333 112.201 345.48C111.694 344.627 111.441 343.66 111.441 342.58C111.441 341.487 111.694 340.52 112.201 339.68C112.707 338.827 113.387 338.16 114.241 337.68C115.094 337.187 116.047 336.94 117.101 336.94C118.167 336.94 119.121 337.187 119.961 337.68C120.814 338.16 121.487 338.827 121.981 339.68C122.487 340.52 122.741 341.487 122.741 342.58C122.741 343.673 122.487 344.647 121.981 345.5C121.474 346.353 120.794 347.027 119.941 347.52C119.087 348 118.141 348.24 117.101 348.24ZM117.101 346.14C117.741 346.14 118.307 345.987 118.801 345.68C119.294 345.373 119.681 344.953 119.961 344.42C120.254 343.873 120.401 343.26 120.401 342.58C120.401 341.9 120.254 341.293 119.961 340.76C119.681 340.227 119.294 339.807 118.801 339.5C118.307 339.193 117.741 339.04 117.101 339.04C116.474 339.04 115.907 339.193 115.401 339.5C114.907 339.807 114.514 340.227 114.221 340.76C113.941 341.293 113.801 341.9 113.801 342.58C113.801 343.26 113.941 343.873 114.221 344.42C114.514 344.953 114.907 345.373 115.401 345.68C115.907 345.987 116.474 346.14 117.101 346.14ZM129.432 348.12C128.298 348.12 127.418 347.8 126.792 347.16C126.165 346.52 125.852 345.62 125.852 344.46V339.22H123.952V337.18H124.252C124.758 337.18 125.152 337.033 125.432 336.74C125.712 336.447 125.852 336.047 125.852 335.54V334.7H128.112V337.18H130.572V339.22H128.112V344.36C128.112 344.733 128.172 345.053 128.292 345.32C128.412 345.573 128.605 345.773 128.872 345.92C129.138 346.053 129.485 346.12 129.912 346.12C130.018 346.12 130.138 346.113 130.272 346.1C130.405 346.087 130.532 346.073 130.652 346.06V348C130.465 348.027 130.258 348.053 130.032 348.08C129.805 348.107 129.605 348.12 129.432 348.12ZM132.857 348V337.18H135.117V348H132.857ZM132.857 335.7V333.1H135.117V335.7H132.857ZM138.979 348V339.22H136.979V337.18H138.979V336.62C138.979 335.807 139.146 335.127 139.479 334.58C139.813 334.02 140.273 333.593 140.859 333.3C141.459 333.007 142.146 332.86 142.919 332.86C143.066 332.86 143.233 332.873 143.419 332.9C143.606 332.913 143.759 332.933 143.879 332.96V334.92C143.773 334.893 143.653 334.88 143.519 334.88C143.386 334.867 143.279 334.86 143.199 334.86C142.599 334.86 142.119 335 141.759 335.28C141.399 335.547 141.219 335.993 141.219 336.62V337.18H146.399V339.22H141.219V348H138.979ZM145.339 348V337.18H147.579V348H145.339ZM155.106 348.24C154.026 348.24 153.066 347.993 152.226 347.5C151.4 346.993 150.74 346.313 150.246 345.46C149.766 344.607 149.526 343.64 149.526 342.56C149.526 341.493 149.766 340.533 150.246 339.68C150.726 338.827 151.386 338.16 152.226 337.68C153.066 337.187 154.026 336.94 155.106 336.94C155.84 336.94 156.526 337.073 157.166 337.34C157.806 337.593 158.36 337.947 158.826 338.4C159.306 338.853 159.66 339.38 159.886 339.98L157.906 340.9C157.68 340.34 157.313 339.893 156.806 339.56C156.313 339.213 155.746 339.04 155.106 339.04C154.493 339.04 153.94 339.193 153.446 339.5C152.966 339.793 152.586 340.213 152.306 340.76C152.026 341.293 151.886 341.9 151.886 342.58C151.886 343.26 152.026 343.873 152.306 344.42C152.586 344.953 152.966 345.373 153.446 345.68C153.94 345.987 154.493 346.14 155.106 346.14C155.76 346.14 156.326 345.973 156.806 345.64C157.3 345.293 157.666 344.833 157.906 344.26L159.886 345.2C159.673 345.773 159.326 346.293 158.846 346.76C158.38 347.213 157.826 347.573 157.186 347.84C156.546 348.107 155.853 348.24 155.106 348.24ZM165.238 348.24C164.504 348.24 163.858 348.113 163.298 347.86C162.751 347.593 162.324 347.233 162.018 346.78C161.711 346.313 161.558 345.767 161.558 345.14C161.558 344.553 161.684 344.027 161.938 343.56C162.204 343.093 162.611 342.7 163.158 342.38C163.704 342.06 164.391 341.833 165.218 341.7L168.978 341.08V342.86L165.658 343.44C165.058 343.547 164.618 343.74 164.338 344.02C164.058 344.287 163.918 344.633 163.918 345.06C163.918 345.473 164.071 345.813 164.378 346.08C164.698 346.333 165.104 346.46 165.598 346.46C166.211 346.46 166.744 346.327 167.198 346.06C167.664 345.793 168.024 345.44 168.278 345C168.531 344.547 168.658 344.047 168.658 343.5V340.72C168.658 340.187 168.458 339.753 168.058 339.42C167.671 339.073 167.151 338.9 166.498 338.9C165.898 338.9 165.371 339.06 164.918 339.38C164.478 339.687 164.151 340.087 163.938 340.58L162.058 339.64C162.258 339.107 162.584 338.64 163.038 338.24C163.491 337.827 164.018 337.507 164.618 337.28C165.231 337.053 165.878 336.94 166.558 336.94C167.411 336.94 168.164 337.1 168.818 337.42C169.484 337.74 169.998 338.187 170.358 338.76C170.731 339.32 170.918 339.973 170.918 340.72V348H168.758V346.04L169.218 346.1C168.964 346.54 168.638 346.92 168.238 347.24C167.851 347.56 167.404 347.807 166.898 347.98C166.404 348.153 165.851 348.24 165.238 348.24ZM178.045 348.12C176.912 348.12 176.032 347.8 175.405 347.16C174.778 346.52 174.465 345.62 174.465 344.46V339.22H172.565V337.18H172.865C173.372 337.18 173.765 337.033 174.045 336.74C174.325 336.447 174.465 336.047 174.465 335.54V334.7H176.725V337.18H179.185V339.22H176.725V344.36C176.725 344.733 176.785 345.053 176.905 345.32C177.025 345.573 177.218 345.773 177.485 345.92C177.752 346.053 178.098 346.12 178.525 346.12C178.632 346.12 178.752 346.113 178.885 346.1C179.018 346.087 179.145 346.073 179.265 346.06V348C179.078 348.027 178.872 348.053 178.645 348.08C178.418 348.107 178.218 348.12 178.045 348.12ZM181.47 348V337.18H183.73V348H181.47ZM181.47 335.7V333.1H183.73V335.7H181.47ZM191.593 348.24C190.553 348.24 189.599 347.993 188.733 347.5C187.879 347.007 187.199 346.333 186.693 345.48C186.186 344.627 185.933 343.66 185.933 342.58C185.933 341.487 186.186 340.52 186.693 339.68C187.199 338.827 187.879 338.16 188.733 337.68C189.586 337.187 190.539 336.94 191.593 336.94C192.659 336.94 193.613 337.187 194.453 337.68C195.306 338.16 195.979 338.827 196.473 339.68C196.979 340.52 197.233 341.487 197.233 342.58C197.233 343.673 196.979 344.647 196.473 345.5C195.966 346.353 195.286 347.027 194.433 347.52C193.579 348 192.633 348.24 191.593 348.24ZM191.593 346.14C192.233 346.14 192.799 345.987 193.293 345.68C193.786 345.373 194.173 344.953 194.453 344.42C194.746 343.873 194.893 343.26 194.893 342.58C194.893 341.9 194.746 341.293 194.453 340.76C194.173 340.227 193.786 339.807 193.293 339.5C192.799 339.193 192.233 339.04 191.593 339.04C190.966 339.04 190.399 339.193 189.893 339.5C189.399 339.807 189.006 340.227 188.713 340.76C188.433 341.293 188.293 341.9 188.293 342.58C188.293 343.26 188.433 343.873 188.713 344.42C189.006 344.953 189.399 345.373 189.893 345.68C190.399 345.987 190.966 346.14 191.593 346.14ZM199.439 348V337.18H201.599V339.3L201.339 339.02C201.606 338.34 202.032 337.827 202.619 337.48C203.206 337.12 203.886 336.94 204.659 336.94C205.459 336.94 206.166 337.113 206.779 337.46C207.392 337.807 207.872 338.287 208.219 338.9C208.566 339.513 208.739 340.22 208.739 341.02V348H206.499V341.62C206.499 341.073 206.399 340.613 206.199 340.24C205.999 339.853 205.712 339.56 205.339 339.36C204.979 339.147 204.566 339.04 204.099 339.04C203.632 339.04 203.212 339.147 202.839 339.36C202.479 339.56 202.199 339.853 201.999 340.24C201.799 340.627 201.699 341.087 201.699 341.62V348H199.439ZM215.158 348.24C214.051 348.24 213.078 347.967 212.238 347.42C211.411 346.873 210.831 346.14 210.498 345.22L212.238 344.4C212.531 345.013 212.931 345.5 213.438 345.86C213.958 346.22 214.531 346.4 215.158 346.4C215.691 346.4 216.125 346.28 216.458 346.04C216.791 345.8 216.958 345.473 216.958 345.06C216.958 344.793 216.885 344.58 216.738 344.42C216.591 344.247 216.405 344.107 216.178 344C215.965 343.893 215.745 343.813 215.518 343.76L213.818 343.28C212.885 343.013 212.185 342.613 211.718 342.08C211.265 341.533 211.038 340.9 211.038 340.18C211.038 339.527 211.205 338.96 211.538 338.48C211.871 337.987 212.331 337.607 212.918 337.34C213.505 337.073 214.165 336.94 214.898 336.94C215.885 336.94 216.765 337.187 217.538 337.68C218.311 338.16 218.858 338.833 219.178 339.7L217.438 340.52C217.225 340 216.885 339.587 216.418 339.28C215.965 338.973 215.451 338.82 214.878 338.82C214.385 338.82 213.991 338.94 213.698 339.18C213.405 339.407 213.258 339.707 213.258 340.08C213.258 340.333 213.325 340.547 213.458 340.72C213.591 340.88 213.765 341.013 213.978 341.12C214.191 341.213 214.411 341.293 214.638 341.36L216.398 341.88C217.291 342.133 217.978 342.533 218.458 343.08C218.938 343.613 219.178 344.253 219.178 345C219.178 345.64 219.005 346.207 218.658 346.7C218.325 347.18 217.858 347.56 217.258 347.84C216.658 348.107 215.958 348.24 215.158 348.24ZM228.128 348.24C227.395 348.24 226.748 348.113 226.188 347.86C225.642 347.593 225.215 347.233 224.908 346.78C224.602 346.313 224.448 345.767 224.448 345.14C224.448 344.553 224.575 344.027 224.828 343.56C225.095 343.093 225.502 342.7 226.048 342.38C226.595 342.06 227.282 341.833 228.108 341.7L231.868 341.08V342.86L228.548 343.44C227.948 343.547 227.508 343.74 227.228 344.02C226.948 344.287 226.808 344.633 226.808 345.06C226.808 345.473 226.962 345.813 227.268 346.08C227.588 346.333 227.995 346.46 228.488 346.46C229.102 346.46 229.635 346.327 230.088 346.06C230.555 345.793 230.915 345.44 231.168 345C231.422 344.547 231.548 344.047 231.548 343.5V340.72C231.548 340.187 231.348 339.753 230.948 339.42C230.562 339.073 230.042 338.9 229.388 338.9C228.788 338.9 228.262 339.06 227.808 339.38C227.368 339.687 227.042 340.087 226.828 340.58L224.948 339.64C225.148 339.107 225.475 338.64 225.928 338.24C226.382 337.827 226.908 337.507 227.508 337.28C228.122 337.053 228.768 336.94 229.448 336.94C230.302 336.94 231.055 337.1 231.708 337.42C232.375 337.74 232.888 338.187 233.248 338.76C233.622 339.32 233.808 339.973 233.808 340.72V348H231.648V346.04L232.108 346.1C231.855 346.54 231.528 346.92 231.128 347.24C230.742 347.56 230.295 347.807 229.788 347.98C229.295 348.153 228.742 348.24 228.128 348.24ZM240.936 348.12C239.802 348.12 238.922 347.8 238.296 347.16C237.669 346.52 237.356 345.62 237.356 344.46V339.22H235.456V337.18H235.756C236.262 337.18 236.656 337.033 236.936 336.74C237.216 336.447 237.356 336.047 237.356 335.54V334.7H239.616V337.18H242.076V339.22H239.616V344.36C239.616 344.733 239.676 345.053 239.796 345.32C239.916 345.573 240.109 345.773 240.376 345.92C240.642 346.053 240.989 346.12 241.416 346.12C241.522 346.12 241.642 346.113 241.776 346.1C241.909 346.087 242.036 346.073 242.156 346.06V348C241.969 348.027 241.762 348.053 241.536 348.08C241.309 348.107 241.109 348.12 240.936 348.12ZM252.537 348.12C251.404 348.12 250.524 347.8 249.897 347.16C249.27 346.52 248.957 345.62 248.957 344.46V339.22H247.057V337.18H247.357C247.864 337.18 248.257 337.033 248.537 336.74C248.817 336.447 248.957 336.047 248.957 335.54V334.7H251.217V337.18H253.677V339.22H251.217V344.36C251.217 344.733 251.277 345.053 251.397 345.32C251.517 345.573 251.71 345.773 251.977 345.92C252.244 346.053 252.59 346.12 253.017 346.12C253.124 346.12 253.244 346.113 253.377 346.1C253.51 346.087 253.637 346.073 253.757 346.06V348C253.57 348.027 253.364 348.053 253.137 348.08C252.91 348.107 252.71 348.12 252.537 348.12ZM255.963 348V332.86H258.223V339.3L257.863 339.02C258.129 338.34 258.556 337.827 259.143 337.48C259.729 337.12 260.409 336.94 261.183 336.94C261.983 336.94 262.689 337.113 263.303 337.46C263.916 337.807 264.396 338.287 264.743 338.9C265.089 339.513 265.263 340.213 265.263 341V348H263.023V341.62C263.023 341.073 262.916 340.613 262.703 340.24C262.503 339.853 262.223 339.56 261.863 339.36C261.503 339.147 261.089 339.04 260.623 339.04C260.169 339.04 259.756 339.147 259.383 339.36C259.023 339.56 258.736 339.853 258.523 340.24C258.323 340.627 258.223 341.087 258.223 341.62V348H255.963ZM272.761 348.24C271.681 348.24 270.721 347.993 269.881 347.5C269.055 346.993 268.408 346.313 267.941 345.46C267.475 344.593 267.241 343.627 267.241 342.56C267.241 341.467 267.475 340.5 267.941 339.66C268.421 338.82 269.061 338.16 269.861 337.68C270.661 337.187 271.568 336.94 272.581 336.94C273.395 336.94 274.121 337.08 274.761 337.36C275.401 337.64 275.941 338.027 276.381 338.52C276.821 339 277.155 339.553 277.381 340.18C277.621 340.807 277.741 341.473 277.741 342.18C277.741 342.353 277.735 342.533 277.721 342.72C277.708 342.907 277.681 343.08 277.641 343.24H269.021V341.44H276.361L275.281 342.26C275.415 341.607 275.368 341.027 275.141 340.52C274.928 340 274.595 339.593 274.141 339.3C273.701 338.993 273.181 338.84 272.581 338.84C271.981 338.84 271.448 338.993 270.981 339.3C270.515 339.593 270.155 340.02 269.901 340.58C269.648 341.127 269.548 341.793 269.601 342.58C269.535 343.313 269.635 343.953 269.901 344.5C270.181 345.047 270.568 345.473 271.061 345.78C271.568 346.087 272.141 346.24 272.781 346.24C273.435 346.24 273.988 346.093 274.441 345.8C274.908 345.507 275.275 345.127 275.541 344.66L277.381 345.56C277.168 346.067 276.835 346.527 276.381 346.94C275.941 347.34 275.408 347.66 274.781 347.9C274.168 348.127 273.495 348.24 272.761 348.24ZM283.443 348V337.18H285.603V339.52L285.323 339.16C285.55 338.427 285.963 337.873 286.563 337.5C287.163 337.127 287.85 336.94 288.623 336.94C289.49 336.94 290.256 337.173 290.923 337.64C291.603 338.093 292.056 338.7 292.283 339.46L291.643 339.52C291.963 338.653 292.45 338.007 293.103 337.58C293.77 337.153 294.53 336.94 295.383 336.94C296.13 336.94 296.803 337.113 297.403 337.46C298.016 337.807 298.503 338.287 298.863 338.9C299.223 339.513 299.403 340.213 299.403 341V348H297.143V341.62C297.143 341.073 297.043 340.613 296.843 340.24C296.656 339.853 296.39 339.56 296.043 339.36C295.71 339.147 295.316 339.04 294.863 339.04C294.41 339.04 294.01 339.147 293.663 339.36C293.316 339.56 293.043 339.853 292.843 340.24C292.643 340.627 292.543 341.087 292.543 341.62V348H290.303V341.62C290.303 341.073 290.203 340.613 290.003 340.24C289.816 339.853 289.55 339.56 289.203 339.36C288.87 339.147 288.47 339.04 288.003 339.04C287.55 339.04 287.15 339.147 286.803 339.36C286.456 339.56 286.183 339.853 285.983 340.24C285.796 340.627 285.703 341.087 285.703 341.62V348H283.443ZM307.042 348.24C306.002 348.24 305.049 347.993 304.182 347.5C303.329 347.007 302.649 346.333 302.142 345.48C301.635 344.627 301.382 343.66 301.382 342.58C301.382 341.487 301.635 340.52 302.142 339.68C302.649 338.827 303.329 338.16 304.182 337.68C305.035 337.187 305.989 336.94 307.042 336.94C308.109 336.94 309.062 337.187 309.902 337.68C310.755 338.16 311.429 338.827 311.922 339.68C312.429 340.52 312.682 341.487 312.682 342.58C312.682 343.673 312.429 344.647 311.922 345.5C311.415 346.353 310.735 347.027 309.882 347.52C309.029 348 308.082 348.24 307.042 348.24ZM307.042 346.14C307.682 346.14 308.249 345.987 308.742 345.68C309.235 345.373 309.622 344.953 309.902 344.42C310.195 343.873 310.342 343.26 310.342 342.58C310.342 341.9 310.195 341.293 309.902 340.76C309.622 340.227 309.235 339.807 308.742 339.5C308.249 339.193 307.682 339.04 307.042 339.04C306.415 339.04 305.849 339.193 305.342 339.5C304.849 339.807 304.455 340.227 304.162 340.76C303.882 341.293 303.742 341.9 303.742 342.58C303.742 343.26 303.882 343.873 304.162 344.42C304.455 344.953 304.849 345.373 305.342 345.68C305.849 345.987 306.415 346.14 307.042 346.14ZM314.888 348V337.18H317.048V339.52L316.768 339.16C316.995 338.427 317.408 337.873 318.008 337.5C318.608 337.127 319.295 336.94 320.068 336.94C320.935 336.94 321.702 337.173 322.368 337.64C323.048 338.093 323.502 338.7 323.728 339.46L323.088 339.52C323.408 338.653 323.895 338.007 324.548 337.58C325.215 337.153 325.975 336.94 326.828 336.94C327.575 336.94 328.248 337.113 328.848 337.46C329.462 337.807 329.948 338.287 330.308 338.9C330.668 339.513 330.848 340.213 330.848 341V348H328.588V341.62C328.588 341.073 328.488 340.613 328.288 340.24C328.102 339.853 327.835 339.56 327.488 339.36C327.155 339.147 326.762 339.04 326.308 339.04C325.855 339.04 325.455 339.147 325.108 339.36C324.762 339.56 324.488 339.853 324.288 340.24C324.088 340.627 323.988 341.087 323.988 341.62V348H321.748V341.62C321.748 341.073 321.648 340.613 321.448 340.24C321.262 339.853 320.995 339.56 320.648 339.36C320.315 339.147 319.915 339.04 319.448 339.04C318.995 339.04 318.595 339.147 318.248 339.36C317.902 339.56 317.628 339.853 317.428 340.24C317.242 340.627 317.148 341.087 317.148 341.62V348H314.888ZM338.347 348.24C337.267 348.24 336.307 347.993 335.467 347.5C334.641 346.993 333.994 346.313 333.527 345.46C333.061 344.593 332.827 343.627 332.827 342.56C332.827 341.467 333.061 340.5 333.527 339.66C334.007 338.82 334.647 338.16 335.447 337.68C336.247 337.187 337.154 336.94 338.167 336.94C338.981 336.94 339.707 337.08 340.347 337.36C340.987 337.64 341.527 338.027 341.967 338.52C342.407 339 342.741 339.553 342.967 340.18C343.207 340.807 343.327 341.473 343.327 342.18C343.327 342.353 343.321 342.533 343.307 342.72C343.294 342.907 343.267 343.08 343.227 343.24H334.607V341.44H341.947L340.867 342.26C341.001 341.607 340.954 341.027 340.727 340.52C340.514 340 340.181 339.593 339.727 339.3C339.287 338.993 338.767 338.84 338.167 338.84C337.567 338.84 337.034 338.993 336.567 339.3C336.101 339.593 335.741 340.02 335.487 340.58C335.234 341.127 335.134 341.793 335.187 342.58C335.121 343.313 335.221 343.953 335.487 344.5C335.767 345.047 336.154 345.473 336.647 345.78C337.154 346.087 337.727 346.24 338.367 346.24C339.021 346.24 339.574 346.093 340.027 345.8C340.494 345.507 340.861 345.127 341.127 344.66L342.967 345.56C342.754 346.067 342.421 346.527 341.967 346.94C341.527 347.34 340.994 347.66 340.367 347.9C339.754 348.127 339.081 348.24 338.347 348.24ZM345.533 348V337.18H347.693V339.3L347.433 339.02C347.7 338.34 348.126 337.827 348.713 337.48C349.3 337.12 349.98 336.94 350.753 336.94C351.553 336.94 352.26 337.113 352.873 337.46C353.486 337.807 353.966 338.287 354.313 338.9C354.66 339.513 354.833 340.22 354.833 341.02V348H352.593V341.62C352.593 341.073 352.493 340.613 352.293 340.24C352.093 339.853 351.806 339.56 351.433 339.36C351.073 339.147 350.66 339.04 350.193 339.04C349.726 339.04 349.306 339.147 348.933 339.36C348.573 339.56 348.293 339.853 348.093 340.24C347.893 340.627 347.793 341.087 347.793 341.62V348H345.533ZM361.932 348.12C360.798 348.12 359.918 347.8 359.292 347.16C358.665 346.52 358.352 345.62 358.352 344.46V339.22H356.452V337.18H356.752C357.258 337.18 357.652 337.033 357.932 336.74C358.212 336.447 358.352 336.047 358.352 335.54V334.7H360.612V337.18H363.072V339.22H360.612V344.36C360.612 344.733 360.672 345.053 360.792 345.32C360.912 345.573 361.105 345.773 361.372 345.92C361.638 346.053 361.985 346.12 362.412 346.12C362.518 346.12 362.638 346.113 362.772 346.1C362.905 346.087 363.032 346.073 363.152 346.06V348C362.965 348.027 362.758 348.053 362.532 348.08C362.305 348.107 362.105 348.12 361.932 348.12ZM366.357 348V345.4H368.657V348H366.357ZM381.227 348.24C380.293 348.24 379.427 348.067 378.627 347.72C377.827 347.36 377.147 346.873 376.587 346.26C376.027 345.647 375.613 344.94 375.347 344.14L377.347 343.3C377.707 344.22 378.233 344.927 378.927 345.42C379.62 345.913 380.42 346.16 381.327 346.16C381.86 346.16 382.327 346.08 382.727 345.92C383.127 345.747 383.433 345.507 383.647 345.2C383.873 344.893 383.987 344.54 383.987 344.14C383.987 343.593 383.833 343.16 383.527 342.84C383.22 342.52 382.767 342.267 382.167 342.08L379.367 341.2C378.247 340.853 377.393 340.327 376.807 339.62C376.22 338.9 375.927 338.06 375.927 337.1C375.927 336.26 376.133 335.527 376.547 334.9C376.96 334.26 377.527 333.76 378.247 333.4C378.98 333.04 379.813 332.86 380.747 332.86C381.64 332.86 382.453 333.02 383.187 333.34C383.92 333.647 384.547 334.073 385.067 334.62C385.6 335.167 385.987 335.8 386.227 336.52L384.267 337.38C383.973 336.593 383.513 335.987 382.887 335.56C382.273 335.133 381.56 334.92 380.747 334.92C380.253 334.92 379.82 335.007 379.447 335.18C379.073 335.34 378.78 335.58 378.567 335.9C378.367 336.207 378.267 336.567 378.267 336.98C378.267 337.46 378.42 337.887 378.727 338.26C379.033 338.633 379.5 338.913 380.127 339.1L382.727 339.92C383.913 340.28 384.807 340.8 385.407 341.48C386.007 342.147 386.307 342.98 386.307 343.98C386.307 344.807 386.087 345.54 385.647 346.18C385.22 346.82 384.627 347.327 383.867 347.7C383.107 348.06 382.227 348.24 381.227 348.24ZM393.416 348.12C392.283 348.12 391.403 347.8 390.776 347.16C390.149 346.52 389.836 345.62 389.836 344.46V339.22H387.936V337.18H388.236C388.743 337.18 389.136 337.033 389.416 336.74C389.696 336.447 389.836 336.047 389.836 335.54V334.7H392.096V337.18H394.556V339.22H392.096V344.36C392.096 344.733 392.156 345.053 392.276 345.32C392.396 345.573 392.589 345.773 392.856 345.92C393.123 346.053 393.469 346.12 393.896 346.12C394.003 346.12 394.123 346.113 394.256 346.1C394.389 346.087 394.516 346.073 394.636 346.06V348C394.449 348.027 394.243 348.053 394.016 348.08C393.789 348.107 393.589 348.12 393.416 348.12ZM399.984 348.24C399.25 348.24 398.604 348.113 398.044 347.86C397.497 347.593 397.07 347.233 396.764 346.78C396.457 346.313 396.304 345.767 396.304 345.14C396.304 344.553 396.43 344.027 396.684 343.56C396.95 343.093 397.357 342.7 397.904 342.38C398.45 342.06 399.137 341.833 399.964 341.7L403.724 341.08V342.86L400.404 343.44C399.804 343.547 399.364 343.74 399.084 344.02C398.804 344.287 398.664 344.633 398.664 345.06C398.664 345.473 398.817 345.813 399.124 346.08C399.444 346.333 399.85 346.46 400.344 346.46C400.957 346.46 401.49 346.327 401.944 346.06C402.41 345.793 402.77 345.44 403.024 345C403.277 344.547 403.404 344.047 403.404 343.5V340.72C403.404 340.187 403.204 339.753 402.804 339.42C402.417 339.073 401.897 338.9 401.244 338.9C400.644 338.9 400.117 339.06 399.664 339.38C399.224 339.687 398.897 340.087 398.684 340.58L396.804 339.64C397.004 339.107 397.33 338.64 397.784 338.24C398.237 337.827 398.764 337.507 399.364 337.28C399.977 337.053 400.624 336.94 401.304 336.94C402.157 336.94 402.91 337.1 403.564 337.42C404.23 337.74 404.744 338.187 405.104 338.76C405.477 339.32 405.664 339.973 405.664 340.72V348H403.504V346.04L403.964 346.1C403.71 346.54 403.384 346.92 402.984 347.24C402.597 347.56 402.15 347.807 401.644 347.98C401.15 348.153 400.597 348.24 399.984 348.24ZM409.266 352.42C409 352.42 408.733 352.393 408.466 352.34C408.213 352.3 407.98 352.233 407.766 352.14V350.2C407.926 350.24 408.12 350.273 408.346 350.3C408.573 350.34 408.793 350.36 409.006 350.36C409.633 350.36 410.093 350.22 410.386 349.94C410.693 349.673 410.966 349.253 411.206 348.68L411.926 347.04L411.886 348.94L407.206 337.18H409.626L413.086 346.2H412.266L415.706 337.18H418.146L413.366 349.18C413.113 349.82 412.793 350.38 412.406 350.86C412.033 351.353 411.586 351.733 411.066 352C410.56 352.28 409.96 352.42 409.266 352.42ZM127.732 372.12C126.599 372.12 125.719 371.8 125.092 371.16C124.466 370.52 124.152 369.62 124.152 368.46V363.22H122.252V361.18H122.552C123.059 361.18 123.452 361.033 123.732 360.74C124.012 360.447 124.152 360.047 124.152 359.54V358.7H126.412V361.18H128.872V363.22H126.412V368.36C126.412 368.733 126.472 369.053 126.592 369.32C126.712 369.573 126.906 369.773 127.172 369.92C127.439 370.053 127.786 370.12 128.212 370.12C128.319 370.12 128.439 370.113 128.572 370.1C128.706 370.087 128.832 370.073 128.952 370.06V372C128.766 372.027 128.559 372.053 128.332 372.08C128.106 372.107 127.906 372.12 127.732 372.12ZM135.018 372.24C134.205 372.24 133.491 372.06 132.878 371.7C132.265 371.327 131.785 370.813 131.438 370.16C131.105 369.493 130.938 368.727 130.938 367.86V361.18H133.198V367.66C133.198 368.153 133.298 368.587 133.498 368.96C133.698 369.333 133.978 369.627 134.338 369.84C134.698 370.04 135.111 370.14 135.578 370.14C136.058 370.14 136.478 370.033 136.838 369.82C137.198 369.607 137.478 369.307 137.678 368.92C137.891 368.533 137.998 368.08 137.998 367.56V361.18H140.238V372H138.098V369.88L138.338 370.16C138.085 370.827 137.665 371.34 137.078 371.7C136.491 372.06 135.805 372.24 135.018 372.24ZM142.877 372V361.18H145.037V363.3L144.777 363.02C145.043 362.34 145.47 361.827 146.057 361.48C146.643 361.12 147.323 360.94 148.097 360.94C148.897 360.94 149.603 361.113 150.217 361.46C150.83 361.807 151.31 362.287 151.657 362.9C152.003 363.513 152.177 364.22 152.177 365.02V372H149.937V365.62C149.937 365.073 149.837 364.613 149.637 364.24C149.437 363.853 149.15 363.56 148.777 363.36C148.417 363.147 148.003 363.04 147.537 363.04C147.07 363.04 146.65 363.147 146.277 363.36C145.917 363.56 145.637 363.853 145.437 364.24C145.237 364.627 145.137 365.087 145.137 365.62V372H142.877ZM159.675 372.24C158.595 372.24 157.635 371.993 156.795 371.5C155.969 370.993 155.322 370.313 154.855 369.46C154.389 368.593 154.155 367.627 154.155 366.56C154.155 365.467 154.389 364.5 154.855 363.66C155.335 362.82 155.975 362.16 156.775 361.68C157.575 361.187 158.482 360.94 159.495 360.94C160.309 360.94 161.035 361.08 161.675 361.36C162.315 361.64 162.855 362.027 163.295 362.52C163.735 363 164.069 363.553 164.295 364.18C164.535 364.807 164.655 365.473 164.655 366.18C164.655 366.353 164.649 366.533 164.635 366.72C164.622 366.907 164.595 367.08 164.555 367.24H155.935V365.44H163.275L162.195 366.26C162.329 365.607 162.282 365.027 162.055 364.52C161.842 364 161.509 363.593 161.055 363.3C160.615 362.993 160.095 362.84 159.495 362.84C158.895 362.84 158.362 362.993 157.895 363.3C157.429 363.593 157.069 364.02 156.815 364.58C156.562 365.127 156.462 365.793 156.515 366.58C156.449 367.313 156.549 367.953 156.815 368.5C157.095 369.047 157.482 369.473 157.975 369.78C158.482 370.087 159.055 370.24 159.695 370.24C160.349 370.24 160.902 370.093 161.355 369.8C161.822 369.507 162.189 369.127 162.455 368.66L164.295 369.56C164.082 370.067 163.749 370.527 163.295 370.94C162.855 371.34 162.322 371.66 161.695 371.9C161.082 372.127 160.409 372.24 159.675 372.24ZM171.861 372.24C170.821 372.24 169.888 371.993 169.061 371.5C168.248 370.993 167.601 370.313 167.121 369.46C166.654 368.607 166.421 367.647 166.421 366.58C166.421 365.513 166.661 364.553 167.141 363.7C167.621 362.847 168.268 362.173 169.081 361.68C169.894 361.187 170.814 360.94 171.841 360.94C172.708 360.94 173.474 361.113 174.141 361.46C174.808 361.807 175.334 362.287 175.721 362.9L175.381 363.42V356.86H177.621V372H175.481V369.8L175.741 370.22C175.368 370.873 174.834 371.373 174.141 371.72C173.448 372.067 172.688 372.24 171.861 372.24ZM172.081 370.14C172.708 370.14 173.268 369.987 173.761 369.68C174.268 369.373 174.661 368.953 174.941 368.42C175.234 367.873 175.381 367.26 175.381 366.58C175.381 365.9 175.234 365.293 174.941 364.76C174.661 364.227 174.268 363.807 173.761 363.5C173.268 363.193 172.708 363.04 172.081 363.04C171.454 363.04 170.888 363.193 170.381 363.5C169.874 363.807 169.481 364.227 169.201 364.76C168.921 365.293 168.781 365.9 168.781 366.58C168.781 367.26 168.921 367.873 169.201 368.42C169.481 368.953 169.868 369.373 170.361 369.68C170.868 369.987 171.441 370.14 172.081 370.14ZM184.976 372V363.22H182.976V361.18H184.976V360.62C184.976 359.807 185.142 359.127 185.476 358.58C185.809 358.02 186.269 357.593 186.856 357.3C187.456 357.007 188.142 356.86 188.916 356.86C189.062 356.86 189.229 356.873 189.416 356.9C189.602 356.913 189.756 356.933 189.876 356.96V358.92C189.769 358.893 189.649 358.88 189.516 358.88C189.382 358.867 189.276 358.86 189.196 358.86C188.596 358.86 188.116 359 187.756 359.28C187.396 359.547 187.216 359.993 187.216 360.62V361.18H189.696V363.22H187.216V372H184.976ZM196.612 372.24C195.572 372.24 194.619 371.993 193.752 371.5C192.899 371.007 192.219 370.333 191.712 369.48C191.206 368.627 190.952 367.66 190.952 366.58C190.952 365.487 191.206 364.52 191.712 363.68C192.219 362.827 192.899 362.16 193.752 361.68C194.606 361.187 195.559 360.94 196.612 360.94C197.679 360.94 198.632 361.187 199.472 361.68C200.326 362.16 200.999 362.827 201.492 363.68C201.999 364.52 202.252 365.487 202.252 366.58C202.252 367.673 201.999 368.647 201.492 369.5C200.986 370.353 200.306 371.027 199.452 371.52C198.599 372 197.652 372.24 196.612 372.24ZM196.612 370.14C197.252 370.14 197.819 369.987 198.312 369.68C198.806 369.373 199.192 368.953 199.472 368.42C199.766 367.873 199.912 367.26 199.912 366.58C199.912 365.9 199.766 365.293 199.472 364.76C199.192 364.227 198.806 363.807 198.312 363.5C197.819 363.193 197.252 363.04 196.612 363.04C195.986 363.04 195.419 363.193 194.912 363.5C194.419 363.807 194.026 364.227 193.732 364.76C193.452 365.293 193.312 365.9 193.312 366.58C193.312 367.26 193.452 367.873 193.732 368.42C194.026 368.953 194.419 369.373 194.912 369.68C195.419 369.987 195.986 370.14 196.612 370.14ZM204.459 372V361.18H206.619V363.36L206.419 363.04C206.659 362.333 207.045 361.827 207.579 361.52C208.112 361.2 208.752 361.04 209.499 361.04H210.159V363.1H209.219C208.472 363.1 207.865 363.333 207.399 363.8C206.945 364.253 206.719 364.907 206.719 365.76V372H204.459ZM219.061 372.24C218.248 372.24 217.534 372.06 216.921 371.7C216.308 371.327 215.828 370.813 215.481 370.16C215.148 369.493 214.981 368.727 214.981 367.86V361.18H217.241V367.66C217.241 368.153 217.341 368.587 217.541 368.96C217.741 369.333 218.021 369.627 218.381 369.84C218.741 370.04 219.154 370.14 219.621 370.14C220.101 370.14 220.521 370.033 220.881 369.82C221.241 369.607 221.521 369.307 221.721 368.92C221.934 368.533 222.041 368.08 222.041 367.56V361.18H224.281V372H222.141V369.88L222.381 370.16C222.128 370.827 221.708 371.34 221.121 371.7C220.534 372.06 219.848 372.24 219.061 372.24ZM226.92 376V361.18H229.08V363.42L228.82 362.9C229.22 362.287 229.753 361.807 230.42 361.46C231.086 361.113 231.846 360.94 232.7 360.94C233.726 360.94 234.646 361.187 235.46 361.68C236.286 362.173 236.933 362.847 237.4 363.7C237.88 364.553 238.12 365.513 238.12 366.58C238.12 367.647 237.88 368.607 237.4 369.46C236.933 370.313 236.293 370.993 235.48 371.5C234.666 371.993 233.74 372.24 232.7 372.24C231.86 372.24 231.093 372.067 230.4 371.72C229.72 371.373 229.193 370.873 228.82 370.22L229.18 369.8V376H226.92ZM232.48 370.14C233.12 370.14 233.686 369.987 234.18 369.68C234.673 369.373 235.06 368.953 235.34 368.42C235.633 367.873 235.78 367.26 235.78 366.58C235.78 365.9 235.633 365.293 235.34 364.76C235.06 364.227 234.673 363.807 234.18 363.5C233.686 363.193 233.12 363.04 232.48 363.04C231.853 363.04 231.286 363.193 230.78 363.5C230.286 363.807 229.893 364.227 229.6 364.76C229.32 365.293 229.18 365.9 229.18 366.58C229.18 367.26 229.32 367.873 229.6 368.42C229.893 368.953 230.286 369.373 230.78 369.68C231.286 369.987 231.853 370.14 232.48 370.14ZM245.318 372.24C244.278 372.24 243.345 371.993 242.518 371.5C241.705 370.993 241.058 370.313 240.578 369.46C240.111 368.607 239.878 367.647 239.878 366.58C239.878 365.513 240.118 364.553 240.598 363.7C241.078 362.847 241.725 362.173 242.538 361.68C243.351 361.187 244.271 360.94 245.298 360.94C246.165 360.94 246.931 361.113 247.598 361.46C248.265 361.807 248.791 362.287 249.178 362.9L248.838 363.42V356.86H251.078V372H248.938V369.8L249.198 370.22C248.825 370.873 248.291 371.373 247.598 371.72C246.905 372.067 246.145 372.24 245.318 372.24ZM245.538 370.14C246.165 370.14 246.725 369.987 247.218 369.68C247.725 369.373 248.118 368.953 248.398 368.42C248.691 367.873 248.838 367.26 248.838 366.58C248.838 365.9 248.691 365.293 248.398 364.76C248.118 364.227 247.725 363.807 247.218 363.5C246.725 363.193 246.165 363.04 245.538 363.04C244.911 363.04 244.345 363.193 243.838 363.5C243.331 363.807 242.938 364.227 242.658 364.76C242.378 365.293 242.238 365.9 242.238 366.58C242.238 367.26 242.378 367.873 242.658 368.42C242.938 368.953 243.325 369.373 243.818 369.68C244.325 369.987 244.898 370.14 245.538 370.14ZM256.956 372.24C256.223 372.24 255.576 372.113 255.016 371.86C254.47 371.593 254.043 371.233 253.736 370.78C253.43 370.313 253.276 369.767 253.276 369.14C253.276 368.553 253.403 368.027 253.656 367.56C253.923 367.093 254.33 366.7 254.876 366.38C255.423 366.06 256.11 365.833 256.936 365.7L260.696 365.08V366.86L257.376 367.44C256.776 367.547 256.336 367.74 256.056 368.02C255.776 368.287 255.636 368.633 255.636 369.06C255.636 369.473 255.79 369.813 256.096 370.08C256.416 370.333 256.823 370.46 257.316 370.46C257.93 370.46 258.463 370.327 258.916 370.06C259.383 369.793 259.743 369.44 259.996 369C260.25 368.547 260.376 368.047 260.376 367.5V364.72C260.376 364.187 260.176 363.753 259.776 363.42C259.39 363.073 258.87 362.9 258.216 362.9C257.616 362.9 257.09 363.06 256.636 363.38C256.196 363.687 255.87 364.087 255.656 364.58L253.776 363.64C253.976 363.107 254.303 362.64 254.756 362.24C255.21 361.827 255.736 361.507 256.336 361.28C256.95 361.053 257.596 360.94 258.276 360.94C259.13 360.94 259.883 361.1 260.536 361.42C261.203 361.74 261.716 362.187 262.076 362.76C262.45 363.32 262.636 363.973 262.636 364.72V372H260.476V370.04L260.936 370.1C260.683 370.54 260.356 370.92 259.956 371.24C259.57 371.56 259.123 371.807 258.616 371.98C258.123 372.153 257.57 372.24 256.956 372.24ZM269.764 372.12C268.63 372.12 267.75 371.8 267.124 371.16C266.497 370.52 266.184 369.62 266.184 368.46V363.22H264.284V361.18H264.584C265.09 361.18 265.484 361.033 265.764 360.74C266.044 360.447 266.184 360.047 266.184 359.54V358.7H268.444V361.18H270.904V363.22H268.444V368.36C268.444 368.733 268.504 369.053 268.624 369.32C268.744 369.573 268.937 369.773 269.204 369.92C269.47 370.053 269.817 370.12 270.244 370.12C270.35 370.12 270.47 370.113 270.604 370.1C270.737 370.087 270.864 370.073 270.984 370.06V372C270.797 372.027 270.59 372.053 270.364 372.08C270.137 372.107 269.937 372.12 269.764 372.12ZM278.074 372.24C276.994 372.24 276.034 371.993 275.194 371.5C274.367 370.993 273.72 370.313 273.254 369.46C272.787 368.593 272.554 367.627 272.554 366.56C272.554 365.467 272.787 364.5 273.254 363.66C273.734 362.82 274.374 362.16 275.174 361.68C275.974 361.187 276.88 360.94 277.894 360.94C278.707 360.94 279.434 361.08 280.074 361.36C280.714 361.64 281.254 362.027 281.694 362.52C282.134 363 282.467 363.553 282.694 364.18C282.934 364.807 283.054 365.473 283.054 366.18C283.054 366.353 283.047 366.533 283.034 366.72C283.02 366.907 282.994 367.08 282.954 367.24H274.334V365.44H281.674L280.594 366.26C280.727 365.607 280.68 365.027 280.454 364.52C280.24 364 279.907 363.593 279.454 363.3C279.014 362.993 278.494 362.84 277.894 362.84C277.294 362.84 276.76 362.993 276.294 363.3C275.827 363.593 275.467 364.02 275.214 364.58C274.96 365.127 274.86 365.793 274.914 366.58C274.847 367.313 274.947 367.953 275.214 368.5C275.494 369.047 275.88 369.473 276.374 369.78C276.88 370.087 277.454 370.24 278.094 370.24C278.747 370.24 279.3 370.093 279.754 369.8C280.22 369.507 280.587 369.127 280.854 368.66L282.694 369.56C282.48 370.067 282.147 370.527 281.694 370.94C281.254 371.34 280.72 371.66 280.094 371.9C279.48 372.127 278.807 372.24 278.074 372.24ZM289.259 372.24C288.153 372.24 287.179 371.967 286.339 371.42C285.513 370.873 284.933 370.14 284.599 369.22L286.339 368.4C286.633 369.013 287.033 369.5 287.539 369.86C288.059 370.22 288.633 370.4 289.259 370.4C289.793 370.4 290.226 370.28 290.559 370.04C290.893 369.8 291.059 369.473 291.059 369.06C291.059 368.793 290.986 368.58 290.839 368.42C290.693 368.247 290.506 368.107 290.279 368C290.066 367.893 289.846 367.813 289.619 367.76L287.919 367.28C286.986 367.013 286.286 366.613 285.819 366.08C285.366 365.533 285.139 364.9 285.139 364.18C285.139 363.527 285.306 362.96 285.639 362.48C285.973 361.987 286.433 361.607 287.019 361.34C287.606 361.073 288.266 360.94 288.999 360.94C289.986 360.94 290.866 361.187 291.639 361.68C292.413 362.16 292.959 362.833 293.279 363.7L291.539 364.52C291.326 364 290.986 363.587 290.519 363.28C290.066 362.973 289.553 362.82 288.979 362.82C288.486 362.82 288.093 362.94 287.799 363.18C287.506 363.407 287.359 363.707 287.359 364.08C287.359 364.333 287.426 364.547 287.559 364.72C287.693 364.88 287.866 365.013 288.079 365.12C288.293 365.213 288.513 365.293 288.739 365.36L290.499 365.88C291.393 366.133 292.079 366.533 292.559 367.08C293.039 367.613 293.279 368.253 293.279 369C293.279 369.64 293.106 370.207 292.759 370.7C292.426 371.18 291.959 371.56 291.359 371.84C290.759 372.107 290.059 372.24 289.259 372.24ZM296.594 367.56L296.434 357.1H298.734L298.594 367.56H296.594ZM296.434 372V369.4H298.734V372H296.434ZM303.13 362.32L302.83 357.1H304.93L304.63 362.32H303.13ZM306.63 362.32L306.31 357.1H308.41L308.13 362.32H306.63Z" fill="#040404"/>
<defs>
<linearGradient id="paint0_linear_38_14132" x1="70.3887" y1="98.7721" x2="382.432" y2="98.7721" gradientUnits="userSpaceOnUse">
<stop stop-color="#DBFFCA"/>
<stop offset="1" stop-color="#FCFF6A"/>
</linearGradient>
</defs>
</svg>
