<svg width="650" height="650" viewBox="0 0 650 650" fill="none" xmlns="http://www.w3.org/2000/svg">
<path d="M650 497.117H0V497.442H650V497.117Z" fill="#EBEBEB"/>
<path d="M584.871 518.042H541.812V518.367H584.871V518.042Z" fill="#EBEBEB"/>
<path d="M430.586 521.57H419.285V521.895H430.586V521.57Z" fill="#EBEBEB"/>
<path d="M540.512 505.97H515.562V506.295H540.512V505.97Z" fill="#EBEBEB"/>
<path d="M124.348 508.156H68.1968V508.481H124.348V508.156Z" fill="#EBEBEB"/>
<path d="M144.156 508.156H135.923V508.481H144.156V508.156Z" fill="#EBEBEB"/>
<path d="M292.691 513.645H170.913V513.97H292.691V513.645Z" fill="#EBEBEB"/>
<path d="M308.118 439.14H57.0893C52.9982 439.14 49.6689 435.811 49.6689 431.719V78.8579C49.6689 74.7668 52.9982 71.4375 57.0893 71.4375H308.118C312.208 71.4375 315.537 74.7668 315.537 78.8579V431.719C315.537 435.811 312.208 439.14 308.118 439.14ZM57.0893 71.7638C53.1763 71.7638 49.9939 74.9462 49.9939 78.8592V431.721C49.9939 435.634 53.1763 438.816 57.0893 438.816H308.118C312.03 438.816 315.212 435.634 315.212 431.721V78.8579C315.212 74.9462 312.03 71.7625 308.118 71.7625L57.0893 71.7638Z" fill="#EBEBEB"/>
<path d="M589.303 439.14H338.276C334.184 439.14 330.856 435.811 330.856 431.719V78.8579C330.856 74.7668 334.186 71.4375 338.276 71.4375H589.303C593.395 71.4375 596.723 74.7668 596.723 78.8579V431.719C596.725 435.811 593.395 439.14 589.303 439.14ZM338.276 71.7638C334.364 71.7638 331.181 74.9462 331.181 78.8592V431.721C331.181 435.634 334.364 438.816 338.276 438.816H589.303C593.216 438.816 596.398 435.634 596.398 431.721V78.8579C596.398 74.9462 593.216 71.7625 589.303 71.7625L338.276 71.7638Z" fill="#EBEBEB"/>
<path d="M86.836 497.117H263.245L263.245 124.293H86.836L86.836 497.117Z" fill="#E6E6E6"/>
<path d="M82.9161 497.117H259.325L259.325 124.293H82.9161L82.9161 497.117Z" fill="#F5F5F5"/>
<path d="M252.288 489.214L252.288 132.198L89.9526 132.198L89.9526 489.214L252.288 489.214Z" fill="#FAFAFA"/>
<path d="M214.9 489.214L173.776 132.198H127.34L168.463 489.214H214.9Z" fill="white"/>
<path d="M92.916 489.213L92.916 132.198H89.952L89.952 489.213H92.916Z" fill="#E6E6E6"/>
<path d="M85.8268 173.733L256.414 173.733V163.121L85.8268 163.121V173.733Z" fill="#F5F5F5"/>
<path d="M356.495 497.118L356.495 280.798H285.269L285.269 497.118H356.495Z" fill="#F0F0F0"/>
<path d="M352.584 350.526V287.12H289.178V350.526H352.584Z" fill="#F5F5F5"/>
<path d="M352.585 419.625V356.219H289.179V419.625H352.585Z" fill="#F5F5F5"/>
<path d="M352.584 488.723V425.317H289.178V488.723H352.584Z" fill="#F5F5F5"/>
<path d="M334.915 286.281H306.847C306.847 289.912 309.79 292.855 313.421 292.855H328.34C331.972 292.856 334.915 289.912 334.915 286.281Z" fill="#E6E6E6"/>
<path d="M334.915 355.379H306.847C306.847 359.01 309.79 361.954 313.421 361.954H328.34C331.972 361.954 334.915 359.01 334.915 355.379Z" fill="#E6E6E6"/>
<path d="M334.915 424.477H306.847C306.847 428.108 309.79 431.051 313.421 431.051H328.34C331.972 431.051 334.915 428.108 334.915 424.477Z" fill="#E6E6E6"/>
<path d="M392.069 497.117L392.069 280.797H356.495L356.495 497.117H392.069Z" fill="#F5F5F5"/>
<path d="M546.636 491.802H566.384V328.944H546.636V491.802Z" fill="#F0F0F0"/>
<path d="M374.03 497.118H563.647V491.802H374.03V497.118Z" fill="#F0F0F0"/>
<path d="M546.635 328.945H371.293V491.802H546.635V328.945Z" fill="#FAFAFA"/>
<path d="M405.623 424.111H512.306C522.779 424.111 531.298 415.59 531.298 405.117C531.298 394.645 522.777 386.125 512.306 386.125H405.623C395.15 386.125 386.631 394.645 386.631 405.117C386.631 415.59 395.151 424.111 405.623 424.111ZM512.307 387.401C522.077 387.401 530.025 395.349 530.025 405.117C530.025 414.887 522.077 422.834 512.307 422.834H405.624C395.854 422.834 387.906 414.886 387.906 405.117C387.906 395.348 395.854 387.401 405.624 387.401H512.307Z" fill="#F0F0F0"/>
<path d="M405.623 471.36H512.306C522.779 471.36 531.298 462.84 531.298 452.367C531.298 441.894 522.777 433.374 512.306 433.374H405.623C395.15 433.374 386.631 441.894 386.631 452.367C386.631 462.84 395.151 471.36 405.623 471.36ZM512.307 434.651C522.077 434.651 530.025 442.599 530.025 452.367C530.025 462.137 522.077 470.083 512.307 470.083H405.624C395.854 470.083 387.906 462.135 387.906 452.367C387.906 442.598 395.854 434.651 405.624 434.651H512.307Z" fill="#F0F0F0"/>
<path d="M442.866 401.021H475.062C477.241 401.021 479.024 399.237 479.024 397.059C479.024 394.878 477.241 393.096 475.062 393.096H442.866C440.687 393.096 438.904 394.88 438.904 397.059C438.904 399.237 440.687 401.021 442.866 401.021Z" fill="#EBEBEB"/>
<path d="M405.623 376.861H512.306C522.779 376.861 531.298 368.34 531.298 357.867C531.298 347.395 522.777 338.875 512.306 338.875H405.623C395.15 338.875 386.631 347.395 386.631 357.867C386.631 368.339 395.151 376.861 405.623 376.861ZM512.307 340.15C522.077 340.15 530.025 348.098 530.025 357.866C530.025 367.636 522.077 375.583 512.307 375.583H405.624C395.854 375.583 387.906 367.634 387.906 357.866C387.906 348.097 395.854 340.15 405.624 340.15H512.307Z" fill="#F0F0F0"/>
<path d="M442.866 353.771H475.062C477.241 353.771 479.024 351.988 479.024 349.809C479.024 347.63 477.241 345.847 475.062 345.847H442.866C440.687 345.847 438.904 347.63 438.904 349.809C438.904 351.988 440.687 353.771 442.866 353.771Z" fill="#EBEBEB"/>
<path d="M442.866 448.271H475.062C477.241 448.271 479.024 446.487 479.024 444.309C479.024 442.13 477.241 440.346 475.062 440.346H442.866C440.687 440.346 438.904 442.13 438.904 444.309C438.904 446.489 440.687 448.271 442.866 448.271Z" fill="#EBEBEB"/>
<path d="M367.689 328.944H546.636V320.666H367.689V328.944Z" fill="#F0F0F0"/>
<path d="M570.252 320.667H546.635V328.945H570.252V320.667Z" fill="#E6E6E6"/>
<path d="M418.633 190.304C422.62 192.305 433.436 190.156 429.831 197.475C428.136 200.915 425.377 204.589 422.439 208.213C418.412 213.18 419.172 218.569 423.928 220.525C425.082 221 426.024 221.59 426.557 222.353C428.748 225.493 423.574 229.705 421.034 232.849C418.579 235.888 417.469 239.089 419.346 241.431C421.419 244.014 425.738 243.065 429.167 243.845C437.418 245.721 428.933 257.097 429.809 262.943C430.408 266.945 433.653 268.06 438.062 268.625C441.658 269.087 446.459 269.409 446.659 273.096C446.832 276.286 442.677 279.903 441.588 283.257C440.529 286.516 440.89 289.683 442.388 292.094C443.725 294.25 445.935 295.708 448.86 296.33C452.946 297.198 459.126 296.297 459.42 300.907C459.551 302.966 458.118 304.788 459.115 306.683C459.956 308.283 461.868 309.092 463.909 309.501C467.19 310.159 471.924 309.981 475.686 309.292C480.481 308.413 487.563 304.187 484.961 300.111C484.232 298.969 482.827 298.303 481.252 297.982C480.102 297.747 476.752 298.111 476.32 297.333C475.889 296.553 477.044 293.558 477.094 292.467C477.235 289.334 476.674 286.39 475.696 283.673C474.369 279.982 472.271 276.667 469.506 273.866C468.372 272.717 466.553 271.872 466.322 270.196C466.101 268.597 467.145 266.668 468.311 265.031C470.148 262.449 472.99 259.982 474.019 257.217C475.636 252.873 471.718 251.495 468.092 250.509C464.813 249.617 460.498 248.469 461.611 244.488C462.415 241.613 466.038 239.26 467.124 236.457C468.58 232.695 465.03 232.548 462.483 231.204C459.18 229.46 458.344 226.348 459.544 222.403C461.521 215.897 473.445 206.718 467.34 202.489C465.79 201.415 464.354 201.054 463.42 199.441C462.423 197.716 462.278 195.567 460.983 194C458.927 191.516 454.68 191.099 452.46 188.791C447.907 184.06 457.743 175.669 448.765 173.672C446.714 173.216 444.895 172.784 443.521 171.502C442.7 170.737 442.034 167.027 441.106 166.768C436.989 165.62 429.558 173.614 427.224 176.081C424.384 179.08 413.871 187.915 418.633 190.304Z" fill="#E0E0E0"/>
<path d="M489.305 300.568C486.857 296.041 476.164 291.522 483.262 286.268C486.6 283.798 491 281.75 495.533 279.864C501.746 277.278 503.958 271.289 500.81 266.331C500.045 265.127 499.529 263.939 499.468 262.825C499.216 258.249 506.036 257.15 509.959 255.507C513.751 253.92 516.445 251.331 516.041 247.768C515.595 243.836 511.275 242.124 508.667 239.196C502.392 232.149 515.967 225.77 518.322 219.24C519.934 214.77 517.67 211.613 514.082 208.295C511.155 205.588 507.093 202.276 508.889 198.376C510.444 195.002 516.046 193.879 518.803 191.122C521.482 188.443 522.859 184.976 522.828 181.575C522.801 178.537 521.632 175.67 519.383 173.216C516.243 169.788 510.308 166.872 512.516 161.969C513.503 159.78 515.743 158.804 515.878 156.244C515.993 154.084 514.738 152.066 513.156 150.38C510.612 147.668 506.341 144.911 502.653 143.278C497.951 141.198 489.441 141.128 489.556 146.917C489.588 148.539 490.472 150.094 491.689 151.402C492.578 152.357 495.729 154.066 495.693 155.13C495.657 156.196 493.033 158.545 492.405 159.632C490.604 162.753 489.523 166.115 488.93 169.507C488.127 174.11 488.202 178.808 489.144 183.395C489.53 185.276 490.68 187.27 489.987 189.13C489.326 190.906 487.373 192.231 485.469 193.185C482.467 194.688 478.637 195.45 476.249 197.641C472.497 201.084 475.217 204.929 477.888 208.192C480.305 211.143 483.498 214.999 480.384 218.384C478.135 220.83 473.679 220.988 471.221 223.184C467.921 226.132 470.975 228.488 472.504 231.447C474.486 235.284 473.557 238.989 470.386 242.285C465.16 247.717 449.726 249.71 452.848 257.833C453.641 259.895 454.714 261.158 454.674 263.39C454.63 265.777 453.608 268.068 453.914 270.477C454.397 274.299 457.922 277.364 458.646 281.105C460.13 288.778 446.96 291.261 453.814 298.884C455.379 300.625 456.753 302.198 457.279 304.364C457.595 305.658 456.196 309.87 456.876 310.713C459.894 314.446 470.729 310.877 474.109 309.799C478.222 308.489 492.227 305.973 489.305 300.568Z" fill="#F5F5F5"/>
<path d="M516.71 290.349C516.71 290.349 515.415 320.667 465.779 320.667C416.142 320.667 414.847 290.349 414.847 290.349H516.71Z" fill="#F0F0F0"/>
<path d="M325 555.829C464.206 555.829 577.056 549.239 577.056 541.11C577.056 532.98 464.206 526.39 325 526.39C185.794 526.39 72.9443 532.98 72.9443 541.11C72.9443 549.239 185.794 555.829 325 555.829Z" fill="#F5F5F5"/>
<g opacity="0.2">
<path d="M468.948 530.226L386.151 377.198L303.354 530.226H468.948Z" fill="#6E9A63"/>
<path d="M468.948 271.336L386.151 424.365L303.354 271.336H468.948Z" fill="#6E9A63"/>
</g>
<path d="M401.317 361.681L389.202 384.073C387.89 386.498 384.412 386.498 383.1 384.073L370.984 361.681C366.204 352.847 372.601 342.113 382.645 342.113H389.656C399.7 342.113 406.097 352.846 401.317 361.681Z" fill="#6E9A63"/>
<path d="M387.47 491.595L425.055 507.061C428.569 508.508 427.535 513.738 423.734 513.738H348.567C344.767 513.738 343.732 508.507 347.246 507.061L384.829 491.595C385.676 491.247 386.625 491.247 387.47 491.595Z" fill="#6E9A63"/>
<path d="M386.151 462.153C388.812 462.153 390.97 459.995 390.97 457.334C390.97 454.672 388.812 452.515 386.151 452.515C383.489 452.515 381.332 454.672 381.332 457.334C381.332 459.995 383.489 462.153 386.151 462.153Z" fill="#6E9A63"/>
<path d="M386.151 409.448C387.523 409.448 388.635 408.336 388.635 406.964C388.635 405.592 387.523 404.479 386.151 404.479C384.779 404.479 383.667 405.592 383.667 406.964C383.667 408.336 384.779 409.448 386.151 409.448Z" fill="#6E9A63"/>
<path d="M386.151 433.806C387.711 433.806 388.976 432.541 388.976 430.981C388.976 429.421 387.711 428.156 386.151 428.156C384.591 428.156 383.326 429.421 383.326 430.981C383.326 432.541 384.591 433.806 386.151 433.806Z" fill="#6E9A63"/>
<path d="M468.528 522.684H303.774C299.625 522.684 296.232 526.078 296.232 530.226C296.232 534.375 299.627 537.769 303.774 537.769H468.528C472.676 537.769 476.071 534.375 476.071 530.226C476.071 526.078 472.676 522.684 468.528 522.684Z" fill="#6E9A63"/>
<path d="M468.528 263.795H303.774C299.625 263.795 296.232 267.189 296.232 271.338C296.232 275.486 299.627 278.879 303.774 278.879H468.528C472.676 278.879 476.071 275.484 476.071 271.338C476.071 267.188 472.676 263.795 468.528 263.795Z" fill="#6E9A63"/>
<path d="M253.016 527.38L243.849 524.404L249.548 502.789L258.714 505.765L253.016 527.38Z" fill="#FF8B7B"/>
<path d="M243.712 523.187L254.011 526.53C254.385 526.652 254.584 527.003 254.488 527.376L252.343 535.687C252.12 536.549 251.067 537.091 250.209 536.796C246.644 535.57 245 534.804 240.471 533.334C237.685 532.429 228.501 530.057 224.654 528.809C220.891 527.588 222.15 523.791 223.894 523.975C231.707 524.803 238.704 524.431 241.952 523.238C242.537 523.024 243.165 523.009 243.712 523.187Z" fill="#263238"/>
<path opacity="0.2" d="M258.716 505.771L249.544 502.794L246.611 513.938L255.782 516.914L258.716 505.771Z" fill="black"/>
<path d="M283.76 286.938C283.76 286.938 267.313 363.052 263.456 390.419C259.233 420.387 243.365 510.372 243.365 510.372L260.379 515.073C260.379 515.073 283.957 427.8 290.845 398.667C298.32 367.048 318.203 286.938 318.203 286.938H283.76Z" fill="#6E9A63"/>
<path opacity="0.3" d="M304.097 311.896C297.61 326.638 294.386 358.748 296.908 373.451C301.51 354.536 307.048 332.046 311.325 314.743C309.884 309.725 307.49 304.187 304.097 311.896Z" fill="black"/>
<path d="M260.808 515.408L242.585 510.388L242.937 502.965L263.455 510.06L260.808 515.408Z" fill="#263238"/>
<path d="M239.945 523.73C240.791 524.004 241.784 524.134 242.494 524.195C242.583 524.203 242.667 524.157 242.71 524.081C242.753 524.003 242.745 523.908 242.692 523.836C242.466 523.537 240.445 520.922 239.183 520.998C238.891 521.015 238.65 521.169 238.489 521.442C238.222 521.891 238.186 522.311 238.38 522.687C238.628 523.167 239.235 523.499 239.945 523.73ZM242.008 523.694C240.262 523.489 239.071 523.046 238.781 522.482C238.662 522.248 238.693 521.982 238.878 521.669C238.963 521.525 239.069 521.453 239.212 521.445C239.889 521.405 241.164 522.673 242.008 523.694Z" fill="#263238"/>
<path d="M242.444 524.185C242.477 524.195 242.513 524.199 242.55 524.193C242.626 524.18 242.69 524.13 242.72 524.057C242.765 523.948 243.826 521.379 243.191 520.187C243.019 519.866 242.747 519.667 242.382 519.594C241.944 519.509 241.593 519.649 241.398 519.99C240.862 520.92 241.608 523.277 242.344 524.118C242.372 524.151 242.405 524.173 242.444 524.185ZM242.398 520.062C242.574 520.12 242.706 520.23 242.795 520.399C243.175 521.11 242.76 522.644 242.452 523.506C241.874 522.574 241.436 520.826 241.788 520.215C241.854 520.098 241.974 519.973 242.296 520.036C242.331 520.043 242.365 520.052 242.398 520.062Z" fill="#263238"/>
<path d="M301.261 214.675C300.761 215.837 300.355 216.719 299.892 217.712C299.437 218.674 298.952 219.613 298.471 220.551C297.502 222.425 296.494 224.269 295.442 226.097C293.31 229.734 291.014 233.299 288.419 236.726C285.847 240.166 283.016 243.494 279.769 246.602C276.546 249.722 272.856 252.616 268.49 254.938L268.164 255.112C267.639 255.391 267.062 255.594 266.506 255.716C263.375 256.386 260.196 256.131 257.574 255.357C254.925 254.592 252.71 253.44 250.758 252.193C246.875 249.671 243.974 246.684 241.341 243.661C238.753 240.6 236.512 237.424 234.499 234.152C232.487 230.849 230.71 227.588 229.124 223.959C228.193 221.828 229.165 219.345 231.297 218.414C233.061 217.643 235.067 218.177 236.233 219.594L236.361 219.752C238.508 222.365 240.834 225.125 243.175 227.648C245.526 230.193 247.942 232.628 250.435 234.773C252.892 236.933 255.503 238.795 257.897 239.973C259.086 240.553 260.217 240.918 261.101 241.033C261.999 241.141 262.56 241.056 262.974 240.874L260.991 241.652C263.503 240.023 265.959 237.805 268.286 235.282C270.6 232.745 272.785 229.91 274.849 226.929C276.9 223.939 278.846 220.801 280.687 217.586C281.614 215.982 282.511 214.353 283.365 212.71L284.621 210.244C285.024 209.457 285.472 208.551 285.779 207.904L285.86 207.732C287.854 203.513 292.891 201.71 297.11 203.706C301.228 205.653 303.038 210.519 301.261 214.675Z" fill="#263238"/>
<path opacity="0.3" d="M280.01 232.326C284.092 221.484 292.763 221.302 296.52 224.175C296.247 224.682 295.961 225.189 295.675 225.696C293.647 229.219 291.424 232.651 288.98 235.979C286.536 239.294 283.858 242.531 280.829 245.573C279.893 246.496 278.931 247.406 277.93 248.29C277.722 243.181 278.112 237.396 280.01 232.326Z" fill="black"/>
<path d="M228.77 224.632L220.324 224.932L222.436 215.91C222.436 215.91 227.463 216.116 231.051 217.162C233.226 217.796 234.114 220.409 232.877 222.306L232.871 222.314C231.964 223.708 230.434 224.572 228.77 224.632Z" fill="#FF8B7B"/>
<path d="M233.531 216.989C232.834 216.433 231.921 215.905 230.743 215.551C230.031 219.239 225.589 225.477 225.589 225.477H229.108C230.03 225.477 230.905 225.067 231.496 224.36L233.961 221.408C235.075 220.071 234.892 218.075 233.531 216.989Z" fill="#6E9A63"/>
<path d="M213.872 220.783L216.248 214.409L222.436 215.91L220.324 224.932L213.872 220.783Z" fill="#FF8B7B"/>
<path d="M320.124 531.597H310.488L310.155 509.277H319.792L320.124 531.597Z" fill="#FF8B7B"/>
<path d="M309.982 530.48H320.81C321.204 530.48 321.501 530.755 321.525 531.138L322.05 539.705C322.105 540.594 321.271 541.434 320.363 541.419C316.593 541.354 314.792 541.133 310.03 541.133C307.101 541.133 297.308 541.437 293.263 541.437C289.307 541.437 289.333 537.437 291.048 537.074C298.734 535.45 305.601 533.209 308.322 531.072C308.812 530.688 309.406 530.48 309.982 530.48Z" fill="#263238"/>
<path opacity="0.2" d="M319.794 509.284H310.152L310.329 520.789H319.971L319.794 509.284Z" fill="black"/>
<path d="M302.562 286.938C302.562 286.938 298.882 370.673 300.444 398.267C302.156 428.483 305.751 518.011 305.751 518.011H323.403C323.403 518.011 327.853 430.923 328.917 401.006C330.071 368.536 335.305 286.938 335.305 286.938H302.562Z" fill="#6E9A63"/>
<path d="M324.113 518.011H305.039L303.586 510.918L324.638 511.964L324.113 518.011Z" fill="#263238"/>
<path d="M306.566 532.16C307.456 532.16 308.44 531.977 309.134 531.816C309.22 531.796 309.288 531.727 309.303 531.64C309.32 531.553 309.284 531.465 309.211 531.414C308.903 531.199 306.176 529.335 304.998 529.797C304.725 529.903 304.544 530.123 304.475 530.432C304.361 530.942 304.456 531.353 304.756 531.652C305.139 532.03 305.819 532.16 306.566 532.16ZM308.517 531.489C306.793 531.833 305.523 531.779 305.073 531.332C304.886 531.147 304.834 530.885 304.913 530.53C304.95 530.366 305.029 530.266 305.162 530.214C305.795 529.966 307.399 530.778 308.517 531.489Z" fill="#263238"/>
<path d="M309.084 531.821C309.119 531.821 309.154 531.813 309.187 531.796C309.256 531.761 309.301 531.692 309.308 531.615C309.317 531.498 309.534 528.725 308.561 527.789C308.299 527.537 307.979 527.432 307.61 527.476C307.166 527.529 306.877 527.771 306.796 528.156C306.574 529.208 308.011 531.219 308.971 531.791C309.005 531.81 309.044 531.821 309.084 531.821ZM307.766 527.914C307.953 527.914 308.112 527.979 308.248 528.112C308.829 528.671 308.907 530.258 308.881 531.173C308.043 530.466 307.087 528.937 307.233 528.248C307.26 528.117 307.334 527.961 307.662 527.921C307.698 527.917 307.733 527.914 307.766 527.914Z" fill="#263238"/>
<path d="M340.137 209.219C340.744 205.81 338.413 202.579 334.988 202.077L334.876 202.06C331.769 201.605 327.869 201.137 324.047 200.955C317.469 200.643 307.94 200.435 302.142 200.955C298.775 201.267 295.486 201.826 292.86 202.333C292.826 202.339 292.794 202.346 292.76 202.354C289.414 203.031 286.717 205.505 285.748 208.778C282.604 219.377 278.856 241.008 283.76 286.938H335.305C335.669 282.336 334.642 267.361 335.396 248.289C335.969 233.758 338.555 218.098 340.137 209.219Z" fill="#263238"/>
<path opacity="0.3" d="M339.641 212.058C338.571 218.223 337.253 226.599 336.344 235.415C336.344 235.415 331.642 226.188 330.785 218.293C329.93 210.399 336.653 209.844 339.641 212.058Z" fill="black"/>
<g opacity="0.2">
<path d="M305.068 213.274C304.891 213.274 304.721 213.178 304.635 213.011C304.511 212.772 304.604 212.477 304.843 212.353L320.911 204.022C321.153 203.898 321.446 203.992 321.569 204.23C321.694 204.469 321.599 204.764 321.361 204.888L305.293 213.219C305.22 213.257 305.145 213.274 305.068 213.274Z" fill="white"/>
<path d="M312.429 214.036C312.304 214.036 312.181 213.989 312.084 213.894L303.282 205.135C303.092 204.945 303.091 204.637 303.281 204.446C303.471 204.255 303.779 204.253 303.97 204.444L312.772 213.204C312.962 213.394 312.965 213.702 312.773 213.893C312.68 213.988 312.555 214.036 312.429 214.036Z" fill="white"/>
<path d="M324.041 200.954C317.463 200.642 307.934 200.434 302.149 200.954C302.032 200.967 301.902 200.98 301.785 200.993C301.577 201.851 301.382 203.45 302.344 204.984C303.566 206.934 306.127 208.026 309.975 208.234C310.469 208.26 310.95 208.273 311.418 208.273C321.883 208.273 325.835 201.955 326.004 201.682L326.368 201.097C325.588 201.045 324.821 200.993 324.041 200.954Z" fill="white"/>
</g>
<path d="M303.182 200.878C309.552 199.37 310.67 195.431 310.241 191.102C310.15 190.049 309.968 188.957 309.734 187.878L317.716 181.248L323.579 176.386C321.954 183.445 320.121 196.302 324.892 201.008C324.892 201.008 320.943 207.519 310.041 206.93C300.832 206.432 303.182 200.878 303.182 200.878Z" fill="#FF8B7B"/>
<path opacity="0.2" d="M309.734 187.879C309.968 188.958 310.15 190.05 310.241 191.103C313.218 190.505 317.196 187.333 317.612 184.291C317.768 183.147 317.794 182.042 317.716 181.249L309.734 187.879Z" fill="black"/>
<path d="M305.465 154.05C301.132 156.595 301.822 163.154 300.645 167.808C303.407 168.078 307.748 163.18 307.748 163.18L310.341 155.729L305.465 154.05Z" fill="#263238"/>
<path d="M328.527 167.127C325.758 176.31 324.606 181.808 318.751 185.635C309.945 191.393 299.393 184.826 299.35 175.1C299.311 166.345 303.847 152.799 313.884 150.93C323.773 149.088 331.297 157.944 328.527 167.127Z" fill="#FF8B7B"/>
<path d="M319.874 174.916C326.368 167.375 318.248 163.655 324.892 158.419C317.417 158.771 305.11 158.238 302.914 153.111C300.717 147.983 307.477 141.05 313.104 140.4C319.649 139.643 318.196 147.694 318.196 147.694C318.196 147.694 343.076 146.142 335.178 156.723C341.163 156.361 339.516 166.04 329.109 174.2C326.5 175.138 319.874 174.916 319.874 174.916Z" fill="#263238"/>
<path d="M333.687 156.92C333.687 156.92 338.81 155.403 338.632 151.341C340.484 152.615 340.674 156.488 333.687 156.92Z" fill="#263238"/>
<path d="M330.043 176.707C328.389 178.739 326.095 179.952 324.134 180.308C321.184 180.845 320.489 178.114 321.962 175.453C323.288 173.058 326.421 169.893 329.068 170.562C331.675 171.224 331.934 174.384 330.043 176.707Z" fill="#FF8B7B"/>
<path d="M313.713 166.888C313.535 167.645 312.985 168.178 312.487 168.079C311.989 167.979 311.729 167.285 311.909 166.528C312.087 165.772 312.637 165.239 313.135 165.337C313.633 165.438 313.891 166.132 313.713 166.888Z" fill="#263238"/>
<path d="M305.097 165.167C304.919 165.924 304.369 166.457 303.871 166.358C303.373 166.258 303.113 165.564 303.293 164.807C303.471 164.05 304.021 163.517 304.519 163.616C305.016 163.716 305.275 164.411 305.097 165.167Z" fill="#263238"/>
<path d="M307.748 166.092C307.748 166.092 304.984 170.113 302.578 171.839C303.631 173.359 306.059 173.246 306.059 173.246L307.748 166.092Z" fill="#FF5652"/>
<path d="M308.691 175.905C311.745 176.146 313.601 174.378 313.686 174.294C313.777 174.206 313.778 174.062 313.69 173.972C313.603 173.881 313.457 173.88 313.367 173.968C313.347 173.988 311.234 176.005 307.883 175.332C307.758 175.306 307.638 175.386 307.615 175.511C307.59 175.635 307.669 175.756 307.794 175.779C308.104 175.843 308.403 175.883 308.691 175.905Z" fill="#263238"/>
<path d="M317.04 164.793C317.114 164.8 317.191 164.787 317.265 164.753C317.494 164.648 317.596 164.377 317.491 164.148C316.455 161.879 314.357 161.586 314.27 161.576C314.037 161.522 313.791 161.72 313.759 161.971C313.726 162.22 313.903 162.449 314.153 162.482C314.24 162.495 315.847 162.746 316.66 164.529C316.732 164.684 316.88 164.78 317.04 164.793Z" fill="#263238"/>
<path d="M302.962 159.993C303.101 160.038 303.259 160.015 303.383 159.919C305.023 158.645 306.649 159.137 306.665 159.142C306.905 159.219 307.163 159.085 307.238 158.844C307.313 158.605 307.181 158.349 306.943 158.272L306.94 158.271C306.854 158.244 304.837 157.633 302.824 159.198C302.626 159.352 302.589 159.64 302.744 159.839C302.8 159.914 302.878 159.966 302.962 159.993Z" fill="#263238"/>
<path d="M340.636 205.51L341.723 206.988L342.697 208.37C343.339 209.288 343.927 210.215 344.534 211.139C345.724 212.988 346.835 214.874 347.921 216.769C350.069 220.573 352.049 224.464 353.795 228.472C354.704 230.457 355.493 232.503 356.322 234.525C357.053 236.596 357.851 238.63 358.492 240.737C359.911 244.891 360.933 249.2 361.872 253.513L361.978 254.003C362.377 255.832 361.985 257.666 361.046 259.126C359.412 261.649 357.419 264.023 355.133 266.137C352.864 268.265 350.187 270.03 347.36 271.372C344.516 272.701 341.472 273.527 338.439 273.843C336.921 274.002 335.402 274.02 333.897 273.926C333.142 273.869 332.39 273.781 331.635 273.663C331.257 273.6 330.878 273.523 330.491 273.439L329.183 273.122C328.861 273.044 328.663 272.719 328.741 272.398L330.539 264.862C330.553 264.802 330.882 264.782 331.085 264.733L331.803 264.587C332.289 264.488 332.78 264.37 333.265 264.234C334.238 263.978 335.185 263.634 336.093 263.257C337.905 262.485 339.566 261.532 341.013 260.353C343.946 258.056 346.129 254.997 347.858 251.452L347.032 257.065C345.917 253.39 344.739 249.737 343.299 246.148C341.895 242.554 340.32 239.01 338.612 235.523C336.9 232.04 335.09 228.593 333.129 225.243C332.164 223.559 331.145 221.911 330.136 220.27L328.589 217.859L327.82 216.685L327.111 215.644L326.851 215.261C324.228 211.406 325.229 206.154 329.084 203.53C332.849 200.967 337.957 201.874 340.636 205.51Z" fill="#263238"/>
<path d="M323.419 272.321L320.612 276.904L332.752 276.413C332.752 276.413 335.929 268.251 331.584 266.962L329.907 267.428C327.203 268.179 324.885 269.928 323.419 272.321Z" fill="#FF8B7B"/>
<path d="M328.404 265.912C327.663 266.41 326.886 267.12 326.192 268.137C329.493 269.928 334.101 276.045 334.101 276.045L335.162 272.689C335.44 271.81 335.314 270.852 334.817 270.075L332.745 266.834C331.809 265.369 329.849 264.943 328.404 265.912Z" fill="#6E9A63"/>
<path d="M321.681 283.947L331.684 283.06L332.753 276.414L320.612 276.905L321.681 283.947Z" fill="#FF8B7B"/>
<path d="M198.974 125.238L198.311 124.12C200.213 122.993 202.214 122 204.26 121.165L204.75 122.369C202.764 123.177 200.82 124.143 198.974 125.238Z" fill="#6E9A63"/>
<path d="M179.991 148.134L178.768 147.692C181.844 139.184 187.355 131.854 194.705 126.495L195.472 127.546C188.331 132.751 182.977 139.87 179.991 148.134Z" fill="#6E9A63"/>
<path d="M221.257 203.018C243.355 203.018 261.269 185.105 261.269 163.007C261.269 140.909 243.355 122.996 221.257 122.996C199.16 122.996 181.246 140.909 181.246 163.007C181.246 185.105 199.16 203.018 221.257 203.018Z" fill="#6E9A63"/>
<path opacity="0.6" d="M254.683 163.004C254.683 181.475 239.724 196.434 221.253 196.434C212.506 196.434 204.538 193.073 198.581 187.566C191.964 181.46 187.824 172.713 187.824 163.004C187.824 144.549 202.798 129.575 221.253 129.575C231.036 129.575 239.828 133.776 245.951 140.467C245.966 140.467 245.996 140.483 246.01 140.527C251.398 146.47 254.683 154.346 254.683 163.004Z" fill="white"/>
<path d="M254.683 163.004C254.683 181.475 239.724 196.434 221.254 196.434C212.506 196.434 204.538 193.073 198.582 187.566C193.075 181.61 189.699 173.628 189.699 164.88C189.699 146.425 204.673 131.451 223.128 131.451C231.966 131.451 239.963 134.857 245.95 140.469C245.965 140.469 245.995 140.484 246.01 140.529C251.398 146.47 254.683 154.346 254.683 163.004Z" fill="white"/>
<path d="M221.258 164.957C220.758 164.957 220.259 164.767 219.878 164.386L203.576 148.084C202.814 147.324 202.814 146.089 203.576 145.327C204.338 144.565 205.572 144.565 206.334 145.327L221.256 160.249L229.877 151.629C230.638 150.867 231.872 150.867 232.634 151.629C233.396 152.39 233.396 153.626 232.634 154.386L222.636 164.385C222.256 164.766 221.757 164.957 221.258 164.957Z" fill="#263238"/>
</svg>
