<svg width="538" height="57" viewBox="0 0 538 57" fill="none" xmlns="http://www.w3.org/2000/svg">
<path d="M26 16L516 16" stroke="#EEF0F3" stroke-width="6" stroke-linecap="round"/>
<path d="M26 16H52" stroke="#6E9A63" stroke-width="6" stroke-linecap="round"/>
<rect x="4.5" y="1" width="32" height="32" rx="16" fill="#6E9A63"/>
<path d="M17.856 22.144C17.144 22.144 16.52 21.952 15.984 21.568C15.456 21.176 15.044 20.636 14.748 19.948C14.452 19.252 14.304 18.444 14.304 17.524C14.304 16.604 14.452 15.8 14.748 15.112C15.044 14.416 15.456 13.876 15.984 13.492C16.512 13.108 17.132 12.916 17.844 12.916C18.556 12.916 19.176 13.108 19.704 13.492C20.232 13.876 20.644 14.416 20.94 15.112C21.244 15.8 21.396 16.604 21.396 17.524C21.396 18.444 21.248 19.252 20.952 19.948C20.656 20.644 20.24 21.184 19.704 21.568C19.176 21.952 18.56 22.144 17.856 22.144ZM17.856 21.052C18.336 21.052 18.752 20.908 19.104 20.62C19.456 20.324 19.728 19.912 19.92 19.384C20.12 18.856 20.22 18.236 20.22 17.524C20.22 16.812 20.12 16.192 19.92 15.664C19.728 15.136 19.452 14.728 19.092 14.44C18.74 14.152 18.324 14.008 17.844 14.008C17.364 14.008 16.948 14.152 16.596 14.44C16.244 14.728 15.968 15.136 15.768 15.664C15.576 16.192 15.48 16.812 15.48 17.524C15.48 18.228 15.576 18.844 15.768 19.372C15.968 19.9 16.244 20.312 16.596 20.608C16.956 20.904 17.376 21.052 17.856 21.052ZM24.3196 22V14.08H22.6276V13.06H25.5076V22H24.3196Z" fill="white"/>
<path d="M4.98395 53.168C4.33062 53.168 3.72395 53.0467 3.16395 52.804C2.60395 52.552 2.12795 52.2113 1.73595 51.782C1.34395 51.3527 1.05462 50.858 0.867953 50.298L2.26795 49.71C2.51995 50.354 2.88862 50.8487 3.37395 51.194C3.85929 51.5393 4.41929 51.712 5.05395 51.712C5.42729 51.712 5.75395 51.656 6.03395 51.544C6.31395 51.4227 6.52862 51.2547 6.67795 51.04C6.83662 50.8253 6.91595 50.578 6.91595 50.298C6.91595 49.9153 6.80862 49.612 6.59395 49.388C6.37929 49.164 6.06195 48.9867 5.64195 48.856L3.68195 48.24C2.89795 47.9973 2.30062 47.6287 1.88995 47.134C1.47929 46.63 1.27395 46.042 1.27395 45.37C1.27395 44.782 1.41862 44.2687 1.70795 43.83C1.99729 43.382 2.39395 43.032 2.89795 42.78C3.41129 42.528 3.99462 42.402 4.64795 42.402C5.27329 42.402 5.84262 42.514 6.35595 42.738C6.86929 42.9527 7.30795 43.2513 7.67195 43.634C8.04529 44.0167 8.31595 44.46 8.48395 44.964L7.11195 45.566C6.90662 45.0153 6.58462 44.5907 6.14595 44.292C5.71662 43.9933 5.21729 43.844 4.64795 43.844C4.30262 43.844 3.99929 43.9047 3.73795 44.026C3.47662 44.138 3.27129 44.306 3.12195 44.53C2.98195 44.7447 2.91195 44.9967 2.91195 45.286C2.91195 45.622 3.01929 45.9207 3.23395 46.182C3.44862 46.4433 3.77529 46.6393 4.21395 46.77L6.03395 47.344C6.86462 47.596 7.48995 47.96 7.90995 48.436C8.32995 48.9027 8.53995 49.486 8.53995 50.186C8.53995 50.7647 8.38595 51.278 8.07795 51.726C7.77929 52.174 7.36395 52.5287 6.83195 52.79C6.29995 53.042 5.68395 53.168 4.98395 53.168ZM13.5164 53.084C12.7231 53.084 12.1071 52.86 11.6684 52.412C11.2297 51.964 11.0104 51.334 11.0104 50.522V46.854H9.68041V45.426H9.89041C10.2451 45.426 10.5204 45.3233 10.7164 45.118C10.9124 44.9127 11.0104 44.6327 11.0104 44.278V43.69H12.5924V45.426H14.3144V46.854H12.5924V50.452C12.5924 50.7133 12.6344 50.9373 12.7184 51.124C12.8024 51.3013 12.9377 51.4413 13.1244 51.544C13.3111 51.6373 13.5537 51.684 13.8524 51.684C13.9271 51.684 14.0111 51.6793 14.1044 51.67C14.1977 51.6607 14.2864 51.6513 14.3704 51.642V53C14.2397 53.0187 14.0951 53.0373 13.9364 53.056C13.7777 53.0747 13.6377 53.084 13.5164 53.084ZM19.3335 53.168C18.5775 53.168 17.9055 52.9953 17.3175 52.65C16.7388 52.2953 16.2862 51.8193 15.9595 51.222C15.6328 50.6153 15.4695 49.9387 15.4695 49.192C15.4695 48.4267 15.6328 47.75 15.9595 47.162C16.2955 46.574 16.7435 46.112 17.3035 45.776C17.8635 45.4307 18.4982 45.258 19.2075 45.258C19.7768 45.258 20.2855 45.356 20.7335 45.552C21.1815 45.748 21.5595 46.0187 21.8675 46.364C22.1755 46.7 22.4088 47.0873 22.5675 47.526C22.7355 47.9647 22.8195 48.4313 22.8195 48.926C22.8195 49.0473 22.8148 49.1733 22.8055 49.304C22.7962 49.4347 22.7775 49.556 22.7495 49.668H16.7155V48.408H21.8535L21.0975 48.982C21.1908 48.5247 21.1582 48.1187 20.9995 47.764C20.8502 47.4 20.6168 47.1153 20.2995 46.91C19.9915 46.6953 19.6275 46.588 19.2075 46.588C18.7875 46.588 18.4142 46.6953 18.0875 46.91C17.7608 47.1153 17.5088 47.414 17.3315 47.806C17.1542 48.1887 17.0842 48.6553 17.1215 49.206C17.0748 49.7193 17.1448 50.1673 17.3315 50.55C17.5275 50.9327 17.7982 51.2313 18.1435 51.446C18.4982 51.6607 18.8995 51.768 19.3475 51.768C19.8048 51.768 20.1922 51.6653 20.5095 51.46C20.8362 51.2547 21.0928 50.9887 21.2795 50.662L22.5675 51.292C22.4182 51.6467 22.1848 51.9687 21.8675 52.258C21.5595 52.538 21.1862 52.762 20.7475 52.93C20.3182 53.0887 19.8468 53.168 19.3335 53.168ZM24.3635 55.8V45.426H25.8755V46.994L25.6935 46.63C25.9735 46.2007 26.3468 45.8647 26.8135 45.622C27.2801 45.3793 27.8121 45.258 28.4095 45.258C29.1281 45.258 29.7721 45.4307 30.3415 45.776C30.9201 46.1213 31.3728 46.5927 31.6995 47.19C32.0355 47.7873 32.2035 48.4593 32.2035 49.206C32.2035 49.9527 32.0355 50.6247 31.6995 51.222C31.3728 51.8193 30.9248 52.2953 30.3555 52.65C29.7861 52.9953 29.1375 53.168 28.4095 53.168C27.8215 53.168 27.2848 53.0467 26.7995 52.804C26.3235 52.5613 25.9548 52.2113 25.6935 51.754L25.9455 51.46V55.8H24.3635ZM28.2555 51.698C28.7035 51.698 29.1001 51.5907 29.4455 51.376C29.7908 51.1613 30.0615 50.8673 30.2575 50.494C30.4628 50.1113 30.5655 49.682 30.5655 49.206C30.5655 48.73 30.4628 48.3053 30.2575 47.932C30.0615 47.5587 29.7908 47.2647 29.4455 47.05C29.1001 46.8353 28.7035 46.728 28.2555 46.728C27.8168 46.728 27.4201 46.8353 27.0655 47.05C26.7201 47.2647 26.4448 47.5587 26.2395 47.932C26.0435 48.3053 25.9455 48.73 25.9455 49.206C25.9455 49.682 26.0435 50.1113 26.2395 50.494C26.4448 50.8673 26.7201 51.1613 27.0655 51.376C27.4201 51.5907 27.8168 51.698 28.2555 51.698ZM37.7296 53V43.97H35.7276V42.57H39.3676V53H37.7296Z" fill="#1A1C1F"/>
<rect x="168" y="1" width="32" height="32" rx="16" fill="#EEF0F3"/>
<path d="M180.356 22.144C179.644 22.144 179.02 21.952 178.484 21.568C177.956 21.176 177.544 20.636 177.248 19.948C176.952 19.252 176.804 18.444 176.804 17.524C176.804 16.604 176.952 15.8 177.248 15.112C177.544 14.416 177.956 13.876 178.484 13.492C179.012 13.108 179.632 12.916 180.344 12.916C181.056 12.916 181.676 13.108 182.204 13.492C182.732 13.876 183.144 14.416 183.44 15.112C183.744 15.8 183.896 16.604 183.896 17.524C183.896 18.444 183.748 19.252 183.452 19.948C183.156 20.644 182.74 21.184 182.204 21.568C181.676 21.952 181.06 22.144 180.356 22.144ZM180.356 21.052C180.836 21.052 181.252 20.908 181.604 20.62C181.956 20.324 182.228 19.912 182.42 19.384C182.62 18.856 182.72 18.236 182.72 17.524C182.72 16.812 182.62 16.192 182.42 15.664C182.228 15.136 181.952 14.728 181.592 14.44C181.24 14.152 180.824 14.008 180.344 14.008C179.864 14.008 179.448 14.152 179.096 14.44C178.744 14.728 178.468 15.136 178.268 15.664C178.076 16.192 177.98 16.812 177.98 17.524C177.98 18.228 178.076 18.844 178.268 19.372C178.468 19.9 178.744 20.312 179.096 20.608C179.456 20.904 179.876 21.052 180.356 21.052ZM185.332 22V21.184L187.804 18.508C188.292 17.988 188.68 17.56 188.968 17.224C189.264 16.888 189.48 16.588 189.616 16.324C189.752 16.06 189.82 15.78 189.82 15.484C189.82 14.996 189.676 14.62 189.388 14.356C189.1 14.092 188.72 13.96 188.248 13.96C187.768 13.96 187.36 14.1 187.024 14.38C186.688 14.652 186.456 15.04 186.328 15.544L185.26 15.268C185.364 14.788 185.556 14.372 185.836 14.02C186.116 13.668 186.464 13.396 186.88 13.204C187.296 13.012 187.752 12.916 188.248 12.916C188.792 12.916 189.268 13.024 189.676 13.24C190.092 13.448 190.416 13.74 190.648 14.116C190.888 14.492 191.008 14.928 191.008 15.424C191.008 15.752 190.94 16.072 190.804 16.384C190.668 16.696 190.468 17.028 190.204 17.38C189.94 17.724 189.596 18.124 189.172 18.58L186.964 20.98H191.2V22H185.332Z" fill="#1A232F"/>
<path d="M167.042 54.168C166.388 54.168 165.782 54.0467 165.222 53.804C164.662 53.552 164.186 53.2113 163.794 52.782C163.402 52.3527 163.112 51.858 162.926 51.298L164.326 50.71C164.578 51.354 164.946 51.8487 165.432 52.194C165.917 52.5393 166.477 52.712 167.112 52.712C167.485 52.712 167.812 52.656 168.092 52.544C168.372 52.4227 168.586 52.2547 168.736 52.04C168.894 51.8253 168.974 51.578 168.974 51.298C168.974 50.9153 168.866 50.612 168.652 50.388C168.437 50.164 168.12 49.9867 167.7 49.856L165.74 49.24C164.956 48.9973 164.358 48.6287 163.948 48.134C163.537 47.63 163.332 47.042 163.332 46.37C163.332 45.782 163.476 45.2687 163.766 44.83C164.055 44.382 164.452 44.032 164.956 43.78C165.469 43.528 166.052 43.402 166.706 43.402C167.331 43.402 167.9 43.514 168.414 43.738C168.927 43.9527 169.366 44.2513 169.73 44.634C170.103 45.0167 170.374 45.46 170.542 45.964L169.17 46.566C168.964 46.0153 168.642 45.5907 168.204 45.292C167.774 44.9933 167.275 44.844 166.706 44.844C166.36 44.844 166.057 44.9047 165.796 45.026C165.534 45.138 165.329 45.306 165.18 45.53C165.04 45.7447 164.97 45.9967 164.97 46.286C164.97 46.622 165.077 46.9207 165.292 47.182C165.506 47.4433 165.833 47.6393 166.272 47.77L168.092 48.344C168.922 48.596 169.548 48.96 169.968 49.436C170.388 49.9027 170.598 50.486 170.598 51.186C170.598 51.7647 170.444 52.278 170.136 52.726C169.837 53.174 169.422 53.5287 168.89 53.79C168.358 54.042 167.742 54.168 167.042 54.168ZM175.574 54.084C174.781 54.084 174.165 53.86 173.726 53.412C173.287 52.964 173.068 52.334 173.068 51.522V47.854H171.738V46.426H171.948C172.303 46.426 172.578 46.3233 172.774 46.118C172.97 45.9127 173.068 45.6327 173.068 45.278V44.69H174.65V46.426H176.372V47.854H174.65V51.452C174.65 51.7133 174.692 51.9373 174.776 52.124C174.86 52.3013 174.995 52.4413 175.182 52.544C175.369 52.6373 175.611 52.684 175.91 52.684C175.985 52.684 176.069 52.6793 176.162 52.67C176.255 52.6607 176.344 52.6513 176.428 52.642V54C176.297 54.0187 176.153 54.0373 175.994 54.056C175.835 54.0747 175.695 54.084 175.574 54.084ZM181.391 54.168C180.635 54.168 179.963 53.9953 179.375 53.65C178.796 53.2953 178.344 52.8193 178.017 52.222C177.69 51.6153 177.527 50.9387 177.527 50.192C177.527 49.4267 177.69 48.75 178.017 48.162C178.353 47.574 178.801 47.112 179.361 46.776C179.921 46.4307 180.556 46.258 181.265 46.258C181.834 46.258 182.343 46.356 182.791 46.552C183.239 46.748 183.617 47.0187 183.925 47.364C184.233 47.7 184.466 48.0873 184.625 48.526C184.793 48.9647 184.877 49.4313 184.877 49.926C184.877 50.0473 184.872 50.1733 184.863 50.304C184.854 50.4347 184.835 50.556 184.807 50.668H178.773V49.408H183.911L183.155 49.982C183.248 49.5247 183.216 49.1187 183.057 48.764C182.908 48.4 182.674 48.1153 182.357 47.91C182.049 47.6953 181.685 47.588 181.265 47.588C180.845 47.588 180.472 47.6953 180.145 47.91C179.818 48.1153 179.566 48.414 179.389 48.806C179.212 49.1887 179.142 49.6553 179.179 50.206C179.132 50.7193 179.202 51.1673 179.389 51.55C179.585 51.9327 179.856 52.2313 180.201 52.446C180.556 52.6607 180.957 52.768 181.405 52.768C181.862 52.768 182.25 52.6653 182.567 52.46C182.894 52.2547 183.15 51.9887 183.337 51.662L184.625 52.292C184.476 52.6467 184.242 52.9687 183.925 53.258C183.617 53.538 183.244 53.762 182.805 53.93C182.376 54.0887 181.904 54.168 181.391 54.168ZM186.421 56.8V46.426H187.933V47.994L187.751 47.63C188.031 47.2007 188.404 46.8647 188.871 46.622C189.338 46.3793 189.87 46.258 190.467 46.258C191.186 46.258 191.83 46.4307 192.399 46.776C192.978 47.1213 193.43 47.5927 193.757 48.19C194.093 48.7873 194.261 49.4593 194.261 50.206C194.261 50.9527 194.093 51.6247 193.757 52.222C193.43 52.8193 192.982 53.2953 192.413 53.65C191.844 53.9953 191.195 54.168 190.467 54.168C189.879 54.168 189.342 54.0467 188.857 53.804C188.381 53.5613 188.012 53.2113 187.751 52.754L188.003 52.46V56.8H186.421ZM190.313 52.698C190.761 52.698 191.158 52.5907 191.503 52.376C191.848 52.1613 192.119 51.8673 192.315 51.494C192.52 51.1113 192.623 50.682 192.623 50.206C192.623 49.73 192.52 49.3053 192.315 48.932C192.119 48.5587 191.848 48.2647 191.503 48.05C191.158 47.8353 190.761 47.728 190.313 47.728C189.874 47.728 189.478 47.8353 189.123 48.05C188.778 48.2647 188.502 48.5587 188.297 48.932C188.101 49.3053 188.003 49.73 188.003 50.206C188.003 50.682 188.101 51.1113 188.297 51.494C188.502 51.8673 188.778 52.1613 189.123 52.376C189.478 52.5907 189.874 52.698 190.313 52.698ZM198.023 54V52.81L200.879 49.758C201.439 49.1607 201.878 48.68 202.195 48.316C202.522 47.9427 202.755 47.616 202.895 47.336C203.045 47.056 203.119 46.762 203.119 46.454C203.119 45.95 202.965 45.5627 202.657 45.292C202.349 45.012 201.953 44.872 201.467 44.872C200.963 44.872 200.529 45.0167 200.165 45.306C199.801 45.586 199.549 45.9967 199.409 46.538L197.953 46.118C198.065 45.5673 198.289 45.0913 198.625 44.69C198.961 44.2793 199.372 43.962 199.857 43.738C200.352 43.514 200.884 43.402 201.453 43.402C202.116 43.402 202.695 43.528 203.189 43.78C203.684 44.0227 204.067 44.3633 204.337 44.802C204.617 45.2407 204.757 45.7493 204.757 46.328C204.757 46.7107 204.683 47.084 204.533 47.448C204.393 47.8027 204.174 48.1807 203.875 48.582C203.577 48.974 203.194 49.4173 202.727 49.912L200.207 52.6H204.953V54H198.023Z" fill="#8D98A4"/>
<rect x="333" y="1" width="32" height="32" rx="16" fill="#EEF0F3"/>
<path d="M344.856 22.144C344.144 22.144 343.52 21.952 342.984 21.568C342.456 21.176 342.044 20.636 341.748 19.948C341.452 19.252 341.304 18.444 341.304 17.524C341.304 16.604 341.452 15.8 341.748 15.112C342.044 14.416 342.456 13.876 342.984 13.492C343.512 13.108 344.132 12.916 344.844 12.916C345.556 12.916 346.176 13.108 346.704 13.492C347.232 13.876 347.644 14.416 347.94 15.112C348.244 15.8 348.396 16.604 348.396 17.524C348.396 18.444 348.248 19.252 347.952 19.948C347.656 20.644 347.24 21.184 346.704 21.568C346.176 21.952 345.56 22.144 344.856 22.144ZM344.856 21.052C345.336 21.052 345.752 20.908 346.104 20.62C346.456 20.324 346.728 19.912 346.92 19.384C347.12 18.856 347.22 18.236 347.22 17.524C347.22 16.812 347.12 16.192 346.92 15.664C346.728 15.136 346.452 14.728 346.092 14.44C345.74 14.152 345.324 14.008 344.844 14.008C344.364 14.008 343.948 14.152 343.596 14.44C343.244 14.728 342.968 15.136 342.768 15.664C342.576 16.192 342.48 16.812 342.48 17.524C342.48 18.228 342.576 18.844 342.768 19.372C342.968 19.9 343.244 20.312 343.596 20.608C343.956 20.904 344.376 21.052 344.856 21.052ZM352.712 22.144C352.24 22.144 351.8 22.06 351.392 21.892C350.984 21.724 350.632 21.488 350.336 21.184C350.04 20.872 349.82 20.504 349.676 20.08L350.672 19.672C350.84 20.12 351.104 20.468 351.464 20.716C351.824 20.964 352.24 21.088 352.712 21.088C353.08 21.088 353.408 21.016 353.696 20.872C353.984 20.728 354.208 20.52 354.368 20.248C354.536 19.976 354.62 19.648 354.62 19.264C354.62 18.872 354.536 18.544 354.368 18.28C354.208 18.008 353.984 17.8 353.696 17.656C353.408 17.512 353.076 17.44 352.7 17.44C352.58 17.44 352.448 17.448 352.304 17.464C352.168 17.48 352.052 17.504 351.956 17.536L351.704 16.996L354.092 14.08H350.132V13.06H355.424V14.044L353.144 16.852L353.072 16.54C353.608 16.556 354.08 16.68 354.488 16.912C354.896 17.144 355.216 17.46 355.448 17.86C355.68 18.252 355.796 18.712 355.796 19.24C355.796 19.784 355.664 20.276 355.4 20.716C355.136 21.156 354.772 21.504 354.308 21.76C353.844 22.016 353.312 22.144 352.712 22.144Z" fill="#1A232F"/>
<path d="M331.946 54.168C331.293 54.168 330.686 54.0467 330.126 53.804C329.566 53.552 329.09 53.2113 328.698 52.782C328.306 52.3527 328.017 51.858 327.83 51.298L329.23 50.71C329.482 51.354 329.851 51.8487 330.336 52.194C330.821 52.5393 331.381 52.712 332.016 52.712C332.389 52.712 332.716 52.656 332.996 52.544C333.276 52.4227 333.491 52.2547 333.64 52.04C333.799 51.8253 333.878 51.578 333.878 51.298C333.878 50.9153 333.771 50.612 333.556 50.388C333.341 50.164 333.024 49.9867 332.604 49.856L330.644 49.24C329.86 48.9973 329.263 48.6287 328.852 48.134C328.441 47.63 328.236 47.042 328.236 46.37C328.236 45.782 328.381 45.2687 328.67 44.83C328.959 44.382 329.356 44.032 329.86 43.78C330.373 43.528 330.957 43.402 331.61 43.402C332.235 43.402 332.805 43.514 333.318 43.738C333.831 43.9527 334.27 44.2513 334.634 44.634C335.007 45.0167 335.278 45.46 335.446 45.964L334.074 46.566C333.869 46.0153 333.547 45.5907 333.108 45.292C332.679 44.9933 332.179 44.844 331.61 44.844C331.265 44.844 330.961 44.9047 330.7 45.026C330.439 45.138 330.233 45.306 330.084 45.53C329.944 45.7447 329.874 45.9967 329.874 46.286C329.874 46.622 329.981 46.9207 330.196 47.182C330.411 47.4433 330.737 47.6393 331.176 47.77L332.996 48.344C333.827 48.596 334.452 48.96 334.872 49.436C335.292 49.9027 335.502 50.486 335.502 51.186C335.502 51.7647 335.348 52.278 335.04 52.726C334.741 53.174 334.326 53.5287 333.794 53.79C333.262 54.042 332.646 54.168 331.946 54.168ZM340.478 54.084C339.685 54.084 339.069 53.86 338.63 53.412C338.192 52.964 337.972 52.334 337.972 51.522V47.854H336.642V46.426H336.852C337.207 46.426 337.482 46.3233 337.678 46.118C337.874 45.9127 337.972 45.6327 337.972 45.278V44.69H339.554V46.426H341.276V47.854H339.554V51.452C339.554 51.7133 339.596 51.9373 339.68 52.124C339.764 52.3013 339.9 52.4413 340.086 52.544C340.273 52.6373 340.516 52.684 340.814 52.684C340.889 52.684 340.973 52.6793 341.066 52.67C341.16 52.6607 341.248 52.6513 341.332 52.642V54C341.202 54.0187 341.057 54.0373 340.898 54.056C340.74 54.0747 340.6 54.084 340.478 54.084ZM346.295 54.168C345.539 54.168 344.867 53.9953 344.279 53.65C343.701 53.2953 343.248 52.8193 342.921 52.222C342.595 51.6153 342.431 50.9387 342.431 50.192C342.431 49.4267 342.595 48.75 342.921 48.162C343.257 47.574 343.705 47.112 344.265 46.776C344.825 46.4307 345.46 46.258 346.169 46.258C346.739 46.258 347.247 46.356 347.695 46.552C348.143 46.748 348.521 47.0187 348.829 47.364C349.137 47.7 349.371 48.0873 349.529 48.526C349.697 48.9647 349.781 49.4313 349.781 49.926C349.781 50.0473 349.777 50.1733 349.767 50.304C349.758 50.4347 349.739 50.556 349.711 50.668H343.677V49.408H348.815L348.059 49.982C348.153 49.5247 348.12 49.1187 347.961 48.764C347.812 48.4 347.579 48.1153 347.261 47.91C346.953 47.6953 346.589 47.588 346.169 47.588C345.749 47.588 345.376 47.6953 345.049 47.91C344.723 48.1153 344.471 48.414 344.293 48.806C344.116 49.1887 344.046 49.6553 344.083 50.206C344.037 50.7193 344.107 51.1673 344.293 51.55C344.489 51.9327 344.76 52.2313 345.105 52.446C345.46 52.6607 345.861 52.768 346.309 52.768C346.767 52.768 347.154 52.6653 347.471 52.46C347.798 52.2547 348.055 51.9887 348.241 51.662L349.529 52.292C349.38 52.6467 349.147 52.9687 348.829 53.258C348.521 53.538 348.148 53.762 347.709 53.93C347.28 54.0887 346.809 54.168 346.295 54.168ZM351.325 56.8V46.426H352.837V47.994L352.655 47.63C352.935 47.2007 353.309 46.8647 353.775 46.622C354.242 46.3793 354.774 46.258 355.371 46.258C356.09 46.258 356.734 46.4307 357.303 46.776C357.882 47.1213 358.335 47.5927 358.661 48.19C358.997 48.7873 359.165 49.4593 359.165 50.206C359.165 50.9527 358.997 51.6247 358.661 52.222C358.335 52.8193 357.887 53.2953 357.317 53.65C356.748 53.9953 356.099 54.168 355.371 54.168C354.783 54.168 354.247 54.0467 353.761 53.804C353.285 53.5613 352.917 53.2113 352.655 52.754L352.907 52.46V56.8H351.325ZM355.217 52.698C355.665 52.698 356.062 52.5907 356.407 52.376C356.753 52.1613 357.023 51.8673 357.219 51.494C357.425 51.1113 357.527 50.682 357.527 50.206C357.527 49.73 357.425 49.3053 357.219 48.932C357.023 48.5587 356.753 48.2647 356.407 48.05C356.062 47.8353 355.665 47.728 355.217 47.728C354.779 47.728 354.382 47.8353 354.027 48.05C353.682 48.2647 353.407 48.5587 353.201 48.932C353.005 49.3053 352.907 49.73 352.907 50.206C352.907 50.682 353.005 51.1113 353.201 51.494C353.407 51.8673 353.682 52.1613 354.027 52.376C354.382 52.5907 354.779 52.698 355.217 52.698ZM366.33 54.168C365.77 54.168 365.242 54.0653 364.748 53.86C364.262 53.6547 363.842 53.3653 363.488 52.992C363.142 52.6187 362.895 52.18 362.746 51.676L364.146 51.144C364.332 51.6387 364.617 52.0213 365 52.292C365.382 52.5627 365.826 52.698 366.33 52.698C366.74 52.698 367.095 52.6187 367.394 52.46C367.702 52.3013 367.94 52.0773 368.108 51.788C368.285 51.4987 368.374 51.1487 368.374 50.738C368.374 50.3367 368.285 49.9913 368.108 49.702C367.94 49.4127 367.702 49.1933 367.394 49.044C367.095 48.8947 366.74 48.82 366.33 48.82C366.162 48.82 365.989 48.834 365.812 48.862C365.644 48.89 365.494 48.9273 365.364 48.974L365 48.204L367.744 44.97H363.306V43.57H369.592V44.9L366.904 48.12L366.862 47.588C367.487 47.5973 368.038 47.7373 368.514 48.008C368.99 48.2693 369.358 48.6333 369.62 49.1C369.89 49.5573 370.026 50.0893 370.026 50.696C370.026 51.3493 369.867 51.942 369.55 52.474C369.232 52.9967 368.794 53.412 368.234 53.72C367.683 54.0187 367.048 54.168 366.33 54.168Z" fill="#8D98A4"/>
<rect x="497.5" width="32" height="32" rx="16" fill="#EEF0F3"/>
<path d="M509.356 21.144C508.644 21.144 508.02 20.952 507.484 20.568C506.956 20.176 506.544 19.636 506.248 18.948C505.952 18.252 505.804 17.444 505.804 16.524C505.804 15.604 505.952 14.8 506.248 14.112C506.544 13.416 506.956 12.876 507.484 12.492C508.012 12.108 508.632 11.916 509.344 11.916C510.056 11.916 510.676 12.108 511.204 12.492C511.732 12.876 512.144 13.416 512.44 14.112C512.744 14.8 512.896 15.604 512.896 16.524C512.896 17.444 512.748 18.252 512.452 18.948C512.156 19.644 511.74 20.184 511.204 20.568C510.676 20.952 510.06 21.144 509.356 21.144ZM509.356 20.052C509.836 20.052 510.252 19.908 510.604 19.62C510.956 19.324 511.228 18.912 511.42 18.384C511.62 17.856 511.72 17.236 511.72 16.524C511.72 15.812 511.62 15.192 511.42 14.664C511.228 14.136 510.952 13.728 510.592 13.44C510.24 13.152 509.824 13.008 509.344 13.008C508.864 13.008 508.448 13.152 508.096 13.44C507.744 13.728 507.468 14.136 507.268 14.664C507.076 15.192 506.98 15.812 506.98 16.524C506.98 17.228 507.076 17.844 507.268 18.372C507.468 18.9 507.744 19.312 508.096 19.608C508.456 19.904 508.876 20.052 509.356 20.052ZM518.592 21V18.936H514.2V17.964L518.568 12.06H519.696V17.964H520.86V18.936H519.696V21H518.592ZM515.088 18.384L514.92 17.964H518.592V13.044L518.94 13.14L515.088 18.384Z" fill="#1A232F"/>
<path d="M496.2 53.168C495.546 53.168 494.94 53.0467 494.38 52.804C493.82 52.552 493.344 52.2113 492.952 51.782C492.56 51.3527 492.27 50.858 492.084 50.298L493.484 49.71C493.736 50.354 494.104 50.8487 494.59 51.194C495.075 51.5393 495.635 51.712 496.27 51.712C496.643 51.712 496.97 51.656 497.25 51.544C497.53 51.4227 497.744 51.2547 497.894 51.04C498.052 50.8253 498.132 50.578 498.132 50.298C498.132 49.9153 498.024 49.612 497.81 49.388C497.595 49.164 497.278 48.9867 496.858 48.856L494.898 48.24C494.114 47.9973 493.516 47.6287 493.106 47.134C492.695 46.63 492.49 46.042 492.49 45.37C492.49 44.782 492.634 44.2687 492.924 43.83C493.213 43.382 493.61 43.032 494.114 42.78C494.627 42.528 495.21 42.402 495.864 42.402C496.489 42.402 497.058 42.514 497.572 42.738C498.085 42.9527 498.524 43.2513 498.888 43.634C499.261 44.0167 499.532 44.46 499.7 44.964L498.328 45.566C498.122 45.0153 497.8 44.5907 497.362 44.292C496.932 43.9933 496.433 43.844 495.864 43.844C495.518 43.844 495.215 43.9047 494.954 44.026C494.692 44.138 494.487 44.306 494.338 44.53C494.198 44.7447 494.128 44.9967 494.128 45.286C494.128 45.622 494.235 45.9207 494.45 46.182C494.664 46.4433 494.991 46.6393 495.43 46.77L497.25 47.344C498.08 47.596 498.706 47.96 499.126 48.436C499.546 48.9027 499.756 49.486 499.756 50.186C499.756 50.7647 499.602 51.278 499.294 51.726C498.995 52.174 498.58 52.5287 498.048 52.79C497.516 53.042 496.9 53.168 496.2 53.168ZM504.732 53.084C503.939 53.084 503.323 52.86 502.884 52.412C502.446 51.964 502.226 51.334 502.226 50.522V46.854H500.896V45.426H501.106C501.461 45.426 501.736 45.3233 501.932 45.118C502.128 44.9127 502.226 44.6327 502.226 44.278V43.69H503.808V45.426H505.53V46.854H503.808V50.452C503.808 50.7133 503.85 50.9373 503.934 51.124C504.018 51.3013 504.154 51.4413 504.34 51.544C504.527 51.6373 504.77 51.684 505.068 51.684C505.143 51.684 505.227 51.6793 505.32 51.67C505.414 51.6607 505.502 51.6513 505.586 51.642V53C505.456 53.0187 505.311 53.0373 505.152 53.056C504.994 53.0747 504.854 53.084 504.732 53.084ZM510.549 53.168C509.793 53.168 509.121 52.9953 508.533 52.65C507.955 52.2953 507.502 51.8193 507.175 51.222C506.849 50.6153 506.685 49.9387 506.685 49.192C506.685 48.4267 506.849 47.75 507.175 47.162C507.511 46.574 507.959 46.112 508.519 45.776C509.079 45.4307 509.714 45.258 510.423 45.258C510.993 45.258 511.501 45.356 511.949 45.552C512.397 45.748 512.775 46.0187 513.083 46.364C513.391 46.7 513.625 47.0873 513.783 47.526C513.951 47.9647 514.035 48.4313 514.035 48.926C514.035 49.0473 514.031 49.1733 514.021 49.304C514.012 49.4347 513.993 49.556 513.965 49.668H507.931V48.408H513.069L512.313 48.982C512.407 48.5247 512.374 48.1187 512.215 47.764C512.066 47.4 511.833 47.1153 511.515 46.91C511.207 46.6953 510.843 46.588 510.423 46.588C510.003 46.588 509.63 46.6953 509.303 46.91C508.977 47.1153 508.725 47.414 508.547 47.806C508.37 48.1887 508.3 48.6553 508.337 49.206C508.291 49.7193 508.361 50.1673 508.547 50.55C508.743 50.9327 509.014 51.2313 509.359 51.446C509.714 51.6607 510.115 51.768 510.563 51.768C511.021 51.768 511.408 51.6653 511.725 51.46C512.052 51.2547 512.309 50.9887 512.495 50.662L513.783 51.292C513.634 51.6467 513.401 51.9687 513.083 52.258C512.775 52.538 512.402 52.762 511.963 52.93C511.534 53.0887 511.063 53.168 510.549 53.168ZM515.579 55.8V45.426H517.091V46.994L516.909 46.63C517.189 46.2007 517.563 45.8647 518.029 45.622C518.496 45.3793 519.028 45.258 519.625 45.258C520.344 45.258 520.988 45.4307 521.557 45.776C522.136 46.1213 522.589 46.5927 522.915 47.19C523.251 47.7873 523.419 48.4593 523.419 49.206C523.419 49.9527 523.251 50.6247 522.915 51.222C522.589 51.8193 522.141 52.2953 521.571 52.65C521.002 52.9953 520.353 53.168 519.625 53.168C519.037 53.168 518.501 53.0467 518.015 52.804C517.539 52.5613 517.171 52.2113 516.909 51.754L517.161 51.46V55.8H515.579ZM519.471 51.698C519.919 51.698 520.316 51.5907 520.661 51.376C521.007 51.1613 521.277 50.8673 521.473 50.494C521.679 50.1113 521.781 49.682 521.781 49.206C521.781 48.73 521.679 48.3053 521.473 47.932C521.277 47.5587 521.007 47.2647 520.661 47.05C520.316 46.8353 519.919 46.728 519.471 46.728C519.033 46.728 518.636 46.8353 518.281 47.05C517.936 47.2647 517.661 47.5587 517.455 47.932C517.259 48.3053 517.161 48.73 517.161 49.206C517.161 49.682 517.259 50.1113 517.455 50.494C517.661 50.8673 517.936 51.1613 518.281 51.376C518.636 51.5907 519.033 51.698 519.471 51.698ZM531.997 53V50.648H527.027V49.276L531.927 42.57H533.565V49.276H535.007V50.648H533.565V53H531.997ZM528.245 49.878L527.979 49.276H531.997V43.886L532.445 44.026L528.245 49.878Z" fill="#8D98A4"/>
</svg>
