<svg width="55" height="55" viewBox="0 0 55 55" fill="none" xmlns="http://www.w3.org/2000/svg">
<rect width="55" height="55" rx="4" fill="#E0EEFF"/>
<path d="M33.5596 24.4273C33.6525 24.5201 33.7263 24.6304 33.7766 24.7518C33.8269 24.8732 33.8528 25.0034 33.8528 25.1348C33.8528 25.2662 33.8269 25.3963 33.7766 25.5177C33.7263 25.6391 33.6525 25.7494 33.5596 25.8423L26.5596 32.8423C26.4667 32.9352 26.3564 33.009 26.235 33.0593C26.1136 33.1096 25.9835 33.1356 25.8521 33.1356C25.7206 33.1356 25.5905 33.1096 25.4691 33.0593C25.3477 33.009 25.2374 32.9352 25.1446 32.8423L22.1446 29.8423C21.9569 29.6546 21.8515 29.4001 21.8515 29.1348C21.8515 28.8694 21.9569 28.6149 22.1446 28.4273C22.3322 28.2396 22.5867 28.1342 22.8521 28.1342C23.1174 28.1342 23.3719 28.2396 23.5596 28.4273L25.8521 30.721L32.1446 24.4273C32.2374 24.3343 32.3477 24.2605 32.4691 24.2102C32.5905 24.1599 32.7206 24.134 32.8521 24.134C32.9835 24.134 33.1136 24.1599 33.235 24.2102C33.3564 24.2605 33.4667 24.3343 33.5596 24.4273ZM40.8521 28.1348C40.8521 30.7059 40.0896 33.2193 38.6612 35.3572C37.2327 37.495 35.2024 39.1613 32.8269 40.1452C30.4515 41.1291 27.8376 41.3866 25.3159 40.885C22.7941 40.3834 20.4778 39.1452 18.6597 37.3272C16.8416 35.5091 15.6035 33.1927 15.1018 30.6709C14.6002 28.1492 14.8577 25.5353 15.8416 23.1599C16.8256 20.7844 18.4918 18.7541 20.6296 17.3257C22.7675 15.8972 25.2809 15.1348 27.8521 15.1348C31.2988 15.1384 34.6032 16.5092 37.0404 18.9464C39.4776 21.3836 40.8484 24.6881 40.8521 28.1348ZM38.8521 28.1348C38.8521 25.9592 38.2069 23.8324 36.9982 22.0235C35.7895 20.2146 34.0716 18.8047 32.0616 17.9721C30.0516 17.1395 27.8399 16.9217 25.7061 17.3461C23.5723 17.7706 21.6123 18.8182 20.0739 20.3566C18.5355 21.895 17.4879 23.855 17.0634 25.9888C16.639 28.1226 16.8568 30.3343 17.6894 32.3443C18.5219 34.3543 19.9318 36.0722 21.7408 37.2809C23.5497 38.4896 25.6765 39.1348 27.8521 39.1348C30.7684 39.1315 33.5644 37.9715 35.6266 35.9093C37.6888 33.8471 38.8487 31.0511 38.8521 28.1348Z" fill="#165BAA"/>
</svg>
