<svg width="37" height="36" viewBox="0 0 37 36" fill="none" xmlns="http://www.w3.org/2000/svg">
<path d="M26.375 2.8125C26.375 2.47874 26.474 2.15248 26.6594 1.87498C26.8448 1.59747 27.1084 1.38118 27.4167 1.25345C27.7251 1.12573 28.0644 1.09231 28.3917 1.15743C28.7191 1.22254 29.0197 1.38326 29.2557 1.61926C29.4917 1.85526 29.6525 2.15594 29.7176 2.48329C29.7827 2.81063 29.7493 3.14993 29.6215 3.45828C29.4938 3.76663 29.2775 4.03018 29 4.21561C28.7225 4.40103 28.3963 4.5 28.0625 4.5C27.6149 4.5 27.1857 4.32221 26.8693 4.00574C26.5528 3.68928 26.375 3.26005 26.375 2.8125ZM23.5794 10.298C24.6003 16.5206 24.1911 20.9517 22.3616 23.4689C21.9133 24.102 21.3388 24.6354 20.6742 25.0355C20.0096 25.4356 19.2693 25.6937 18.5 25.7934V32.625H20.75C21.0484 32.625 21.3345 32.7435 21.5455 32.9545C21.7565 33.1655 21.875 33.4516 21.875 33.75C21.875 34.0484 21.7565 34.3345 21.5455 34.5455C21.3345 34.7565 21.0484 34.875 20.75 34.875H14C13.7016 34.875 13.4155 34.7565 13.2045 34.5455C12.9935 34.3345 12.875 34.0484 12.875 33.75C12.875 33.4516 12.9935 33.1655 13.2045 32.9545C13.4155 32.7435 13.7016 32.625 14 32.625H16.25V25.7934C15.4809 25.6932 14.7408 25.4349 14.0762 25.0349C13.4117 24.6348 12.837 24.1017 12.3884 23.4689C10.5603 20.9517 10.1511 16.5206 11.172 10.298C11.6467 7.45741 12.3144 4.65248 13.1703 1.90266C13.2437 1.67662 13.3868 1.47962 13.579 1.33991C13.7713 1.20021 14.0028 1.12498 14.2405 1.125H20.5109C20.7486 1.12498 20.9801 1.20021 21.1724 1.33991C21.3646 1.47962 21.5077 1.67662 21.5811 1.90266C22.437 4.65248 23.1047 7.45741 23.5794 10.298ZM13.6906 9H21.0594C20.6375 6.80906 20.1144 4.80797 19.6841 3.375H15.0673C14.637 4.80797 14.1167 6.80906 13.6906 9ZM21.4531 11.25H13.2969C12.6655 15.4688 12.5741 19.9041 14.2039 22.147C14.9323 23.1413 15.9687 23.625 17.375 23.625C18.7812 23.625 19.8191 23.1413 20.5419 22.147C22.1703 19.9041 22.0803 15.4688 21.4531 11.25ZM31.4375 5.625C31.1037 5.625 30.7775 5.72397 30.5 5.9094C30.2225 6.09482 30.0062 6.35837 29.8785 6.66672C29.7507 6.97507 29.7173 7.31437 29.7824 7.64172C29.8475 7.96906 30.0083 8.26974 30.2443 8.50574C30.4803 8.74174 30.7809 8.90246 31.1083 8.96758C31.4356 9.03269 31.7749 8.99927 32.0833 8.87155C32.3916 8.74382 32.6552 8.52753 32.8406 8.25003C33.026 7.97252 33.125 7.64626 33.125 7.3125C33.125 6.86495 32.9472 6.43573 32.6307 6.11926C32.3143 5.80279 31.885 5.625 31.4375 5.625ZM28.0625 12.375C27.7287 12.375 27.4025 12.474 27.125 12.6594C26.8475 12.8448 26.6312 13.1084 26.5035 13.4167C26.3757 13.7251 26.3423 14.0644 26.4074 14.3917C26.4725 14.7191 26.6333 15.0197 26.8693 15.2557C27.1053 15.4917 27.4059 15.6525 27.7333 15.7176C28.0606 15.7827 28.3999 15.7493 28.7083 15.6215C29.0166 15.4938 29.2802 15.2775 29.4656 15C29.651 14.7225 29.75 14.3963 29.75 14.0625C29.75 13.6149 29.5722 13.1857 29.2557 12.8693C28.9393 12.5528 28.51 12.375 28.0625 12.375Z" fill="#121212"/>
</svg>
