<svg width="33" height="33" viewBox="0 0 33 33" fill="none" xmlns="http://www.w3.org/2000/svg">
<path d="M4.55587 16.775C4.55587 17.0439 4.66271 17.3019 4.85288 17.492C5.04306 17.6822 5.30099 17.789 5.56993 17.789H25.4316L18.0353 25.1841C17.9411 25.2783 17.8663 25.3902 17.8154 25.5133C17.7644 25.6364 17.7381 25.7683 17.7381 25.9015C17.7381 26.0348 17.7644 26.1667 17.8154 26.2898C17.8663 26.4129 17.9411 26.5248 18.0353 26.619C18.1295 26.7132 18.2414 26.7879 18.3645 26.8389C18.4876 26.8899 18.6195 26.9162 18.7527 26.9162C18.886 26.9162 19.0179 26.8899 19.141 26.8389C19.2641 26.7879 19.376 26.7132 19.4702 26.619L28.5968 17.4924C28.691 17.3982 28.7658 17.2864 28.8169 17.1633C28.8679 17.0402 28.8942 16.9082 28.8942 16.775C28.8942 16.6417 28.8679 16.5098 28.8169 16.3867C28.7658 16.2635 28.691 16.1517 28.5968 16.0575L19.4702 6.93097C19.2799 6.74069 19.0218 6.63379 18.7527 6.63379C18.4836 6.63379 18.2256 6.74069 18.0353 6.93097C17.845 7.12125 17.7381 7.37932 17.7381 7.64842C17.7381 7.91751 17.845 8.17559 18.0353 8.36586L25.4316 15.7609H5.56993C5.30099 15.7609 5.04306 15.8678 4.85288 16.0579C4.66271 16.2481 4.55587 16.506 4.55587 16.775Z" fill="white"/>
</svg>
