<svg width="37" height="36" viewBox="0 0 37 36" fill="none" xmlns="http://www.w3.org/2000/svg">
<path d="M28.2847 18.1491L21.027 15.4772L18.3551 8.21391C18.1969 7.78406 17.9106 7.41308 17.5349 7.15104C17.1593 6.889 16.7122 6.7485 16.2542 6.7485C15.7961 6.7485 15.3491 6.889 14.9734 7.15104C14.5977 7.41308 14.3115 7.78406 14.1533 8.21391L11.4786 15.4688L4.21528 18.1406C3.78543 18.2989 3.41446 18.5851 3.15242 18.9608C2.89038 19.3365 2.74988 19.7835 2.74988 20.2416C2.74988 20.6996 2.89038 21.1466 3.15242 21.5223C3.41446 21.898 3.78543 22.1843 4.21528 22.3425L11.4687 25.0313L14.1406 32.2903C14.2988 32.7202 14.5851 33.0911 14.9608 33.3532C15.3365 33.6152 15.7835 33.7557 16.2415 33.7557C16.6996 33.7557 17.1466 33.6152 17.5223 33.3532C17.898 33.0911 18.1842 32.7202 18.3425 32.2903L21.0143 25.0327L28.2776 22.3608C28.7075 22.2026 29.0784 21.9163 29.3405 21.5406C29.6025 21.1649 29.743 20.7179 29.743 20.2598C29.743 19.8018 29.6025 19.3548 29.3405 18.9791C29.0784 18.6034 28.7075 18.3171 28.2776 18.1589L28.2847 18.1491ZM20.2423 22.9219C19.9383 23.0335 19.6622 23.2099 19.4332 23.4389C19.2042 23.6679 19.0278 23.944 18.9162 24.248L16.2443 31.4845L13.5781 24.2423C13.4664 23.9399 13.2906 23.6653 13.0626 23.4374C12.8347 23.2094 12.56 23.0335 12.2576 22.9219L5.02106 20.25L12.2576 17.5781C12.56 17.4665 12.8347 17.2906 13.0626 17.0626C13.2906 16.8347 13.4664 16.5601 13.5781 16.2577L16.25 9.02109L18.9218 16.2577C19.0334 16.5617 19.2098 16.8378 19.4388 17.0668C19.6678 17.2958 19.9439 17.4722 20.2479 17.5838L27.4845 20.2556L20.2423 22.9219ZM20.75 5.625C20.75 5.32663 20.8685 5.04048 21.0795 4.82951C21.2905 4.61853 21.5766 4.5 21.875 4.5H24.125V2.25C24.125 1.95163 24.2435 1.66548 24.4545 1.4545C24.6655 1.24353 24.9516 1.125 25.25 1.125C25.5483 1.125 25.8345 1.24353 26.0455 1.4545C26.2564 1.66548 26.375 1.95163 26.375 2.25V4.5H28.625C28.9233 4.5 29.2095 4.61853 29.4205 4.82951C29.6314 5.04048 29.75 5.32663 29.75 5.625C29.75 5.92337 29.6314 6.20952 29.4205 6.4205C29.2095 6.63147 28.9233 6.75 28.625 6.75H26.375V9C26.375 9.29837 26.2564 9.58452 26.0455 9.7955C25.8345 10.0065 25.5483 10.125 25.25 10.125C24.9516 10.125 24.6655 10.0065 24.4545 9.7955C24.2435 9.58452 24.125 9.29837 24.125 9V6.75H21.875C21.5766 6.75 21.2905 6.63147 21.0795 6.4205C20.8685 6.20952 20.75 5.92337 20.75 5.625ZM35.375 12.375C35.375 12.6734 35.2564 12.9595 35.0455 13.1705C34.8345 13.3815 34.5483 13.5 34.25 13.5H33.125V14.625C33.125 14.9234 33.0064 15.2095 32.7955 15.4205C32.5845 15.6315 32.2983 15.75 32 15.75C31.7016 15.75 31.4155 15.6315 31.2045 15.4205C30.9935 15.2095 30.875 14.9234 30.875 14.625V13.5H29.75C29.4516 13.5 29.1655 13.3815 28.9545 13.1705C28.7435 12.9595 28.625 12.6734 28.625 12.375C28.625 12.0766 28.7435 11.7905 28.9545 11.5795C29.1655 11.3685 29.4516 11.25 29.75 11.25H30.875V10.125C30.875 9.82663 30.9935 9.54048 31.2045 9.32951C31.4155 9.11853 31.7016 9 32 9C32.2983 9 32.5845 9.11853 32.7955 9.32951C33.0064 9.54048 33.125 9.82663 33.125 10.125V11.25H34.25C34.5483 11.25 34.8345 11.3685 35.0455 11.5795C35.2564 11.7905 35.375 12.0766 35.375 12.375Z" fill="#121212"/>
</svg>
