<svg width="20" height="20" viewBox="0 0 20 20" fill="none" xmlns="http://www.w3.org/2000/svg">
<g clip-path="url(#clip0_1_1491)">
<path d="M15.3035 4.6967C15.4207 4.81391 15.4865 4.97288 15.4865 5.13864C15.4865 5.3044 15.4207 5.46337 15.3035 5.58058L10.884 10L15.3035 14.4194C15.4207 14.5366 15.4865 14.6956 15.4865 14.8614C15.4865 15.0271 15.4207 15.1861 15.3035 15.3033C15.1862 15.4205 15.0273 15.4864 14.8615 15.4864C14.6958 15.4864 14.5368 15.4205 14.4196 15.3033L10.0002 10.8839L5.58074 15.3033C5.46353 15.4205 5.30456 15.4864 5.1388 15.4864C4.97304 15.4864 4.81407 15.4205 4.69686 15.3033C4.57965 15.1861 4.5138 15.0271 4.5138 14.8614C4.5138 14.6956 4.57965 14.5366 4.69686 14.4194L9.11627 10L4.69686 5.58058C4.57965 5.46337 4.5138 5.3044 4.5138 5.13864C4.5138 4.97288 4.57965 4.81391 4.69686 4.6967C4.81407 4.57949 4.97304 4.51364 5.1388 4.51364C5.30456 4.51364 5.46353 4.57949 5.58074 4.6967L10.0002 9.11612L14.4196 4.6967C14.5368 4.57949 14.6958 4.51364 14.8615 4.51364C15.0273 4.51364 15.1862 4.57949 15.3035 4.6967Z" fill="black"/>
</g>
<defs>
<clipPath id="clip0_1_1491">
<rect width="20" height="20" fill="white"/>
</clipPath>
</defs>
</svg>
