<svg width="37" height="36" viewBox="0 0 37 36" fill="none" xmlns="http://www.w3.org/2000/svg">
<path d="M30.875 5.625H6.125C5.52826 5.625 4.95597 5.86205 4.53401 6.28401C4.11205 6.70597 3.875 7.27826 3.875 7.875V28.125C3.875 28.7217 4.11205 29.294 4.53401 29.716C4.95597 30.1379 5.52826 30.375 6.125 30.375H30.875C31.4717 30.375 32.044 30.1379 32.466 29.716C32.8879 29.294 33.125 28.7217 33.125 28.125V7.875C33.125 7.27826 32.8879 6.70597 32.466 6.28401C32.044 5.86205 31.4717 5.625 30.875 5.625ZM30.875 7.875V10.125H6.125V7.875H30.875ZM30.875 28.125H6.125V12.375H30.875V28.125ZM25.25 15.75C25.25 17.5402 24.5388 19.2571 23.273 20.523C22.0071 21.7888 20.2902 22.5 18.5 22.5C16.7098 22.5 14.9929 21.7888 13.727 20.523C12.4612 19.2571 11.75 17.5402 11.75 15.75C11.75 15.4516 11.8685 15.1655 12.0795 14.9545C12.2905 14.7435 12.5766 14.625 12.875 14.625C13.1734 14.625 13.4595 14.7435 13.6705 14.9545C13.8815 15.1655 14 15.4516 14 15.75C14 16.9435 14.4741 18.0881 15.318 18.932C16.1619 19.7759 17.3065 20.25 18.5 20.25C19.6935 20.25 20.8381 19.7759 21.682 18.932C22.5259 18.0881 23 16.9435 23 15.75C23 15.4516 23.1185 15.1655 23.3295 14.9545C23.5405 14.7435 23.8266 14.625 24.125 14.625C24.4234 14.625 24.7095 14.7435 24.9205 14.9545C25.1315 15.1655 25.25 15.4516 25.25 15.75Z" fill="#121212"/>
</svg>
