<svg width="22" height="22" viewBox="0 0 22 22" fill="none" xmlns="http://www.w3.org/2000/svg">
<path d="M17.4166 7.98417L12.528 4.18184C11.6454 3.49523 10.4094 3.49523 9.52684 4.18184L4.63734 7.98417C4.04188 8.44724 3.69374 9.15943 3.69409 9.91376V16.5138C3.69409 17.5263 4.5149 18.3471 5.52743 18.3471H16.5274C17.5399 18.3471 18.3608 17.5263 18.3608 16.5138V9.91376C18.3608 9.15934 18.0124 8.44709 17.4166 7.98417" stroke="#6F6B7D" stroke-linecap="round" stroke-linejoin="round"/>
<path d="M17.4166 7.98417L12.528 4.18184C11.6454 3.49523 10.4094 3.49523 9.52684 4.18184L4.63734 7.98417C4.04188 8.44724 3.69374 9.15943 3.69409 9.91376V16.5138C3.69409 17.5263 4.5149 18.3471 5.52743 18.3471H16.5274C17.5399 18.3471 18.3608 17.5263 18.3608 16.5138V9.91376C18.3608 9.15934 18.0124 8.44709 17.4166 7.98417" stroke="#6F6B7D" stroke-linecap="round" stroke-linejoin="round"/>
<path d="M14.6666 13.7499C12.6408 14.9718 9.35725 14.9718 7.33325 13.7499" stroke="#6F6B7D" stroke-linecap="round" stroke-linejoin="round"/>
<path d="M14.6666 13.7499C12.6408 14.9718 9.35725 14.9718 7.33325 13.7499" stroke="#6F6B7D" stroke-linecap="round" stroke-linejoin="round"/>
</svg>
