<svg width="37" height="36" viewBox="0 0 37 36" fill="none" xmlns="http://www.w3.org/2000/svg">
<path d="M34.7155 19.125L20.75 5.15954C20.5418 4.9497 20.294 4.78333 20.021 4.67011C19.7479 4.55689 19.4551 4.49907 19.1595 4.50001H6.12501C5.82664 4.50001 5.54049 4.61854 5.32952 4.82952C5.11854 5.04049 5.00001 5.32664 5.00001 5.62501V18.6595C4.99907 18.9551 5.05689 19.2479 5.17011 19.521C5.28333 19.794 5.4497 20.0418 5.65954 20.25L19.625 34.2155C19.834 34.4245 20.082 34.5903 20.355 34.7034C20.628 34.8165 20.9207 34.8747 21.2162 34.8747C21.5117 34.8747 21.8043 34.8165 22.0773 34.7034C22.3504 34.5903 22.5984 34.4245 22.8074 34.2155L34.7155 22.3074C34.9245 22.0984 35.0903 21.8504 35.2034 21.5773C35.3165 21.3043 35.3747 21.0117 35.3747 20.7162C35.3747 20.4207 35.3165 20.128 35.2034 19.855C35.0903 19.582 34.9245 19.334 34.7155 19.125ZM21.2155 32.625L7.25001 18.6595V6.75001H19.1595L33.125 20.7155L21.2155 32.625ZM14 11.8125C14 12.1463 13.901 12.4725 13.7156 12.75C13.5302 13.0275 13.2666 13.2438 12.9583 13.3716C12.6499 13.4993 12.3106 13.5327 11.9833 13.4676C11.656 13.4025 11.3553 13.2418 11.1193 13.0058C10.8833 12.7698 10.7225 12.4691 10.6574 12.1417C10.5923 11.8144 10.6257 11.4751 10.7535 11.1667C10.8812 10.8584 11.0975 10.5948 11.375 10.4094C11.6525 10.224 11.9788 10.125 12.3125 10.125C12.7601 10.125 13.1893 10.3028 13.5058 10.6193C13.8222 10.9357 14 11.365 14 11.8125Z" fill="#121212"/>
</svg>
