<svg width="24" height="25" viewBox="0 0 24 25" fill="none" xmlns="http://www.w3.org/2000/svg">
<g id="Scroll">
<path id="Vector" d="M9 10.25C9 10.0511 9.07902 9.86032 9.21967 9.71967C9.36032 9.57902 9.55109 9.5 9.75 9.5H15.75C15.9489 9.5 16.1397 9.57902 16.2803 9.71967C16.421 9.86032 16.5 10.0511 16.5 10.25C16.5 10.4489 16.421 10.6397 16.2803 10.7803C16.1397 10.921 15.9489 11 15.75 11H9.75C9.55109 11 9.36032 10.921 9.21967 10.7803C9.07902 10.6397 9 10.4489 9 10.25ZM9.75 14H15.75C15.9489 14 16.1397 13.921 16.2803 13.7803C16.421 13.6397 16.5 13.4489 16.5 13.25C16.5 13.0511 16.421 12.8603 16.2803 12.7197C16.1397 12.579 15.9489 12.5 15.75 12.5H9.75C9.55109 12.5 9.36032 12.579 9.21967 12.7197C9.07902 12.8603 9 13.0511 9 13.25C9 13.4489 9.07902 13.6397 9.21967 13.7803C9.36032 13.921 9.55109 14 9.75 14ZM21.75 18.5C21.75 19.2956 21.4339 20.0587 20.8713 20.6213C20.3087 21.1839 19.5456 21.5 18.75 21.5H8.25C7.45435 21.5 6.69129 21.1839 6.12868 20.6213C5.56607 20.0587 5.25 19.2956 5.25 18.5V6.5C5.25 6.10218 5.09196 5.72064 4.81066 5.43934C4.52936 5.15804 4.14782 5 3.75 5C3.35218 5 2.97064 5.15804 2.68934 5.43934C2.40804 5.72064 2.25 6.10218 2.25 6.5C2.25 7.03813 2.70281 7.40188 2.7075 7.40563C2.83163 7.50115 2.92273 7.63313 2.96804 7.78306C3.01334 7.93299 3.01057 8.09335 2.96011 8.24162C2.90965 8.3899 2.81404 8.51866 2.68668 8.60983C2.55933 8.701 2.40663 8.75002 2.25 8.75C2.08781 8.75028 1.93003 8.69725 1.80094 8.59906C1.69219 8.51937 0.75 7.77594 0.75 6.5C0.75 5.70435 1.06607 4.94129 1.62868 4.37868C2.19129 3.81607 2.95435 3.5 3.75 3.5H16.5C17.2956 3.5 18.0587 3.81607 18.6213 4.37868C19.1839 4.94129 19.5 5.70435 19.5 6.5V16.25H20.25C20.4123 16.25 20.5702 16.3026 20.7 16.4C20.8125 16.4806 21.75 17.2241 21.75 18.5ZM9.02437 16.7638C9.07562 16.6125 9.17342 16.4813 9.30376 16.389C9.4341 16.2968 9.59031 16.2481 9.75 16.25H18V6.5C18 6.10218 17.842 5.72064 17.5607 5.43934C17.2794 5.15804 16.8978 5 16.5 5H6.34594C6.61119 5.45535 6.75064 5.97302 6.75 6.5V18.5C6.75 18.8978 6.90804 19.2794 7.18934 19.5607C7.47064 19.842 7.85218 20 8.25 20C8.64782 20 9.02936 19.842 9.31066 19.5607C9.59196 19.2794 9.75 18.8978 9.75 18.5C9.75 17.9619 9.29719 17.5981 9.2925 17.5944C9.16469 17.5029 9.06963 17.3729 9.02136 17.2233C8.97308 17.0738 8.97414 16.9127 9.02437 16.7638ZM20.25 18.5C20.2406 18.2221 20.1334 17.9565 19.9472 17.75H11.1347C11.2101 17.9929 11.2483 18.2457 11.2481 18.5C11.2488 19.0267 11.1101 19.5443 10.8459 20H18.75C19.1478 20 19.5294 19.842 19.8107 19.5607C20.092 19.2794 20.25 18.8978 20.25 18.5Z" fill="#121212"/>
</g>
</svg>
