<svg width="24" height="25" viewBox="0 0 24 25" fill="none" xmlns="http://www.w3.org/2000/svg">
<g id="currency-dollar">
<g id="Path">
<path d="M16.7 8.5C16.2928 7.34458 15.2239 6.55285 14 6.5H10C8.34315 6.5 7 7.84315 7 9.5C7 11.1569 8.34315 12.5 10 12.5H14C15.6569 12.5 17 13.8431 17 15.5C17 17.1569 15.6569 18.5 14 18.5H10C8.77606 18.4472 7.70722 17.6554 7.3 16.5" stroke="#4B465C" stroke-width="1.5" stroke-linecap="round" stroke-linejoin="round"/>
<path d="M16.7 8.5C16.2928 7.34458 15.2239 6.55285 14 6.5H10C8.34315 6.5 7 7.84315 7 9.5C7 11.1569 8.34315 12.5 10 12.5H14C15.6569 12.5 17 13.8431 17 15.5C17 17.1569 15.6569 18.5 14 18.5H10C8.77606 18.4472 7.70722 17.6554 7.3 16.5" stroke="white" stroke-opacity="0.2" stroke-width="1.5" stroke-linecap="round" stroke-linejoin="round"/>
</g>
<g id="Shape">
<path d="M12.75 3.5C12.75 3.08579 12.4142 2.75 12 2.75C11.5858 2.75 11.25 3.08579 11.25 3.5H12.75ZM11.25 6.5C11.25 6.91421 11.5858 7.25 12 7.25C12.4142 7.25 12.75 6.91421 12.75 6.5H11.25ZM12.75 18.5C12.75 18.0858 12.4142 17.75 12 17.75C11.5858 17.75 11.25 18.0858 11.25 18.5H12.75ZM11.25 21.5C11.25 21.9142 11.5858 22.25 12 22.25C12.4142 22.25 12.75 21.9142 12.75 21.5H11.25ZM11.25 3.5V6.5H12.75V3.5H11.25ZM11.25 18.5V21.5H12.75V18.5H11.25Z" fill="#4B465C"/>
<path d="M12.75 3.5C12.75 3.08579 12.4142 2.75 12 2.75C11.5858 2.75 11.25 3.08579 11.25 3.5H12.75ZM11.25 6.5C11.25 6.91421 11.5858 7.25 12 7.25C12.4142 7.25 12.75 6.91421 12.75 6.5H11.25ZM12.75 18.5C12.75 18.0858 12.4142 17.75 12 17.75C11.5858 17.75 11.25 18.0858 11.25 18.5H12.75ZM11.25 21.5C11.25 21.9142 11.5858 22.25 12 22.25C12.4142 22.25 12.75 21.9142 12.75 21.5H11.25ZM11.25 3.5V6.5H12.75V3.5H11.25ZM11.25 18.5V21.5H12.75V18.5H11.25Z" fill="white" fill-opacity="0.2"/>
</g>
</g>
</svg>
