<svg width="36" height="36" viewBox="0 0 36 36" fill="none" xmlns="http://www.w3.org/2000/svg">
<path d="M28.125 2.25C27.8266 2.25 27.5405 2.36853 27.3295 2.5795C27.1185 2.79048 27 3.07663 27 3.375V5.625H22.5V3.375C22.5 3.07663 22.3815 2.79048 22.1705 2.5795C21.9595 2.36853 21.6734 2.25 21.375 2.25C21.0766 2.25 20.7905 2.36853 20.5795 2.5795C20.3685 2.79048 20.25 3.07663 20.25 3.375V5.625H15.75V3.375C15.75 3.07663 15.6315 2.79048 15.4205 2.5795C15.2095 2.36853 14.9234 2.25 14.625 2.25C14.3266 2.25 14.0405 2.36853 13.8295 2.5795C13.6185 2.79048 13.5 3.07663 13.5 3.375V5.625H9V3.375C9 3.07663 8.88147 2.79048 8.67049 2.5795C8.45952 2.36853 8.17337 2.25 7.875 2.25C7.57663 2.25 7.29048 2.36853 7.07951 2.5795C6.86853 2.79048 6.75 3.07663 6.75 3.375V32.625C6.75 32.9234 6.86853 33.2095 7.07951 33.4205C7.29048 33.6315 7.57663 33.75 7.875 33.75C8.17337 33.75 8.45952 33.6315 8.67049 33.4205C8.88147 33.2095 9 32.9234 9 32.625V30.375H13.5V32.625C13.5 32.9234 13.6185 33.2095 13.8295 33.4205C14.0405 33.6315 14.3266 33.75 14.625 33.75C14.9234 33.75 15.2095 33.6315 15.4205 33.4205C15.6315 33.2095 15.75 32.9234 15.75 32.625V30.375H20.25V32.625C20.25 32.9234 20.3685 33.2095 20.5795 33.4205C20.7905 33.6315 21.0766 33.75 21.375 33.75C21.6734 33.75 21.9595 33.6315 22.1705 33.4205C22.3815 33.2095 22.5 32.9234 22.5 32.625V30.375H27V32.625C27 32.9234 27.1185 33.2095 27.3295 33.4205C27.5405 33.6315 27.8266 33.75 28.125 33.75C28.4234 33.75 28.7095 33.6315 28.9205 33.4205C29.1315 33.2095 29.25 32.9234 29.25 32.625V3.375C29.25 3.07663 29.1315 2.79048 28.9205 2.5795C28.7095 2.36853 28.4234 2.25 28.125 2.25ZM9 7.875H27V28.125H9V7.875ZM18 24.75C18.1942 24.7501 18.3851 24.6998 18.5542 24.6042C18.7232 24.5086 18.8647 24.3709 18.9647 24.2044L22.3397 18.5794C22.4448 18.4044 22.5003 18.2041 22.5003 18C22.5003 17.7959 22.4448 17.5956 22.3397 17.4206L18.9647 11.7956C18.8647 11.629 18.7233 11.4912 18.5543 11.3954C18.3852 11.2997 18.1943 11.2494 18 11.2494C17.8057 11.2494 17.6148 11.2997 17.4457 11.3954C17.2767 11.4912 17.1353 11.629 17.0353 11.7956L13.6603 17.4206C13.5552 17.5956 13.4997 17.7959 13.4997 18C13.4997 18.2041 13.5552 18.4044 13.6603 18.5794L17.0353 24.2044C17.1353 24.3709 17.2768 24.5086 17.4458 24.6042C17.6149 24.6998 17.8058 24.7501 18 24.75ZM18 14.5617L20.063 18L18 21.4383L15.937 18L18 14.5617Z" fill="#121212"/>
</svg>
