<svg width="24" height="25" viewBox="0 0 24 25" fill="none" xmlns="http://www.w3.org/2000/svg">
    <path d="M16.6875 3.5C14.7516 3.5 13.0566 4.3325 12 5.73969C10.9434 4.3325 9.24844 3.5 7.3125 3.5C5.77146 3.50174 4.29404 4.11468 3.20436 5.20436C2.11468 6.29404 1.50174 7.77146 1.5 9.3125C1.5 15.875 11.2303 21.1869 11.6447 21.4062C11.7539 21.465 11.876 21.4958 12 21.4958C12.124 21.4958 12.2461 21.465 12.3553 21.4062C12.7697 21.1869 22.5 15.875 22.5 9.3125C22.4983 7.77146 21.8853 6.29404 20.7956 5.20436C19.706 4.11468 18.2285 3.50174 16.6875 3.5ZM12 19.8875C10.2881 18.89 3 14.3459 3 9.3125C3.00149 8.16921 3.45632 7.07317 4.26475 6.26475C5.07317 5.45632 6.16921 5.00149 7.3125 5C9.13594 5 10.6669 5.97125 11.3062 7.53125C11.3628 7.66881 11.4589 7.78646 11.5824 7.86926C11.7059 7.95207 11.8513 7.99627 12 7.99627C12.1487 7.99627 12.2941 7.95207 12.4176 7.86926C12.5411 7.78646 12.6372 7.66881 12.6937 7.53125C13.3331 5.96844 14.8641 5 16.6875 5C17.8308 5.00149 18.9268 5.45632 19.7353 6.26475C20.5437 7.07317 20.9985 8.16921 21 9.3125C21 14.3384 13.71 18.8891 12 19.8875Z" fill="#F8474E"/>
</svg>
