<svg width="16" height="17" viewBox="0 0 16 17" fill="none" xmlns="http://www.w3.org/2000/svg">
<path d="M3.87505 7.1625V3C3.87505 2.90054 3.83554 2.80516 3.76521 2.73483C3.69489 2.66451 3.5995 2.625 3.50005 2.625C3.40059 2.625 3.30521 2.66451 3.23488 2.73483C3.16456 2.80516 3.12505 2.90054 3.12505 3V7.1625C2.70119 7.24857 2.32012 7.47852 2.04641 7.8134C1.77269 8.14828 1.62317 8.56749 1.62317 9C1.62317 9.43251 1.77269 9.85172 2.04641 10.1866C2.32012 10.5215 2.70119 10.7514 3.12505 10.8375V14C3.12505 14.0995 3.16456 14.1948 3.23488 14.2652C3.30521 14.3355 3.40059 14.375 3.50005 14.375C3.5995 14.375 3.69489 14.3355 3.76521 14.2652C3.83554 14.1948 3.87505 14.0995 3.87505 14V10.8375C4.29891 10.7514 4.67998 10.5215 4.95369 10.1866C5.2274 9.85172 5.37693 9.43251 5.37693 9C5.37693 8.56749 5.2274 8.14828 4.95369 7.8134C4.67998 7.47852 4.29891 7.24857 3.87505 7.1625ZM3.50005 10.125C3.27754 10.125 3.06004 10.059 2.87503 9.9354C2.69003 9.81179 2.54583 9.63609 2.46068 9.43052C2.37554 9.22495 2.35326 8.99875 2.39667 8.78052C2.44007 8.56229 2.54722 8.36184 2.70455 8.2045C2.86189 8.04717 3.06234 7.94002 3.28057 7.89662C3.4988 7.85321 3.725 7.87549 3.93057 7.96064C4.13613 8.04578 4.31184 8.18998 4.43545 8.37498C4.55907 8.55999 4.62505 8.7775 4.62505 9C4.62505 9.29837 4.50652 9.58452 4.29554 9.7955C4.08457 10.0065 3.79842 10.125 3.50005 10.125ZM8.37505 4.1625V3C8.37505 2.90054 8.33554 2.80516 8.26521 2.73483C8.19489 2.66451 8.0995 2.625 8.00005 2.625C7.90059 2.625 7.80521 2.66451 7.73488 2.73483C7.66456 2.80516 7.62505 2.90054 7.62505 3V4.1625C7.20119 4.24857 6.82012 4.47852 6.54641 4.8134C6.27269 5.14828 6.12317 5.56749 6.12317 6C6.12317 6.43251 6.27269 6.85172 6.54641 7.1866C6.82012 7.52148 7.20119 7.75143 7.62505 7.8375V14C7.62505 14.0995 7.66456 14.1948 7.73488 14.2652C7.80521 14.3355 7.90059 14.375 8.00005 14.375C8.0995 14.375 8.19489 14.3355 8.26521 14.2652C8.33554 14.1948 8.37505 14.0995 8.37505 14V7.8375C8.79891 7.75143 9.17998 7.52148 9.45369 7.1866C9.7274 6.85172 9.87693 6.43251 9.87693 6C9.87693 5.56749 9.7274 5.14828 9.45369 4.8134C9.17998 4.47852 8.79891 4.24857 8.37505 4.1625ZM8.00005 7.125C7.77754 7.125 7.56004 7.05902 7.37503 6.9354C7.19003 6.81179 7.04583 6.63609 6.96068 6.43052C6.87554 6.22495 6.85326 5.99875 6.89667 5.78052C6.94007 5.56229 7.04722 5.36184 7.20455 5.2045C7.36189 5.04717 7.56234 4.94002 7.78057 4.89662C7.9988 4.85321 8.225 4.87549 8.43057 4.96064C8.63613 5.04578 8.81183 5.18998 8.93545 5.37498C9.05907 5.55999 9.12505 5.7775 9.12505 6C9.12505 6.29837 9.00652 6.58452 8.79554 6.7955C8.58457 7.00647 8.29842 7.125 8.00005 7.125ZM14.375 11C14.3745 10.5679 14.2251 10.1492 13.9518 9.81449C13.6786 9.47976 13.2983 9.24949 12.875 9.1625V3C12.875 2.90054 12.8355 2.80516 12.7652 2.73483C12.6949 2.66451 12.5995 2.625 12.5 2.625C12.4006 2.625 12.3052 2.66451 12.2349 2.73483C12.1646 2.80516 12.125 2.90054 12.125 3V9.1625C11.7012 9.24857 11.3201 9.47852 11.0464 9.8134C10.7727 10.1483 10.6232 10.5675 10.6232 11C10.6232 11.4325 10.7727 11.8517 11.0464 12.1866C11.3201 12.5215 11.7012 12.7514 12.125 12.8375V14C12.125 14.0995 12.1646 14.1948 12.2349 14.2652C12.3052 14.3355 12.4006 14.375 12.5 14.375C12.5995 14.375 12.6949 14.3355 12.7652 14.2652C12.8355 14.1948 12.875 14.0995 12.875 14V12.8375C13.2983 12.7505 13.6786 12.5202 13.9518 12.1855C14.2251 11.8508 14.3745 11.4321 14.375 11ZM12.5 12.125C12.2775 12.125 12.06 12.059 11.875 11.9354C11.69 11.8118 11.5458 11.6361 11.4607 11.4305C11.3755 11.225 11.3533 10.9988 11.3967 10.7805C11.4401 10.5623 11.5472 10.3618 11.7046 10.2045C11.8619 10.0472 12.0623 9.94003 12.2806 9.89662C12.4988 9.85321 12.725 9.87549 12.9306 9.96064C13.1361 10.0458 13.3118 10.19 13.4355 10.375C13.5591 10.56 13.625 10.7775 13.625 11C13.625 11.2984 13.5065 11.5845 13.2955 11.7955C13.0846 12.0065 12.7984 12.125 12.5 12.125Z" fill="#121212"/>
</svg>
