<svg width="36" height="36" viewBox="0 0 36 36" fill="none" xmlns="http://www.w3.org/2000/svg">
<path d="M30.375 9H24.75C24.75 7.20979 24.0388 5.4929 22.773 4.22703C21.5071 2.96116 19.7902 2.25 18 2.25C16.2098 2.25 14.4929 2.96116 13.227 4.22703C11.9612 5.4929 11.25 7.20979 11.25 9H5.625C5.02826 9 4.45597 9.23705 4.03401 9.65901C3.61205 10.081 3.375 10.6533 3.375 11.25V28.125C3.375 28.7217 3.61205 29.294 4.03401 29.716C4.45597 30.1379 5.02826 30.375 5.625 30.375H30.375C30.9717 30.375 31.544 30.1379 31.966 29.716C32.3879 29.294 32.625 28.7217 32.625 28.125V11.25C32.625 10.6533 32.3879 10.081 31.966 9.65901C31.544 9.23705 30.9717 9 30.375 9ZM13.5 14.625C13.5 14.9234 13.3815 15.2095 13.1705 15.4205C12.9595 15.6315 12.6734 15.75 12.375 15.75C12.0766 15.75 11.7905 15.6315 11.5795 15.4205C11.3685 15.2095 11.25 14.9234 11.25 14.625V12.375C11.25 12.0766 11.3685 11.7905 11.5795 11.5795C11.7905 11.3685 12.0766 11.25 12.375 11.25C12.6734 11.25 12.9595 11.3685 13.1705 11.5795C13.3815 11.7905 13.5 12.0766 13.5 12.375V14.625ZM18 4.5C19.1935 4.5 20.3381 4.97411 21.182 5.81802C22.0259 6.66193 22.5 7.80653 22.5 9H13.5C13.5 7.80653 13.9741 6.66193 14.818 5.81802C15.6619 4.97411 16.8065 4.5 18 4.5ZM24.75 14.625C24.75 14.9234 24.6315 15.2095 24.4205 15.4205C24.2095 15.6315 23.9234 15.75 23.625 15.75C23.3266 15.75 23.0405 15.6315 22.8295 15.4205C22.6185 15.2095 22.5 14.9234 22.5 14.625V12.375C22.5 12.0766 22.6185 11.7905 22.8295 11.5795C23.0405 11.3685 23.3266 11.25 23.625 11.25C23.9234 11.25 24.2095 11.3685 24.4205 11.5795C24.6315 11.7905 24.75 12.0766 24.75 12.375V14.625Z" fill="#121212"/>
</svg>
