<svg width="36" height="36" viewBox="0 0 36 36" fill="none" xmlns="http://www.w3.org/2000/svg">
<path d="M32.625 9H28.5905L32.2959 5.29594C32.4005 5.19141 32.4834 5.06733 32.5399 4.93076C32.5965 4.79419 32.6256 4.64782 32.6256 4.5C32.6256 4.35218 32.5965 4.20581 32.5399 4.06924C32.4834 3.93267 32.4005 3.80859 32.2959 3.70406C32.1914 3.59954 32.0673 3.51663 31.9308 3.46006C31.7942 3.40349 31.6478 3.37437 31.5 3.37437C31.3522 3.37437 31.2058 3.40349 31.0692 3.46006C30.9327 3.51663 30.8086 3.59954 30.7041 3.70406L27 7.40953V3.375C27 3.07663 26.8815 2.79048 26.6705 2.5795C26.4595 2.36853 26.1734 2.25 25.875 2.25C25.5766 2.25 25.2905 2.36853 25.0795 2.5795C24.8685 2.79048 24.75 3.07663 24.75 3.375V7.95516C23.0358 6.96556 21.0431 6.56867 19.0806 6.82594C17.118 7.0832 15.295 7.98028 13.8938 9.37828C8.25469 14.9175 4.01485 28.0927 3.60141 29.4103C3.40648 29.8287 3.34496 30.297 3.4252 30.7516C3.50544 31.2062 3.72355 31.625 4.04996 31.9515C4.37636 32.2779 4.79526 32.496 5.24984 32.5762C5.70441 32.6564 6.17267 32.5949 6.5911 32.4C7.90875 31.9866 21.1008 27.7411 26.6259 22.1048C28.0229 20.7032 28.919 18.8802 29.1755 16.918C29.432 14.9557 29.0346 12.9636 28.0448 11.25H32.625C32.9234 11.25 33.2095 11.1315 33.4205 10.9205C33.6315 10.7095 33.75 10.4234 33.75 10.125C33.75 9.82663 33.6315 9.54048 33.4205 9.3295C33.2095 9.11853 32.9234 9 32.625 9ZM25.0144 20.5312C23.7572 21.8137 22.0261 23.0344 20.1136 24.1495L16.5445 20.5791C16.44 20.4745 16.3159 20.3916 16.1794 20.3351C16.0428 20.2785 15.8964 20.2494 15.7486 20.2494C15.6008 20.2494 15.4544 20.2785 15.3178 20.3351C15.1813 20.3916 15.0572 20.4745 14.9527 20.5791C14.8481 20.6836 14.7652 20.8077 14.7087 20.9442C14.6521 21.0808 14.623 21.2272 14.623 21.375C14.623 21.5228 14.6521 21.6692 14.7087 21.8058C14.7652 21.9423 14.8481 22.0664 14.9527 22.1709L18.0591 25.2773C12.3117 28.2572 5.92031 30.2583 5.82469 30.2878C5.75544 30.3103 5.68856 30.3395 5.625 30.375C5.65898 30.3117 5.68676 30.2453 5.70797 30.1767C5.74875 30.0459 9.64547 17.5795 14.708 11.8012L19.4569 16.5502C19.668 16.7613 19.9543 16.8798 20.2528 16.8798C20.5513 16.8798 20.8377 16.7613 21.0488 16.5502C21.2598 16.3391 21.3784 16.0528 21.3784 15.7542C21.3784 15.4557 21.2598 15.1694 21.0488 14.9583L16.3378 10.2487C17.718 9.26673 19.417 8.83955 21.0976 9.052C22.7781 9.26445 24.3174 10.101 25.4098 11.3956C26.5022 12.6902 27.0679 14.3482 26.9947 16.0406C26.9214 17.7329 26.2146 19.3359 25.0144 20.5312Z" fill="#121212"/>
</svg>
