<svg width="24" height="24" viewBox="0 0 24 24" fill="none" xmlns="http://www.w3.org/2000/svg">
<path d="M16.0998 13.3L14.6498 11.85C14.7998 11.0666 14.5748 10.3333 13.9748 9.64998C13.3748 8.96665 12.5998 8.69998 11.6498 8.84998L10.1998 7.39998C10.4831 7.26665 10.7705 7.16665 11.0618 7.09998C11.3538 7.03331 11.6665 6.99998 11.9998 6.99998C13.2498 6.99998 14.3125 7.43731 15.1878 8.31198C16.0625 9.18731 16.4998 10.25 16.4998 11.5C16.4998 11.8333 16.4665 12.146 16.3998 12.438C16.3331 12.7293 16.2331 13.0166 16.0998 13.3ZM19.2998 16.45L17.8498 15.05C18.4831 14.5667 19.0458 14.0373 19.5378 13.462C20.0291 12.8873 20.4498 12.2333 20.7998 11.5C19.9665 9.81665 18.7705 8.47898 17.2118 7.48698C15.6538 6.49565 13.9165 5.99998 11.9998 5.99998C11.5165 5.99998 11.0415 6.03331 10.5748 6.09998C10.1081 6.16665 9.6498 6.26665 9.1998 6.39998L7.6498 4.84998C8.33313 4.56665 9.03313 4.35398 9.7498 4.21198C10.4665 4.07064 11.2165 3.99998 11.9998 3.99998C14.3831 3.99998 16.5248 4.62898 18.4248 5.88698C20.3248 7.14565 21.7498 8.78331 22.6998 10.8C22.7498 10.8833 22.7831 10.9873 22.7998 11.112C22.8165 11.2373 22.8248 11.3666 22.8248 11.5C22.8248 11.6333 22.8125 11.7623 22.7878 11.887C22.7625 12.0123 22.7331 12.1166 22.6998 12.2C22.3165 13.05 21.8375 13.8333 21.2628 14.55C20.6875 15.2667 20.0331 15.9 19.2998 16.45ZM19.0998 21.9L15.5998 18.45C15.0165 18.6333 14.4291 18.771 13.8378 18.863C13.2458 18.9543 12.6331 19 11.9998 19C9.61647 19 7.4748 18.371 5.5748 17.113C3.6748 15.8543 2.2498 14.2167 1.2998 12.2C1.2498 12.1166 1.21647 12.0123 1.1998 11.887C1.18314 11.7623 1.1748 11.6333 1.1748 11.5C1.1748 11.3666 1.18314 11.2416 1.1998 11.125C1.21647 11.0083 1.2498 10.9083 1.2998 10.825C1.6498 10.075 2.06647 9.38331 2.5498 8.74998C3.03313 8.11665 3.56647 7.53331 4.1498 6.99998L2.0748 4.89998C1.89147 4.71665 1.7998 4.48731 1.7998 4.21198C1.7998 3.93731 1.8998 3.69998 2.0998 3.49998C2.28313 3.31664 2.51647 3.22498 2.7998 3.22498C3.08313 3.22498 3.31647 3.31664 3.4998 3.49998L20.4998 20.5C20.6831 20.6833 20.7791 20.9127 20.7878 21.188C20.7958 21.4627 20.6998 21.7 20.4998 21.9C20.3165 22.0833 20.0831 22.175 19.7998 22.175C19.5165 22.175 19.2831 22.0833 19.0998 21.9ZM5.5498 8.39998C5.06647 8.83331 4.6248 9.30831 4.2248 9.82498C3.8248 10.3416 3.48313 10.9 3.1998 11.5C4.03313 13.1833 5.2288 14.5207 6.7868 15.512C8.34547 16.504 10.0831 17 11.9998 17C12.3331 17 12.6581 16.9793 12.9748 16.938C13.2915 16.896 13.6165 16.85 13.9498 16.8L13.0498 15.85C12.8665 15.9 12.6915 15.9373 12.5248 15.962C12.3581 15.9873 12.1831 16 11.9998 16C10.7498 16 9.68713 15.5627 8.8118 14.688C7.93713 13.8127 7.4998 12.75 7.4998 11.5C7.4998 11.3166 7.51213 11.1416 7.5368 10.975C7.56213 10.8083 7.5998 10.6333 7.6498 10.45L5.5498 8.39998Z" fill="#A5A5A5"/>
</svg>
