<svg width="24" height="25" viewBox="0 0 24 25" fill="none" xmlns="http://www.w3.org/2000/svg">
<path d="M12.75 8V12.0753L16.1363 14.1069C16.3068 14.2093 16.4297 14.3753 16.4779 14.5684C16.5261 14.7614 16.4956 14.9657 16.3931 15.1362C16.2907 15.3068 16.1247 15.4297 15.9316 15.4779C15.7386 15.5261 15.5343 15.4956 15.3638 15.3931L11.6138 13.1431C11.5028 13.0764 11.4109 12.9822 11.3472 12.8695C11.2834 12.7568 11.25 12.6295 11.25 12.5V8C11.25 7.80109 11.329 7.61032 11.4697 7.46967C11.6103 7.32902 11.8011 7.25 12 7.25C12.1989 7.25 12.3897 7.32902 12.5303 7.46967C12.671 7.61032 12.75 7.80109 12.75 8ZM12 3.5C10.8169 3.49705 9.64491 3.72878 8.55193 4.18177C7.45895 4.63477 6.46667 5.30003 5.6325 6.13906C4.95094 6.82906 4.34531 7.49281 3.75 8.1875V6.5C3.75 6.30109 3.67098 6.11032 3.53033 5.96967C3.38968 5.82902 3.19891 5.75 3 5.75C2.80109 5.75 2.61032 5.82902 2.46967 5.96967C2.32902 6.11032 2.25 6.30109 2.25 6.5V10.25C2.25 10.4489 2.32902 10.6397 2.46967 10.7803C2.61032 10.921 2.80109 11 3 11H6.75C6.94891 11 7.13968 10.921 7.28033 10.7803C7.42098 10.6397 7.5 10.4489 7.5 10.25C7.5 10.0511 7.42098 9.86032 7.28033 9.71967C7.13968 9.57902 6.94891 9.5 6.75 9.5H4.59375C5.26406 8.71062 5.93156 7.96719 6.69281 7.19656C7.73518 6.1542 9.0616 5.44213 10.5063 5.14932C11.9511 4.85651 13.4501 4.99594 14.816 5.5502C16.182 6.10446 17.3543 7.04896 18.1866 8.26569C19.0188 9.48242 19.474 10.9174 19.4953 12.3914C19.5166 13.8654 19.1031 15.3129 18.3064 16.5532C17.5098 17.7935 16.3652 18.7715 15.0159 19.3651C13.6665 19.9586 12.1722 20.1413 10.7196 19.8904C9.26698 19.6395 7.92052 18.9661 6.84844 17.9544C6.77679 17.8867 6.6925 17.8337 6.60039 17.7986C6.50828 17.7634 6.41015 17.7468 6.3116 17.7496C6.21305 17.7524 6.11602 17.7745 6.02604 17.8148C5.93606 17.8551 5.8549 17.9127 5.78719 17.9844C5.71947 18.056 5.66654 18.1403 5.6314 18.2324C5.59626 18.3245 5.57961 18.4227 5.5824 18.5212C5.58518 18.6198 5.60735 18.7168 5.64764 18.8068C5.68792 18.8967 5.74554 18.9779 5.81719 19.0456C6.88542 20.0537 8.18414 20.785 9.6 21.1757C11.0159 21.5664 12.5058 21.6047 13.9399 21.2872C15.3739 20.9696 16.7085 20.3059 17.827 19.354C18.9456 18.4021 19.8142 17.1909 20.357 15.8261C20.8998 14.4613 21.1003 12.9844 20.9411 11.5242C20.7818 10.0641 20.2677 8.66514 19.4434 7.44943C18.6192 6.23373 17.5099 5.23822 16.2125 4.54979C14.915 3.86137 13.4688 3.50095 12 3.5Z" fill="#121212"/>
</svg>
