<svg width="16" height="17" viewBox="0 0 16 17" fill="none" xmlns="http://www.w3.org/2000/svg">
<path d="M10.146 13.3539L5.14597 8.35391C5.09948 8.30747 5.0626 8.25233 5.03744 8.19163C5.01228 8.13093 4.99933 8.06586 4.99933 8.00016C4.99933 7.93445 5.01228 7.86938 5.03744 7.80869C5.0626 7.74799 5.09948 7.69284 5.14597 7.64641L10.146 2.64641C10.2398 2.55259 10.367 2.49988 10.4997 2.49988C10.6324 2.49988 10.7597 2.55259 10.8535 2.64641C10.9473 2.74023 11 2.86747 11 3.00016C11 3.13284 10.9473 3.26009 10.8535 3.35391L6.2066 8.00016L10.8535 12.6464C10.8999 12.6929 10.9368 12.748 10.9619 12.8087C10.9871 12.8694 11 12.9345 11 13.0002C11 13.0659 10.9871 13.1309 10.9619 13.1916C10.9368 13.2523 10.8999 13.3075 10.8535 13.3539C10.807 13.4004 10.7519 13.4372 10.6912 13.4624C10.6305 13.4875 10.5654 13.5004 10.4997 13.5004C10.434 13.5004 10.369 13.4875 10.3083 13.4624C10.2476 13.4372 10.1924 13.4004 10.146 13.3539Z" fill="black"/>
</svg>
