<svg width="16" height="16" viewBox="0 0 16 16" fill="none" xmlns="http://www.w3.org/2000/svg">
<path d="M5.85378 3.14609L10.8538 8.14609C10.9003 8.19253 10.9372 8.24767 10.9623 8.30837C10.9875 8.36907 11.0004 8.43414 11.0004 8.49984C11.0004 8.56555 10.9875 8.63062 10.9623 8.69131C10.9372 8.75201 10.9003 8.80716 10.8538 8.85359L5.85378 13.8536C5.75996 13.9474 5.63272 14.0001 5.50003 14.0001C5.36735 14.0001 5.2401 13.9474 5.14628 13.8536C5.05246 13.7598 4.99976 13.6325 4.99976 13.4998C4.99976 13.3672 5.05246 13.2399 5.14628 13.1461L9.79316 8.49984L5.14628 3.85359C5.09983 3.80714 5.06298 3.75199 5.03784 3.69129C5.0127 3.6306 4.99976 3.56554 4.99976 3.49984C4.99976 3.43415 5.0127 3.36909 5.03784 3.3084C5.06298 3.2477 5.09983 3.19255 5.14628 3.14609C5.19274 3.09964 5.24789 3.06279 5.30859 3.03765C5.36928 3.01251 5.43434 2.99957 5.50003 2.99957C5.56573 2.99957 5.63079 3.01251 5.69148 3.03765C5.75218 3.06279 5.80733 3.09964 5.85378 3.14609Z" fill="#121212"/>
</svg>
