<svg width="24" height="25" viewBox="0 0 24 25" fill="none" xmlns="http://www.w3.org/2000/svg">
<path d="M8.25 6.5C8.25 6.30109 8.32902 6.11032 8.46967 5.96967C8.61032 5.82902 8.80109 5.75 9 5.75H20.25C20.4489 5.75 20.6397 5.82902 20.7803 5.96967C20.921 6.11032 21 6.30109 21 6.5C21 6.69891 20.921 6.88968 20.7803 7.03033C20.6397 7.17098 20.4489 7.25 20.25 7.25H9C8.80109 7.25 8.61032 7.17098 8.46967 7.03033C8.32902 6.88968 8.25 6.69891 8.25 6.5ZM20.25 11.75H9C8.80109 11.75 8.61032 11.829 8.46967 11.9697C8.32902 12.1103 8.25 12.3011 8.25 12.5C8.25 12.6989 8.32902 12.8897 8.46967 13.0303C8.61032 13.171 8.80109 13.25 9 13.25H20.25C20.4489 13.25 20.6397 13.171 20.7803 13.0303C20.921 12.8897 21 12.6989 21 12.5C21 12.3011 20.921 12.1103 20.7803 11.9697C20.6397 11.829 20.4489 11.75 20.25 11.75ZM20.25 17.75H9C8.80109 17.75 8.61032 17.829 8.46967 17.9697C8.32902 18.1103 8.25 18.3011 8.25 18.5C8.25 18.6989 8.32902 18.8897 8.46967 19.0303C8.61032 19.171 8.80109 19.25 9 19.25H20.25C20.4489 19.25 20.6397 19.171 20.7803 19.0303C20.921 18.8897 21 18.6989 21 18.5C21 18.3011 20.921 18.1103 20.7803 17.9697C20.6397 17.829 20.4489 17.75 20.25 17.75ZM5.25 5.75H3.75C3.55109 5.75 3.36032 5.82902 3.21967 5.96967C3.07902 6.11032 3 6.30109 3 6.5C3 6.69891 3.07902 6.88968 3.21967 7.03033C3.36032 7.17098 3.55109 7.25 3.75 7.25H5.25C5.44891 7.25 5.63968 7.17098 5.78033 7.03033C5.92098 6.88968 6 6.69891 6 6.5C6 6.30109 5.92098 6.11032 5.78033 5.96967C5.63968 5.82902 5.44891 5.75 5.25 5.75ZM5.25 11.75H3.75C3.55109 11.75 3.36032 11.829 3.21967 11.9697C3.07902 12.1103 3 12.3011 3 12.5C3 12.6989 3.07902 12.8897 3.21967 13.0303C3.36032 13.171 3.55109 13.25 3.75 13.25H5.25C5.44891 13.25 5.63968 13.171 5.78033 13.0303C5.92098 12.8897 6 12.6989 6 12.5C6 12.3011 5.92098 12.1103 5.78033 11.9697C5.63968 11.829 5.44891 11.75 5.25 11.75ZM5.25 17.75H3.75C3.55109 17.75 3.36032 17.829 3.21967 17.9697C3.07902 18.1103 3 18.3011 3 18.5C3 18.6989 3.07902 18.8897 3.21967 19.0303C3.36032 19.171 3.55109 19.25 3.75 19.25H5.25C5.44891 19.25 5.63968 19.171 5.78033 19.0303C5.92098 18.8897 6 18.6989 6 18.5C6 18.3011 5.92098 18.1103 5.78033 17.9697C5.63968 17.829 5.44891 17.75 5.25 17.75Z" fill="#121212"/>
</svg>
