<svg width="118" height="114" viewBox="0 0 118 114" fill="none" xmlns="http://www.w3.org/2000/svg">
<path d="M112.619 66.9386L112.584 66.9559C108.47 70.1104 106.728 75.4782 108.192 80.4456L108.209 80.4805C110.544 88.3757 104.758 96.3402 96.5319 96.5495H96.4972C91.3034 96.6889 86.7371 100 85.0116 104.898V104.915C82.2577 112.688 72.8815 115.738 66.1018 111.05C61.8919 108.175 56.3267 108.025 51.8975 111.05H51.8801C45.1006 115.72 35.724 112.688 32.9876 104.897C32.1431 102.507 30.5929 100.429 28.5422 98.9386C26.4915 97.4481 24.0367 96.6149 21.5023 96.5493H21.4674C13.2413 96.34 7.45482 88.3754 9.79037 80.4803L9.80771 80.4453C11.2714 75.478 9.52857 70.1101 5.41576 66.9557L5.38084 66.9383C-1.15494 61.9187 -1.15494 52.0893 5.38084 47.0699L5.41576 47.0525C9.52857 43.8981 11.2714 38.53 9.79037 33.5629V33.5279C7.43725 25.633 13.2411 17.668 21.4674 17.4589H21.5023C26.6785 17.3195 31.2622 14.008 32.9876 9.11074V9.09339C35.7237 1.32035 45.1006 -1.72957 51.8801 2.95886H51.8975C56.1673 5.90425 61.8141 5.90425 66.1018 2.95886C72.9497 -1.77012 82.2739 1.36699 85.0116 9.09339V9.11074C86.7371 13.9907 91.3032 17.3197 96.4972 17.4589H96.5319C104.758 17.668 110.544 25.633 108.209 33.5279L108.192 33.5629C106.728 38.53 108.47 43.8981 112.584 47.0525L112.619 47.0699C119.154 52.0893 119.154 61.9189 112.619 66.9386Z" fill="#FF614C"/>
<path d="M59 89.465C76.9298 89.465 91.4649 74.93 91.4649 57.0001C91.4649 39.0702 76.9298 24.5352 59 24.5352C41.0701 24.5352 26.535 39.0702 26.535 57.0001C26.535 74.93 41.0701 89.465 59 89.465Z" fill="#FF8B7B"/>
<path opacity="0.2" d="M83.927 36.2187C78.3116 31.5991 71.1273 28.8225 63.2954 28.8225C45.3657 28.8225 30.8228 43.3655 30.8228 61.2952C30.8228 69.127 33.5994 76.3113 38.2187 81.9267C31.0841 75.9752 26.5396 67.0228 26.5396 56.9995C26.5396 39.0696 41.0701 24.5393 58.9998 24.5393C69.0231 24.5393 77.9755 29.0838 83.927 36.2187Z" fill="white"/>
<path d="M58.373 66.5679C58.373 66.8331 58.2677 67.0874 58.0802 67.275C57.8926 67.4625 57.6383 67.5679 57.373 67.5679H50.373C49.8426 67.5679 49.3339 67.3572 48.9588 66.9821C48.5838 66.607 48.373 66.0983 48.373 65.5679V45.5679C48.373 45.0374 48.5838 44.5287 48.9588 44.1537C49.3339 43.7786 49.8426 43.5679 50.373 43.5679H57.373C57.6383 43.5679 57.8926 43.6732 58.0802 43.8608C58.2677 44.0483 58.373 44.3027 58.373 44.5679C58.373 44.8331 58.2677 45.0874 58.0802 45.275C57.8926 45.4625 57.6383 45.5679 57.373 45.5679H50.373V65.5679H57.373C57.6383 65.5679 57.8926 65.6732 58.0802 65.8608C58.2677 66.0483 58.373 66.3027 58.373 66.5679ZM72.0805 54.8604L67.0805 49.8604C66.8929 49.6727 66.6384 49.5673 66.373 49.5673C66.1077 49.5673 65.8532 49.6727 65.6655 49.8604C65.4779 50.048 65.3725 50.3025 65.3725 50.5679C65.3725 50.8332 65.4779 51.0877 65.6655 51.2754L68.9593 54.5679H57.373C57.1078 54.5679 56.8535 54.6732 56.6659 54.8608C56.4784 55.0483 56.373 55.3027 56.373 55.5679C56.373 55.8331 56.4784 56.0874 56.6659 56.275C56.8535 56.4625 57.1078 56.5679 57.373 56.5679H68.9593L65.6655 59.8604C65.4779 60.048 65.3725 60.3025 65.3725 60.5679C65.3725 60.8332 65.4779 61.0877 65.6655 61.2754C65.8532 61.463 66.1077 61.5684 66.373 61.5684C66.6384 61.5684 66.8929 61.463 67.0805 61.2754L72.0805 56.2754C72.1735 56.1825 72.2473 56.0722 72.2976 55.9508C72.3479 55.8294 72.3738 55.6993 72.3738 55.5679C72.3738 55.4365 72.3479 55.3063 72.2976 55.1849C72.2473 55.0635 72.1735 54.9532 72.0805 54.8604Z" fill="white"/>
</svg>
