<svg width="36" height="36" viewBox="0 0 36 36" fill="none" xmlns="http://www.w3.org/2000/svg">
<path d="M29.8125 11.25C29.0337 11.25 28.2725 11.4809 27.6249 11.9136C26.9774 12.3462 26.4727 12.9612 26.1747 13.6807C25.8767 14.4002 25.7987 15.1919 25.9507 15.9557C26.1026 16.7195 26.4776 17.4211 27.0283 17.9717C27.5789 18.5224 28.2805 18.8974 29.0443 19.0493C29.8081 19.2013 30.5998 19.1233 31.3193 18.8253C32.0388 18.5273 32.6538 18.0226 33.0864 17.3751C33.5191 16.7275 33.75 15.9663 33.75 15.1875C33.75 14.1432 33.3352 13.1417 32.5967 12.4033C31.8583 11.6648 30.8568 11.25 29.8125 11.25ZM29.8125 16.875C29.4787 16.875 29.1525 16.776 28.875 16.5906C28.5975 16.4052 28.3812 16.1416 28.2535 15.8333C28.1257 15.5249 28.0923 15.1856 28.1574 14.8583C28.2225 14.5309 28.3833 14.2303 28.6193 13.9943C28.8553 13.7583 29.1559 13.5975 29.4833 13.5324C29.8106 13.4673 30.1499 13.5007 30.4583 13.6285C30.7666 13.7562 31.0302 13.9725 31.2156 14.25C31.401 14.5275 31.5 14.8537 31.5 15.1875C31.5 15.6351 31.3222 16.0643 31.0057 16.3807C30.6893 16.6972 30.2601 16.875 29.8125 16.875ZM10.125 15.1875C10.125 14.4087 9.89407 13.6475 9.46141 12.9999C9.02876 12.3524 8.4138 11.8477 7.69432 11.5497C6.97483 11.2517 6.18313 11.1737 5.41933 11.3257C4.65553 11.4776 3.95394 11.8526 3.40327 12.4033C2.8526 12.9539 2.47759 13.6555 2.32566 14.4193C2.17373 15.1831 2.25171 15.9748 2.54973 16.6943C2.84775 17.4138 3.35243 18.0288 3.99994 18.4614C4.64746 18.8941 5.40874 19.125 6.1875 19.125C7.23179 19.125 8.23331 18.7102 8.97173 17.9717C9.71016 17.2333 10.125 16.2318 10.125 15.1875ZM6.1875 16.875C5.85375 16.875 5.52748 16.776 5.24998 16.5906C4.97247 16.4052 4.75618 16.1416 4.62845 15.8333C4.50073 15.5249 4.46731 15.1856 4.53243 14.8583C4.59754 14.5309 4.75826 14.2303 4.99426 13.9943C5.23026 13.7583 5.53094 13.5975 5.85829 13.5324C6.18563 13.4673 6.52493 13.5007 6.83328 13.6285C7.14163 13.7562 7.40518 13.9725 7.59061 14.25C7.77603 14.5275 7.875 14.8537 7.875 15.1875C7.875 15.6351 7.69721 16.0643 7.38074 16.3807C7.06428 16.6972 6.63505 16.875 6.1875 16.875ZM12.9375 12.375C13.7163 12.375 14.4775 12.1441 15.1251 11.7114C15.7726 11.2788 16.2773 10.6638 16.5753 9.94432C16.8733 9.22483 16.9513 8.43313 16.7993 7.66933C16.6474 6.90553 16.2724 6.20394 15.7217 5.65327C15.1711 5.1026 14.4695 4.72759 13.7057 4.57566C12.9419 4.42373 12.1502 4.50171 11.4307 4.79973C10.7112 5.09775 10.0962 5.60243 9.66359 6.24994C9.23093 6.89746 9 7.65874 9 8.4375C9 9.48179 9.41484 10.4833 10.1533 11.2217C10.8917 11.9602 11.8932 12.375 12.9375 12.375ZM12.9375 6.75C13.2713 6.75 13.5975 6.84897 13.875 7.0344C14.1525 7.21982 14.3688 7.48337 14.4965 7.79172C14.6243 8.10007 14.6577 8.43937 14.5926 8.76672C14.5275 9.09406 14.3667 9.39474 14.1307 9.63074C13.8947 9.86675 13.5941 10.0275 13.2667 10.0926C12.9394 10.1577 12.6001 10.1243 12.2917 9.99655C11.9834 9.86883 11.7198 9.65253 11.5344 9.37503C11.349 9.09752 11.25 8.77126 11.25 8.4375C11.25 7.98995 11.4278 7.56073 11.7443 7.24426C12.0607 6.92779 12.4899 6.75 12.9375 6.75ZM23.0625 12.375C23.8413 12.375 24.6025 12.1441 25.2501 11.7114C25.8976 11.2788 26.4023 10.6638 26.7003 9.94432C26.9983 9.22483 27.0763 8.43313 26.9243 7.66933C26.7724 6.90553 26.3974 6.20394 25.8467 5.65327C25.2961 5.1026 24.5945 4.72759 23.8307 4.57566C23.0669 4.42373 22.2752 4.50171 21.5557 4.79973C20.8362 5.09775 20.2212 5.60243 19.7886 6.24994C19.3559 6.89746 19.125 7.65874 19.125 8.4375C19.125 9.48179 19.5398 10.4833 20.2783 11.2217C21.0167 11.9602 22.0182 12.375 23.0625 12.375ZM23.0625 6.75C23.3963 6.75 23.7225 6.84897 24 7.0344C24.2775 7.21982 24.4938 7.48337 24.6215 7.79172C24.7493 8.10007 24.7827 8.43937 24.7176 8.76672C24.6525 9.09406 24.4917 9.39474 24.2557 9.63074C24.0197 9.86675 23.7191 10.0275 23.3917 10.0926C23.0644 10.1577 22.7251 10.1243 22.4167 9.99655C22.1084 9.86883 21.8448 9.65253 21.6594 9.37503C21.474 9.09752 21.375 8.77126 21.375 8.4375C21.375 7.98995 21.5528 7.56073 21.8693 7.24426C22.1857 6.92779 22.615 6.75 23.0625 6.75ZM26.3138 20.9334C25.7423 20.6182 25.2386 20.1934 24.8316 19.6832C24.4245 19.1731 24.122 18.5878 23.9414 17.9606C23.5674 16.6743 22.7859 15.544 21.7145 14.7398C20.6431 13.9356 19.3397 13.5008 18 13.5008C16.6604 13.5008 15.3569 13.9356 14.2855 14.7398C13.2141 15.544 12.4327 16.6743 12.0586 17.9606C11.6973 19.2225 10.8502 20.2896 9.70313 20.9278C8.60276 21.5232 7.73231 22.4685 7.22943 23.6141C6.72656 24.7597 6.61997 26.0403 6.92652 27.2533C7.23307 28.4662 7.93527 29.5424 8.92206 30.3115C9.90884 31.0807 11.1239 31.4989 12.375 31.5C13.1248 31.5022 13.8672 31.3524 14.5575 31.0598C16.7584 30.1522 19.229 30.1522 21.4298 31.0598C22.7629 31.6396 24.2687 31.6808 25.6314 31.1748C26.9942 30.6687 28.1081 29.6547 28.7397 28.3454C29.3712 27.0361 29.4714 25.5331 29.0191 24.1516C28.5669 22.77 27.5973 21.6172 26.3138 20.9348V20.9334ZM23.625 29.25C23.1682 29.2504 22.7161 29.1581 22.2961 28.9786C19.5407 27.8405 16.4466 27.8405 13.6913 28.9786C12.8905 29.3234 11.9875 29.3449 11.1712 29.0387C10.355 28.7325 9.68884 28.1224 9.3124 27.3361C8.93596 26.5497 8.8784 25.6482 9.15177 24.8204C9.42514 23.9926 10.0082 23.3027 10.7789 22.8952C11.6075 22.4375 12.3378 21.8211 12.928 21.081C13.5182 20.341 13.9568 19.4918 14.2186 18.5822C14.4563 17.7632 14.9536 17.0435 15.6355 16.5314C16.3174 16.0192 17.1472 15.7424 18 15.7424C18.8528 15.7424 19.6826 16.0192 20.3645 16.5314C21.0464 17.0435 21.5437 17.7632 21.7814 18.5822C22.0441 19.4935 22.484 20.3441 23.0759 21.0852C23.6678 21.8262 24.4002 22.4432 25.2309 22.9008C25.8945 23.2566 26.4199 23.8242 26.7238 24.5131C27.0276 25.202 27.0924 25.9727 26.9077 26.7026C26.7231 27.4326 26.2997 28.0798 25.7049 28.5414C25.11 29.003 24.3779 29.2524 23.625 29.25Z" fill="#121212"/>
</svg>
