<svg width="37" height="36" viewBox="0 0 37 36" fill="none" xmlns="http://www.w3.org/2000/svg">
<path d="M30.934 5.56873C29.5295 4.16418 27.6245 3.37512 25.6381 3.37512C23.6517 3.37512 21.7467 4.16418 20.3422 5.56873L6.06872 19.8408C4.69354 21.2513 3.92947 23.1469 3.94205 25.1169C3.95463 27.0868 4.74284 28.9725 6.13592 30.3654C7.52901 31.7583 9.4148 32.5463 11.3848 32.5586C13.3547 32.5709 15.2502 31.8066 16.6606 30.4312L30.9354 16.1592C32.3376 14.7536 33.125 12.8491 33.1247 10.8637C33.1245 8.87823 32.3366 6.97398 30.934 5.56873ZM15.0701 28.8408C14.0876 29.8235 12.7548 30.3757 11.3652 30.3758C9.97547 30.376 8.64265 29.824 7.6599 28.8415C6.67715 27.8589 6.12497 26.5262 6.12484 25.1365C6.1247 23.7468 6.67663 22.414 7.65919 21.4312L14 15.0904L21.4109 22.5L15.0701 28.8408ZM29.3436 14.5687L23 20.9095L15.5918 13.5L21.934 7.1592C22.9205 6.19553 24.2471 5.6596 25.6261 5.66766C27.0051 5.67571 28.3254 6.2271 29.3005 7.20224C30.2757 8.17737 30.827 9.49762 30.8351 10.8766C30.8432 12.2557 30.3072 13.5823 29.3436 14.5687ZM27.1737 11.579C27.2783 11.6835 27.3613 11.8076 27.4179 11.9442C27.4745 12.0807 27.5037 12.2271 27.5037 12.375C27.5037 12.5228 27.4745 12.6692 27.4179 12.8058C27.3613 12.9424 27.2783 13.0664 27.1737 13.1709L23.7987 16.5459C23.6942 16.6503 23.5701 16.7332 23.4336 16.7897C23.2971 16.8461 23.1507 16.8752 23.003 16.8751C22.8552 16.875 22.7089 16.8459 22.5725 16.7893C22.436 16.7327 22.312 16.6497 22.2076 16.5452C22.1031 16.4407 22.0203 16.3166 21.9638 16.1801C21.9073 16.0436 21.8783 15.8972 21.8784 15.7495C21.8784 15.6017 21.9076 15.4554 21.9642 15.319C22.0208 15.1825 22.1037 15.0585 22.2083 14.954L25.5833 11.579C25.7942 11.3682 26.0802 11.2498 26.3785 11.2498C26.6767 11.2498 26.9628 11.3682 27.1737 11.579Z" fill="#121212"/>
</svg>
