<svg width="36" height="36" viewBox="0 0 36 36" fill="none" xmlns="http://www.w3.org/2000/svg">
<path d="M34.7934 16.4531L32.8247 11.5312C32.6577 11.1148 32.3695 10.7581 31.9974 10.5074C31.6253 10.2567 31.1865 10.1235 30.7378 10.125H25.875V9C25.875 8.70163 25.7565 8.41548 25.5455 8.20451C25.3345 7.99353 25.0484 7.875 24.75 7.875H3.375C2.77826 7.875 2.20597 8.11205 1.78401 8.53401C1.36205 8.95597 1.125 9.52826 1.125 10.125V25.875C1.125 26.4717 1.36205 27.044 1.78401 27.466C2.20597 27.8879 2.77826 28.125 3.375 28.125H5.76563C6.01346 29.093 6.57641 29.9509 7.36573 30.5636C8.15504 31.1763 9.12581 31.5088 10.125 31.5088C11.1242 31.5088 12.095 31.1763 12.8843 30.5636C13.6736 29.9509 14.2365 29.093 14.4844 28.125H21.5156C21.7635 29.093 22.3264 29.9509 23.1157 30.5636C23.905 31.1763 24.8758 31.5088 25.875 31.5088C26.8742 31.5088 27.845 31.1763 28.6343 30.5636C29.4236 29.9509 29.9865 29.093 30.2344 28.125H32.625C33.2217 28.125 33.794 27.8879 34.216 27.466C34.638 27.044 34.875 26.4717 34.875 25.875V16.875C34.8754 16.7304 34.8477 16.5871 34.7934 16.4531ZM25.875 12.375H30.7378L32.0878 15.75H25.875V12.375ZM3.375 10.125H23.625V19.125H3.375V10.125ZM10.125 29.25C9.67999 29.25 9.24498 29.118 8.87497 28.8708C8.50496 28.6236 8.21657 28.2722 8.04627 27.861C7.87597 27.4499 7.83142 26.9975 7.91823 26.561C8.00505 26.1246 8.21934 25.7237 8.53401 25.409C8.84868 25.0943 9.24959 24.88 9.68605 24.7932C10.1225 24.7064 10.5749 24.751 10.986 24.9213C11.3972 25.0916 11.7486 25.38 11.9958 25.75C12.243 26.12 12.375 26.555 12.375 27C12.375 27.5967 12.1379 28.169 11.716 28.591C11.294 29.0129 10.7217 29.25 10.125 29.25ZM21.5156 25.875H14.4844C14.2365 24.907 13.6736 24.0491 12.8843 23.4364C12.095 22.8237 11.1242 22.4912 10.125 22.4912C9.12581 22.4912 8.15504 22.8237 7.36573 23.4364C6.57641 24.0491 6.01346 24.907 5.76563 25.875H3.375V21.375H23.625V23.1061C23.1077 23.4051 22.6549 23.8038 22.2928 24.2791C21.9307 24.7544 21.6665 25.2969 21.5156 25.875ZM25.875 29.25C25.43 29.25 24.995 29.118 24.625 28.8708C24.255 28.6236 23.9666 28.2722 23.7963 27.861C23.626 27.4499 23.5814 26.9975 23.6682 26.561C23.7551 26.1246 23.9693 25.7237 24.284 25.409C24.5987 25.0943 24.9996 24.88 25.436 24.7932C25.8725 24.7064 26.3249 24.751 26.736 24.9213C27.1472 25.0916 27.4986 25.38 27.7458 25.75C27.993 26.12 28.125 26.555 28.125 27C28.125 27.5967 27.8879 28.169 27.466 28.591C27.044 29.0129 26.4717 29.25 25.875 29.25ZM32.625 25.875H30.2344C29.9836 24.9094 29.4196 24.0542 28.6307 23.4435C27.8418 22.8328 26.8727 22.5009 25.875 22.5V18H32.625V25.875Z" fill="#121212"/>
</svg>
