<svg width="56" height="55" viewBox="0 0 56 55" fill="none" xmlns="http://www.w3.org/2000/svg">
<rect x="0.25" width="55" height="55" rx="4" fill="#E9E6FF"/>
<path d="M39.8487 20.6213L28.8487 14.6025C28.5548 14.4401 28.2245 14.355 27.8887 14.355C27.5529 14.355 27.2226 14.4401 26.9287 14.6025L15.9287 20.6238C15.6145 20.7957 15.3523 21.0487 15.1694 21.3566C14.9864 21.6644 14.8895 22.0157 14.8887 22.3738V34.3288C14.8895 34.6869 14.9864 35.0382 15.1694 35.346C15.3523 35.6538 15.6145 35.9069 15.9287 36.0788L26.9287 42.1C27.2226 42.2624 27.5529 42.3476 27.8887 42.3476C28.2245 42.3476 28.5548 42.2624 28.8487 42.1L39.8487 36.0788C40.1628 35.9069 40.425 35.6538 40.608 35.346C40.7909 35.0382 40.8879 34.6869 40.8887 34.3288V22.375C40.8885 22.0163 40.7919 21.6642 40.6089 21.3557C40.426 21.0471 40.1634 20.7935 39.8487 20.6213ZM27.8887 16.3525L37.9312 21.8525L27.8887 27.3525L17.8462 21.8525L27.8887 16.3525ZM16.8887 23.6025L26.8887 29.075V39.7988L16.8887 34.33V23.6025ZM28.8887 39.7988V29.08L38.8887 23.6025V34.325L28.8887 39.7988Z" fill="#8823EB"/>
</svg>
