<svg width="56" height="55" viewBox="0 0 56 55" fill="none" xmlns="http://www.w3.org/2000/svg">
<rect x="0.75" width="55" height="55" rx="4" fill="#FFECD0"/>
<path d="M28.1338 14.5244C25.5626 14.5244 23.0492 15.2869 20.9114 16.7153C18.7735 18.1438 17.1073 20.1741 16.1234 22.5495C15.1394 24.925 14.882 27.5388 15.3836 30.0606C15.8852 32.5823 17.1233 34.8987 18.9414 36.7168C20.7595 38.5349 23.0759 39.773 25.5976 40.2746C28.1194 40.7762 30.7332 40.5188 33.1087 39.5348C35.4841 38.5509 37.5144 36.8847 38.9429 34.7468C40.3714 32.609 41.1338 30.0956 41.1338 27.5244C41.1302 24.0777 39.7593 20.7732 37.3222 18.336C34.885 15.8989 31.5805 14.5281 28.1338 14.5244ZM28.1338 38.5244C25.9582 38.5244 23.8315 37.8793 22.0225 36.6706C20.2136 35.4619 18.8037 33.7439 17.9711 31.7339C17.1386 29.7239 16.9207 27.5122 17.3452 25.3784C17.7696 23.2446 18.8172 21.2846 20.3556 19.7462C21.894 18.2079 23.854 17.1602 25.9878 16.7358C28.1216 16.3113 30.3333 16.5292 32.3433 17.3617C34.3533 18.1943 36.0713 19.6042 37.28 21.4131C38.4887 23.2221 39.1338 25.3488 39.1338 27.5244C39.1305 30.4408 37.9705 33.2368 35.9083 35.2989C33.8461 37.3611 31.0502 38.5211 28.1338 38.5244ZM27.1338 28.5244V21.5244C27.1338 21.2592 27.2392 21.0048 27.4267 20.8173C27.6142 20.6298 27.8686 20.5244 28.1338 20.5244C28.399 20.5244 28.6534 20.6298 28.8409 20.8173C29.0284 21.0048 29.1338 21.2592 29.1338 21.5244V28.5244C29.1338 28.7896 29.0284 29.044 28.8409 29.2315C28.6534 29.4191 28.399 29.5244 28.1338 29.5244C27.8686 29.5244 27.6142 29.4191 27.4267 29.2315C27.2392 29.044 27.1338 28.7896 27.1338 28.5244ZM29.6338 33.0244C29.6338 33.3211 29.5458 33.6111 29.381 33.8578C29.2162 34.1044 28.9819 34.2967 28.7078 34.4102C28.4337 34.5238 28.1321 34.5535 27.8412 34.4956C27.5502 34.4377 27.2829 34.2949 27.0731 34.0851C26.8634 33.8753 26.7205 33.608 26.6626 33.317C26.6047 33.0261 26.6344 32.7245 26.748 32.4504C26.8615 32.1763 27.0538 31.942 27.3004 31.7772C27.5471 31.6124 27.8371 31.5244 28.1338 31.5244C28.5316 31.5244 28.9131 31.6824 29.1945 31.9638C29.4758 32.2451 29.6338 32.6266 29.6338 33.0244Z" fill="#FFB84E"/>
</svg>
