<svg width="36" height="36" viewBox="0 0 36 36" fill="none" xmlns="http://www.w3.org/2000/svg">
<path d="M32.625 6.75V12.375C32.625 12.6734 32.5065 12.9595 32.2955 13.1705C32.0845 13.3815 31.7984 13.5 31.5 13.5C31.2016 13.5 30.9155 13.3815 30.7045 13.1705C30.4935 12.9595 30.375 12.6734 30.375 12.375V7.875H25.875C25.5766 7.875 25.2905 7.75647 25.0795 7.54549C24.8685 7.33452 24.75 7.04837 24.75 6.75C24.75 6.45163 24.8685 6.16548 25.0795 5.95451C25.2905 5.74353 25.5766 5.625 25.875 5.625H31.5C31.7984 5.625 32.0845 5.74353 32.2955 5.95451C32.5065 6.16548 32.625 6.45163 32.625 6.75ZM10.125 28.125H5.625V23.625C5.625 23.3266 5.50647 23.0405 5.29549 22.8295C5.08452 22.6185 4.79837 22.5 4.5 22.5C4.20163 22.5 3.91548 22.6185 3.7045 22.8295C3.49353 23.0405 3.375 23.3266 3.375 23.625V29.25C3.375 29.5484 3.49353 29.8345 3.7045 30.0455C3.91548 30.2565 4.20163 30.375 4.5 30.375H10.125C10.4234 30.375 10.7095 30.2565 10.9205 30.0455C11.1315 29.8345 11.25 29.5484 11.25 29.25C11.25 28.9516 11.1315 28.6655 10.9205 28.4545C10.7095 28.2435 10.4234 28.125 10.125 28.125ZM31.5 22.5C31.2016 22.5 30.9155 22.6185 30.7045 22.8295C30.4935 23.0405 30.375 23.3266 30.375 23.625V28.125H25.875C25.5766 28.125 25.2905 28.2435 25.0795 28.4545C24.8685 28.6655 24.75 28.9516 24.75 29.25C24.75 29.5484 24.8685 29.8345 25.0795 30.0455C25.2905 30.2565 25.5766 30.375 25.875 30.375H31.5C31.7984 30.375 32.0845 30.2565 32.2955 30.0455C32.5065 29.8345 32.625 29.5484 32.625 29.25V23.625C32.625 23.3266 32.5065 23.0405 32.2955 22.8295C32.0845 22.6185 31.7984 22.5 31.5 22.5ZM4.5 13.5C4.79837 13.5 5.08452 13.3815 5.29549 13.1705C5.50647 12.9595 5.625 12.6734 5.625 12.375V7.875H10.125C10.4234 7.875 10.7095 7.75647 10.9205 7.54549C11.1315 7.33452 11.25 7.04837 11.25 6.75C11.25 6.45163 11.1315 6.16548 10.9205 5.95451C10.7095 5.74353 10.4234 5.625 10.125 5.625H4.5C4.20163 5.625 3.91548 5.74353 3.7045 5.95451C3.49353 6.16548 3.375 6.45163 3.375 6.75V12.375C3.375 12.6734 3.49353 12.9595 3.7045 13.1705C3.91548 13.3815 4.20163 13.5 4.5 13.5ZM11.25 11.25C10.9516 11.25 10.6655 11.3685 10.4545 11.5795C10.2435 11.7905 10.125 12.0766 10.125 12.375V23.625C10.125 23.9234 10.2435 24.2095 10.4545 24.4205C10.6655 24.6315 10.9516 24.75 11.25 24.75C11.5484 24.75 11.8345 24.6315 12.0455 24.4205C12.2565 24.2095 12.375 23.9234 12.375 23.625V12.375C12.375 12.0766 12.2565 11.7905 12.0455 11.5795C11.8345 11.3685 11.5484 11.25 11.25 11.25ZM25.875 23.625V12.375C25.875 12.0766 25.7565 11.7905 25.5455 11.5795C25.3345 11.3685 25.0484 11.25 24.75 11.25C24.4516 11.25 24.1655 11.3685 23.9545 11.5795C23.7435 11.7905 23.625 12.0766 23.625 12.375V23.625C23.625 23.9234 23.7435 24.2095 23.9545 24.4205C24.1655 24.6315 24.4516 24.75 24.75 24.75C25.0484 24.75 25.3345 24.6315 25.5455 24.4205C25.7565 24.2095 25.875 23.9234 25.875 23.625ZM20.25 11.25C19.9516 11.25 19.6655 11.3685 19.4545 11.5795C19.2435 11.7905 19.125 12.0766 19.125 12.375V23.625C19.125 23.9234 19.2435 24.2095 19.4545 24.4205C19.6655 24.6315 19.9516 24.75 20.25 24.75C20.5484 24.75 20.8345 24.6315 21.0455 24.4205C21.2565 24.2095 21.375 23.9234 21.375 23.625V12.375C21.375 12.0766 21.2565 11.7905 21.0455 11.5795C20.8345 11.3685 20.5484 11.25 20.25 11.25ZM15.75 11.25C15.4516 11.25 15.1655 11.3685 14.9545 11.5795C14.7435 11.7905 14.625 12.0766 14.625 12.375V23.625C14.625 23.9234 14.7435 24.2095 14.9545 24.4205C15.1655 24.6315 15.4516 24.75 15.75 24.75C16.0484 24.75 16.3345 24.6315 16.5455 24.4205C16.7565 24.2095 16.875 23.9234 16.875 23.625V12.375C16.875 12.0766 16.7565 11.7905 16.5455 11.5795C16.3345 11.3685 16.0484 11.25 15.75 11.25Z" fill="#121212"/>
</svg>
