<svg width="56" height="55" viewBox="0 0 56 55" fill="none" xmlns="http://www.w3.org/2000/svg">
<rect x="0.5" width="55" height="55" rx="4" fill="#E6FFEF"/>
<path d="M37.2461 32.6919C37.2444 34.2827 36.6118 35.8078 35.4869 36.9327C34.362 38.0576 32.8369 38.6902 31.2461 38.6919H29.2461V40.6919C29.2461 40.9571 29.1407 41.2115 28.9532 41.399C28.7657 41.5865 28.5113 41.6919 28.2461 41.6919C27.9809 41.6919 27.7265 41.5865 27.539 41.399C27.3515 41.2115 27.2461 40.9571 27.2461 40.6919V38.6919H25.2461C23.6553 38.6902 22.1301 38.0576 21.0053 36.9327C19.8804 35.8078 19.2477 34.2827 19.2461 32.6919C19.2461 32.4267 19.3515 32.1723 19.539 31.9848C19.7265 31.7973 19.9809 31.6919 20.2461 31.6919C20.5113 31.6919 20.7657 31.7973 20.9532 31.9848C21.1407 32.1723 21.2461 32.4267 21.2461 32.6919C21.2461 33.7528 21.6675 34.7702 22.4177 35.5203C23.1678 36.2705 24.1852 36.6919 25.2461 36.6919H31.2461C32.307 36.6919 33.3244 36.2705 34.0745 35.5203C34.8247 34.7702 35.2461 33.7528 35.2461 32.6919C35.2461 31.631 34.8247 30.6136 34.0745 29.8635C33.3244 29.1133 32.307 28.6919 31.2461 28.6919H26.2461C24.6548 28.6919 23.1287 28.0598 22.0035 26.9345C20.8782 25.8093 20.2461 24.2832 20.2461 22.6919C20.2461 21.1006 20.8782 19.5745 22.0035 18.4493C23.1287 17.324 24.6548 16.6919 26.2461 16.6919H27.2461V14.6919C27.2461 14.4267 27.3515 14.1723 27.539 13.9848C27.7265 13.7973 27.9809 13.6919 28.2461 13.6919C28.5113 13.6919 28.7657 13.7973 28.9532 13.9848C29.1407 14.1723 29.2461 14.4267 29.2461 14.6919V16.6919H30.2461C31.8369 16.6935 33.362 17.3262 34.4869 18.4511C35.6118 19.5759 36.2444 21.1011 36.2461 22.6919C36.2461 22.9571 36.1407 23.2115 35.9532 23.399C35.7657 23.5865 35.5113 23.6919 35.2461 23.6919C34.9809 23.6919 34.7265 23.5865 34.539 23.399C34.3514 23.2115 34.2461 22.9571 34.2461 22.6919C34.2461 21.631 33.8247 20.6136 33.0745 19.8635C32.3244 19.1133 31.307 18.6919 30.2461 18.6919H26.2461C25.1852 18.6919 24.1678 19.1133 23.4177 19.8635C22.6675 20.6136 22.2461 21.631 22.2461 22.6919C22.2461 23.7528 22.6675 24.7702 23.4177 25.5203C24.1678 26.2705 25.1852 26.6919 26.2461 26.6919H31.2461C32.8369 26.6935 34.362 27.3262 35.4869 28.4511C36.6118 29.5759 37.2444 31.1011 37.2461 32.6919Z" fill="#18AF50"/>
</svg>
