<svg width="20" height="21" viewBox="0 0 20 21" fill="none" xmlns="http://www.w3.org/2000/svg">
<path d="M14.192 11.1922L7.94205 17.4422C7.88398 17.5003 7.81504 17.5463 7.73917 17.5778C7.6633 17.6092 7.58198 17.6254 7.49986 17.6254C7.41774 17.6254 7.33642 17.6092 7.26055 17.5778C7.18468 17.5463 7.11574 17.5003 7.05767 17.4422C6.9996 17.3841 6.95354 17.3152 6.92211 17.2393C6.89069 17.1635 6.87451 17.0821 6.87451 17C6.87451 16.9179 6.89069 16.8366 6.92211 16.7607C6.95354 16.6848 6.9996 16.6159 7.05767 16.5578L12.8663 10.75L7.05767 4.9422C6.9404 4.82492 6.87451 4.66586 6.87451 4.50001C6.87451 4.33416 6.9404 4.1751 7.05767 4.05782C7.17495 3.94055 7.33401 3.87466 7.49986 3.87466C7.66571 3.87466 7.82477 3.94055 7.94205 4.05782L14.192 10.3078C14.2502 10.3659 14.2963 10.4348 14.3277 10.5107C14.3592 10.5865 14.3754 10.6679 14.3754 10.75C14.3754 10.8321 14.3592 10.9135 14.3277 10.9893C14.2963 11.0652 14.2502 11.1342 14.192 11.1922Z" fill="#121212"/>
</svg>
