<svg width="17" height="16" viewBox="0 0 17 16" fill="none" xmlns="http://www.w3.org/2000/svg">
<path d="M12 2H5C4.73478 2 4.48043 2.10536 4.29289 2.29289C4.10536 2.48043 4 2.73478 4 3V14C4.00004 14.0892 4.02397 14.1768 4.06929 14.2537C4.1146 14.3306 4.17967 14.3939 4.25772 14.4371C4.33578 14.4804 4.42399 14.5019 4.51319 14.4996C4.60239 14.4972 4.68933 14.471 4.765 14.4237L8.5 12.0894L12.2356 14.4237C12.3113 14.4709 12.3982 14.4969 12.4873 14.4992C12.5764 14.5015 12.6645 14.4799 12.7424 14.4367C12.8204 14.3934 12.8854 14.3302 12.9307 14.2534C12.9759 14.1766 12.9999 14.0891 13 14V3C13 2.73478 12.8946 2.48043 12.7071 2.29289C12.5196 2.10536 12.2652 2 12 2ZM12 3V10.0981L8.76437 8.07625C8.68491 8.02658 8.59308 8.00025 8.49937 8.00025C8.40566 8.00025 8.31384 8.02658 8.23438 8.07625L5 10.0975V3H12ZM8.76437 11.0763C8.68491 11.0266 8.59308 11.0002 8.49937 11.0002C8.40566 11.0002 8.31384 11.0266 8.23438 11.0763L5 13.0981V11.2769L8.5 9.08937L12 11.2769V13.0981L8.76437 11.0763Z" fill="#2B9512"/>
</svg>
