<svg width="17" height="16" viewBox="0 0 17 16" fill="none" xmlns="http://www.w3.org/2000/svg">
<path d="M11.75 2H4.75C4.48478 2 4.23043 2.10536 4.04289 2.29289C3.85536 2.48043 3.75 2.73478 3.75 3V14C3.75004 14.0892 3.77397 14.1768 3.81929 14.2537C3.8646 14.3306 3.92967 14.3939 4.00772 14.4371C4.08578 14.4804 4.17399 14.5019 4.26319 14.4996C4.35239 14.4972 4.43933 14.471 4.515 14.4237L8.25 12.0894L11.9856 14.4237C12.0613 14.4709 12.1482 14.4969 12.2373 14.4992C12.3264 14.5015 12.4145 14.4799 12.4924 14.4367C12.5704 14.3934 12.6354 14.3302 12.6807 14.2534C12.7259 14.1766 12.7499 14.0891 12.75 14V3C12.75 2.73478 12.6446 2.48043 12.4571 2.29289C12.2696 2.10536 12.0152 2 11.75 2ZM8.51437 11.0763C8.43491 11.0266 8.34308 11.0002 8.24937 11.0002C8.15566 11.0002 8.06384 11.0266 7.98438 11.0763L4.75 13.0981V11.2769L8.25 9.08937L11.75 11.2769V13.0981L8.51437 11.0763Z" fill="#2B9512"/>
</svg>
