<svg width="120" height="120" viewBox="0 0 120 120" fill="none" xmlns="http://www.w3.org/2000/svg">
<path d="M113.619 69.9386L113.584 69.9559C109.47 73.1104 107.728 78.4782 109.192 83.4456L109.209 83.4805C111.544 91.3757 105.758 99.3402 97.5319 99.5495H97.4972C92.3034 99.6889 87.7371 103 86.0116 107.898V107.915C83.2577 115.688 73.8815 118.738 67.1018 114.05C62.8919 111.175 57.3267 111.025 52.8975 114.05H52.8801C46.1006 118.72 36.724 115.688 33.9876 107.897C33.1431 105.507 31.5929 103.429 29.5422 101.939C27.4915 100.448 25.0367 99.6149 22.5023 99.5493H22.4674C14.2413 99.34 8.45482 91.3754 10.7904 83.4803L10.8077 83.4453C12.2714 78.478 10.5286 73.1101 6.41576 69.9557L6.38084 69.9383C-0.154942 64.9187 -0.154942 55.0893 6.38084 50.0699L6.41576 50.0525C10.5286 46.8981 12.2714 41.53 10.7904 36.5629V36.5279C8.43725 28.633 14.2411 20.668 22.4674 20.4589H22.5023C27.6785 20.3195 32.2622 17.008 33.9876 12.1107V12.0934C36.7237 4.32035 46.1006 1.27043 52.8801 5.95886H52.8975C57.1673 8.90425 62.8141 8.90425 67.1018 5.95886C73.9497 1.22988 83.2739 4.36699 86.0116 12.0934V12.1107C87.7371 16.9907 92.3032 20.3197 97.4972 20.4589H97.5319C105.758 20.668 111.544 28.633 109.209 36.5279L109.192 36.5629C107.728 41.53 109.47 46.8981 113.584 50.0525L113.619 50.0699C120.154 55.0893 120.154 64.9189 113.619 69.9386Z" fill="#3EB655"/>
<path d="M60.0001 92.465C77.93 92.465 92.465 77.93 92.465 60.0001C92.465 42.0702 77.93 27.5352 60.0001 27.5352C42.0702 27.5352 27.5352 42.0702 27.5352 60.0001C27.5352 77.93 42.0702 92.465 60.0001 92.465Z" fill="#8BD399"/>
<path opacity="0.2" d="M84.927 39.2187C79.3116 34.5991 72.1273 31.8225 64.2954 31.8225C46.3657 31.8225 31.8228 46.3655 31.8228 64.2952C31.8228 72.127 34.5994 79.3113 39.2187 84.9267C32.0841 78.9752 27.5396 70.0228 27.5396 59.9995C27.5396 42.0696 42.0701 27.5393 59.9998 27.5393C70.0231 27.5393 78.9755 32.0838 84.927 39.2187Z" fill="white"/>
<path d="M52.2762 72.7093L45.0971 65.0714C43.2169 63.0708 43.3139 59.9253 45.3139 58.0451C47.3138 56.1626 50.4607 56.2636 52.3392 58.2628L55.7663 61.9074L70.3334 45.2578C72.139 43.1916 75.2796 42.9821 77.3475 44.7903C79.4138 46.5985 79.6224 49.7382 77.8151 51.8044L59.6381 72.5782C57.7017 74.7891 54.2843 74.847 52.2762 72.7093Z" fill="white"/>
</svg>
