<svg width="62" height="62" viewBox="0 0 62 62" fill="none" xmlns="http://www.w3.org/2000/svg">
<rect x="0.5" y="0.5" width="60.5" height="60.75" rx="7.5" fill="#E5F6DF"/>
<rect x="0.5" y="0.5" width="60.5" height="60.75" rx="7.5" stroke="#D5D5D5"/>
<path d="M30.75 15.25C27.0416 15.25 23.4165 16.3497 20.3331 18.4099C17.2496 20.4702 14.8464 23.3986 13.4273 26.8247C12.0081 30.2508 11.6368 34.0208 12.3603 37.6579C13.0838 41.2951 14.8695 44.636 17.4918 47.2583C20.114 49.8805 23.4549 51.6662 27.0921 52.3897C30.7292 53.1132 34.4992 52.7419 37.9253 51.3227C41.3514 49.9036 44.2798 47.5004 46.3401 44.4169C48.4003 41.3335 49.5 37.7084 49.5 34C49.4943 29.0289 47.5171 24.2631 44.002 20.748C40.4869 17.233 35.7211 15.2557 30.75 15.25ZM30.75 49.625C27.6597 49.625 24.6387 48.7086 22.0692 46.9917C19.4997 45.2748 17.497 42.8345 16.3144 39.9794C15.1318 37.1243 14.8223 33.9827 15.4252 30.9517C16.0281 27.9208 17.5163 25.1367 19.7015 22.9515C21.8867 20.7663 24.6708 19.2781 27.7017 18.6752C30.7327 18.0723 33.8743 18.3818 36.7294 19.5644C39.5845 20.747 42.0248 22.7497 43.7417 25.3192C45.4586 27.8887 46.375 30.9097 46.375 34C46.3704 38.1426 44.7227 42.1142 41.7934 45.0434C38.8642 47.9727 34.8926 49.6203 30.75 49.625ZM39.668 25.082C39.8133 25.2271 39.9285 25.3995 40.0071 25.5892C40.0858 25.7788 40.1262 25.9822 40.1262 26.1875C40.1262 26.3928 40.0858 26.5962 40.0071 26.7858C39.9285 26.9755 39.8133 27.1479 39.668 27.293L31.8555 35.1055C31.7103 35.2506 31.538 35.3658 31.3483 35.4444C31.1586 35.5229 30.9553 35.5634 30.75 35.5634C30.5447 35.5634 30.3414 35.5229 30.1517 35.4444C29.9621 35.3658 29.7897 35.2506 29.6445 35.1055C29.4994 34.9603 29.3842 34.788 29.3056 34.5983C29.2271 34.4086 29.1866 34.2053 29.1866 34C29.1866 33.7947 29.2271 33.5914 29.3056 33.4017C29.3842 33.212 29.4994 33.0397 29.6445 32.8945L37.457 25.082C37.6022 24.9368 37.7745 24.8215 37.9642 24.7429C38.1538 24.6642 38.3572 24.6238 38.5625 24.6238C38.7678 24.6238 38.9712 24.6642 39.1609 24.7429C39.3505 24.8215 39.5229 24.9368 39.668 25.082ZM24.5 10.5625C24.5 10.1481 24.6646 9.75067 24.9577 9.45765C25.2507 9.16462 25.6481 9 26.0625 9H35.4375C35.8519 9 36.2493 9.16462 36.5424 9.45765C36.8354 9.75067 37 10.1481 37 10.5625C37 10.9769 36.8354 11.3743 36.5424 11.6674C36.2493 11.9604 35.8519 12.125 35.4375 12.125H26.0625C25.6481 12.125 25.2507 11.9604 24.9577 11.6674C24.6646 11.3743 24.5 10.9769 24.5 10.5625Z" fill="#121212"/>
</svg>
