<svg width="37" height="36" viewBox="0 0 37 36" fill="none" xmlns="http://www.w3.org/2000/svg">
<path d="M11.1875 16.875C11.1875 17.2088 11.0885 17.535 10.9031 17.8125C10.7177 18.09 10.4541 18.3063 10.1458 18.434C9.83743 18.5618 9.49813 18.5952 9.17078 18.5301C8.84344 18.465 8.54276 18.3042 8.30676 18.0682C8.07076 17.8322 7.91004 17.5316 7.84492 17.2042C7.77981 16.8769 7.81323 16.5376 7.94095 16.2292C8.06868 15.9209 8.28497 15.6573 8.56248 15.4719C8.83998 15.2865 9.16624 15.1875 9.5 15.1875C9.94755 15.1875 10.3768 15.3653 10.6932 15.6818C11.0097 15.9982 11.1875 16.4274 11.1875 16.875ZM34.25 16.875V29.25C34.25 29.8467 34.0129 30.419 33.591 30.841C33.169 31.2629 32.5967 31.5 32 31.5H16.25C15.6533 31.5 15.081 31.2629 14.659 30.841C14.2371 30.419 14 29.8467 14 29.25V26.2055C12.7864 28.177 11.2128 29.25 9.5 29.25C7.54953 29.25 5.77906 27.8592 4.51625 25.3336C3.37719 23.0625 2.75 20.0517 2.75 16.875C2.75 13.6983 3.37719 10.6945 4.51625 8.41641C5.77906 5.89078 7.54953 4.5 9.5 4.5H27.5C29.4505 4.5 31.2209 5.89078 32.4837 8.41641C33.6228 10.6945 34.25 13.6983 34.25 16.875ZM14 16.875C14 10.9083 11.6291 6.75 9.5 6.75C7.37094 6.75 5 10.9083 5 16.875C5 22.8417 7.37094 27 9.5 27C11.6291 27 14 22.8417 14 16.875ZM32 29.25V18H29.75C29.4516 18 29.1655 17.8815 28.9545 17.6705C28.7435 17.4595 28.625 17.1734 28.625 16.875C28.625 16.5766 28.7435 16.2905 28.9545 16.0795C29.1655 15.8685 29.4516 15.75 29.75 15.75H31.9705C31.6962 10.3922 29.4912 6.75 27.5 6.75H13.4544C13.8494 7.27168 14.1941 7.82965 14.4838 8.41641C15.4878 10.4245 16.0925 12.9952 16.2233 15.75H18.5C18.7984 15.75 19.0845 15.8685 19.2955 16.0795C19.5065 16.2905 19.625 16.5766 19.625 16.875C19.625 17.1734 19.5065 17.4595 19.2955 17.6705C19.0845 17.8815 18.7984 18 18.5 18H16.25V29.25H32ZM25.25 15.75H23C22.7016 15.75 22.4155 15.8685 22.2045 16.0795C21.9935 16.2905 21.875 16.5766 21.875 16.875C21.875 17.1734 21.9935 17.4595 22.2045 17.6705C22.4155 17.8815 22.7016 18 23 18H25.25C25.5484 18 25.8345 17.8815 26.0455 17.6705C26.2565 17.4595 26.375 17.1734 26.375 16.875C26.375 16.5766 26.2565 16.2905 26.0455 16.0795C25.8345 15.8685 25.5484 15.75 25.25 15.75Z" fill="#121212"/>
</svg>
