<svg width="963" height="253" viewBox="0 0 963 253" fill="none" xmlns="http://www.w3.org/2000/svg">
<rect x="54.583" y="11.5" width="907.833" height="166" stroke="#D5D5D5"/>
<path d="M54.083 66H962.916" stroke="#D5D5D5"/>
<path d="M54.083 39H962.916" stroke="#D5D5D5"/>
<path d="M54.083 93H962.916" stroke="#D5D5D5"/>
<path d="M54.083 120H962.916" stroke="#D5D5D5"/>
<path d="M54.083 147H962.916" stroke="#D5D5D5"/>
<path d="M206.927 11L206.927 178" stroke="#D5D5D5"/>
<path d="M357.419 11L357.419 178" stroke="#D5D5D5"/>
<path d="M506.736 11L506.736 178" stroke="#D5D5D5"/>
<path d="M657.229 11L657.228 178" stroke="#D5D5D5"/>
<path d="M807.721 11L807.721 178" stroke="#D5D5D5"/>
<path d="M16.766 179H15.734V173.012C15.734 172.78 15.734 172.584 15.734 172.424C15.742 172.264 15.75 172.116 15.758 171.98C15.766 171.836 15.774 171.688 15.782 171.536C15.654 171.664 15.538 171.772 15.434 171.86C15.33 171.948 15.198 172.06 15.038 172.196L14.126 172.94L13.574 172.232L15.89 170.432H16.766V179ZM25.6492 174.704C25.6492 175.4 25.5972 176.02 25.4932 176.564C25.3892 177.108 25.2212 177.572 24.9892 177.956C24.7652 178.332 24.4692 178.62 24.1012 178.82C23.7412 179.02 23.3052 179.12 22.7932 179.12C22.1532 179.12 21.6212 178.944 21.1972 178.592C20.7812 178.24 20.4692 177.736 20.2612 177.08C20.0612 176.416 19.9612 175.624 19.9612 174.704C19.9612 173.776 20.0532 172.984 20.2372 172.328C20.4292 171.672 20.7332 171.172 21.1492 170.828C21.5652 170.476 22.1132 170.3 22.7932 170.3C23.4332 170.3 23.9652 170.476 24.3892 170.828C24.8132 171.172 25.1292 171.672 25.3372 172.328C25.5452 172.984 25.6492 173.776 25.6492 174.704ZM21.0172 174.704C21.0172 175.488 21.0732 176.14 21.1852 176.66C21.3052 177.18 21.4932 177.572 21.7492 177.836C22.0132 178.092 22.3612 178.22 22.7932 178.22C23.2252 178.22 23.5692 178.092 23.8252 177.836C24.0892 177.58 24.2812 177.192 24.4012 176.672C24.5212 176.144 24.5812 175.488 24.5812 174.704C24.5812 173.92 24.5212 173.272 24.4012 172.76C24.2812 172.24 24.0892 171.852 23.8252 171.596C23.5692 171.332 23.2252 171.2 22.7932 171.2C22.3612 171.2 22.0132 171.332 21.7492 171.596C21.4932 171.852 21.3052 172.24 21.1852 172.76C21.0732 173.272 21.0172 173.92 21.0172 174.704ZM32.5164 174.704C32.5164 175.4 32.4644 176.02 32.3604 176.564C32.2564 177.108 32.0884 177.572 31.8564 177.956C31.6324 178.332 31.3364 178.62 30.9684 178.82C30.6084 179.02 30.1724 179.12 29.6604 179.12C29.0204 179.12 28.4884 178.944 28.0644 178.592C27.6484 178.24 27.3364 177.736 27.1284 177.08C26.9284 176.416 26.8284 175.624 26.8284 174.704C26.8284 173.776 26.9204 172.984 27.1044 172.328C27.2964 171.672 27.6004 171.172 28.0164 170.828C28.4324 170.476 28.9804 170.3 29.6604 170.3C30.3004 170.3 30.8324 170.476 31.2564 170.828C31.6804 171.172 31.9964 171.672 32.2044 172.328C32.4124 172.984 32.5164 173.776 32.5164 174.704ZM27.8844 174.704C27.8844 175.488 27.9404 176.14 28.0524 176.66C28.1724 177.18 28.3604 177.572 28.6164 177.836C28.8804 178.092 29.2284 178.22 29.6604 178.22C30.0924 178.22 30.4364 178.092 30.6924 177.836C30.9564 177.58 31.1484 177.192 31.2684 176.672C31.3884 176.144 31.4484 175.488 31.4484 174.704C31.4484 173.92 31.3884 173.272 31.2684 172.76C31.1484 172.24 30.9564 171.852 30.6924 171.596C30.4364 171.332 30.0924 171.2 29.6604 171.2C29.2284 171.2 28.8804 171.332 28.6164 171.596C28.3604 171.852 28.1724 172.24 28.0524 172.76C27.9404 173.272 27.8844 173.92 27.8844 174.704ZM39.3835 174.704C39.3835 175.4 39.3315 176.02 39.2275 176.564C39.1235 177.108 38.9555 177.572 38.7235 177.956C38.4995 178.332 38.2035 178.62 37.8355 178.82C37.4755 179.02 37.0395 179.12 36.5275 179.12C35.8875 179.12 35.3555 178.944 34.9315 178.592C34.5155 178.24 34.2035 177.736 33.9955 177.08C33.7955 176.416 33.6955 175.624 33.6955 174.704C33.6955 173.776 33.7875 172.984 33.9715 172.328C34.1635 171.672 34.4675 171.172 34.8835 170.828C35.2995 170.476 35.8475 170.3 36.5275 170.3C37.1675 170.3 37.6995 170.476 38.1235 170.828C38.5475 171.172 38.8635 171.672 39.0715 172.328C39.2795 172.984 39.3835 173.776 39.3835 174.704ZM34.7515 174.704C34.7515 175.488 34.8075 176.14 34.9195 176.66C35.0395 177.18 35.2275 177.572 35.4835 177.836C35.7475 178.092 36.0955 178.22 36.5275 178.22C36.9595 178.22 37.3035 178.092 37.5595 177.836C37.8235 177.58 38.0155 177.192 38.1355 176.672C38.2555 176.144 38.3155 175.488 38.3155 174.704C38.3155 173.92 38.2555 173.272 38.1355 172.76C38.0155 172.24 37.8235 171.852 37.5595 171.596C37.3035 171.332 36.9595 171.2 36.5275 171.2C36.0955 171.2 35.7475 171.332 35.4835 171.596C35.2275 171.852 35.0395 172.24 34.9195 172.76C34.8075 173.272 34.7515 173.92 34.7515 174.704Z" fill="#121212"/>
<path d="M18.7458 148H13.0818V147.124L15.3258 144.856C15.7578 144.424 16.1218 144.04 16.4178 143.704C16.7138 143.368 16.9378 143.04 17.0898 142.72C17.2418 142.392 17.3178 142.036 17.3178 141.652C17.3178 141.18 17.1778 140.824 16.8978 140.584C16.6178 140.336 16.2538 140.212 15.8058 140.212C15.3898 140.212 15.0218 140.284 14.7018 140.428C14.3898 140.572 14.0698 140.772 13.7418 141.028L13.1778 140.32C13.4018 140.128 13.6458 139.956 13.9098 139.804C14.1818 139.652 14.4738 139.532 14.7858 139.444C15.1058 139.356 15.4458 139.312 15.8058 139.312C16.3418 139.312 16.8018 139.404 17.1858 139.588C17.5698 139.772 17.8658 140.036 18.0738 140.38C18.2898 140.716 18.3978 141.12 18.3978 141.592C18.3978 141.928 18.3458 142.248 18.2418 142.552C18.1378 142.848 17.9898 143.14 17.7978 143.428C17.6058 143.716 17.3738 144.008 17.1018 144.304C16.8298 144.6 16.5298 144.908 16.2018 145.228L14.4138 146.992V147.04H18.7458V148ZM25.649 143.704C25.649 144.4 25.597 145.02 25.493 145.564C25.389 146.108 25.221 146.572 24.989 146.956C24.765 147.332 24.469 147.62 24.101 147.82C23.741 148.02 23.305 148.12 22.793 148.12C22.153 148.12 21.621 147.944 21.197 147.592C20.781 147.24 20.469 146.736 20.261 146.08C20.061 145.416 19.961 144.624 19.961 143.704C19.961 142.776 20.053 141.984 20.237 141.328C20.429 140.672 20.733 140.172 21.149 139.828C21.565 139.476 22.113 139.3 22.793 139.3C23.433 139.3 23.965 139.476 24.389 139.828C24.813 140.172 25.129 140.672 25.337 141.328C25.545 141.984 25.649 142.776 25.649 143.704ZM21.017 143.704C21.017 144.488 21.073 145.14 21.185 145.66C21.305 146.18 21.493 146.572 21.749 146.836C22.013 147.092 22.361 147.22 22.793 147.22C23.225 147.22 23.569 147.092 23.825 146.836C24.089 146.58 24.281 146.192 24.401 145.672C24.521 145.144 24.581 144.488 24.581 143.704C24.581 142.92 24.521 142.272 24.401 141.76C24.281 141.24 24.089 140.852 23.825 140.596C23.569 140.332 23.225 140.2 22.793 140.2C22.361 140.2 22.013 140.332 21.749 140.596C21.493 140.852 21.305 141.24 21.185 141.76C21.073 142.272 21.017 142.92 21.017 143.704ZM32.5162 143.704C32.5162 144.4 32.4642 145.02 32.3602 145.564C32.2562 146.108 32.0882 146.572 31.8562 146.956C31.6322 147.332 31.3362 147.62 30.9682 147.82C30.6082 148.02 30.1722 148.12 29.6602 148.12C29.0202 148.12 28.4882 147.944 28.0642 147.592C27.6482 147.24 27.3362 146.736 27.1282 146.08C26.9282 145.416 26.8282 144.624 26.8282 143.704C26.8282 142.776 26.9202 141.984 27.1042 141.328C27.2962 140.672 27.6002 140.172 28.0162 139.828C28.4322 139.476 28.9802 139.3 29.6602 139.3C30.3002 139.3 30.8322 139.476 31.2562 139.828C31.6802 140.172 31.9962 140.672 32.2042 141.328C32.4122 141.984 32.5162 142.776 32.5162 143.704ZM27.8842 143.704C27.8842 144.488 27.9402 145.14 28.0522 145.66C28.1722 146.18 28.3602 146.572 28.6162 146.836C28.8802 147.092 29.2282 147.22 29.6602 147.22C30.0922 147.22 30.4362 147.092 30.6922 146.836C30.9562 146.58 31.1482 146.192 31.2682 145.672C31.3882 145.144 31.4482 144.488 31.4482 143.704C31.4482 142.92 31.3882 142.272 31.2682 141.76C31.1482 141.24 30.9562 140.852 30.6922 140.596C30.4362 140.332 30.0922 140.2 29.6602 140.2C29.2282 140.2 28.8802 140.332 28.6162 140.596C28.3602 140.852 28.1722 141.24 28.0522 141.76C27.9402 142.272 27.8842 142.92 27.8842 143.704ZM39.3834 143.704C39.3834 144.4 39.3314 145.02 39.2274 145.564C39.1234 146.108 38.9554 146.572 38.7234 146.956C38.4994 147.332 38.2034 147.62 37.8354 147.82C37.4754 148.02 37.0394 148.12 36.5274 148.12C35.8874 148.12 35.3554 147.944 34.9314 147.592C34.5154 147.24 34.2034 146.736 33.9954 146.08C33.7954 145.416 33.6954 144.624 33.6954 143.704C33.6954 142.776 33.7874 141.984 33.9714 141.328C34.1634 140.672 34.4674 140.172 34.8834 139.828C35.2994 139.476 35.8474 139.3 36.5274 139.3C37.1674 139.3 37.6994 139.476 38.1234 139.828C38.5474 140.172 38.8634 140.672 39.0714 141.328C39.2794 141.984 39.3834 142.776 39.3834 143.704ZM34.7514 143.704C34.7514 144.488 34.8074 145.14 34.9194 145.66C35.0394 146.18 35.2274 146.572 35.4834 146.836C35.7474 147.092 36.0954 147.22 36.5274 147.22C36.9594 147.22 37.3034 147.092 37.5594 146.836C37.8234 146.58 38.0154 146.192 38.1354 145.672C38.2554 145.144 38.3154 144.488 38.3154 143.704C38.3154 142.92 38.2554 142.272 38.1354 141.76C38.0154 141.24 37.8234 140.852 37.5594 140.596C37.3034 140.332 36.9594 140.2 36.5274 140.2C36.0954 140.2 35.7474 140.332 35.4834 140.596C35.2274 140.852 35.0394 141.24 34.9194 141.76C34.8074 142.272 34.7514 142.92 34.7514 143.704Z" fill="#121212"/>
<path d="M18.4218 114.436C18.4218 114.82 18.3498 115.152 18.2058 115.432C18.0618 115.712 17.8538 115.94 17.5818 116.116C17.3178 116.292 17.0058 116.416 16.6458 116.488V116.536C17.3338 116.616 17.8458 116.832 18.1818 117.184C18.5178 117.536 18.6858 117.996 18.6858 118.564C18.6858 119.06 18.5698 119.504 18.3378 119.896C18.1058 120.28 17.7458 120.58 17.2578 120.796C16.7778 121.012 16.1578 121.12 15.3978 121.12C14.9498 121.12 14.5338 121.084 14.1498 121.012C13.7658 120.948 13.3978 120.828 13.0458 120.652V119.668C13.4058 119.844 13.7938 119.984 14.2098 120.088C14.6258 120.184 15.0258 120.232 15.4098 120.232C16.1778 120.232 16.7298 120.084 17.0658 119.788C17.4098 119.484 17.5818 119.068 17.5818 118.54C17.5818 118.18 17.4858 117.892 17.2938 117.676C17.1098 117.452 16.8378 117.288 16.4778 117.184C16.1178 117.08 15.6858 117.028 15.1818 117.028H14.3538V116.128H15.1938C15.6658 116.128 16.0578 116.06 16.3698 115.924C16.6898 115.788 16.9298 115.6 17.0898 115.36C17.2578 115.112 17.3418 114.828 17.3418 114.508C17.3418 114.092 17.2018 113.772 16.9218 113.548C16.6418 113.316 16.2618 113.2 15.7818 113.2C15.4778 113.2 15.2018 113.232 14.9538 113.296C14.7058 113.352 14.4738 113.436 14.2578 113.548C14.0498 113.652 13.8378 113.776 13.6218 113.92L13.0938 113.2C13.3018 113.04 13.5378 112.892 13.8018 112.756C14.0738 112.62 14.3738 112.512 14.7018 112.432C15.0298 112.352 15.3858 112.312 15.7698 112.312C16.6658 112.312 17.3298 112.512 17.7618 112.912C18.2018 113.312 18.4218 113.82 18.4218 114.436ZM25.649 116.704C25.649 117.4 25.597 118.02 25.493 118.564C25.389 119.108 25.221 119.572 24.989 119.956C24.765 120.332 24.469 120.62 24.101 120.82C23.741 121.02 23.305 121.12 22.793 121.12C22.153 121.12 21.621 120.944 21.197 120.592C20.781 120.24 20.469 119.736 20.261 119.08C20.061 118.416 19.961 117.624 19.961 116.704C19.961 115.776 20.053 114.984 20.237 114.328C20.429 113.672 20.733 113.172 21.149 112.828C21.565 112.476 22.113 112.3 22.793 112.3C23.433 112.3 23.965 112.476 24.389 112.828C24.813 113.172 25.129 113.672 25.337 114.328C25.545 114.984 25.649 115.776 25.649 116.704ZM21.017 116.704C21.017 117.488 21.073 118.14 21.185 118.66C21.305 119.18 21.493 119.572 21.749 119.836C22.013 120.092 22.361 120.22 22.793 120.22C23.225 120.22 23.569 120.092 23.825 119.836C24.089 119.58 24.281 119.192 24.401 118.672C24.521 118.144 24.581 117.488 24.581 116.704C24.581 115.92 24.521 115.272 24.401 114.76C24.281 114.24 24.089 113.852 23.825 113.596C23.569 113.332 23.225 113.2 22.793 113.2C22.361 113.2 22.013 113.332 21.749 113.596C21.493 113.852 21.305 114.24 21.185 114.76C21.073 115.272 21.017 115.92 21.017 116.704ZM32.5162 116.704C32.5162 117.4 32.4642 118.02 32.3602 118.564C32.2562 119.108 32.0882 119.572 31.8562 119.956C31.6322 120.332 31.3362 120.62 30.9682 120.82C30.6082 121.02 30.1722 121.12 29.6602 121.12C29.0202 121.12 28.4882 120.944 28.0642 120.592C27.6482 120.24 27.3362 119.736 27.1282 119.08C26.9282 118.416 26.8282 117.624 26.8282 116.704C26.8282 115.776 26.9202 114.984 27.1042 114.328C27.2962 113.672 27.6002 113.172 28.0162 112.828C28.4322 112.476 28.9802 112.3 29.6602 112.3C30.3002 112.3 30.8322 112.476 31.2562 112.828C31.6802 113.172 31.9962 113.672 32.2042 114.328C32.4122 114.984 32.5162 115.776 32.5162 116.704ZM27.8842 116.704C27.8842 117.488 27.9402 118.14 28.0522 118.66C28.1722 119.18 28.3602 119.572 28.6162 119.836C28.8802 120.092 29.2282 120.22 29.6602 120.22C30.0922 120.22 30.4362 120.092 30.6922 119.836C30.9562 119.58 31.1482 119.192 31.2682 118.672C31.3882 118.144 31.4482 117.488 31.4482 116.704C31.4482 115.92 31.3882 115.272 31.2682 114.76C31.1482 114.24 30.9562 113.852 30.6922 113.596C30.4362 113.332 30.0922 113.2 29.6602 113.2C29.2282 113.2 28.8802 113.332 28.6162 113.596C28.3602 113.852 28.1722 114.24 28.0522 114.76C27.9402 115.272 27.8842 115.92 27.8842 116.704ZM39.3834 116.704C39.3834 117.4 39.3314 118.02 39.2274 118.564C39.1234 119.108 38.9554 119.572 38.7234 119.956C38.4994 120.332 38.2034 120.62 37.8354 120.82C37.4754 121.02 37.0394 121.12 36.5274 121.12C35.8874 121.12 35.3554 120.944 34.9314 120.592C34.5154 120.24 34.2034 119.736 33.9954 119.08C33.7954 118.416 33.6954 117.624 33.6954 116.704C33.6954 115.776 33.7874 114.984 33.9714 114.328C34.1634 113.672 34.4674 113.172 34.8834 112.828C35.2994 112.476 35.8474 112.3 36.5274 112.3C37.1674 112.3 37.6994 112.476 38.1234 112.828C38.5474 113.172 38.8634 113.672 39.0714 114.328C39.2794 114.984 39.3834 115.776 39.3834 116.704ZM34.7514 116.704C34.7514 117.488 34.8074 118.14 34.9194 118.66C35.0394 119.18 35.2274 119.572 35.4834 119.836C35.7474 120.092 36.0954 120.22 36.5274 120.22C36.9594 120.22 37.3034 120.092 37.5594 119.836C37.8234 119.58 38.0154 119.192 38.1354 118.672C38.2554 118.144 38.3154 117.488 38.3154 116.704C38.3154 115.92 38.2554 115.272 38.1354 114.76C38.0154 114.24 37.8234 113.852 37.5594 113.596C37.3034 113.332 36.9594 113.2 36.5274 113.2C36.0954 113.2 35.7474 113.332 35.4834 113.596C35.2274 113.852 35.0394 114.24 34.9194 114.76C34.8074 115.272 34.7514 115.92 34.7514 116.704Z" fill="#121212"/>
<path d="M19.1298 92.056H17.8818V94H16.8618V92.056H12.7578V91.156L16.7898 85.384H17.8818V91.108H19.1298V92.056ZM16.8618 88.408C16.8618 88.2 16.8618 88.012 16.8618 87.844C16.8698 87.668 16.8778 87.504 16.8858 87.352C16.8938 87.2 16.8978 87.056 16.8978 86.92C16.9058 86.776 16.9138 86.64 16.9218 86.512H16.8738C16.8098 86.664 16.7298 86.828 16.6338 87.004C16.5378 87.18 16.4458 87.328 16.3578 87.448L13.7898 91.108H16.8618V88.408ZM25.649 89.704C25.649 90.4 25.597 91.02 25.493 91.564C25.389 92.108 25.221 92.572 24.989 92.956C24.765 93.332 24.469 93.62 24.101 93.82C23.741 94.02 23.305 94.12 22.793 94.12C22.153 94.12 21.621 93.944 21.197 93.592C20.781 93.24 20.469 92.736 20.261 92.08C20.061 91.416 19.961 90.624 19.961 89.704C19.961 88.776 20.053 87.984 20.237 87.328C20.429 86.672 20.733 86.172 21.149 85.828C21.565 85.476 22.113 85.3 22.793 85.3C23.433 85.3 23.965 85.476 24.389 85.828C24.813 86.172 25.129 86.672 25.337 87.328C25.545 87.984 25.649 88.776 25.649 89.704ZM21.017 89.704C21.017 90.488 21.073 91.14 21.185 91.66C21.305 92.18 21.493 92.572 21.749 92.836C22.013 93.092 22.361 93.22 22.793 93.22C23.225 93.22 23.569 93.092 23.825 92.836C24.089 92.58 24.281 92.192 24.401 91.672C24.521 91.144 24.581 90.488 24.581 89.704C24.581 88.92 24.521 88.272 24.401 87.76C24.281 87.24 24.089 86.852 23.825 86.596C23.569 86.332 23.225 86.2 22.793 86.2C22.361 86.2 22.013 86.332 21.749 86.596C21.493 86.852 21.305 87.24 21.185 87.76C21.073 88.272 21.017 88.92 21.017 89.704ZM32.5162 89.704C32.5162 90.4 32.4642 91.02 32.3602 91.564C32.2562 92.108 32.0882 92.572 31.8562 92.956C31.6322 93.332 31.3362 93.62 30.9682 93.82C30.6082 94.02 30.1722 94.12 29.6602 94.12C29.0202 94.12 28.4882 93.944 28.0642 93.592C27.6482 93.24 27.3362 92.736 27.1282 92.08C26.9282 91.416 26.8282 90.624 26.8282 89.704C26.8282 88.776 26.9202 87.984 27.1042 87.328C27.2962 86.672 27.6002 86.172 28.0162 85.828C28.4322 85.476 28.9802 85.3 29.6602 85.3C30.3002 85.3 30.8322 85.476 31.2562 85.828C31.6802 86.172 31.9962 86.672 32.2042 87.328C32.4122 87.984 32.5162 88.776 32.5162 89.704ZM27.8842 89.704C27.8842 90.488 27.9402 91.14 28.0522 91.66C28.1722 92.18 28.3602 92.572 28.6162 92.836C28.8802 93.092 29.2282 93.22 29.6602 93.22C30.0922 93.22 30.4362 93.092 30.6922 92.836C30.9562 92.58 31.1482 92.192 31.2682 91.672C31.3882 91.144 31.4482 90.488 31.4482 89.704C31.4482 88.92 31.3882 88.272 31.2682 87.76C31.1482 87.24 30.9562 86.852 30.6922 86.596C30.4362 86.332 30.0922 86.2 29.6602 86.2C29.2282 86.2 28.8802 86.332 28.6162 86.596C28.3602 86.852 28.1722 87.24 28.0522 87.76C27.9402 88.272 27.8842 88.92 27.8842 89.704ZM39.3834 89.704C39.3834 90.4 39.3314 91.02 39.2274 91.564C39.1234 92.108 38.9554 92.572 38.7234 92.956C38.4994 93.332 38.2034 93.62 37.8354 93.82C37.4754 94.02 37.0394 94.12 36.5274 94.12C35.8874 94.12 35.3554 93.944 34.9314 93.592C34.5154 93.24 34.2034 92.736 33.9954 92.08C33.7954 91.416 33.6954 90.624 33.6954 89.704C33.6954 88.776 33.7874 87.984 33.9714 87.328C34.1634 86.672 34.4674 86.172 34.8834 85.828C35.2994 85.476 35.8474 85.3 36.5274 85.3C37.1674 85.3 37.6994 85.476 38.1234 85.828C38.5474 86.172 38.8634 86.672 39.0714 87.328C39.2794 87.984 39.3834 88.776 39.3834 89.704ZM34.7514 89.704C34.7514 90.488 34.8074 91.14 34.9194 91.66C35.0394 92.18 35.2274 92.572 35.4834 92.836C35.7474 93.092 36.0954 93.22 36.5274 93.22C36.9594 93.22 37.3034 93.092 37.5594 92.836C37.8234 92.58 38.0154 92.192 38.1354 91.672C38.2554 91.144 38.3154 90.488 38.3154 89.704C38.3154 88.92 38.2554 88.272 38.1354 87.76C38.0154 87.24 37.8234 86.852 37.5594 86.596C37.3034 86.332 36.9594 86.2 36.5274 86.2C36.0954 86.2 35.7474 86.332 35.4834 86.596C35.2274 86.852 35.0394 87.24 34.9194 87.76C34.8074 88.272 34.7514 88.92 34.7514 89.704Z" fill="#121212"/>
<path d="M15.8058 61.744C16.3898 61.744 16.8978 61.844 17.3298 62.044C17.7618 62.244 18.0938 62.532 18.3258 62.908C18.5658 63.276 18.6858 63.728 18.6858 64.264C18.6858 64.856 18.5578 65.368 18.3018 65.8C18.0458 66.224 17.6778 66.552 17.1978 66.784C16.7258 67.008 16.1538 67.12 15.4818 67.12C15.0418 67.12 14.6258 67.08 14.2338 67C13.8498 66.92 13.5258 66.804 13.2618 66.652V65.656C13.5498 65.832 13.8978 65.972 14.3058 66.076C14.7218 66.172 15.1178 66.22 15.4938 66.22C15.9178 66.22 16.2858 66.156 16.5978 66.028C16.9178 65.892 17.1658 65.688 17.3418 65.416C17.5178 65.136 17.6058 64.788 17.6058 64.372C17.6058 63.812 17.4338 63.384 17.0898 63.088C16.7458 62.784 16.2018 62.632 15.4578 62.632C15.2338 62.632 14.9778 62.652 14.6898 62.692C14.4018 62.732 14.1698 62.772 13.9938 62.812L13.4658 62.476L13.7898 58.432H18.0858V59.392H14.6898L14.4858 61.876C14.6218 61.852 14.8058 61.824 15.0378 61.792C15.2698 61.76 15.5258 61.744 15.8058 61.744ZM25.649 62.704C25.649 63.4 25.597 64.02 25.493 64.564C25.389 65.108 25.221 65.572 24.989 65.956C24.765 66.332 24.469 66.62 24.101 66.82C23.741 67.02 23.305 67.12 22.793 67.12C22.153 67.12 21.621 66.944 21.197 66.592C20.781 66.24 20.469 65.736 20.261 65.08C20.061 64.416 19.961 63.624 19.961 62.704C19.961 61.776 20.053 60.984 20.237 60.328C20.429 59.672 20.733 59.172 21.149 58.828C21.565 58.476 22.113 58.3 22.793 58.3C23.433 58.3 23.965 58.476 24.389 58.828C24.813 59.172 25.129 59.672 25.337 60.328C25.545 60.984 25.649 61.776 25.649 62.704ZM21.017 62.704C21.017 63.488 21.073 64.14 21.185 64.66C21.305 65.18 21.493 65.572 21.749 65.836C22.013 66.092 22.361 66.22 22.793 66.22C23.225 66.22 23.569 66.092 23.825 65.836C24.089 65.58 24.281 65.192 24.401 64.672C24.521 64.144 24.581 63.488 24.581 62.704C24.581 61.92 24.521 61.272 24.401 60.76C24.281 60.24 24.089 59.852 23.825 59.596C23.569 59.332 23.225 59.2 22.793 59.2C22.361 59.2 22.013 59.332 21.749 59.596C21.493 59.852 21.305 60.24 21.185 60.76C21.073 61.272 21.017 61.92 21.017 62.704ZM32.5162 62.704C32.5162 63.4 32.4642 64.02 32.3602 64.564C32.2562 65.108 32.0882 65.572 31.8562 65.956C31.6322 66.332 31.3362 66.62 30.9682 66.82C30.6082 67.02 30.1722 67.12 29.6602 67.12C29.0202 67.12 28.4882 66.944 28.0642 66.592C27.6482 66.24 27.3362 65.736 27.1282 65.08C26.9282 64.416 26.8282 63.624 26.8282 62.704C26.8282 61.776 26.9202 60.984 27.1042 60.328C27.2962 59.672 27.6002 59.172 28.0162 58.828C28.4322 58.476 28.9802 58.3 29.6602 58.3C30.3002 58.3 30.8322 58.476 31.2562 58.828C31.6802 59.172 31.9962 59.672 32.2042 60.328C32.4122 60.984 32.5162 61.776 32.5162 62.704ZM27.8842 62.704C27.8842 63.488 27.9402 64.14 28.0522 64.66C28.1722 65.18 28.3602 65.572 28.6162 65.836C28.8802 66.092 29.2282 66.22 29.6602 66.22C30.0922 66.22 30.4362 66.092 30.6922 65.836C30.9562 65.58 31.1482 65.192 31.2682 64.672C31.3882 64.144 31.4482 63.488 31.4482 62.704C31.4482 61.92 31.3882 61.272 31.2682 60.76C31.1482 60.24 30.9562 59.852 30.6922 59.596C30.4362 59.332 30.0922 59.2 29.6602 59.2C29.2282 59.2 28.8802 59.332 28.6162 59.596C28.3602 59.852 28.1722 60.24 28.0522 60.76C27.9402 61.272 27.8842 61.92 27.8842 62.704ZM39.3834 62.704C39.3834 63.4 39.3314 64.02 39.2274 64.564C39.1234 65.108 38.9554 65.572 38.7234 65.956C38.4994 66.332 38.2034 66.62 37.8354 66.82C37.4754 67.02 37.0394 67.12 36.5274 67.12C35.8874 67.12 35.3554 66.944 34.9314 66.592C34.5154 66.24 34.2034 65.736 33.9954 65.08C33.7954 64.416 33.6954 63.624 33.6954 62.704C33.6954 61.776 33.7874 60.984 33.9714 60.328C34.1634 59.672 34.4674 59.172 34.8834 58.828C35.2994 58.476 35.8474 58.3 36.5274 58.3C37.1674 58.3 37.6994 58.476 38.1234 58.828C38.5474 59.172 38.8634 59.672 39.0714 60.328C39.2794 60.984 39.3834 61.776 39.3834 62.704ZM34.7514 62.704C34.7514 63.488 34.8074 64.14 34.9194 64.66C35.0394 65.18 35.2274 65.572 35.4834 65.836C35.7474 66.092 36.0954 66.22 36.5274 66.22C36.9594 66.22 37.3034 66.092 37.5594 65.836C37.8234 65.58 38.0154 65.192 38.1354 64.672C38.2554 64.144 38.3154 63.488 38.3154 62.704C38.3154 61.92 38.2554 61.272 38.1354 60.76C38.0154 60.24 37.8234 59.852 37.5594 59.596C37.3034 59.332 36.9594 59.2 36.5274 59.2C36.0954 59.2 35.7474 59.332 35.4834 59.596C35.2274 59.852 35.0394 60.24 34.9194 60.76C34.8074 61.272 34.7514 61.92 34.7514 62.704Z" fill="#121212"/>
<path d="M13.1658 36.34C13.1658 35.844 13.1978 35.356 13.2618 34.876C13.3338 34.396 13.4538 33.944 13.6218 33.52C13.7898 33.088 14.0218 32.708 14.3178 32.38C14.6138 32.044 14.9858 31.784 15.4338 31.6C15.8898 31.408 16.4418 31.312 17.0898 31.312C17.2578 31.312 17.4418 31.32 17.6418 31.336C17.8498 31.352 18.0178 31.38 18.1458 31.42V32.32C18.0018 32.272 17.8378 32.236 17.6538 32.212C17.4778 32.188 17.2978 32.176 17.1138 32.176C16.5618 32.176 16.1018 32.268 15.7338 32.452C15.3658 32.636 15.0738 32.888 14.8578 33.208C14.6498 33.528 14.4978 33.896 14.4018 34.312C14.3058 34.728 14.2458 35.172 14.2218 35.644H14.2938C14.4138 35.452 14.5658 35.28 14.7498 35.128C14.9338 34.976 15.1538 34.856 15.4098 34.768C15.6738 34.68 15.9778 34.636 16.3218 34.636C16.8178 34.636 17.2498 34.74 17.6178 34.948C17.9938 35.148 18.2858 35.444 18.4938 35.836C18.7018 36.22 18.8058 36.688 18.8058 37.24C18.8058 37.832 18.6938 38.344 18.4698 38.776C18.2458 39.208 17.9298 39.54 17.5218 39.772C17.1218 40.004 16.6418 40.12 16.0818 40.12C15.6738 40.12 15.2938 40.044 14.9418 39.892C14.5898 39.74 14.2778 39.508 14.0058 39.196C13.7418 38.884 13.5338 38.492 13.3818 38.02C13.2378 37.54 13.1658 36.98 13.1658 36.34ZM16.0698 39.232C16.5738 39.232 16.9818 39.072 17.2938 38.752C17.6058 38.424 17.7618 37.92 17.7618 37.24C17.7618 36.696 17.6218 36.264 17.3418 35.944C17.0698 35.624 16.6578 35.464 16.1058 35.464C15.7298 35.464 15.4018 35.544 15.1218 35.704C14.8418 35.856 14.6218 36.052 14.4618 36.292C14.3098 36.532 14.2338 36.78 14.2338 37.036C14.2338 37.3 14.2698 37.56 14.3418 37.816C14.4218 38.072 14.5378 38.308 14.6898 38.524C14.8498 38.74 15.0418 38.912 15.2658 39.04C15.4978 39.168 15.7658 39.232 16.0698 39.232ZM25.649 35.704C25.649 36.4 25.597 37.02 25.493 37.564C25.389 38.108 25.221 38.572 24.989 38.956C24.765 39.332 24.469 39.62 24.101 39.82C23.741 40.02 23.305 40.12 22.793 40.12C22.153 40.12 21.621 39.944 21.197 39.592C20.781 39.24 20.469 38.736 20.261 38.08C20.061 37.416 19.961 36.624 19.961 35.704C19.961 34.776 20.053 33.984 20.237 33.328C20.429 32.672 20.733 32.172 21.149 31.828C21.565 31.476 22.113 31.3 22.793 31.3C23.433 31.3 23.965 31.476 24.389 31.828C24.813 32.172 25.129 32.672 25.337 33.328C25.545 33.984 25.649 34.776 25.649 35.704ZM21.017 35.704C21.017 36.488 21.073 37.14 21.185 37.66C21.305 38.18 21.493 38.572 21.749 38.836C22.013 39.092 22.361 39.22 22.793 39.22C23.225 39.22 23.569 39.092 23.825 38.836C24.089 38.58 24.281 38.192 24.401 37.672C24.521 37.144 24.581 36.488 24.581 35.704C24.581 34.92 24.521 34.272 24.401 33.76C24.281 33.24 24.089 32.852 23.825 32.596C23.569 32.332 23.225 32.2 22.793 32.2C22.361 32.2 22.013 32.332 21.749 32.596C21.493 32.852 21.305 33.24 21.185 33.76C21.073 34.272 21.017 34.92 21.017 35.704ZM32.5162 35.704C32.5162 36.4 32.4642 37.02 32.3602 37.564C32.2562 38.108 32.0882 38.572 31.8562 38.956C31.6322 39.332 31.3362 39.62 30.9682 39.82C30.6082 40.02 30.1722 40.12 29.6602 40.12C29.0202 40.12 28.4882 39.944 28.0642 39.592C27.6482 39.24 27.3362 38.736 27.1282 38.08C26.9282 37.416 26.8282 36.624 26.8282 35.704C26.8282 34.776 26.9202 33.984 27.1042 33.328C27.2962 32.672 27.6002 32.172 28.0162 31.828C28.4322 31.476 28.9802 31.3 29.6602 31.3C30.3002 31.3 30.8322 31.476 31.2562 31.828C31.6802 32.172 31.9962 32.672 32.2042 33.328C32.4122 33.984 32.5162 34.776 32.5162 35.704ZM27.8842 35.704C27.8842 36.488 27.9402 37.14 28.0522 37.66C28.1722 38.18 28.3602 38.572 28.6162 38.836C28.8802 39.092 29.2282 39.22 29.6602 39.22C30.0922 39.22 30.4362 39.092 30.6922 38.836C30.9562 38.58 31.1482 38.192 31.2682 37.672C31.3882 37.144 31.4482 36.488 31.4482 35.704C31.4482 34.92 31.3882 34.272 31.2682 33.76C31.1482 33.24 30.9562 32.852 30.6922 32.596C30.4362 32.332 30.0922 32.2 29.6602 32.2C29.2282 32.2 28.8802 32.332 28.6162 32.596C28.3602 32.852 28.1722 33.24 28.0522 33.76C27.9402 34.272 27.8842 34.92 27.8842 35.704ZM39.3834 35.704C39.3834 36.4 39.3314 37.02 39.2274 37.564C39.1234 38.108 38.9554 38.572 38.7234 38.956C38.4994 39.332 38.2034 39.62 37.8354 39.82C37.4754 40.02 37.0394 40.12 36.5274 40.12C35.8874 40.12 35.3554 39.944 34.9314 39.592C34.5154 39.24 34.2034 38.736 33.9954 38.08C33.7954 37.416 33.6954 36.624 33.6954 35.704C33.6954 34.776 33.7874 33.984 33.9714 33.328C34.1634 32.672 34.4674 32.172 34.8834 31.828C35.2994 31.476 35.8474 31.3 36.5274 31.3C37.1674 31.3 37.6994 31.476 38.1234 31.828C38.5474 32.172 38.8634 32.672 39.0714 33.328C39.2794 33.984 39.3834 34.776 39.3834 35.704ZM34.7514 35.704C34.7514 36.488 34.8074 37.14 34.9194 37.66C35.0394 38.18 35.2274 38.572 35.4834 38.836C35.7474 39.092 36.0954 39.22 36.5274 39.22C36.9594 39.22 37.3034 39.092 37.5594 38.836C37.8234 38.58 38.0154 38.192 38.1354 37.672C38.2554 37.144 38.3154 36.488 38.3154 35.704C38.3154 34.92 38.2554 34.272 38.1354 33.76C38.0154 33.24 37.8234 32.852 37.5594 32.596C37.3034 32.332 36.9594 32.2 36.5274 32.2C36.0954 32.2 35.7474 32.332 35.4834 32.596C35.2274 32.852 35.0394 33.24 34.9194 33.76C34.8074 34.272 34.7514 34.92 34.7514 35.704Z" fill="#121212"/>
<path d="M14.1379 13L17.6539 5.392H13.0339V4.432H18.7819V5.248L15.3019 13H14.1379ZM25.6491 8.704C25.6491 9.4 25.5971 10.02 25.4931 10.564C25.3891 11.108 25.2211 11.572 24.9891 11.956C24.7651 12.332 24.4691 12.62 24.1011 12.82C23.7411 13.02 23.3051 13.12 22.7931 13.12C22.1531 13.12 21.6211 12.944 21.1971 12.592C20.7811 12.24 20.4691 11.736 20.2611 11.08C20.0611 10.416 19.9611 9.624 19.9611 8.704C19.9611 7.776 20.0531 6.984 20.2371 6.328C20.4291 5.672 20.7331 5.172 21.1491 4.828C21.5651 4.476 22.1131 4.3 22.7931 4.3C23.4331 4.3 23.9651 4.476 24.3891 4.828C24.8131 5.172 25.1291 5.672 25.3371 6.328C25.5451 6.984 25.6491 7.776 25.6491 8.704ZM21.0171 8.704C21.0171 9.488 21.0731 10.14 21.1851 10.66C21.3051 11.18 21.4931 11.572 21.7491 11.836C22.0131 12.092 22.3611 12.22 22.7931 12.22C23.2251 12.22 23.5691 12.092 23.8251 11.836C24.0891 11.58 24.2811 11.192 24.4011 10.672C24.5211 10.144 24.5811 9.488 24.5811 8.704C24.5811 7.92 24.5211 7.272 24.4011 6.76C24.2811 6.24 24.0891 5.852 23.8251 5.596C23.5691 5.332 23.2251 5.2 22.7931 5.2C22.3611 5.2 22.0131 5.332 21.7491 5.596C21.4931 5.852 21.3051 6.24 21.1851 6.76C21.0731 7.272 21.0171 7.92 21.0171 8.704ZM32.5162 8.704C32.5162 9.4 32.4642 10.02 32.3602 10.564C32.2562 11.108 32.0882 11.572 31.8562 11.956C31.6322 12.332 31.3362 12.62 30.9682 12.82C30.6082 13.02 30.1722 13.12 29.6602 13.12C29.0202 13.12 28.4882 12.944 28.0642 12.592C27.6482 12.24 27.3362 11.736 27.1282 11.08C26.9282 10.416 26.8282 9.624 26.8282 8.704C26.8282 7.776 26.9202 6.984 27.1042 6.328C27.2962 5.672 27.6002 5.172 28.0162 4.828C28.4322 4.476 28.9802 4.3 29.6602 4.3C30.3002 4.3 30.8322 4.476 31.2562 4.828C31.6802 5.172 31.9962 5.672 32.2042 6.328C32.4122 6.984 32.5162 7.776 32.5162 8.704ZM27.8842 8.704C27.8842 9.488 27.9402 10.14 28.0522 10.66C28.1722 11.18 28.3602 11.572 28.6162 11.836C28.8802 12.092 29.2282 12.22 29.6602 12.22C30.0922 12.22 30.4362 12.092 30.6922 11.836C30.9562 11.58 31.1482 11.192 31.2682 10.672C31.3882 10.144 31.4482 9.488 31.4482 8.704C31.4482 7.92 31.3882 7.272 31.2682 6.76C31.1482 6.24 30.9562 5.852 30.6922 5.596C30.4362 5.332 30.0922 5.2 29.6602 5.2C29.2282 5.2 28.8802 5.332 28.6162 5.596C28.3602 5.852 28.1722 6.24 28.0522 6.76C27.9402 7.272 27.8842 7.92 27.8842 8.704ZM39.3834 8.704C39.3834 9.4 39.3314 10.02 39.2274 10.564C39.1234 11.108 38.9554 11.572 38.7234 11.956C38.4994 12.332 38.2034 12.62 37.8354 12.82C37.4754 13.02 37.0394 13.12 36.5274 13.12C35.8874 13.12 35.3554 12.944 34.9314 12.592C34.5154 12.24 34.2034 11.736 33.9954 11.08C33.7954 10.416 33.6954 9.624 33.6954 8.704C33.6954 7.776 33.7874 6.984 33.9714 6.328C34.1634 5.672 34.4674 5.172 34.8834 4.828C35.2994 4.476 35.8474 4.3 36.5274 4.3C37.1674 4.3 37.6994 4.476 38.1234 4.828C38.5474 5.172 38.8634 5.672 39.0714 6.328C39.2794 6.984 39.3834 7.776 39.3834 8.704ZM34.7514 8.704C34.7514 9.488 34.8074 10.14 34.9194 10.66C35.0394 11.18 35.2274 11.572 35.4834 11.836C35.7474 12.092 36.0954 12.22 36.5274 12.22C36.9594 12.22 37.3034 12.092 37.5594 11.836C37.8234 11.58 38.0154 11.192 38.1354 10.672C38.2554 10.144 38.3154 9.488 38.3154 8.704C38.3154 7.92 38.2554 7.272 38.1354 6.76C38.0154 6.24 37.8234 5.852 37.5594 5.596C37.3034 5.332 36.9594 5.2 36.5274 5.2C36.0954 5.2 35.7474 5.332 35.4834 5.596C35.2274 5.852 35.0394 6.24 34.9194 6.76C34.8074 7.272 34.7514 7.92 34.7514 8.704Z" fill="#121212"/>
<path d="M97.9945 245.704C97.9945 246.368 97.9105 246.972 97.7425 247.516C97.5745 248.052 97.3225 248.516 96.9865 248.908C96.6585 249.3 96.2465 249.6 95.7505 249.808C95.2625 250.016 94.6945 250.12 94.0465 250.12C93.3745 250.12 92.7905 250.016 92.2945 249.808C91.7985 249.592 91.3865 249.292 91.0585 248.908C90.7305 248.516 90.4865 248.048 90.3265 247.504C90.1665 246.96 90.0865 246.356 90.0865 245.692C90.0865 244.812 90.2305 244.044 90.5185 243.388C90.8065 242.732 91.2425 242.22 91.8265 241.852C92.4185 241.484 93.1625 241.3 94.0585 241.3C94.9145 241.3 95.6345 241.484 96.2185 241.852C96.8025 242.212 97.2425 242.724 97.5385 243.388C97.8425 244.044 97.9945 244.816 97.9945 245.704ZM91.2265 245.704C91.2265 246.424 91.3265 247.044 91.5265 247.564C91.7265 248.084 92.0345 248.484 92.4505 248.764C92.8745 249.044 93.4065 249.184 94.0465 249.184C94.6945 249.184 95.2225 249.044 95.6305 248.764C96.0465 248.484 96.3545 248.084 96.5545 247.564C96.7545 247.044 96.8545 246.424 96.8545 245.704C96.8545 244.624 96.6305 243.78 96.1825 243.172C95.7345 242.556 95.0265 242.248 94.0585 242.248C93.4105 242.248 92.8745 242.388 92.4505 242.668C92.0345 242.94 91.7265 243.336 91.5265 243.856C91.3265 244.368 91.2265 244.984 91.2265 245.704ZM102.749 243.448C102.869 243.448 102.997 243.456 103.133 243.472C103.277 243.48 103.401 243.496 103.505 243.52L103.373 244.492C103.269 244.468 103.153 244.448 103.025 244.432C102.905 244.416 102.789 244.408 102.677 244.408C102.429 244.408 102.193 244.46 101.969 244.564C101.745 244.668 101.545 244.816 101.369 245.008C101.193 245.192 101.053 245.416 100.949 245.68C100.853 245.944 100.805 246.24 100.805 246.568V250H99.7495V243.568H100.613L100.733 244.744H100.781C100.917 244.504 101.081 244.288 101.273 244.096C101.465 243.896 101.685 243.74 101.933 243.628C102.181 243.508 102.453 243.448 102.749 243.448ZM106.752 250.12C105.952 250.12 105.312 249.844 104.832 249.292C104.352 248.732 104.112 247.9 104.112 246.796C104.112 245.692 104.352 244.86 104.832 244.3C105.32 243.732 105.964 243.448 106.764 243.448C107.1 243.448 107.392 243.492 107.64 243.58C107.888 243.66 108.104 243.772 108.288 243.916C108.472 244.06 108.628 244.22 108.756 244.396H108.828C108.82 244.292 108.804 244.14 108.78 243.94C108.764 243.732 108.756 243.568 108.756 243.448V240.88H109.812V250H108.96L108.804 249.136H108.756C108.628 249.32 108.472 249.488 108.288 249.64C108.104 249.784 107.884 249.9 107.628 249.988C107.38 250.076 107.088 250.12 106.752 250.12ZM106.92 249.244C107.6 249.244 108.076 249.06 108.348 248.692C108.628 248.316 108.768 247.752 108.768 247V246.808C108.768 246.008 108.636 245.396 108.372 244.972C108.108 244.54 107.62 244.324 106.908 244.324C106.34 244.324 105.912 244.552 105.624 245.008C105.344 245.456 105.204 246.06 105.204 246.82C105.204 247.588 105.344 248.184 105.624 248.608C105.912 249.032 106.344 249.244 106.92 249.244ZM114.339 243.448C114.891 243.448 115.363 243.568 115.755 243.808C116.155 244.048 116.459 244.388 116.667 244.828C116.883 245.26 116.991 245.768 116.991 246.352V246.988H112.587C112.603 247.716 112.787 248.272 113.139 248.656C113.499 249.032 113.999 249.22 114.639 249.22C115.047 249.22 115.407 249.184 115.719 249.112C116.039 249.032 116.367 248.92 116.703 248.776V249.7C116.375 249.844 116.051 249.948 115.731 250.012C115.411 250.084 115.031 250.12 114.591 250.12C113.983 250.12 113.443 249.996 112.971 249.748C112.507 249.5 112.143 249.132 111.879 248.644C111.623 248.148 111.495 247.544 111.495 246.832C111.495 246.128 111.611 245.524 111.843 245.02C112.083 244.516 112.415 244.128 112.839 243.856C113.271 243.584 113.771 243.448 114.339 243.448ZM114.327 244.312C113.823 244.312 113.423 244.476 113.127 244.804C112.839 245.124 112.667 245.572 112.611 246.148H115.887C115.887 245.78 115.831 245.46 115.719 245.188C115.607 244.916 115.435 244.704 115.203 244.552C114.979 244.392 114.687 244.312 114.327 244.312ZM121.628 243.448C121.748 243.448 121.876 243.456 122.012 243.472C122.156 243.48 122.28 243.496 122.384 243.52L122.252 244.492C122.148 244.468 122.032 244.448 121.904 244.432C121.784 244.416 121.668 244.408 121.556 244.408C121.308 244.408 121.072 244.46 120.848 244.564C120.624 244.668 120.424 244.816 120.248 245.008C120.072 245.192 119.932 245.416 119.828 245.68C119.732 245.944 119.684 246.24 119.684 246.568V250H118.628V243.568H119.492L119.612 244.744H119.66C119.796 244.504 119.96 244.288 120.152 244.096C120.344 243.896 120.564 243.74 120.812 243.628C121.06 243.508 121.332 243.448 121.628 243.448ZM127.773 248.224C127.773 248.64 127.669 248.988 127.461 249.268C127.253 249.548 126.957 249.76 126.573 249.904C126.189 250.048 125.733 250.12 125.205 250.12C124.757 250.12 124.369 250.084 124.041 250.012C123.721 249.94 123.437 249.84 123.189 249.712V248.752C123.445 248.88 123.753 249 124.113 249.112C124.481 249.216 124.853 249.268 125.229 249.268C125.765 249.268 126.153 249.184 126.393 249.016C126.633 248.84 126.753 248.608 126.753 248.32C126.753 248.16 126.709 248.016 126.621 247.888C126.533 247.76 126.373 247.632 126.141 247.504C125.917 247.376 125.593 247.232 125.169 247.072C124.753 246.912 124.397 246.752 124.101 246.592C123.805 246.432 123.577 246.24 123.417 246.016C123.257 245.792 123.177 245.504 123.177 245.152C123.177 244.608 123.397 244.188 123.837 243.892C124.285 243.596 124.869 243.448 125.589 243.448C125.981 243.448 126.345 243.488 126.681 243.568C127.025 243.64 127.345 243.744 127.641 243.88L127.281 244.72C127.105 244.64 126.917 244.572 126.717 244.516C126.525 244.452 126.329 244.404 126.129 244.372C125.929 244.332 125.725 244.312 125.517 244.312C125.085 244.312 124.753 244.384 124.521 244.528C124.297 244.664 124.185 244.852 124.185 245.092C124.185 245.268 124.237 245.42 124.341 245.548C124.445 245.668 124.617 245.788 124.857 245.908C125.105 246.02 125.433 246.156 125.841 246.316C126.249 246.468 126.597 246.624 126.885 246.784C127.173 246.944 127.393 247.14 127.545 247.372C127.697 247.596 127.773 247.88 127.773 248.224ZM137.965 250L136.933 247.348H133.537L132.517 250H131.425L134.773 241.396H135.745L139.081 250H137.965ZM135.649 243.796C135.625 243.732 135.585 243.616 135.529 243.448C135.473 243.28 135.417 243.108 135.361 242.932C135.313 242.748 135.273 242.608 135.241 242.512C135.201 242.672 135.157 242.836 135.109 243.004C135.069 243.164 135.025 243.312 134.977 243.448C134.937 243.584 134.901 243.7 134.869 243.796L133.897 246.388H136.609L135.649 243.796ZM142.689 250.12C142.121 250.12 141.613 250.004 141.165 249.772C140.725 249.54 140.377 249.18 140.121 248.692C139.873 248.204 139.749 247.58 139.749 246.82C139.749 246.028 139.881 245.384 140.145 244.888C140.409 244.392 140.765 244.028 141.213 243.796C141.669 243.564 142.185 243.448 142.761 243.448C143.089 243.448 143.405 243.484 143.709 243.556C144.013 243.62 144.261 243.7 144.453 243.796L144.129 244.672C143.937 244.6 143.713 244.532 143.457 244.468C143.201 244.404 142.961 244.372 142.737 244.372C142.305 244.372 141.949 244.464 141.669 244.648C141.389 244.832 141.181 245.104 141.045 245.464C140.909 245.824 140.841 246.272 140.841 246.808C140.841 247.32 140.909 247.756 141.045 248.116C141.181 248.476 141.385 248.748 141.657 248.932C141.929 249.116 142.269 249.208 142.677 249.208C143.029 249.208 143.337 249.172 143.601 249.1C143.873 249.028 144.121 248.94 144.345 248.836V249.772C144.129 249.884 143.889 249.968 143.625 250.024C143.369 250.088 143.057 250.12 142.689 250.12ZM148.454 250.12C147.886 250.12 147.378 250.004 146.93 249.772C146.49 249.54 146.142 249.18 145.886 248.692C145.638 248.204 145.514 247.58 145.514 246.82C145.514 246.028 145.646 245.384 145.91 244.888C146.174 244.392 146.53 244.028 146.978 243.796C147.434 243.564 147.95 243.448 148.526 243.448C148.854 243.448 149.17 243.484 149.474 243.556C149.778 243.62 150.026 243.7 150.218 243.796L149.894 244.672C149.702 244.6 149.478 244.532 149.222 244.468C148.966 244.404 148.726 244.372 148.502 244.372C148.07 244.372 147.714 244.464 147.434 244.648C147.154 244.832 146.946 245.104 146.81 245.464C146.674 245.824 146.606 246.272 146.606 246.808C146.606 247.32 146.674 247.756 146.81 248.116C146.946 248.476 147.15 248.748 147.422 248.932C147.694 249.116 148.034 249.208 148.442 249.208C148.794 249.208 149.102 249.172 149.366 249.1C149.638 249.028 149.886 248.94 150.11 248.836V249.772C149.894 249.884 149.654 249.968 149.39 250.024C149.134 250.088 148.822 250.12 148.454 250.12ZM154.124 243.448C154.676 243.448 155.148 243.568 155.54 243.808C155.94 244.048 156.244 244.388 156.452 244.828C156.668 245.26 156.776 245.768 156.776 246.352V246.988H152.372C152.388 247.716 152.572 248.272 152.924 248.656C153.284 249.032 153.784 249.22 154.424 249.22C154.832 249.22 155.192 249.184 155.504 249.112C155.824 249.032 156.152 248.92 156.488 248.776V249.7C156.16 249.844 155.836 249.948 155.516 250.012C155.196 250.084 154.816 250.12 154.376 250.12C153.768 250.12 153.228 249.996 152.756 249.748C152.292 249.5 151.928 249.132 151.664 248.644C151.408 248.148 151.28 247.544 151.28 246.832C151.28 246.128 151.396 245.524 151.628 245.02C151.868 244.516 152.2 244.128 152.624 243.856C153.056 243.584 153.556 243.448 154.124 243.448ZM154.112 244.312C153.608 244.312 153.208 244.476 152.912 244.804C152.624 245.124 152.452 245.572 152.396 246.148H155.672C155.672 245.78 155.616 245.46 155.504 245.188C155.392 244.916 155.22 244.704 154.988 244.552C154.764 244.392 154.472 244.312 154.112 244.312ZM161.474 243.448C162.266 243.448 162.902 243.724 163.382 244.276C163.87 244.828 164.114 245.66 164.114 246.772C164.114 247.5 164.002 248.116 163.778 248.62C163.562 249.116 163.254 249.492 162.854 249.748C162.462 249.996 161.998 250.12 161.462 250.12C161.134 250.12 160.842 250.076 160.586 249.988C160.33 249.9 160.11 249.788 159.926 249.652C159.75 249.508 159.598 249.352 159.47 249.184H159.398C159.414 249.32 159.43 249.492 159.446 249.7C159.462 249.908 159.47 250.088 159.47 250.24V252.88H158.414V243.568H159.278L159.422 244.444H159.47C159.598 244.26 159.75 244.092 159.926 243.94C160.11 243.788 160.326 243.668 160.574 243.58C160.83 243.492 161.13 243.448 161.474 243.448ZM161.282 244.336C160.85 244.336 160.502 244.42 160.238 244.588C159.974 244.748 159.782 244.992 159.662 245.32C159.542 245.648 159.478 246.064 159.47 246.568V246.772C159.47 247.3 159.526 247.748 159.638 248.116C159.75 248.484 159.938 248.764 160.202 248.956C160.474 249.148 160.842 249.244 161.306 249.244C161.698 249.244 162.018 249.136 162.266 248.92C162.522 248.704 162.71 248.412 162.83 248.044C162.958 247.668 163.022 247.24 163.022 246.76C163.022 246.024 162.878 245.436 162.59 244.996C162.31 244.556 161.874 244.336 161.282 244.336ZM167.944 249.256C168.104 249.256 168.268 249.244 168.436 249.22C168.604 249.188 168.74 249.156 168.844 249.124V249.928C168.732 249.984 168.572 250.028 168.364 250.06C168.156 250.1 167.956 250.12 167.764 250.12C167.428 250.12 167.116 250.064 166.828 249.952C166.548 249.832 166.32 249.628 166.144 249.34C165.968 249.052 165.88 248.648 165.88 248.128V244.384H164.968V243.88L165.892 243.46L166.312 242.092H166.936V243.568H168.796V244.384H166.936V248.104C166.936 248.496 167.028 248.788 167.212 248.98C167.404 249.164 167.648 249.256 167.944 249.256ZM172.616 243.448C173.168 243.448 173.64 243.568 174.032 243.808C174.432 244.048 174.736 244.388 174.944 244.828C175.16 245.26 175.268 245.768 175.268 246.352V246.988H170.864C170.88 247.716 171.064 248.272 171.416 248.656C171.776 249.032 172.276 249.22 172.916 249.22C173.324 249.22 173.684 249.184 173.996 249.112C174.316 249.032 174.644 248.92 174.98 248.776V249.7C174.652 249.844 174.328 249.948 174.008 250.012C173.688 250.084 173.308 250.12 172.868 250.12C172.26 250.12 171.72 249.996 171.248 249.748C170.784 249.5 170.42 249.132 170.156 248.644C169.9 248.148 169.772 247.544 169.772 246.832C169.772 246.128 169.888 245.524 170.12 245.02C170.36 244.516 170.692 244.128 171.116 243.856C171.548 243.584 172.048 243.448 172.616 243.448ZM172.604 244.312C172.1 244.312 171.7 244.476 171.404 244.804C171.116 245.124 170.944 245.572 170.888 246.148H174.164C174.164 245.78 174.108 245.46 173.996 245.188C173.884 244.916 173.712 244.704 173.48 244.552C173.256 244.392 172.964 244.312 172.604 244.312ZM179.186 250.12C178.386 250.12 177.746 249.844 177.266 249.292C176.786 248.732 176.546 247.9 176.546 246.796C176.546 245.692 176.786 244.86 177.266 244.3C177.754 243.732 178.398 243.448 179.198 243.448C179.534 243.448 179.826 243.492 180.074 243.58C180.322 243.66 180.538 243.772 180.722 243.916C180.906 244.06 181.062 244.22 181.19 244.396H181.262C181.254 244.292 181.238 244.14 181.214 243.94C181.198 243.732 181.19 243.568 181.19 243.448V240.88H182.246V250H181.394L181.238 249.136H181.19C181.062 249.32 180.906 249.488 180.722 249.64C180.538 249.784 180.318 249.9 180.062 249.988C179.814 250.076 179.522 250.12 179.186 250.12ZM179.354 249.244C180.034 249.244 180.51 249.06 180.782 248.692C181.062 248.316 181.202 247.752 181.202 247V246.808C181.202 246.008 181.07 245.396 180.806 244.972C180.542 244.54 180.054 244.324 179.342 244.324C178.774 244.324 178.346 244.552 178.058 245.008C177.778 245.456 177.638 246.06 177.638 246.82C177.638 247.588 177.778 248.184 178.058 248.608C178.346 249.032 178.778 249.244 179.354 249.244Z" fill="#121212"/>
<rect x="54.583" y="241.5" width="23.6902" height="7" fill="#BCE8B1" stroke="#BCE8B1"/>
<path d="M253.994 245.704C253.994 246.368 253.91 246.972 253.742 247.516C253.574 248.052 253.322 248.516 252.986 248.908C252.658 249.3 252.246 249.6 251.75 249.808C251.262 250.016 250.694 250.12 250.046 250.12C249.374 250.12 248.79 250.016 248.294 249.808C247.798 249.592 247.386 249.292 247.058 248.908C246.73 248.516 246.486 248.048 246.326 247.504C246.166 246.96 246.086 246.356 246.086 245.692C246.086 244.812 246.23 244.044 246.518 243.388C246.806 242.732 247.242 242.22 247.826 241.852C248.418 241.484 249.162 241.3 250.058 241.3C250.914 241.3 251.634 241.484 252.218 241.852C252.802 242.212 253.242 242.724 253.538 243.388C253.842 244.044 253.994 244.816 253.994 245.704ZM247.226 245.704C247.226 246.424 247.326 247.044 247.526 247.564C247.726 248.084 248.034 248.484 248.45 248.764C248.874 249.044 249.406 249.184 250.046 249.184C250.694 249.184 251.222 249.044 251.63 248.764C252.046 248.484 252.354 248.084 252.554 247.564C252.754 247.044 252.854 246.424 252.854 245.704C252.854 244.624 252.63 243.78 252.182 243.172C251.734 242.556 251.026 242.248 250.058 242.248C249.41 242.248 248.874 242.388 248.45 242.668C248.034 242.94 247.726 243.336 247.526 243.856C247.326 244.368 247.226 244.984 247.226 245.704ZM258.749 243.448C258.869 243.448 258.997 243.456 259.133 243.472C259.277 243.48 259.401 243.496 259.505 243.52L259.373 244.492C259.269 244.468 259.153 244.448 259.025 244.432C258.905 244.416 258.789 244.408 258.677 244.408C258.429 244.408 258.193 244.46 257.969 244.564C257.745 244.668 257.545 244.816 257.369 245.008C257.193 245.192 257.053 245.416 256.949 245.68C256.853 245.944 256.805 246.24 256.805 246.568V250H255.749V243.568H256.613L256.733 244.744H256.781C256.917 244.504 257.081 244.288 257.273 244.096C257.465 243.896 257.685 243.74 257.933 243.628C258.181 243.508 258.453 243.448 258.749 243.448ZM262.752 250.12C261.952 250.12 261.312 249.844 260.832 249.292C260.352 248.732 260.112 247.9 260.112 246.796C260.112 245.692 260.352 244.86 260.832 244.3C261.32 243.732 261.964 243.448 262.764 243.448C263.1 243.448 263.392 243.492 263.64 243.58C263.888 243.66 264.104 243.772 264.288 243.916C264.472 244.06 264.628 244.22 264.756 244.396H264.828C264.82 244.292 264.804 244.14 264.78 243.94C264.764 243.732 264.756 243.568 264.756 243.448V240.88H265.812V250H264.96L264.804 249.136H264.756C264.628 249.32 264.472 249.488 264.288 249.64C264.104 249.784 263.884 249.9 263.628 249.988C263.38 250.076 263.088 250.12 262.752 250.12ZM262.92 249.244C263.6 249.244 264.076 249.06 264.348 248.692C264.628 248.316 264.768 247.752 264.768 247V246.808C264.768 246.008 264.636 245.396 264.372 244.972C264.108 244.54 263.62 244.324 262.908 244.324C262.34 244.324 261.912 244.552 261.624 245.008C261.344 245.456 261.204 246.06 261.204 246.82C261.204 247.588 261.344 248.184 261.624 248.608C261.912 249.032 262.344 249.244 262.92 249.244ZM270.339 243.448C270.891 243.448 271.363 243.568 271.755 243.808C272.155 244.048 272.459 244.388 272.667 244.828C272.883 245.26 272.991 245.768 272.991 246.352V246.988H268.587C268.603 247.716 268.787 248.272 269.139 248.656C269.499 249.032 269.999 249.22 270.639 249.22C271.047 249.22 271.407 249.184 271.719 249.112C272.039 249.032 272.367 248.92 272.703 248.776V249.7C272.375 249.844 272.051 249.948 271.731 250.012C271.411 250.084 271.031 250.12 270.591 250.12C269.983 250.12 269.443 249.996 268.971 249.748C268.507 249.5 268.143 249.132 267.879 248.644C267.623 248.148 267.495 247.544 267.495 246.832C267.495 246.128 267.611 245.524 267.843 245.02C268.083 244.516 268.415 244.128 268.839 243.856C269.271 243.584 269.771 243.448 270.339 243.448ZM270.327 244.312C269.823 244.312 269.423 244.476 269.127 244.804C268.839 245.124 268.667 245.572 268.611 246.148H271.887C271.887 245.78 271.831 245.46 271.719 245.188C271.607 244.916 271.435 244.704 271.203 244.552C270.979 244.392 270.687 244.312 270.327 244.312ZM277.628 243.448C277.748 243.448 277.876 243.456 278.012 243.472C278.156 243.48 278.28 243.496 278.384 243.52L278.252 244.492C278.148 244.468 278.032 244.448 277.904 244.432C277.784 244.416 277.668 244.408 277.556 244.408C277.308 244.408 277.072 244.46 276.848 244.564C276.624 244.668 276.424 244.816 276.248 245.008C276.072 245.192 275.932 245.416 275.828 245.68C275.732 245.944 275.684 246.24 275.684 246.568V250H274.628V243.568H275.492L275.612 244.744H275.66C275.796 244.504 275.96 244.288 276.152 244.096C276.344 243.896 276.564 243.74 276.812 243.628C277.06 243.508 277.332 243.448 277.628 243.448ZM283.773 248.224C283.773 248.64 283.669 248.988 283.461 249.268C283.253 249.548 282.957 249.76 282.573 249.904C282.189 250.048 281.733 250.12 281.205 250.12C280.757 250.12 280.369 250.084 280.041 250.012C279.721 249.94 279.437 249.84 279.189 249.712V248.752C279.445 248.88 279.753 249 280.113 249.112C280.481 249.216 280.853 249.268 281.229 249.268C281.765 249.268 282.153 249.184 282.393 249.016C282.633 248.84 282.753 248.608 282.753 248.32C282.753 248.16 282.709 248.016 282.621 247.888C282.533 247.76 282.373 247.632 282.141 247.504C281.917 247.376 281.593 247.232 281.169 247.072C280.753 246.912 280.397 246.752 280.101 246.592C279.805 246.432 279.577 246.24 279.417 246.016C279.257 245.792 279.177 245.504 279.177 245.152C279.177 244.608 279.397 244.188 279.837 243.892C280.285 243.596 280.869 243.448 281.589 243.448C281.981 243.448 282.345 243.488 282.681 243.568C283.025 243.64 283.345 243.744 283.641 243.88L283.281 244.72C283.105 244.64 282.917 244.572 282.717 244.516C282.525 244.452 282.329 244.404 282.129 244.372C281.929 244.332 281.725 244.312 281.517 244.312C281.085 244.312 280.753 244.384 280.521 244.528C280.297 244.664 280.185 244.852 280.185 245.092C280.185 245.268 280.237 245.42 280.341 245.548C280.445 245.668 280.617 245.788 280.857 245.908C281.105 246.02 281.433 246.156 281.841 246.316C282.249 246.468 282.597 246.624 282.885 246.784C283.173 246.944 283.393 247.14 283.545 247.372C283.697 247.596 283.773 247.88 283.773 248.224ZM290.953 241.432C291.665 241.432 292.249 241.524 292.705 241.708C293.169 241.884 293.513 242.152 293.737 242.512C293.961 242.872 294.073 243.324 294.073 243.868C294.073 244.324 293.989 244.704 293.821 245.008C293.653 245.312 293.437 245.556 293.173 245.74C292.917 245.916 292.645 246.056 292.357 246.16L294.709 250H293.449L291.373 246.46H289.669V250H288.589V241.432H290.953ZM290.893 242.368H289.669V245.548H290.953C291.417 245.548 291.797 245.488 292.093 245.368C292.389 245.24 292.605 245.056 292.741 244.816C292.885 244.576 292.957 244.276 292.957 243.916C292.957 243.54 292.881 243.24 292.729 243.016C292.585 242.792 292.361 242.628 292.057 242.524C291.753 242.42 291.365 242.368 290.893 242.368ZM298.394 243.448C298.946 243.448 299.418 243.568 299.81 243.808C300.21 244.048 300.514 244.388 300.722 244.828C300.938 245.26 301.046 245.768 301.046 246.352V246.988H296.642C296.658 247.716 296.842 248.272 297.194 248.656C297.554 249.032 298.054 249.22 298.694 249.22C299.102 249.22 299.462 249.184 299.774 249.112C300.094 249.032 300.422 248.92 300.758 248.776V249.7C300.43 249.844 300.106 249.948 299.786 250.012C299.466 250.084 299.086 250.12 298.646 250.12C298.038 250.12 297.498 249.996 297.026 249.748C296.562 249.5 296.198 249.132 295.934 248.644C295.678 248.148 295.55 247.544 295.55 246.832C295.55 246.128 295.666 245.524 295.898 245.02C296.138 244.516 296.47 244.128 296.894 243.856C297.326 243.584 297.826 243.448 298.394 243.448ZM298.382 244.312C297.878 244.312 297.478 244.476 297.182 244.804C296.894 245.124 296.722 245.572 296.666 246.148H299.942C299.942 245.78 299.886 245.46 299.774 245.188C299.662 244.916 299.49 244.704 299.258 244.552C299.034 244.392 298.742 244.312 298.382 244.312ZM301.927 252.88C301.727 252.88 301.551 252.864 301.399 252.832C301.247 252.808 301.115 252.776 301.003 252.736V251.884C301.123 251.916 301.247 251.944 301.375 251.968C301.503 251.992 301.643 252.004 301.795 252.004C302.051 252.004 302.263 251.932 302.431 251.788C302.599 251.652 302.683 251.388 302.683 250.996V243.568H303.739V250.96C303.739 251.36 303.675 251.704 303.547 251.992C303.419 252.28 303.223 252.5 302.959 252.652C302.695 252.804 302.351 252.88 301.927 252.88ZM302.599 241.828C302.599 241.596 302.659 241.428 302.779 241.324C302.899 241.212 303.047 241.156 303.223 241.156C303.383 241.156 303.523 241.212 303.643 241.324C303.771 241.428 303.835 241.596 303.835 241.828C303.835 242.052 303.771 242.22 303.643 242.332C303.523 242.444 303.383 242.5 303.223 242.5C303.047 242.5 302.899 242.444 302.779 242.332C302.659 242.22 302.599 242.052 302.599 241.828ZM308.261 243.448C308.813 243.448 309.285 243.568 309.677 243.808C310.077 244.048 310.381 244.388 310.589 244.828C310.805 245.26 310.913 245.768 310.913 246.352V246.988H306.509C306.525 247.716 306.709 248.272 307.061 248.656C307.421 249.032 307.921 249.22 308.561 249.22C308.969 249.22 309.329 249.184 309.641 249.112C309.961 249.032 310.289 248.92 310.625 248.776V249.7C310.297 249.844 309.973 249.948 309.653 250.012C309.333 250.084 308.953 250.12 308.513 250.12C307.905 250.12 307.365 249.996 306.893 249.748C306.429 249.5 306.065 249.132 305.801 248.644C305.545 248.148 305.417 247.544 305.417 246.832C305.417 246.128 305.533 245.524 305.765 245.02C306.005 244.516 306.337 244.128 306.761 243.856C307.193 243.584 307.693 243.448 308.261 243.448ZM308.249 244.312C307.745 244.312 307.345 244.476 307.049 244.804C306.761 245.124 306.589 245.572 306.533 246.148H309.809C309.809 245.78 309.753 245.46 309.641 245.188C309.529 244.916 309.357 244.704 309.125 244.552C308.901 244.392 308.609 244.312 308.249 244.312ZM315.13 250.12C314.562 250.12 314.054 250.004 313.606 249.772C313.166 249.54 312.818 249.18 312.562 248.692C312.314 248.204 312.19 247.58 312.19 246.82C312.19 246.028 312.322 245.384 312.586 244.888C312.85 244.392 313.206 244.028 313.654 243.796C314.11 243.564 314.626 243.448 315.202 243.448C315.53 243.448 315.846 243.484 316.15 243.556C316.454 243.62 316.702 243.7 316.894 243.796L316.57 244.672C316.378 244.6 316.154 244.532 315.898 244.468C315.642 244.404 315.402 244.372 315.178 244.372C314.746 244.372 314.39 244.464 314.11 244.648C313.83 244.832 313.622 245.104 313.486 245.464C313.35 245.824 313.282 246.272 313.282 246.808C313.282 247.32 313.35 247.756 313.486 248.116C313.622 248.476 313.826 248.748 314.098 248.932C314.37 249.116 314.71 249.208 315.118 249.208C315.47 249.208 315.778 249.172 316.042 249.1C316.314 249.028 316.562 248.94 316.786 248.836V249.772C316.57 249.884 316.33 249.968 316.066 250.024C315.81 250.088 315.498 250.12 315.13 250.12ZM320.464 249.256C320.624 249.256 320.788 249.244 320.956 249.22C321.124 249.188 321.26 249.156 321.364 249.124V249.928C321.252 249.984 321.092 250.028 320.884 250.06C320.676 250.1 320.476 250.12 320.284 250.12C319.948 250.12 319.636 250.064 319.348 249.952C319.068 249.832 318.84 249.628 318.664 249.34C318.488 249.052 318.4 248.648 318.4 248.128V244.384H317.488V243.88L318.412 243.46L318.832 242.092H319.456V243.568H321.316V244.384H319.456V248.104C319.456 248.496 319.548 248.788 319.732 248.98C319.924 249.164 320.168 249.256 320.464 249.256ZM325.136 243.448C325.688 243.448 326.16 243.568 326.552 243.808C326.952 244.048 327.256 244.388 327.464 244.828C327.68 245.26 327.788 245.768 327.788 246.352V246.988H323.384C323.4 247.716 323.584 248.272 323.936 248.656C324.296 249.032 324.796 249.22 325.436 249.22C325.844 249.22 326.204 249.184 326.516 249.112C326.836 249.032 327.164 248.92 327.5 248.776V249.7C327.172 249.844 326.848 249.948 326.528 250.012C326.208 250.084 325.828 250.12 325.388 250.12C324.78 250.12 324.24 249.996 323.768 249.748C323.304 249.5 322.94 249.132 322.676 248.644C322.42 248.148 322.292 247.544 322.292 246.832C322.292 246.128 322.408 245.524 322.64 245.02C322.88 244.516 323.212 244.128 323.636 243.856C324.068 243.584 324.568 243.448 325.136 243.448ZM325.124 244.312C324.62 244.312 324.22 244.476 323.924 244.804C323.636 245.124 323.464 245.572 323.408 246.148H326.684C326.684 245.78 326.628 245.46 326.516 245.188C326.404 244.916 326.232 244.704 326 244.552C325.776 244.392 325.484 244.312 325.124 244.312ZM331.705 250.12C330.905 250.12 330.265 249.844 329.785 249.292C329.305 248.732 329.065 247.9 329.065 246.796C329.065 245.692 329.305 244.86 329.785 244.3C330.273 243.732 330.917 243.448 331.717 243.448C332.053 243.448 332.345 243.492 332.593 243.58C332.841 243.66 333.057 243.772 333.241 243.916C333.425 244.06 333.581 244.22 333.709 244.396H333.781C333.773 244.292 333.757 244.14 333.733 243.94C333.717 243.732 333.709 243.568 333.709 243.448V240.88H334.765V250H333.913L333.757 249.136H333.709C333.581 249.32 333.425 249.488 333.241 249.64C333.057 249.784 332.837 249.9 332.581 249.988C332.333 250.076 332.041 250.12 331.705 250.12ZM331.873 249.244C332.553 249.244 333.029 249.06 333.301 248.692C333.581 248.316 333.721 247.752 333.721 247V246.808C333.721 246.008 333.589 245.396 333.325 244.972C333.061 244.54 332.573 244.324 331.861 244.324C331.293 244.324 330.865 244.552 330.577 245.008C330.297 245.456 330.157 246.06 330.157 246.82C330.157 247.588 330.297 248.184 330.577 248.608C330.865 249.032 331.297 249.244 331.873 249.244Z" fill="#121212"/>
<rect x="210.583" y="241.5" width="23.6902" height="7" fill="#FF8B7B" stroke="#FF8B7B"/>
<path d="M119.677 194.9C119.517 194.9 119.377 194.887 119.257 194.86C119.137 194.84 119.03 194.81 118.937 194.77V194.01C119.044 194.037 119.157 194.06 119.277 194.08C119.397 194.1 119.524 194.11 119.657 194.11C119.824 194.11 119.98 194.077 120.127 194.01C120.28 193.943 120.404 193.827 120.497 193.66C120.59 193.493 120.637 193.26 120.637 192.96V185.86H121.537V192.89C121.537 193.35 121.46 193.727 121.307 194.02C121.154 194.32 120.937 194.54 120.657 194.68C120.377 194.827 120.05 194.9 119.677 194.9ZM125.331 187.55C125.985 187.55 126.468 187.693 126.781 187.98C127.095 188.267 127.251 188.723 127.251 189.35V193H126.611L126.441 192.24H126.401C126.248 192.433 126.088 192.597 125.921 192.73C125.761 192.857 125.575 192.95 125.361 193.01C125.155 193.07 124.901 193.1 124.601 193.1C124.281 193.1 123.991 193.043 123.731 192.93C123.478 192.817 123.278 192.643 123.131 192.41C122.985 192.17 122.911 191.87 122.911 191.51C122.911 190.977 123.121 190.567 123.541 190.28C123.961 189.987 124.608 189.827 125.481 189.8L126.391 189.77V189.45C126.391 189.003 126.295 188.693 126.101 188.52C125.908 188.347 125.635 188.26 125.281 188.26C125.001 188.26 124.735 188.303 124.481 188.39C124.228 188.47 123.991 188.563 123.771 188.67L123.501 188.01C123.735 187.883 124.011 187.777 124.331 187.69C124.651 187.597 124.985 187.55 125.331 187.55ZM125.591 190.41C124.925 190.437 124.461 190.543 124.201 190.73C123.948 190.917 123.821 191.18 123.821 191.52C123.821 191.82 123.911 192.04 124.091 192.18C124.278 192.32 124.515 192.39 124.801 192.39C125.255 192.39 125.631 192.267 125.931 192.02C126.231 191.767 126.381 191.38 126.381 190.86V190.38L125.591 190.41ZM131.487 187.54C132.127 187.54 132.61 187.697 132.937 188.01C133.263 188.317 133.427 188.817 133.427 189.51V193H132.557V189.57C132.557 189.137 132.46 188.813 132.267 188.6C132.073 188.387 131.77 188.28 131.357 188.28C130.763 188.28 130.353 188.447 130.127 188.78C129.9 189.113 129.787 189.593 129.787 190.22V193H128.907V187.64H129.617L129.747 188.37H129.797C129.917 188.183 130.063 188.03 130.237 187.91C130.417 187.783 130.613 187.69 130.827 187.63C131.04 187.57 131.26 187.54 131.487 187.54Z" fill="#121212"/>
<path d="M273.201 193H272.301V185.86H276.291V186.65H273.201V189.18H276.101V189.97H273.201V193ZM279.436 187.54C279.896 187.54 280.29 187.64 280.616 187.84C280.95 188.04 281.203 188.323 281.376 188.69C281.556 189.05 281.646 189.473 281.646 189.96V190.49H277.976C277.99 191.097 278.143 191.56 278.436 191.88C278.736 192.193 279.153 192.35 279.686 192.35C280.026 192.35 280.326 192.32 280.586 192.26C280.853 192.193 281.126 192.1 281.406 191.98V192.75C281.133 192.87 280.863 192.957 280.596 193.01C280.33 193.07 280.013 193.1 279.646 193.1C279.14 193.1 278.69 192.997 278.296 192.79C277.91 192.583 277.606 192.277 277.386 191.87C277.173 191.457 277.066 190.953 277.066 190.36C277.066 189.773 277.163 189.27 277.356 188.85C277.556 188.43 277.833 188.107 278.186 187.88C278.546 187.653 278.963 187.54 279.436 187.54ZM279.426 188.26C279.006 188.26 278.673 188.397 278.426 188.67C278.186 188.937 278.043 189.31 277.996 189.79H280.726C280.726 189.483 280.68 189.217 280.586 188.99C280.493 188.763 280.35 188.587 280.156 188.46C279.97 188.327 279.726 188.26 279.426 188.26ZM283.891 187.25C283.891 187.477 283.884 187.69 283.871 187.89C283.864 188.083 283.854 188.237 283.841 188.35H283.891C284.044 188.123 284.254 187.933 284.521 187.78C284.787 187.627 285.131 187.55 285.551 187.55C286.217 187.55 286.751 187.783 287.151 188.25C287.557 188.71 287.761 189.4 287.761 190.32C287.761 190.933 287.667 191.447 287.481 191.86C287.301 192.273 287.044 192.583 286.711 192.79C286.377 192.997 285.991 193.1 285.551 193.1C285.131 193.1 284.787 193.023 284.521 192.87C284.254 192.717 284.044 192.533 283.891 192.32H283.821L283.641 193H283.011V185.4H283.891V187.25ZM285.401 188.28C285.021 188.28 284.721 188.353 284.501 188.5C284.281 188.64 284.124 188.86 284.031 189.16C283.937 189.453 283.891 189.83 283.891 190.29V190.33C283.891 190.99 283.997 191.497 284.211 191.85C284.431 192.197 284.834 192.37 285.421 192.37C285.901 192.37 286.257 192.193 286.491 191.84C286.731 191.487 286.851 190.977 286.851 190.31C286.851 189.637 286.731 189.13 286.491 188.79C286.257 188.45 285.894 188.28 285.401 188.28Z" fill="#121212"/>
<path d="M427.381 193L425.031 186.74H424.991C425.005 186.873 425.015 187.043 425.021 187.25C425.035 187.457 425.045 187.683 425.051 187.93C425.058 188.17 425.061 188.417 425.061 188.67V193H424.231V185.86H425.561L427.761 191.71H427.801L430.041 185.86H431.361V193H430.471V188.61C430.471 188.377 430.475 188.147 430.481 187.92C430.488 187.687 430.498 187.47 430.511 187.27C430.525 187.063 430.535 186.89 430.541 186.75H430.501L428.121 193H427.381ZM435.214 187.55C435.867 187.55 436.35 187.693 436.664 187.98C436.977 188.267 437.134 188.723 437.134 189.35V193H436.494L436.324 192.24H436.284C436.13 192.433 435.97 192.597 435.804 192.73C435.644 192.857 435.457 192.95 435.244 193.01C435.037 193.07 434.784 193.1 434.484 193.1C434.164 193.1 433.874 193.043 433.614 192.93C433.36 192.817 433.16 192.643 433.014 192.41C432.867 192.17 432.794 191.87 432.794 191.51C432.794 190.977 433.004 190.567 433.424 190.28C433.844 189.987 434.49 189.827 435.364 189.8L436.274 189.77V189.45C436.274 189.003 436.177 188.693 435.984 188.52C435.79 188.347 435.517 188.26 435.164 188.26C434.884 188.26 434.617 188.303 434.364 188.39C434.11 188.47 433.874 188.563 433.654 188.67L433.384 188.01C433.617 187.883 433.894 187.777 434.214 187.69C434.534 187.597 434.867 187.55 435.214 187.55ZM435.474 190.41C434.807 190.437 434.344 190.543 434.084 190.73C433.83 190.917 433.704 191.18 433.704 191.52C433.704 191.82 433.794 192.04 433.974 192.18C434.16 192.32 434.397 192.39 434.684 192.39C435.137 192.39 435.514 192.267 435.814 192.02C436.114 191.767 436.264 191.38 436.264 190.86V190.38L435.474 190.41ZM441.289 187.54C441.389 187.54 441.496 187.547 441.609 187.56C441.729 187.567 441.832 187.58 441.919 187.6L441.809 188.41C441.722 188.39 441.626 188.373 441.519 188.36C441.419 188.347 441.322 188.34 441.229 188.34C441.022 188.34 440.826 188.383 440.639 188.47C440.452 188.557 440.286 188.68 440.139 188.84C439.992 188.993 439.876 189.18 439.789 189.4C439.709 189.62 439.669 189.867 439.669 190.14V193H438.789V187.64H439.509L439.609 188.62H439.649C439.762 188.42 439.899 188.24 440.059 188.08C440.219 187.913 440.402 187.783 440.609 187.69C440.816 187.59 441.042 187.54 441.289 187.54Z" fill="#121212"/>
<path d="M575.57 193L574.71 190.79H571.88L571.03 193H570.12L572.91 185.83H573.72L576.5 193H575.57ZM573.64 187.83C573.62 187.777 573.587 187.68 573.54 187.54C573.494 187.4 573.447 187.257 573.4 187.11C573.36 186.957 573.327 186.84 573.3 186.76C573.267 186.893 573.23 187.03 573.19 187.17C573.157 187.303 573.12 187.427 573.08 187.54C573.047 187.653 573.017 187.75 572.99 187.83L572.18 189.99H574.44L573.64 187.83ZM579.907 187.54C580.567 187.54 581.097 187.77 581.497 188.23C581.904 188.69 582.107 189.383 582.107 190.31C582.107 190.917 582.014 191.43 581.827 191.85C581.647 192.263 581.39 192.577 581.057 192.79C580.73 192.997 580.344 193.1 579.897 193.1C579.624 193.1 579.38 193.063 579.167 192.99C578.954 192.917 578.77 192.823 578.617 192.71C578.47 192.59 578.344 192.46 578.237 192.32H578.177C578.19 192.433 578.204 192.577 578.217 192.75C578.23 192.923 578.237 193.073 578.237 193.2V195.4H577.357V187.64H578.077L578.197 188.37H578.237C578.344 188.217 578.47 188.077 578.617 187.95C578.77 187.823 578.95 187.723 579.157 187.65C579.37 187.577 579.62 187.54 579.907 187.54ZM579.747 188.28C579.387 188.28 579.097 188.35 578.877 188.49C578.657 188.623 578.497 188.827 578.397 189.1C578.297 189.373 578.244 189.72 578.237 190.14V190.31C578.237 190.75 578.284 191.123 578.377 191.43C578.47 191.737 578.627 191.97 578.847 192.13C579.074 192.29 579.38 192.37 579.767 192.37C580.094 192.37 580.36 192.28 580.567 192.1C580.78 191.92 580.937 191.677 581.037 191.37C581.144 191.057 581.197 190.7 581.197 190.3C581.197 189.687 581.077 189.197 580.837 188.83C580.604 188.463 580.24 188.28 579.747 188.28ZM586.009 187.54C586.109 187.54 586.216 187.547 586.329 187.56C586.449 187.567 586.553 187.58 586.639 187.6L586.529 188.41C586.443 188.39 586.346 188.373 586.239 188.36C586.139 188.347 586.043 188.34 585.949 188.34C585.743 188.34 585.546 188.383 585.359 188.47C585.173 188.557 585.006 188.68 584.859 188.84C584.713 188.993 584.596 189.18 584.509 189.4C584.429 189.62 584.389 189.867 584.389 190.14V193H583.509V187.64H584.229L584.329 188.62H584.369C584.483 188.42 584.619 188.24 584.779 188.08C584.939 187.913 585.123 187.783 585.329 187.69C585.536 187.59 585.763 187.54 586.009 187.54Z" fill="#121212"/>
<path d="M732.67 193L730.32 186.74H730.28C730.293 186.873 730.303 187.043 730.31 187.25C730.323 187.457 730.333 187.683 730.34 187.93C730.347 188.17 730.35 188.417 730.35 188.67V193H729.52V185.86H730.85L733.05 191.71H733.09L735.33 185.86H736.65V193H735.76V188.61C735.76 188.377 735.763 188.147 735.77 187.92C735.777 187.687 735.787 187.47 735.8 187.27C735.813 187.063 735.823 186.89 735.83 186.75H735.79L733.41 193H732.67ZM740.502 187.55C741.156 187.55 741.639 187.693 741.952 187.98C742.266 188.267 742.422 188.723 742.422 189.35V193H741.782L741.612 192.24H741.572C741.419 192.433 741.259 192.597 741.092 192.73C740.932 192.857 740.746 192.95 740.532 193.01C740.326 193.07 740.072 193.1 739.772 193.1C739.452 193.1 739.162 193.043 738.902 192.93C738.649 192.817 738.449 192.643 738.302 192.41C738.156 192.17 738.082 191.87 738.082 191.51C738.082 190.977 738.292 190.567 738.712 190.28C739.132 189.987 739.779 189.827 740.652 189.8L741.562 189.77V189.45C741.562 189.003 741.466 188.693 741.272 188.52C741.079 188.347 740.806 188.26 740.452 188.26C740.172 188.26 739.906 188.303 739.652 188.39C739.399 188.47 739.162 188.563 738.942 188.67L738.672 188.01C738.906 187.883 739.182 187.777 739.502 187.69C739.822 187.597 740.156 187.55 740.502 187.55ZM740.762 190.41C740.096 190.437 739.632 190.543 739.372 190.73C739.119 190.917 738.992 191.18 738.992 191.52C738.992 191.82 739.082 192.04 739.262 192.18C739.449 192.32 739.686 192.39 739.972 192.39C740.426 192.39 740.802 192.267 741.102 192.02C741.402 191.767 741.552 191.38 741.552 190.86V190.38L740.762 190.41ZM744.958 187.64V193H744.078V187.64H744.958ZM744.528 185.63C744.661 185.63 744.778 185.677 744.878 185.77C744.984 185.857 745.038 185.997 745.038 186.19C745.038 186.377 744.984 186.517 744.878 186.61C744.778 186.703 744.661 186.75 744.528 186.75C744.381 186.75 744.258 186.703 744.158 186.61C744.058 186.517 744.008 186.377 744.008 186.19C744.008 185.997 744.058 185.857 744.158 185.77C744.258 185.677 744.381 185.63 744.528 185.63Z" fill="#121212"/>
<path d="M881.257 194.9C881.097 194.9 880.957 194.887 880.837 194.86C880.717 194.84 880.61 194.81 880.517 194.77V194.01C880.624 194.037 880.737 194.06 880.857 194.08C880.977 194.1 881.104 194.11 881.237 194.11C881.404 194.11 881.56 194.077 881.707 194.01C881.86 193.943 881.984 193.827 882.077 193.66C882.17 193.493 882.217 193.26 882.217 192.96V185.86H883.117V192.89C883.117 193.35 883.04 193.727 882.887 194.02C882.734 194.32 882.517 194.54 882.237 194.68C881.957 194.827 881.63 194.9 881.257 194.9ZM889.361 187.64V193H888.641L888.511 192.29H888.471C888.358 192.477 888.211 192.63 888.031 192.75C887.851 192.87 887.655 192.957 887.441 193.01C887.228 193.07 887.005 193.1 886.771 193.1C886.345 193.1 885.985 193.033 885.691 192.9C885.405 192.76 885.188 192.547 885.041 192.26C884.895 191.973 884.821 191.603 884.821 191.15V187.64H885.711V191.09C885.711 191.517 885.808 191.837 886.001 192.05C886.195 192.263 886.495 192.37 886.901 192.37C887.301 192.37 887.615 192.297 887.841 192.15C888.075 191.997 888.238 191.777 888.331 191.49C888.431 191.197 888.481 190.843 888.481 190.43V187.64H889.361ZM893.643 187.54C894.283 187.54 894.766 187.697 895.093 188.01C895.42 188.317 895.583 188.817 895.583 189.51V193H894.713V189.57C894.713 189.137 894.616 188.813 894.423 188.6C894.23 188.387 893.926 188.28 893.513 188.28C892.92 188.28 892.51 188.447 892.283 188.78C892.056 189.113 891.943 189.593 891.943 190.22V193H891.063V187.64H891.773L891.903 188.37H891.953C892.073 188.183 892.22 188.03 892.393 187.91C892.573 187.783 892.77 187.69 892.983 187.63C893.196 187.57 893.416 187.54 893.643 187.54Z" fill="#121212"/>
<path d="M55.2588 148L209.525 120L358.131 148L508.151 40L658.172 93L808.193 66.5L958.213 148" stroke="#BCE8B1" stroke-width="2"/>
<path d="M55 54L209.267 82L357.872 54L507.893 162L657.913 109L807.934 135.5L957.955 54" stroke="#FF8B7B" stroke-width="2"/>
</svg>
