<svg width="973" height="226" viewBox="0 0 973 226" fill="none" xmlns="http://www.w3.org/2000/svg">
<mask id="mask0_588_3332" style="mask-type:alpha" maskUnits="userSpaceOnUse" x="0" y="0" width="973" height="189">
<rect x="0.497559" width="972.278" height="189" fill="white"/>
</mask>
<g mask="url(#mask0_588_3332)">
<path d="M26.0399 142C11.996 146.8 1.46312 148.667 -2.04785 149V190H988.046V40C973.612 50.6667 939.127 70.8 916.657 66C888.569 60 856.97 61 835.904 66C814.838 71 801.965 78 778.558 79C755.152 80 762.174 75 725.894 72C689.614 69 674.399 98 656.845 106C639.29 114 594.817 112 578.433 106C562.048 100 548.004 98 535.131 98C522.257 98 522.257 105 503.532 106C484.807 107 466.082 97 440.335 98C414.588 99 379.478 118 352.56 119C325.643 120 342.027 114 303.407 112C264.786 110 234.358 136 209.781 142C185.204 148 148.924 135 129.028 131C109.133 127 90.4078 142 75.1935 142C59.9793 142 43.5948 136 26.0399 142Z" fill="#EEF2FF" fill-opacity="0.5" stroke="#BCE8B1" stroke-width="2"/>
<path d="M32.7512 168.5H-4.59277V196H986.774V96C985.607 99.3333 983.156 106.5 982.689 108.5C982.106 111 971.603 117.5 966.351 114.5C961.1 111.5 950.013 111 944.178 112.5C938.343 114 939.51 111 928.424 108.5C917.337 106 913.836 114 908.001 115.5C902.166 117 893.414 114 889.329 111L889.154 110.871C885.094 107.887 879.786 103.986 865.406 103C850.818 102 847.901 117.5 842.066 123C836.231 128.5 822.81 125.5 819.309 124.5C815.808 123.5 812.891 120 801.804 123C790.718 126 780.215 136.5 766.794 137C753.374 137.5 741.704 129.5 732.368 129.5C723.032 129.5 725.949 131 713.112 133.5C700.275 136 678.102 129.5 670.517 127C662.931 124.5 653.012 127 647.76 129.5C642.509 132 623.837 132.5 618.585 131C613.334 129.5 598.163 126 594.662 129.5C591.161 133 575.406 127 570.738 127C566.07 127 568.404 123.5 556.151 121.5C543.897 119.5 535.728 129.5 532.227 131C528.726 132.5 522.308 130 516.473 127C510.638 124 486.714 121 472.71 123.5C458.706 126 457.539 133.5 448.203 134.5C438.867 135.5 434.783 142.5 430.115 142.5C425.447 142.5 422.529 142.5 418.445 140.5C414.36 138.5 404.441 140.5 400.356 142.5C396.272 144.5 389.27 145.5 381.101 146C372.932 146.5 368.264 142 361.845 140.5C355.427 139 346.674 138 330.336 138.5C313.998 139 314.582 148 297.66 151.5C280.739 155 268.485 150.5 256.815 149C245.145 147.5 235.226 154.5 229.974 157C224.723 159.5 213.053 157 201.383 154.5C189.713 152 185.045 157 183.294 157C181.544 157 173.375 163.5 164.039 157C154.703 150.5 150.618 152.5 147.117 152.5C143.616 152.5 141.282 156 136.031 154.5C130.779 153 130.779 148.5 122.027 149C113.274 149.5 106.856 160 103.938 161.5C101.021 163 94.6022 165 89.9342 165.5C85.2663 166 85.2663 163.5 71.2622 162.5C57.2582 161.5 49.0892 168.5 32.7512 168.5Z" fill="white" fill-opacity="0.04"/>
</g>
<path d="M2.92156 221H1.63756V212.432H6.46156V213.536H2.92156V216.332H6.23356V217.436H2.92156V221ZM10.3774 214.412C10.9454 214.412 11.4334 214.532 11.8414 214.772C12.2494 215.004 12.5614 215.34 12.7774 215.78C13.0014 216.22 13.1134 216.74 13.1134 217.34V218.036H8.7694C8.7854 218.7 8.9574 219.208 9.2854 219.56C9.6214 219.912 10.0894 220.088 10.6894 220.088C11.1054 220.088 11.4734 220.052 11.7934 219.98C12.1214 219.9 12.4574 219.784 12.8014 219.632V220.688C12.4814 220.832 12.1534 220.94 11.8174 221.012C11.4894 221.084 11.0974 221.12 10.6414 221.12C10.0174 221.12 9.4654 220.996 8.9854 220.748C8.5054 220.5 8.1294 220.132 7.8574 219.644C7.5934 219.148 7.4614 218.54 7.4614 217.82C7.4614 217.092 7.5814 216.476 7.8214 215.972C8.0694 215.468 8.4094 215.084 8.8414 214.82C9.2814 214.548 9.7934 214.412 10.3774 214.412ZM10.3774 215.396C9.9214 215.396 9.5534 215.544 9.2734 215.84C9.0014 216.136 8.8414 216.556 8.7934 217.1H11.8414C11.8414 216.764 11.7894 216.468 11.6854 216.212C11.5814 215.956 11.4214 215.756 11.2054 215.612C10.9894 215.468 10.7134 215.396 10.3774 215.396ZM15.9726 214.076C15.9726 214.34 15.9646 214.592 15.9486 214.832C15.9406 215.064 15.9286 215.248 15.9126 215.384H15.9726C16.1566 215.112 16.4046 214.884 16.7166 214.7C17.0286 214.516 17.4326 214.424 17.9286 214.424C18.7046 214.424 19.3286 214.704 19.8006 215.264C20.2806 215.824 20.5206 216.656 20.5206 217.76C20.5206 218.504 20.4126 219.124 20.1966 219.62C19.9806 220.116 19.6766 220.492 19.2846 220.748C18.8926 220.996 18.4366 221.12 17.9166 221.12C17.4126 221.12 17.0086 221.032 16.7046 220.856C16.4006 220.672 16.1566 220.456 15.9726 220.208H15.8766L15.6366 221H14.7006V211.88H15.9726V214.076ZM17.6286 215.456C17.2126 215.456 16.8846 215.536 16.6446 215.696C16.4046 215.856 16.2326 216.1 16.1286 216.428C16.0246 216.756 15.9726 217.172 15.9726 217.676V217.772C15.9726 218.516 16.0926 219.088 16.3326 219.488C16.5726 219.88 17.0126 220.076 17.6526 220.076C18.1646 220.076 18.5526 219.876 18.8166 219.476C19.0806 219.076 19.2126 218.5 19.2126 217.748C19.2126 216.988 19.0806 216.416 18.8166 216.032C18.5526 215.648 18.1566 215.456 17.6286 215.456Z" fill="#52525B"/>
<path d="M94.404 221L91.812 213.716H91.764C91.772 213.876 91.784 214.092 91.8 214.364C91.816 214.636 91.828 214.928 91.836 215.24C91.844 215.552 91.848 215.86 91.848 216.164V221H90.672V212.432H92.52L94.98 219.308H95.028L97.56 212.432H99.408V221H98.148V216.092C98.148 215.812 98.152 215.524 98.16 215.228C98.176 214.924 98.188 214.64 98.196 214.376C98.212 214.112 98.224 213.896 98.232 213.728H98.184L95.52 221H94.404ZM104.052 214.412C104.868 214.412 105.476 214.592 105.876 214.952C106.276 215.304 106.476 215.86 106.476 216.62V221H105.576L105.324 220.1H105.276C105.092 220.332 104.9 220.524 104.7 220.676C104.508 220.828 104.284 220.94 104.028 221.012C103.78 221.084 103.476 221.12 103.116 221.12C102.732 221.12 102.384 221.052 102.072 220.916C101.768 220.772 101.528 220.556 101.352 220.268C101.176 219.972 101.088 219.604 101.088 219.164C101.088 218.508 101.336 218.008 101.832 217.664C102.336 217.32 103.1 217.132 104.124 217.1L105.228 217.064V216.704C105.228 216.224 105.12 215.888 104.904 215.696C104.688 215.504 104.384 215.408 103.992 215.408C103.656 215.408 103.336 215.456 103.032 215.552C102.728 215.648 102.44 215.764 102.168 215.9L101.76 214.976C102.064 214.816 102.412 214.684 102.804 214.58C103.204 214.468 103.62 214.412 104.052 214.412ZM104.352 217.916C103.616 217.948 103.104 218.072 102.816 218.288C102.536 218.496 102.396 218.792 102.396 219.176C102.396 219.512 102.496 219.756 102.696 219.908C102.904 220.06 103.164 220.136 103.476 220.136C103.98 220.136 104.396 219.996 104.724 219.716C105.052 219.436 105.216 219.016 105.216 218.456V217.892L104.352 217.916ZM111.626 214.412C111.738 214.412 111.862 214.42 111.998 214.436C112.134 214.444 112.246 214.456 112.334 214.472L112.202 215.66C112.114 215.636 112.01 215.616 111.89 215.6C111.77 215.584 111.658 215.576 111.554 215.576C111.314 215.576 111.082 215.624 110.858 215.72C110.642 215.808 110.446 215.94 110.27 216.116C110.094 216.284 109.954 216.492 109.85 216.74C109.754 216.988 109.706 217.272 109.706 217.592V221H108.434V214.532H109.442L109.61 215.684H109.658C109.794 215.452 109.958 215.24 110.15 215.048C110.342 214.856 110.562 214.704 110.81 214.592C111.058 214.472 111.33 214.412 111.626 214.412Z" fill="#52525B"/>
<path d="M181.947 221L181.035 218.528H177.723L176.811 221H175.467L178.719 212.396H180.063L183.303 221H181.947ZM179.811 214.988C179.787 214.9 179.743 214.768 179.679 214.592C179.623 214.408 179.567 214.224 179.511 214.04C179.455 213.848 179.411 213.692 179.379 213.572C179.339 213.732 179.291 213.908 179.235 214.1C179.187 214.284 179.139 214.456 179.091 214.616C179.043 214.768 179.003 214.892 178.971 214.988L178.107 217.4H180.675L179.811 214.988ZM187.543 214.412C188.319 214.412 188.943 214.692 189.415 215.252C189.895 215.812 190.135 216.648 190.135 217.76C190.135 218.488 190.027 219.104 189.811 219.608C189.595 220.112 189.291 220.492 188.899 220.748C188.507 220.996 188.051 221.12 187.531 221.12C187.203 221.12 186.915 221.08 186.667 221C186.419 220.912 186.207 220.8 186.031 220.664C185.863 220.52 185.715 220.368 185.587 220.208H185.503C185.527 220.352 185.547 220.524 185.563 220.724C185.579 220.916 185.587 221.088 185.587 221.24V223.88H184.315V214.532H185.347L185.527 215.396H185.587C185.715 215.22 185.867 215.056 186.043 214.904C186.219 214.752 186.431 214.632 186.679 214.544C186.927 214.456 187.215 214.412 187.543 214.412ZM187.243 215.456C186.843 215.456 186.523 215.536 186.283 215.696C186.043 215.848 185.867 216.08 185.755 216.392C185.651 216.696 185.595 217.084 185.587 217.556V217.748C185.587 218.244 185.639 218.668 185.743 219.02C185.847 219.364 186.019 219.628 186.259 219.812C186.507 219.988 186.843 220.076 187.267 220.076C187.627 220.076 187.919 219.98 188.143 219.788C188.375 219.588 188.547 219.312 188.659 218.96C188.771 218.608 188.827 218.2 188.827 217.736C188.827 217.032 188.699 216.476 188.443 216.068C188.187 215.66 187.787 215.456 187.243 215.456ZM194.948 214.412C195.06 214.412 195.184 214.42 195.32 214.436C195.456 214.444 195.568 214.456 195.656 214.472L195.524 215.66C195.436 215.636 195.332 215.616 195.212 215.6C195.092 215.584 194.98 215.576 194.876 215.576C194.636 215.576 194.404 215.624 194.18 215.72C193.964 215.808 193.768 215.94 193.592 216.116C193.416 216.284 193.276 216.492 193.172 216.74C193.076 216.988 193.028 217.272 193.028 217.592V221H191.756V214.532H192.764L192.932 215.684H192.98C193.116 215.452 193.28 215.24 193.472 215.048C193.664 214.856 193.884 214.704 194.132 214.592C194.38 214.472 194.652 214.412 194.948 214.412Z" fill="#52525B"/>
<path d="M264.319 221L261.727 213.716H261.679C261.687 213.876 261.699 214.092 261.715 214.364C261.731 214.636 261.743 214.928 261.751 215.24C261.759 215.552 261.763 215.86 261.763 216.164V221H260.587V212.432H262.435L264.895 219.308H264.943L267.475 212.432H269.323V221H268.063V216.092C268.063 215.812 268.067 215.524 268.075 215.228C268.091 214.924 268.103 214.64 268.111 214.376C268.127 214.112 268.139 213.896 268.147 213.728H268.099L265.435 221H264.319ZM273.967 214.412C274.783 214.412 275.391 214.592 275.791 214.952C276.191 215.304 276.391 215.86 276.391 216.62V221H275.491L275.239 220.1H275.191C275.007 220.332 274.815 220.524 274.615 220.676C274.423 220.828 274.199 220.94 273.943 221.012C273.695 221.084 273.391 221.12 273.031 221.12C272.647 221.12 272.299 221.052 271.987 220.916C271.683 220.772 271.443 220.556 271.267 220.268C271.091 219.972 271.003 219.604 271.003 219.164C271.003 218.508 271.251 218.008 271.747 217.664C272.251 217.32 273.015 217.132 274.039 217.1L275.143 217.064V216.704C275.143 216.224 275.035 215.888 274.819 215.696C274.603 215.504 274.299 215.408 273.907 215.408C273.571 215.408 273.251 215.456 272.947 215.552C272.643 215.648 272.355 215.764 272.083 215.9L271.675 214.976C271.979 214.816 272.327 214.684 272.719 214.58C273.119 214.468 273.535 214.412 273.967 214.412ZM274.267 217.916C273.531 217.948 273.019 218.072 272.731 218.288C272.451 218.496 272.311 218.792 272.311 219.176C272.311 219.512 272.411 219.756 272.611 219.908C272.819 220.06 273.079 220.136 273.391 220.136C273.895 220.136 274.311 219.996 274.639 219.716C274.967 219.436 275.131 219.016 275.131 218.456V217.892L274.267 217.916ZM277.365 214.532H278.733L280.077 218.204C280.149 218.388 280.213 218.568 280.269 218.744C280.325 218.92 280.373 219.096 280.413 219.272C280.461 219.44 280.497 219.608 280.521 219.776H280.569C280.609 219.568 280.673 219.324 280.761 219.044C280.849 218.756 280.941 218.472 281.037 218.192L282.309 214.532H283.677L280.905 221.876C280.753 222.292 280.565 222.648 280.341 222.944C280.117 223.248 279.849 223.48 279.537 223.64C279.233 223.8 278.873 223.88 278.457 223.88C278.257 223.88 278.085 223.868 277.941 223.844C277.797 223.828 277.673 223.808 277.569 223.784V222.776C277.657 222.792 277.761 222.808 277.881 222.824C278.009 222.84 278.141 222.848 278.277 222.848C278.525 222.848 278.737 222.8 278.913 222.704C279.097 222.608 279.249 222.472 279.369 222.296C279.497 222.12 279.605 221.92 279.693 221.696L279.957 221L277.365 214.532Z" fill="#52525B"/>
<path d="M346.907 223.352C346.707 223.352 346.531 223.336 346.379 223.304C346.227 223.28 346.091 223.244 345.971 223.196V222.116C346.099 222.148 346.235 222.176 346.379 222.2C346.523 222.224 346.675 222.236 346.835 222.236C347.035 222.236 347.223 222.196 347.399 222.116C347.583 222.036 347.727 221.892 347.831 221.684C347.935 221.476 347.987 221.184 347.987 220.808V212.432H349.283V220.748C349.283 221.348 349.183 221.84 348.983 222.224C348.791 222.616 348.515 222.9 348.155 223.076C347.803 223.26 347.387 223.352 346.907 223.352ZM356.939 214.532V221H355.919L355.739 220.148H355.679C355.543 220.372 355.367 220.556 355.151 220.7C354.935 220.844 354.699 220.948 354.443 221.012C354.187 221.084 353.923 221.12 353.651 221.12C353.147 221.12 352.719 221.04 352.367 220.88C352.023 220.712 351.759 220.456 351.575 220.112C351.399 219.76 351.311 219.312 351.311 218.768V214.532H352.595V218.576C352.595 219.08 352.699 219.456 352.907 219.704C353.123 219.952 353.455 220.076 353.903 220.076C354.351 220.076 354.703 219.988 354.959 219.812C355.215 219.636 355.395 219.38 355.499 219.044C355.611 218.7 355.667 218.288 355.667 217.808V214.532H356.939ZM362.206 214.412C362.958 214.412 363.534 214.6 363.934 214.976C364.334 215.352 364.534 215.956 364.534 216.788V221H363.274V216.968C363.274 216.464 363.166 216.088 362.95 215.84C362.742 215.584 362.406 215.456 361.942 215.456C361.286 215.456 360.83 215.652 360.574 216.044C360.326 216.436 360.202 217 360.202 217.736V221H358.93V214.532H359.938L360.118 215.396H360.19C360.334 215.172 360.51 214.988 360.718 214.844C360.926 214.7 361.158 214.592 361.414 214.52C361.67 214.448 361.934 214.412 362.206 214.412Z" fill="#52525B"/>
<path d="M427.953 223.352C427.753 223.352 427.577 223.336 427.425 223.304C427.273 223.28 427.137 223.244 427.017 223.196V222.116C427.145 222.148 427.281 222.176 427.425 222.2C427.569 222.224 427.721 222.236 427.881 222.236C428.081 222.236 428.269 222.196 428.445 222.116C428.629 222.036 428.773 221.892 428.877 221.684C428.981 221.476 429.033 221.184 429.033 220.808V212.432H430.329V220.748C430.329 221.348 430.229 221.84 430.029 222.224C429.837 222.616 429.561 222.9 429.201 223.076C428.849 223.26 428.433 223.352 427.953 223.352ZM437.986 214.532V221H436.966L436.786 220.148H436.726C436.59 220.372 436.414 220.556 436.198 220.7C435.982 220.844 435.746 220.948 435.49 221.012C435.234 221.084 434.97 221.12 434.698 221.12C434.194 221.12 433.766 221.04 433.414 220.88C433.07 220.712 432.806 220.456 432.622 220.112C432.446 219.76 432.358 219.312 432.358 218.768V214.532H433.642V218.576C433.642 219.08 433.746 219.456 433.954 219.704C434.17 219.952 434.502 220.076 434.95 220.076C435.398 220.076 435.75 219.988 436.006 219.812C436.262 219.636 436.442 219.38 436.546 219.044C436.658 218.7 436.714 218.288 436.714 217.808V214.532H437.986ZM441.248 221H439.976V211.88H441.248V221Z" fill="#52525B"/>
<path d="M511.597 221L510.685 218.528H507.373L506.461 221H505.117L508.369 212.396H509.713L512.953 221H511.597ZM509.461 214.988C509.437 214.9 509.393 214.768 509.329 214.592C509.273 214.408 509.217 214.224 509.161 214.04C509.105 213.848 509.061 213.692 509.029 213.572C508.989 213.732 508.941 213.908 508.885 214.1C508.837 214.284 508.789 214.456 508.741 214.616C508.693 214.768 508.653 214.892 508.621 214.988L507.757 217.4H510.325L509.461 214.988ZM519.533 214.532V221H518.513L518.333 220.148H518.273C518.137 220.372 517.961 220.556 517.745 220.7C517.529 220.844 517.293 220.948 517.037 221.012C516.781 221.084 516.517 221.12 516.245 221.12C515.741 221.12 515.313 221.04 514.961 220.88C514.617 220.712 514.353 220.456 514.169 220.112C513.993 219.76 513.905 219.312 513.905 218.768V214.532H515.189V218.576C515.189 219.08 515.293 219.456 515.501 219.704C515.717 219.952 516.049 220.076 516.497 220.076C516.945 220.076 517.297 219.988 517.553 219.812C517.809 219.636 517.989 219.38 518.093 219.044C518.205 218.7 518.261 218.288 518.261 217.808V214.532H519.533ZM523.755 214.412C524.171 214.412 524.547 214.492 524.883 214.652C525.219 214.812 525.503 215.056 525.735 215.384H525.795L525.939 214.532H526.971V221.084C526.971 221.692 526.863 222.204 526.647 222.62C526.431 223.036 526.099 223.348 525.651 223.556C525.211 223.772 524.655 223.88 523.983 223.88C523.519 223.88 523.091 223.848 522.699 223.784C522.307 223.72 521.947 223.62 521.619 223.484V222.368C521.851 222.48 522.095 222.572 522.351 222.644C522.607 222.724 522.879 222.78 523.167 222.812C523.455 222.852 523.751 222.872 524.055 222.872C524.583 222.872 524.991 222.72 525.279 222.416C525.567 222.12 525.711 221.7 525.711 221.156V220.94C525.711 220.836 525.715 220.7 525.723 220.532C525.731 220.356 525.739 220.228 525.747 220.148H525.699C525.475 220.484 525.199 220.732 524.871 220.892C524.551 221.044 524.179 221.12 523.755 221.12C522.939 221.12 522.299 220.828 521.835 220.244C521.379 219.652 521.151 218.832 521.151 217.784C521.151 217.08 521.255 216.48 521.463 215.984C521.671 215.48 521.967 215.092 522.351 214.82C522.743 214.548 523.211 214.412 523.755 214.412ZM524.019 215.468C523.683 215.468 523.399 215.56 523.167 215.744C522.935 215.92 522.759 216.18 522.639 216.524C522.519 216.868 522.459 217.292 522.459 217.796C522.459 218.548 522.591 219.12 522.855 219.512C523.127 219.904 523.523 220.1 524.043 220.1C524.347 220.1 524.603 220.06 524.811 219.98C525.027 219.9 525.203 219.776 525.339 219.608C525.483 219.44 525.587 219.228 525.651 218.972C525.723 218.708 525.759 218.392 525.759 218.024V217.784C525.759 217.232 525.695 216.788 525.567 216.452C525.447 216.108 525.259 215.86 525.003 215.708C524.747 215.548 524.419 215.468 524.019 215.468Z" fill="#52525B"/>
<path d="M599.324 218.684C599.324 219.196 599.2 219.632 598.952 219.992C598.704 220.352 598.348 220.632 597.884 220.832C597.42 221.024 596.868 221.12 596.228 221.12C595.916 221.12 595.616 221.1 595.328 221.06C595.04 221.028 594.772 220.98 594.524 220.916C594.276 220.852 594.056 220.772 593.864 220.676V219.452C594.184 219.596 594.56 219.728 594.992 219.848C595.424 219.96 595.864 220.016 596.312 220.016C596.696 220.016 597.016 219.964 597.272 219.86C597.528 219.756 597.72 219.612 597.848 219.428C597.976 219.244 598.04 219.028 598.04 218.78C598.04 218.516 597.972 218.296 597.836 218.12C597.708 217.936 597.504 217.768 597.224 217.616C596.952 217.456 596.584 217.288 596.12 217.112C595.8 216.992 595.508 216.86 595.244 216.716C594.988 216.564 594.76 216.388 594.56 216.188C594.368 215.988 594.22 215.756 594.116 215.492C594.012 215.228 593.96 214.92 593.96 214.568C593.96 214.096 594.076 213.692 594.308 213.356C594.548 213.02 594.876 212.764 595.292 212.588C595.708 212.404 596.192 212.312 596.744 212.312C597.208 212.312 597.636 212.36 598.028 212.456C598.428 212.544 598.808 212.668 599.168 212.828L598.76 213.896C598.432 213.76 598.1 213.648 597.764 213.56C597.428 213.472 597.076 213.428 596.708 213.428C596.388 213.428 596.12 213.476 595.904 213.572C595.688 213.668 595.524 213.8 595.412 213.968C595.308 214.136 595.256 214.332 595.256 214.556C595.256 214.82 595.316 215.04 595.436 215.216C595.556 215.392 595.748 215.556 596.012 215.708C596.276 215.852 596.624 216.012 597.056 216.188C597.536 216.372 597.944 216.572 598.28 216.788C598.624 217.004 598.884 217.264 599.06 217.568C599.236 217.864 599.324 218.236 599.324 218.684ZM603.401 214.412C603.969 214.412 604.457 214.532 604.865 214.772C605.273 215.004 605.585 215.34 605.801 215.78C606.025 216.22 606.137 216.74 606.137 217.34V218.036H601.793C601.809 218.7 601.981 219.208 602.309 219.56C602.645 219.912 603.113 220.088 603.713 220.088C604.129 220.088 604.497 220.052 604.817 219.98C605.145 219.9 605.481 219.784 605.825 219.632V220.688C605.505 220.832 605.177 220.94 604.841 221.012C604.513 221.084 604.121 221.12 603.665 221.12C603.041 221.12 602.489 220.996 602.009 220.748C601.529 220.5 601.153 220.132 600.881 219.644C600.617 219.148 600.485 218.54 600.485 217.82C600.485 217.092 600.605 216.476 600.845 215.972C601.093 215.468 601.433 215.084 601.865 214.82C602.305 214.548 602.817 214.412 603.401 214.412ZM603.401 215.396C602.945 215.396 602.577 215.544 602.297 215.84C602.025 216.136 601.865 216.556 601.817 217.1H604.865C604.865 216.764 604.813 216.468 604.709 216.212C604.605 215.956 604.445 215.756 604.229 215.612C604.013 215.468 603.737 215.396 603.401 215.396ZM610.952 214.412C611.728 214.412 612.352 214.692 612.824 215.252C613.304 215.812 613.544 216.648 613.544 217.76C613.544 218.488 613.436 219.104 613.22 219.608C613.004 220.112 612.7 220.492 612.308 220.748C611.916 220.996 611.46 221.12 610.94 221.12C610.612 221.12 610.324 221.08 610.076 221C609.828 220.912 609.616 220.8 609.44 220.664C609.272 220.52 609.124 220.368 608.996 220.208H608.912C608.936 220.352 608.956 220.524 608.972 220.724C608.988 220.916 608.996 221.088 608.996 221.24V223.88H607.724V214.532H608.756L608.936 215.396H608.996C609.124 215.22 609.276 215.056 609.452 214.904C609.628 214.752 609.84 214.632 610.088 214.544C610.336 214.456 610.624 214.412 610.952 214.412ZM610.652 215.456C610.252 215.456 609.932 215.536 609.692 215.696C609.452 215.848 609.276 216.08 609.164 216.392C609.06 216.696 609.004 217.084 608.996 217.556V217.748C608.996 218.244 609.048 218.668 609.152 219.02C609.256 219.364 609.428 219.628 609.668 219.812C609.916 219.988 610.252 220.076 610.676 220.076C611.036 220.076 611.328 219.98 611.552 219.788C611.784 219.588 611.956 219.312 612.068 218.96C612.18 218.608 612.236 218.2 612.236 217.736C612.236 217.032 612.108 216.476 611.852 216.068C611.596 215.66 611.196 215.456 610.652 215.456Z" fill="#52525B"/>
<path d="M689.642 216.704C689.642 217.368 689.558 217.972 689.39 218.516C689.23 219.052 688.982 219.516 688.646 219.908C688.318 220.3 687.902 220.6 687.398 220.808C686.902 221.016 686.322 221.12 685.658 221.12C684.978 221.12 684.386 221.016 683.882 220.808C683.386 220.592 682.97 220.292 682.634 219.908C682.306 219.516 682.062 219.048 681.902 218.504C681.742 217.96 681.662 217.356 681.662 216.692C681.662 215.812 681.806 215.044 682.094 214.388C682.382 213.732 682.822 213.22 683.414 212.852C684.014 212.484 684.766 212.3 685.67 212.3C686.55 212.3 687.282 212.484 687.866 212.852C688.458 213.212 688.902 213.724 689.198 214.388C689.494 215.044 689.642 215.816 689.642 216.704ZM683.03 216.704C683.03 217.392 683.122 217.984 683.306 218.48C683.49 218.968 683.778 219.348 684.17 219.62C684.562 219.884 685.058 220.016 685.658 220.016C686.266 220.016 686.762 219.884 687.146 219.62C687.53 219.348 687.814 218.968 687.998 218.48C688.182 217.984 688.274 217.392 688.274 216.704C688.274 215.672 688.066 214.868 687.65 214.292C687.242 213.708 686.582 213.416 685.67 213.416C685.062 213.416 684.562 213.548 684.17 213.812C683.778 214.076 683.49 214.452 683.306 214.94C683.122 215.428 683.03 216.016 683.03 216.704ZM693.964 221.12C693.372 221.12 692.852 221.004 692.404 220.772C691.956 220.54 691.608 220.18 691.36 219.692C691.112 219.196 690.988 218.568 690.988 217.808C690.988 217.008 691.12 216.36 691.384 215.864C691.656 215.368 692.02 215.004 692.476 214.772C692.94 214.532 693.468 214.412 694.06 214.412C694.42 214.412 694.756 214.452 695.068 214.532C695.388 214.604 695.652 214.688 695.86 214.784L695.476 215.816C695.252 215.728 695.012 215.652 694.756 215.588C694.508 215.524 694.272 215.492 694.048 215.492C693.648 215.492 693.316 215.58 693.052 215.756C692.796 215.924 692.604 216.18 692.476 216.524C692.356 216.86 692.296 217.284 692.296 217.796C692.296 218.284 692.36 218.696 692.488 219.032C692.616 219.368 692.804 219.624 693.052 219.8C693.308 219.968 693.624 220.052 694 220.052C694.36 220.052 694.676 220.012 694.948 219.932C695.22 219.852 695.476 219.748 695.716 219.62V220.724C695.484 220.86 695.232 220.96 694.96 221.024C694.688 221.088 694.356 221.12 693.964 221.12ZM699.57 220.088C699.738 220.088 699.91 220.072 700.086 220.04C700.262 220.008 700.414 219.972 700.542 219.932V220.892C700.406 220.956 700.222 221.008 699.99 221.048C699.758 221.096 699.526 221.12 699.294 221.12C698.942 221.12 698.618 221.06 698.322 220.94C698.034 220.82 697.802 220.612 697.626 220.316C697.45 220.02 697.362 219.608 697.362 219.08V215.504H696.462V214.928L697.41 214.448L697.854 213.08H698.634V214.532H700.482V215.504H698.634V219.056C698.634 219.408 698.718 219.668 698.886 219.836C699.062 220.004 699.29 220.088 699.57 220.088Z" fill="#52525B"/>
<path d="M774.246 221H772.674L768.342 214.076H768.294C768.302 214.236 768.31 214.408 768.318 214.592C768.334 214.776 768.346 214.972 768.354 215.18C768.362 215.38 768.37 215.588 768.378 215.804C768.386 216.012 768.39 216.224 768.39 216.44V221H767.214V212.432H768.774L773.094 219.32H773.13C773.122 219.2 773.114 219.052 773.106 218.876C773.098 218.692 773.09 218.496 773.082 218.288C773.082 218.08 773.078 217.868 773.07 217.652C773.062 217.436 773.054 217.232 773.046 217.04V212.432H774.246V221ZM782.086 217.76C782.086 218.296 782.014 218.772 781.87 219.188C781.726 219.604 781.522 219.956 781.258 220.244C780.994 220.532 780.674 220.752 780.298 220.904C779.922 221.048 779.498 221.12 779.026 221.12C778.594 221.12 778.194 221.048 777.826 220.904C777.458 220.752 777.138 220.532 776.866 220.244C776.602 219.956 776.394 219.604 776.242 219.188C776.09 218.772 776.014 218.292 776.014 217.748C776.014 217.036 776.134 216.432 776.374 215.936C776.622 215.44 776.974 215.064 777.43 214.808C777.894 214.544 778.438 214.412 779.062 214.412C779.654 214.412 780.174 214.544 780.622 214.808C781.078 215.064 781.434 215.44 781.69 215.936C781.954 216.432 782.086 217.04 782.086 217.76ZM777.322 217.76C777.322 218.24 777.382 218.656 777.502 219.008C777.622 219.352 777.81 219.616 778.066 219.8C778.322 219.984 778.65 220.076 779.05 220.076C779.45 220.076 779.778 219.984 780.034 219.8C780.29 219.616 780.478 219.352 780.598 219.008C780.718 218.656 780.778 218.24 780.778 217.76C780.778 217.264 780.714 216.848 780.586 216.512C780.466 216.176 780.278 215.92 780.022 215.744C779.774 215.56 779.446 215.468 779.038 215.468C778.438 215.468 778.002 215.668 777.73 216.068C777.458 216.468 777.322 217.032 777.322 217.76ZM784.916 221L782.468 214.532H783.812L785.156 218.312C785.212 218.472 785.268 218.652 785.324 218.852C785.388 219.052 785.444 219.244 785.492 219.428C785.54 219.612 785.572 219.772 785.588 219.908H785.636C785.66 219.772 785.696 219.612 785.744 219.428C785.8 219.236 785.86 219.044 785.924 218.852C785.988 218.652 786.044 218.472 786.092 218.312L787.436 214.532H788.78L786.32 221H784.916Z" fill="#52525B"/>
<path d="M861.904 216.632C861.904 217.592 861.724 218.396 861.364 219.044C861.004 219.692 860.484 220.18 859.804 220.508C859.132 220.836 858.32 221 857.368 221H854.968V212.432H857.62C858.492 212.432 859.248 212.592 859.888 212.912C860.528 213.232 861.024 213.704 861.376 214.328C861.728 214.944 861.904 215.712 861.904 216.632ZM860.548 216.668C860.548 215.948 860.432 215.356 860.2 214.892C859.968 214.428 859.624 214.084 859.168 213.86C858.72 213.636 858.176 213.524 857.536 213.524H856.264V219.908H857.308C858.388 219.908 859.196 219.636 859.732 219.092C860.276 218.548 860.548 217.74 860.548 216.668ZM866.168 214.412C866.736 214.412 867.224 214.532 867.632 214.772C868.04 215.004 868.352 215.34 868.568 215.78C868.792 216.22 868.904 216.74 868.904 217.34V218.036H864.56C864.576 218.7 864.748 219.208 865.076 219.56C865.412 219.912 865.88 220.088 866.48 220.088C866.896 220.088 867.264 220.052 867.584 219.98C867.912 219.9 868.248 219.784 868.592 219.632V220.688C868.272 220.832 867.944 220.94 867.608 221.012C867.28 221.084 866.888 221.12 866.432 221.12C865.808 221.12 865.256 220.996 864.776 220.748C864.296 220.5 863.92 220.132 863.648 219.644C863.384 219.148 863.252 218.54 863.252 217.82C863.252 217.092 863.372 216.476 863.612 215.972C863.86 215.468 864.2 215.084 864.632 214.82C865.072 214.548 865.584 214.412 866.168 214.412ZM866.168 215.396C865.712 215.396 865.344 215.544 865.064 215.84C864.792 216.136 864.632 216.556 864.584 217.1H867.632C867.632 216.764 867.58 216.468 867.476 216.212C867.372 215.956 867.212 215.756 866.996 215.612C866.78 215.468 866.504 215.396 866.168 215.396ZM873.095 221.12C872.503 221.12 871.983 221.004 871.535 220.772C871.087 220.54 870.739 220.18 870.491 219.692C870.243 219.196 870.119 218.568 870.119 217.808C870.119 217.008 870.251 216.36 870.515 215.864C870.787 215.368 871.151 215.004 871.607 214.772C872.071 214.532 872.599 214.412 873.191 214.412C873.551 214.412 873.887 214.452 874.199 214.532C874.519 214.604 874.783 214.688 874.991 214.784L874.607 215.816C874.383 215.728 874.143 215.652 873.887 215.588C873.639 215.524 873.403 215.492 873.179 215.492C872.779 215.492 872.447 215.58 872.183 215.756C871.927 215.924 871.735 216.18 871.607 216.524C871.487 216.86 871.427 217.284 871.427 217.796C871.427 218.284 871.491 218.696 871.619 219.032C871.747 219.368 871.935 219.624 872.183 219.8C872.439 219.968 872.755 220.052 873.131 220.052C873.491 220.052 873.807 220.012 874.079 219.932C874.351 219.852 874.607 219.748 874.847 219.62V220.724C874.615 220.86 874.363 220.96 874.091 221.024C873.819 221.088 873.487 221.12 873.095 221.12Z" fill="#52525B"/>
<path d="M940.279 223.352C940.079 223.352 939.903 223.336 939.751 223.304C939.599 223.28 939.463 223.244 939.343 223.196V222.116C939.471 222.148 939.607 222.176 939.751 222.2C939.895 222.224 940.047 222.236 940.207 222.236C940.407 222.236 940.595 222.196 940.771 222.116C940.955 222.036 941.099 221.892 941.203 221.684C941.307 221.476 941.359 221.184 941.359 220.808V212.432H942.655V220.748C942.655 221.348 942.555 221.84 942.355 222.224C942.163 222.616 941.887 222.9 941.527 223.076C941.175 223.26 940.759 223.352 940.279 223.352ZM947.252 214.412C948.068 214.412 948.676 214.592 949.076 214.952C949.476 215.304 949.676 215.86 949.676 216.62V221H948.776L948.524 220.1H948.476C948.292 220.332 948.1 220.524 947.9 220.676C947.708 220.828 947.484 220.94 947.228 221.012C946.98 221.084 946.676 221.12 946.316 221.12C945.932 221.12 945.584 221.052 945.272 220.916C944.968 220.772 944.728 220.556 944.552 220.268C944.376 219.972 944.288 219.604 944.288 219.164C944.288 218.508 944.536 218.008 945.032 217.664C945.536 217.32 946.3 217.132 947.324 217.1L948.428 217.064V216.704C948.428 216.224 948.32 215.888 948.104 215.696C947.888 215.504 947.584 215.408 947.192 215.408C946.856 215.408 946.536 215.456 946.232 215.552C945.928 215.648 945.64 215.764 945.368 215.9L944.96 214.976C945.264 214.816 945.612 214.684 946.004 214.58C946.404 214.468 946.82 214.412 947.252 214.412ZM947.552 217.916C946.816 217.948 946.304 218.072 946.016 218.288C945.736 218.496 945.596 218.792 945.596 219.176C945.596 219.512 945.696 219.756 945.896 219.908C946.104 220.06 946.364 220.136 946.676 220.136C947.18 220.136 947.596 219.996 947.924 219.716C948.252 219.436 948.416 219.016 948.416 218.456V217.892L947.552 217.916ZM954.91 214.412C955.662 214.412 956.238 214.6 956.638 214.976C957.038 215.352 957.238 215.956 957.238 216.788V221H955.978V216.968C955.978 216.464 955.87 216.088 955.654 215.84C955.446 215.584 955.11 215.456 954.646 215.456C953.99 215.456 953.534 215.652 953.278 216.044C953.03 216.436 952.906 217 952.906 217.736V221H951.634V214.532H952.642L952.822 215.396H952.894C953.038 215.172 953.214 214.988 953.422 214.844C953.63 214.7 953.862 214.592 954.118 214.52C954.374 214.448 954.638 214.412 954.91 214.412Z" fill="#52525B"/>
</svg>
