<svg width="970" height="206" viewBox="0 0 970 206" fill="none" xmlns="http://www.w3.org/2000/svg">
<line x1="75" y1="186.5" x2="970" y2="186.5" stroke="#D5D5D5"/>
<path d="M75 47C75 44.2386 77.2386 42 80 42H88.4629C91.2243 42 93.4629 44.2386 93.4629 47V187H75V47Z" fill="#BCE8B1"/>
<path d="M153.467 10C153.467 7.23858 155.706 5 158.467 5H166.93C169.692 5 171.93 7.23858 171.93 10V187H153.467V10Z" fill="#BCE8B1"/>
<path d="M231.935 70C231.935 67.2386 234.173 65 236.935 65H245.397C248.159 65 250.397 67.2386 250.397 70V187H231.935V70Z" fill="#BCE8B1"/>
<path d="M310.402 47C310.402 44.2386 312.641 42 315.402 42H323.865C326.627 42 328.865 44.2386 328.865 47V187H310.402V47Z" fill="#BCE8B1"/>
<path d="M388.87 97C388.87 94.2386 391.108 92 393.87 92H402.333C405.094 92 407.333 94.2386 407.333 97V187H388.87V97Z" fill="#BCE8B1"/>
<path d="M467.337 28C467.337 25.2386 469.575 23 472.337 23H480.8C483.561 23 485.8 25.2386 485.8 28V187H467.337V28Z" fill="#BCE8B1"/>
<path d="M545.804 76C545.804 73.2386 548.043 71 550.804 71H559.267C562.029 71 564.267 73.2386 564.267 76V187H545.804V76Z" fill="#BCE8B1"/>
<path d="M624.272 22C624.272 19.2386 626.511 17 629.272 17H637.735C640.496 17 642.735 19.2386 642.735 22V187H624.272V22Z" fill="#BCE8B1"/>
<path d="M702.739 5C702.739 2.23858 704.978 0 707.739 0H716.202C718.964 0 721.202 2.23858 721.202 5V187H702.739V5Z" fill="#BCE8B1"/>
<path d="M781.207 56C781.207 53.2386 783.446 51 786.207 51H794.67C797.431 51 799.67 53.2386 799.67 56V187H781.207V56Z" fill="#BCE8B1"/>
<path d="M859.674 70C859.674 67.2386 861.913 65 864.674 65H873.137C875.899 65 878.137 67.2386 878.137 70V187H859.674V70Z" fill="#BCE8B1"/>
<path d="M938.142 37C938.142 34.2386 940.38 32 943.142 32H951.605C954.366 32 956.605 34.2386 956.605 37V187H938.142V37Z" fill="#BCE8B1"/>
<path d="M32.022 176H30.99V170.012C30.99 169.78 30.99 169.584 30.99 169.424C30.998 169.264 31.006 169.116 31.014 168.98C31.022 168.836 31.03 168.688 31.038 168.536C30.91 168.664 30.794 168.772 30.69 168.86C30.586 168.948 30.454 169.06 30.294 169.196L29.382 169.94L28.83 169.232L31.146 167.432H32.022V176ZM40.9052 171.704C40.9052 172.4 40.8532 173.02 40.7492 173.564C40.6452 174.108 40.4772 174.572 40.2452 174.956C40.0212 175.332 39.7252 175.62 39.3572 175.82C38.9972 176.02 38.5612 176.12 38.0492 176.12C37.4092 176.12 36.8772 175.944 36.4532 175.592C36.0372 175.24 35.7252 174.736 35.5172 174.08C35.3172 173.416 35.2172 172.624 35.2172 171.704C35.2172 170.776 35.3092 169.984 35.4932 169.328C35.6852 168.672 35.9892 168.172 36.4052 167.828C36.8212 167.476 37.3692 167.3 38.0492 167.3C38.6892 167.3 39.2212 167.476 39.6452 167.828C40.0692 168.172 40.3852 168.672 40.5932 169.328C40.8012 169.984 40.9052 170.776 40.9052 171.704ZM36.2732 171.704C36.2732 172.488 36.3292 173.14 36.4412 173.66C36.5612 174.18 36.7492 174.572 37.0052 174.836C37.2692 175.092 37.6172 175.22 38.0492 175.22C38.4812 175.22 38.8252 175.092 39.0812 174.836C39.3452 174.58 39.5372 174.192 39.6572 173.672C39.7772 173.144 39.8372 172.488 39.8372 171.704C39.8372 170.92 39.7772 170.272 39.6572 169.76C39.5372 169.24 39.3452 168.852 39.0812 168.596C38.8252 168.332 38.4812 168.2 38.0492 168.2C37.6172 168.2 37.2692 168.332 37.0052 168.596C36.7492 168.852 36.5612 169.24 36.4412 169.76C36.3292 170.272 36.2732 170.92 36.2732 171.704ZM47.7724 171.704C47.7724 172.4 47.7204 173.02 47.6164 173.564C47.5124 174.108 47.3444 174.572 47.1124 174.956C46.8884 175.332 46.5924 175.62 46.2244 175.82C45.8644 176.02 45.4284 176.12 44.9164 176.12C44.2764 176.12 43.7444 175.944 43.3204 175.592C42.9044 175.24 42.5924 174.736 42.3844 174.08C42.1844 173.416 42.0844 172.624 42.0844 171.704C42.0844 170.776 42.1764 169.984 42.3604 169.328C42.5524 168.672 42.8564 168.172 43.2724 167.828C43.6884 167.476 44.2364 167.3 44.9164 167.3C45.5564 167.3 46.0884 167.476 46.5124 167.828C46.9364 168.172 47.2524 168.672 47.4604 169.328C47.6684 169.984 47.7724 170.776 47.7724 171.704ZM43.1404 171.704C43.1404 172.488 43.1964 173.14 43.3084 173.66C43.4284 174.18 43.6164 174.572 43.8724 174.836C44.1364 175.092 44.4844 175.22 44.9164 175.22C45.3484 175.22 45.6924 175.092 45.9484 174.836C46.2124 174.58 46.4044 174.192 46.5244 173.672C46.6444 173.144 46.7044 172.488 46.7044 171.704C46.7044 170.92 46.6444 170.272 46.5244 169.76C46.4044 169.24 46.2124 168.852 45.9484 168.596C45.6924 168.332 45.3484 168.2 44.9164 168.2C44.4844 168.2 44.1364 168.332 43.8724 168.596C43.6164 168.852 43.4284 169.24 43.3084 169.76C43.1964 170.272 43.1404 170.92 43.1404 171.704ZM54.6396 171.704C54.6396 172.4 54.5876 173.02 54.4836 173.564C54.3796 174.108 54.2116 174.572 53.9796 174.956C53.7556 175.332 53.4596 175.62 53.0916 175.82C52.7316 176.02 52.2956 176.12 51.7836 176.12C51.1436 176.12 50.6116 175.944 50.1876 175.592C49.7716 175.24 49.4596 174.736 49.2516 174.08C49.0516 173.416 48.9516 172.624 48.9516 171.704C48.9516 170.776 49.0436 169.984 49.2276 169.328C49.4196 168.672 49.7236 168.172 50.1396 167.828C50.5556 167.476 51.1036 167.3 51.7836 167.3C52.4236 167.3 52.9556 167.476 53.3796 167.828C53.8036 168.172 54.1196 168.672 54.3276 169.328C54.5356 169.984 54.6396 170.776 54.6396 171.704ZM50.0076 171.704C50.0076 172.488 50.0636 173.14 50.1756 173.66C50.2956 174.18 50.4836 174.572 50.7396 174.836C51.0036 175.092 51.3516 175.22 51.7836 175.22C52.2156 175.22 52.5596 175.092 52.8156 174.836C53.0796 174.58 53.2716 174.192 53.3916 173.672C53.5116 173.144 53.5716 172.488 53.5716 171.704C53.5716 170.92 53.5116 170.272 53.3916 169.76C53.2716 169.24 53.0796 168.852 52.8156 168.596C52.5596 168.332 52.2156 168.2 51.7836 168.2C51.3516 168.2 51.0036 168.332 50.7396 168.596C50.4836 168.852 50.2956 169.24 50.1756 169.76C50.0636 170.272 50.0076 170.92 50.0076 171.704Z" fill="#121212"/>
<path d="M31.062 143.744C31.646 143.744 32.154 143.844 32.586 144.044C33.018 144.244 33.35 144.532 33.582 144.908C33.822 145.276 33.942 145.728 33.942 146.264C33.942 146.856 33.814 147.368 33.558 147.8C33.302 148.224 32.934 148.552 32.454 148.784C31.982 149.008 31.41 149.12 30.738 149.12C30.298 149.12 29.882 149.08 29.49 149C29.106 148.92 28.782 148.804 28.518 148.652V147.656C28.806 147.832 29.154 147.972 29.562 148.076C29.978 148.172 30.374 148.22 30.75 148.22C31.174 148.22 31.542 148.156 31.854 148.028C32.174 147.892 32.422 147.688 32.598 147.416C32.774 147.136 32.862 146.788 32.862 146.372C32.862 145.812 32.69 145.384 32.346 145.088C32.002 144.784 31.458 144.632 30.714 144.632C30.49 144.632 30.234 144.652 29.946 144.692C29.658 144.732 29.426 144.772 29.25 144.812L28.722 144.476L29.046 140.432H33.342V141.392H29.946L29.742 143.876C29.878 143.852 30.062 143.824 30.294 143.792C30.526 143.76 30.782 143.744 31.062 143.744ZM40.9052 144.704C40.9052 145.4 40.8532 146.02 40.7492 146.564C40.6452 147.108 40.4772 147.572 40.2452 147.956C40.0212 148.332 39.7252 148.62 39.3572 148.82C38.9972 149.02 38.5612 149.12 38.0492 149.12C37.4092 149.12 36.8772 148.944 36.4532 148.592C36.0372 148.24 35.7252 147.736 35.5172 147.08C35.3172 146.416 35.2172 145.624 35.2172 144.704C35.2172 143.776 35.3092 142.984 35.4932 142.328C35.6852 141.672 35.9892 141.172 36.4052 140.828C36.8212 140.476 37.3692 140.3 38.0492 140.3C38.6892 140.3 39.2212 140.476 39.6452 140.828C40.0692 141.172 40.3852 141.672 40.5932 142.328C40.8012 142.984 40.9052 143.776 40.9052 144.704ZM36.2732 144.704C36.2732 145.488 36.3292 146.14 36.4412 146.66C36.5612 147.18 36.7492 147.572 37.0052 147.836C37.2692 148.092 37.6172 148.22 38.0492 148.22C38.4812 148.22 38.8252 148.092 39.0812 147.836C39.3452 147.58 39.5372 147.192 39.6572 146.672C39.7772 146.144 39.8372 145.488 39.8372 144.704C39.8372 143.92 39.7772 143.272 39.6572 142.76C39.5372 142.24 39.3452 141.852 39.0812 141.596C38.8252 141.332 38.4812 141.2 38.0492 141.2C37.6172 141.2 37.2692 141.332 37.0052 141.596C36.7492 141.852 36.5612 142.24 36.4412 142.76C36.3292 143.272 36.2732 143.92 36.2732 144.704ZM47.7724 144.704C47.7724 145.4 47.7204 146.02 47.6164 146.564C47.5124 147.108 47.3444 147.572 47.1124 147.956C46.8884 148.332 46.5924 148.62 46.2244 148.82C45.8644 149.02 45.4284 149.12 44.9164 149.12C44.2764 149.12 43.7444 148.944 43.3204 148.592C42.9044 148.24 42.5924 147.736 42.3844 147.08C42.1844 146.416 42.0844 145.624 42.0844 144.704C42.0844 143.776 42.1764 142.984 42.3604 142.328C42.5524 141.672 42.8564 141.172 43.2724 140.828C43.6884 140.476 44.2364 140.3 44.9164 140.3C45.5564 140.3 46.0884 140.476 46.5124 140.828C46.9364 141.172 47.2524 141.672 47.4604 142.328C47.6684 142.984 47.7724 143.776 47.7724 144.704ZM43.1404 144.704C43.1404 145.488 43.1964 146.14 43.3084 146.66C43.4284 147.18 43.6164 147.572 43.8724 147.836C44.1364 148.092 44.4844 148.22 44.9164 148.22C45.3484 148.22 45.6924 148.092 45.9484 147.836C46.2124 147.58 46.4044 147.192 46.5244 146.672C46.6444 146.144 46.7044 145.488 46.7044 144.704C46.7044 143.92 46.6444 143.272 46.5244 142.76C46.4044 142.24 46.2124 141.852 45.9484 141.596C45.6924 141.332 45.3484 141.2 44.9164 141.2C44.4844 141.2 44.1364 141.332 43.8724 141.596C43.6164 141.852 43.4284 142.24 43.3084 142.76C43.1964 143.272 43.1404 143.92 43.1404 144.704ZM54.6396 144.704C54.6396 145.4 54.5876 146.02 54.4836 146.564C54.3796 147.108 54.2116 147.572 53.9796 147.956C53.7556 148.332 53.4596 148.62 53.0916 148.82C52.7316 149.02 52.2956 149.12 51.7836 149.12C51.1436 149.12 50.6116 148.944 50.1876 148.592C49.7716 148.24 49.4596 147.736 49.2516 147.08C49.0516 146.416 48.9516 145.624 48.9516 144.704C48.9516 143.776 49.0436 142.984 49.2276 142.328C49.4196 141.672 49.7236 141.172 50.1396 140.828C50.5556 140.476 51.1036 140.3 51.7836 140.3C52.4236 140.3 52.9556 140.476 53.3796 140.828C53.8036 141.172 54.1196 141.672 54.3276 142.328C54.5356 142.984 54.6396 143.776 54.6396 144.704ZM50.0076 144.704C50.0076 145.488 50.0636 146.14 50.1756 146.66C50.2956 147.18 50.4836 147.572 50.7396 147.836C51.0036 148.092 51.3516 148.22 51.7836 148.22C52.2156 148.22 52.5596 148.092 52.8156 147.836C53.0796 147.58 53.2716 147.192 53.3916 146.672C53.5116 146.144 53.5716 145.488 53.5716 144.704C53.5716 143.92 53.5116 143.272 53.3916 142.76C53.2716 142.24 53.0796 141.852 52.8156 141.596C52.5596 141.332 52.2156 141.2 51.7836 141.2C51.3516 141.2 51.0036 141.332 50.7396 141.596C50.4836 141.852 50.2956 142.24 50.1756 142.76C50.0636 143.272 50.0076 143.92 50.0076 144.704Z" fill="#121212"/>
<path d="M21.7131 122H20.6811V116.012C20.6811 115.78 20.6811 115.584 20.6811 115.424C20.6891 115.264 20.6971 115.116 20.7051 114.98C20.7131 114.836 20.7211 114.688 20.7291 114.536C20.6011 114.664 20.4851 114.772 20.3811 114.86C20.2771 114.948 20.1451 115.06 19.9851 115.196L19.0731 115.94L18.5211 115.232L20.8371 113.432H21.7131V122ZM30.5963 117.704C30.5963 118.4 30.5443 119.02 30.4403 119.564C30.3363 120.108 30.1683 120.572 29.9363 120.956C29.7123 121.332 29.4163 121.62 29.0483 121.82C28.6883 122.02 28.2523 122.12 27.7403 122.12C27.1003 122.12 26.5683 121.944 26.1443 121.592C25.7283 121.24 25.4163 120.736 25.2083 120.08C25.0083 119.416 24.9083 118.624 24.9083 117.704C24.9083 116.776 25.0003 115.984 25.1843 115.328C25.3763 114.672 25.6803 114.172 26.0963 113.828C26.5123 113.476 27.0603 113.3 27.7403 113.3C28.3803 113.3 28.9123 113.476 29.3363 113.828C29.7603 114.172 30.0763 114.672 30.2843 115.328C30.4923 115.984 30.5963 116.776 30.5963 117.704ZM25.9643 117.704C25.9643 118.488 26.0203 119.14 26.1323 119.66C26.2523 120.18 26.4403 120.572 26.6963 120.836C26.9603 121.092 27.3083 121.22 27.7403 121.22C28.1723 121.22 28.5163 121.092 28.7723 120.836C29.0363 120.58 29.2283 120.192 29.3483 119.672C29.4683 119.144 29.5283 118.488 29.5283 117.704C29.5283 116.92 29.4683 116.272 29.3483 115.76C29.2283 115.24 29.0363 114.852 28.7723 114.596C28.5163 114.332 28.1723 114.2 27.7403 114.2C27.3083 114.2 26.9603 114.332 26.6963 114.596C26.4403 114.852 26.2523 115.24 26.1323 115.76C26.0203 116.272 25.9643 116.92 25.9643 117.704ZM33.4915 120.74C33.4195 121.02 33.3275 121.324 33.2155 121.652C33.1035 121.98 32.9795 122.304 32.8435 122.624C32.7155 122.952 32.5875 123.26 32.4595 123.548H31.6795C31.7595 123.244 31.8355 122.916 31.9075 122.564C31.9875 122.22 32.0595 121.88 32.1235 121.544C32.1875 121.2 32.2395 120.888 32.2795 120.608H33.4075L33.4915 120.74ZM40.6744 117.704C40.6744 118.4 40.6224 119.02 40.5184 119.564C40.4144 120.108 40.2464 120.572 40.0144 120.956C39.7904 121.332 39.4944 121.62 39.1264 121.82C38.7664 122.02 38.3304 122.12 37.8184 122.12C37.1784 122.12 36.6464 121.944 36.2224 121.592C35.8064 121.24 35.4944 120.736 35.2864 120.08C35.0864 119.416 34.9864 118.624 34.9864 117.704C34.9864 116.776 35.0784 115.984 35.2624 115.328C35.4544 114.672 35.7584 114.172 36.1744 113.828C36.5904 113.476 37.1384 113.3 37.8184 113.3C38.4584 113.3 38.9904 113.476 39.4144 113.828C39.8384 114.172 40.1544 114.672 40.3624 115.328C40.5704 115.984 40.6744 116.776 40.6744 117.704ZM36.0424 117.704C36.0424 118.488 36.0984 119.14 36.2104 119.66C36.3304 120.18 36.5184 120.572 36.7744 120.836C37.0384 121.092 37.3864 121.22 37.8184 121.22C38.2504 121.22 38.5944 121.092 38.8504 120.836C39.1144 120.58 39.3064 120.192 39.4264 119.672C39.5464 119.144 39.6064 118.488 39.6064 117.704C39.6064 116.92 39.5464 116.272 39.4264 115.76C39.3064 115.24 39.1144 114.852 38.8504 114.596C38.5944 114.332 38.2504 114.2 37.8184 114.2C37.3864 114.2 37.0384 114.332 36.7744 114.596C36.5184 114.852 36.3304 115.24 36.2104 115.76C36.0984 116.272 36.0424 116.92 36.0424 117.704ZM47.5416 117.704C47.5416 118.4 47.4896 119.02 47.3856 119.564C47.2816 120.108 47.1136 120.572 46.8816 120.956C46.6576 121.332 46.3616 121.62 45.9936 121.82C45.6336 122.02 45.1976 122.12 44.6856 122.12C44.0456 122.12 43.5136 121.944 43.0896 121.592C42.6736 121.24 42.3616 120.736 42.1536 120.08C41.9536 119.416 41.8536 118.624 41.8536 117.704C41.8536 116.776 41.9456 115.984 42.1296 115.328C42.3216 114.672 42.6256 114.172 43.0416 113.828C43.4576 113.476 44.0056 113.3 44.6856 113.3C45.3256 113.3 45.8576 113.476 46.2816 113.828C46.7056 114.172 47.0216 114.672 47.2296 115.328C47.4376 115.984 47.5416 116.776 47.5416 117.704ZM42.9096 117.704C42.9096 118.488 42.9656 119.14 43.0776 119.66C43.1976 120.18 43.3856 120.572 43.6416 120.836C43.9056 121.092 44.2536 121.22 44.6856 121.22C45.1176 121.22 45.4616 121.092 45.7176 120.836C45.9816 120.58 46.1736 120.192 46.2936 119.672C46.4136 119.144 46.4736 118.488 46.4736 117.704C46.4736 116.92 46.4136 116.272 46.2936 115.76C46.1736 115.24 45.9816 114.852 45.7176 114.596C45.4616 114.332 45.1176 114.2 44.6856 114.2C44.2536 114.2 43.9056 114.332 43.6416 114.596C43.3856 114.852 43.1976 115.24 43.0776 115.76C42.9656 116.272 42.9096 116.92 42.9096 117.704ZM54.4088 117.704C54.4088 118.4 54.3568 119.02 54.2528 119.564C54.1488 120.108 53.9808 120.572 53.7488 120.956C53.5248 121.332 53.2288 121.62 52.8608 121.82C52.5008 122.02 52.0648 122.12 51.5528 122.12C50.9128 122.12 50.3808 121.944 49.9568 121.592C49.5408 121.24 49.2288 120.736 49.0208 120.08C48.8208 119.416 48.7208 118.624 48.7208 117.704C48.7208 116.776 48.8128 115.984 48.9968 115.328C49.1888 114.672 49.4928 114.172 49.9088 113.828C50.3248 113.476 50.8728 113.3 51.5528 113.3C52.1928 113.3 52.7248 113.476 53.1488 113.828C53.5728 114.172 53.8888 114.672 54.0968 115.328C54.3048 115.984 54.4088 116.776 54.4088 117.704ZM49.7768 117.704C49.7768 118.488 49.8328 119.14 49.9448 119.66C50.0648 120.18 50.2528 120.572 50.5088 120.836C50.7728 121.092 51.1208 121.22 51.5528 121.22C51.9848 121.22 52.3288 121.092 52.5848 120.836C52.8488 120.58 53.0408 120.192 53.1608 119.672C53.2808 119.144 53.3408 118.488 53.3408 117.704C53.3408 116.92 53.2808 116.272 53.1608 115.76C53.0408 115.24 52.8488 114.852 52.5848 114.596C52.3288 114.332 51.9848 114.2 51.5528 114.2C51.1208 114.2 50.7728 114.332 50.5088 114.596C50.2528 114.852 50.0648 115.24 49.9448 115.76C49.8328 116.272 49.7768 116.92 49.7768 117.704Z" fill="#121212"/>
<path d="M20.7531 89.744C21.3371 89.744 21.8451 89.844 22.2771 90.044C22.7091 90.244 23.0411 90.532 23.2731 90.908C23.5131 91.276 23.6331 91.728 23.6331 92.264C23.6331 92.856 23.5051 93.368 23.2491 93.8C22.9931 94.224 22.6251 94.552 22.1451 94.784C21.6731 95.008 21.1011 95.12 20.4291 95.12C19.9891 95.12 19.5731 95.08 19.1811 95C18.7971 94.92 18.4731 94.804 18.2091 94.652V93.656C18.4971 93.832 18.8451 93.972 19.2531 94.076C19.6691 94.172 20.0651 94.22 20.4411 94.22C20.8651 94.22 21.2331 94.156 21.5451 94.028C21.8651 93.892 22.1131 93.688 22.2891 93.416C22.4651 93.136 22.5531 92.788 22.5531 92.372C22.5531 91.812 22.3811 91.384 22.0371 91.088C21.6931 90.784 21.1491 90.632 20.4051 90.632C20.1811 90.632 19.9251 90.652 19.6371 90.692C19.3491 90.732 19.1171 90.772 18.9411 90.812L18.4131 90.476L18.7371 86.432H23.0331V87.392H19.6371L19.4331 89.876C19.5691 89.852 19.7531 89.824 19.9851 89.792C20.2171 89.76 20.4731 89.744 20.7531 89.744ZM30.5963 90.704C30.5963 91.4 30.5443 92.02 30.4403 92.564C30.3363 93.108 30.1683 93.572 29.9363 93.956C29.7123 94.332 29.4163 94.62 29.0483 94.82C28.6883 95.02 28.2523 95.12 27.7403 95.12C27.1003 95.12 26.5683 94.944 26.1443 94.592C25.7283 94.24 25.4163 93.736 25.2083 93.08C25.0083 92.416 24.9083 91.624 24.9083 90.704C24.9083 89.776 25.0003 88.984 25.1843 88.328C25.3763 87.672 25.6803 87.172 26.0963 86.828C26.5123 86.476 27.0603 86.3 27.7403 86.3C28.3803 86.3 28.9123 86.476 29.3363 86.828C29.7603 87.172 30.0763 87.672 30.2843 88.328C30.4923 88.984 30.5963 89.776 30.5963 90.704ZM25.9643 90.704C25.9643 91.488 26.0203 92.14 26.1323 92.66C26.2523 93.18 26.4403 93.572 26.6963 93.836C26.9603 94.092 27.3083 94.22 27.7403 94.22C28.1723 94.22 28.5163 94.092 28.7723 93.836C29.0363 93.58 29.2283 93.192 29.3483 92.672C29.4683 92.144 29.5283 91.488 29.5283 90.704C29.5283 89.92 29.4683 89.272 29.3483 88.76C29.2283 88.24 29.0363 87.852 28.7723 87.596C28.5163 87.332 28.1723 87.2 27.7403 87.2C27.3083 87.2 26.9603 87.332 26.6963 87.596C26.4403 87.852 26.2523 88.24 26.1323 88.76C26.0203 89.272 25.9643 89.92 25.9643 90.704ZM33.4915 93.74C33.4195 94.02 33.3275 94.324 33.2155 94.652C33.1035 94.98 32.9795 95.304 32.8435 95.624C32.7155 95.952 32.5875 96.26 32.4595 96.548H31.6795C31.7595 96.244 31.8355 95.916 31.9075 95.564C31.9875 95.22 32.0595 94.88 32.1235 94.544C32.1875 94.2 32.2395 93.888 32.2795 93.608H33.4075L33.4915 93.74ZM40.6744 90.704C40.6744 91.4 40.6224 92.02 40.5184 92.564C40.4144 93.108 40.2464 93.572 40.0144 93.956C39.7904 94.332 39.4944 94.62 39.1264 94.82C38.7664 95.02 38.3304 95.12 37.8184 95.12C37.1784 95.12 36.6464 94.944 36.2224 94.592C35.8064 94.24 35.4944 93.736 35.2864 93.08C35.0864 92.416 34.9864 91.624 34.9864 90.704C34.9864 89.776 35.0784 88.984 35.2624 88.328C35.4544 87.672 35.7584 87.172 36.1744 86.828C36.5904 86.476 37.1384 86.3 37.8184 86.3C38.4584 86.3 38.9904 86.476 39.4144 86.828C39.8384 87.172 40.1544 87.672 40.3624 88.328C40.5704 88.984 40.6744 89.776 40.6744 90.704ZM36.0424 90.704C36.0424 91.488 36.0984 92.14 36.2104 92.66C36.3304 93.18 36.5184 93.572 36.7744 93.836C37.0384 94.092 37.3864 94.22 37.8184 94.22C38.2504 94.22 38.5944 94.092 38.8504 93.836C39.1144 93.58 39.3064 93.192 39.4264 92.672C39.5464 92.144 39.6064 91.488 39.6064 90.704C39.6064 89.92 39.5464 89.272 39.4264 88.76C39.3064 88.24 39.1144 87.852 38.8504 87.596C38.5944 87.332 38.2504 87.2 37.8184 87.2C37.3864 87.2 37.0384 87.332 36.7744 87.596C36.5184 87.852 36.3304 88.24 36.2104 88.76C36.0984 89.272 36.0424 89.92 36.0424 90.704ZM47.5416 90.704C47.5416 91.4 47.4896 92.02 47.3856 92.564C47.2816 93.108 47.1136 93.572 46.8816 93.956C46.6576 94.332 46.3616 94.62 45.9936 94.82C45.6336 95.02 45.1976 95.12 44.6856 95.12C44.0456 95.12 43.5136 94.944 43.0896 94.592C42.6736 94.24 42.3616 93.736 42.1536 93.08C41.9536 92.416 41.8536 91.624 41.8536 90.704C41.8536 89.776 41.9456 88.984 42.1296 88.328C42.3216 87.672 42.6256 87.172 43.0416 86.828C43.4576 86.476 44.0056 86.3 44.6856 86.3C45.3256 86.3 45.8576 86.476 46.2816 86.828C46.7056 87.172 47.0216 87.672 47.2296 88.328C47.4376 88.984 47.5416 89.776 47.5416 90.704ZM42.9096 90.704C42.9096 91.488 42.9656 92.14 43.0776 92.66C43.1976 93.18 43.3856 93.572 43.6416 93.836C43.9056 94.092 44.2536 94.22 44.6856 94.22C45.1176 94.22 45.4616 94.092 45.7176 93.836C45.9816 93.58 46.1736 93.192 46.2936 92.672C46.4136 92.144 46.4736 91.488 46.4736 90.704C46.4736 89.92 46.4136 89.272 46.2936 88.76C46.1736 88.24 45.9816 87.852 45.7176 87.596C45.4616 87.332 45.1176 87.2 44.6856 87.2C44.2536 87.2 43.9056 87.332 43.6416 87.596C43.3856 87.852 43.1976 88.24 43.0776 88.76C42.9656 89.272 42.9096 89.92 42.9096 90.704ZM54.4088 90.704C54.4088 91.4 54.3568 92.02 54.2528 92.564C54.1488 93.108 53.9808 93.572 53.7488 93.956C53.5248 94.332 53.2288 94.62 52.8608 94.82C52.5008 95.02 52.0648 95.12 51.5528 95.12C50.9128 95.12 50.3808 94.944 49.9568 94.592C49.5408 94.24 49.2288 93.736 49.0208 93.08C48.8208 92.416 48.7208 91.624 48.7208 90.704C48.7208 89.776 48.8128 88.984 48.9968 88.328C49.1888 87.672 49.4928 87.172 49.9088 86.828C50.3248 86.476 50.8728 86.3 51.5528 86.3C52.1928 86.3 52.7248 86.476 53.1488 86.828C53.5728 87.172 53.8888 87.672 54.0968 88.328C54.3048 88.984 54.4088 89.776 54.4088 90.704ZM49.7768 90.704C49.7768 91.488 49.8328 92.14 49.9448 92.66C50.0648 93.18 50.2528 93.572 50.5088 93.836C50.7728 94.092 51.1208 94.22 51.5528 94.22C51.9848 94.22 52.3288 94.092 52.5848 93.836C52.8488 93.58 53.0408 93.192 53.1608 92.672C53.2808 92.144 53.3408 91.488 53.3408 90.704C53.3408 89.92 53.2808 89.272 53.1608 88.76C53.0408 88.24 52.8488 87.852 52.5848 87.596C52.3288 87.332 51.9848 87.2 51.5528 87.2C51.1208 87.2 50.7728 87.332 50.5088 87.596C50.2528 87.852 50.0648 88.24 49.9448 88.76C49.8328 89.272 49.7768 89.92 49.7768 90.704Z" fill="#121212"/>
<path d="M11.635 68H10.603V62.012C10.603 61.78 10.603 61.584 10.603 61.424C10.611 61.264 10.619 61.116 10.627 60.98C10.635 60.836 10.643 60.688 10.651 60.536C10.523 60.664 10.407 60.772 10.303 60.86C10.199 60.948 10.067 61.06 9.907 61.196L8.995 61.94L8.443 61.232L10.759 59.432H11.635V68ZM16.5462 66.74C16.4742 67.02 16.3822 67.324 16.2702 67.652C16.1582 67.98 16.0342 68.304 15.8982 68.624C15.7702 68.952 15.6422 69.26 15.5142 69.548H14.7342C14.8142 69.244 14.8902 68.916 14.9622 68.564C15.0422 68.22 15.1142 67.88 15.1782 67.544C15.2422 67.2 15.2942 66.888 15.3342 66.608H16.4622L16.5462 66.74ZM23.7291 63.704C23.7291 64.4 23.6771 65.02 23.5731 65.564C23.4691 66.108 23.3011 66.572 23.0691 66.956C22.8451 67.332 22.5491 67.62 22.1811 67.82C21.8211 68.02 21.3851 68.12 20.8731 68.12C20.2331 68.12 19.7011 67.944 19.2771 67.592C18.8611 67.24 18.5491 66.736 18.3411 66.08C18.1411 65.416 18.0411 64.624 18.0411 63.704C18.0411 62.776 18.1331 61.984 18.3171 61.328C18.5091 60.672 18.8131 60.172 19.2291 59.828C19.6451 59.476 20.1931 59.3 20.8731 59.3C21.5131 59.3 22.0451 59.476 22.4691 59.828C22.8931 60.172 23.2091 60.672 23.4171 61.328C23.6251 61.984 23.7291 62.776 23.7291 63.704ZM19.0971 63.704C19.0971 64.488 19.1531 65.14 19.2651 65.66C19.3851 66.18 19.5731 66.572 19.8291 66.836C20.0931 67.092 20.4411 67.22 20.8731 67.22C21.3051 67.22 21.6491 67.092 21.9051 66.836C22.1691 66.58 22.3611 66.192 22.4811 65.672C22.6011 65.144 22.6611 64.488 22.6611 63.704C22.6611 62.92 22.6011 62.272 22.4811 61.76C22.3611 61.24 22.1691 60.852 21.9051 60.596C21.6491 60.332 21.3051 60.2 20.8731 60.2C20.4411 60.2 20.0931 60.332 19.8291 60.596C19.5731 60.852 19.3851 61.24 19.2651 61.76C19.1531 62.272 19.0971 62.92 19.0971 63.704ZM30.5963 63.704C30.5963 64.4 30.5443 65.02 30.4403 65.564C30.3363 66.108 30.1683 66.572 29.9363 66.956C29.7123 67.332 29.4163 67.62 29.0483 67.82C28.6883 68.02 28.2523 68.12 27.7403 68.12C27.1003 68.12 26.5683 67.944 26.1443 67.592C25.7283 67.24 25.4163 66.736 25.2083 66.08C25.0083 65.416 24.9083 64.624 24.9083 63.704C24.9083 62.776 25.0003 61.984 25.1843 61.328C25.3763 60.672 25.6803 60.172 26.0963 59.828C26.5123 59.476 27.0603 59.3 27.7403 59.3C28.3803 59.3 28.9123 59.476 29.3363 59.828C29.7603 60.172 30.0763 60.672 30.2843 61.328C30.4923 61.984 30.5963 62.776 30.5963 63.704ZM25.9643 63.704C25.9643 64.488 26.0203 65.14 26.1323 65.66C26.2523 66.18 26.4403 66.572 26.6963 66.836C26.9603 67.092 27.3083 67.22 27.7403 67.22C28.1723 67.22 28.5163 67.092 28.7723 66.836C29.0363 66.58 29.2283 66.192 29.3483 65.672C29.4683 65.144 29.5283 64.488 29.5283 63.704C29.5283 62.92 29.4683 62.272 29.3483 61.76C29.2283 61.24 29.0363 60.852 28.7723 60.596C28.5163 60.332 28.1723 60.2 27.7403 60.2C27.3083 60.2 26.9603 60.332 26.6963 60.596C26.4403 60.852 26.2523 61.24 26.1323 61.76C26.0203 62.272 25.9643 62.92 25.9643 63.704ZM33.4915 66.74C33.4195 67.02 33.3275 67.324 33.2155 67.652C33.1035 67.98 32.9795 68.304 32.8435 68.624C32.7155 68.952 32.5875 69.26 32.4595 69.548H31.6795C31.7595 69.244 31.8355 68.916 31.9075 68.564C31.9875 68.22 32.0595 67.88 32.1235 67.544C32.1875 67.2 32.2395 66.888 32.2795 66.608H33.4075L33.4915 66.74ZM40.6744 63.704C40.6744 64.4 40.6224 65.02 40.5184 65.564C40.4144 66.108 40.2464 66.572 40.0144 66.956C39.7904 67.332 39.4944 67.62 39.1264 67.82C38.7664 68.02 38.3304 68.12 37.8184 68.12C37.1784 68.12 36.6464 67.944 36.2224 67.592C35.8064 67.24 35.4944 66.736 35.2864 66.08C35.0864 65.416 34.9864 64.624 34.9864 63.704C34.9864 62.776 35.0784 61.984 35.2624 61.328C35.4544 60.672 35.7584 60.172 36.1744 59.828C36.5904 59.476 37.1384 59.3 37.8184 59.3C38.4584 59.3 38.9904 59.476 39.4144 59.828C39.8384 60.172 40.1544 60.672 40.3624 61.328C40.5704 61.984 40.6744 62.776 40.6744 63.704ZM36.0424 63.704C36.0424 64.488 36.0984 65.14 36.2104 65.66C36.3304 66.18 36.5184 66.572 36.7744 66.836C37.0384 67.092 37.3864 67.22 37.8184 67.22C38.2504 67.22 38.5944 67.092 38.8504 66.836C39.1144 66.58 39.3064 66.192 39.4264 65.672C39.5464 65.144 39.6064 64.488 39.6064 63.704C39.6064 62.92 39.5464 62.272 39.4264 61.76C39.3064 61.24 39.1144 60.852 38.8504 60.596C38.5944 60.332 38.2504 60.2 37.8184 60.2C37.3864 60.2 37.0384 60.332 36.7744 60.596C36.5184 60.852 36.3304 61.24 36.2104 61.76C36.0984 62.272 36.0424 62.92 36.0424 63.704ZM47.5416 63.704C47.5416 64.4 47.4896 65.02 47.3856 65.564C47.2816 66.108 47.1136 66.572 46.8816 66.956C46.6576 67.332 46.3616 67.62 45.9936 67.82C45.6336 68.02 45.1976 68.12 44.6856 68.12C44.0456 68.12 43.5136 67.944 43.0896 67.592C42.6736 67.24 42.3616 66.736 42.1536 66.08C41.9536 65.416 41.8536 64.624 41.8536 63.704C41.8536 62.776 41.9456 61.984 42.1296 61.328C42.3216 60.672 42.6256 60.172 43.0416 59.828C43.4576 59.476 44.0056 59.3 44.6856 59.3C45.3256 59.3 45.8576 59.476 46.2816 59.828C46.7056 60.172 47.0216 60.672 47.2296 61.328C47.4376 61.984 47.5416 62.776 47.5416 63.704ZM42.9096 63.704C42.9096 64.488 42.9656 65.14 43.0776 65.66C43.1976 66.18 43.3856 66.572 43.6416 66.836C43.9056 67.092 44.2536 67.22 44.6856 67.22C45.1176 67.22 45.4616 67.092 45.7176 66.836C45.9816 66.58 46.1736 66.192 46.2936 65.672C46.4136 65.144 46.4736 64.488 46.4736 63.704C46.4736 62.92 46.4136 62.272 46.2936 61.76C46.1736 61.24 45.9816 60.852 45.7176 60.596C45.4616 60.332 45.1176 60.2 44.6856 60.2C44.2536 60.2 43.9056 60.332 43.6416 60.596C43.3856 60.852 43.1976 61.24 43.0776 61.76C42.9656 62.272 42.9096 62.92 42.9096 63.704ZM54.4088 63.704C54.4088 64.4 54.3568 65.02 54.2528 65.564C54.1488 66.108 53.9808 66.572 53.7488 66.956C53.5248 67.332 53.2288 67.62 52.8608 67.82C52.5008 68.02 52.0648 68.12 51.5528 68.12C50.9128 68.12 50.3808 67.944 49.9568 67.592C49.5408 67.24 49.2288 66.736 49.0208 66.08C48.8208 65.416 48.7208 64.624 48.7208 63.704C48.7208 62.776 48.8128 61.984 48.9968 61.328C49.1888 60.672 49.4928 60.172 49.9088 59.828C50.3248 59.476 50.8728 59.3 51.5528 59.3C52.1928 59.3 52.7248 59.476 53.1488 59.828C53.5728 60.172 53.8888 60.672 54.0968 61.328C54.3048 61.984 54.4088 62.776 54.4088 63.704ZM49.7768 63.704C49.7768 64.488 49.8328 65.14 49.9448 65.66C50.0648 66.18 50.2528 66.572 50.5088 66.836C50.7728 67.092 51.1208 67.22 51.5528 67.22C51.9848 67.22 52.3288 67.092 52.5848 66.836C52.8488 66.58 53.0408 66.192 53.1608 65.672C53.2808 65.144 53.3408 64.488 53.3408 63.704C53.3408 62.92 53.2808 62.272 53.1608 61.76C53.0408 61.24 52.8488 60.852 52.5848 60.596C52.3288 60.332 51.9848 60.2 51.5528 60.2C51.1208 60.2 50.7728 60.332 50.5088 60.596C50.2528 60.852 50.0648 61.24 49.9448 61.76C49.8328 62.272 49.7768 62.92 49.7768 63.704Z" fill="#121212"/>
<path d="M10.675 35.744C11.259 35.744 11.767 35.844 12.199 36.044C12.631 36.244 12.963 36.532 13.195 36.908C13.435 37.276 13.555 37.728 13.555 38.264C13.555 38.856 13.427 39.368 13.171 39.8C12.915 40.224 12.547 40.552 12.067 40.784C11.595 41.008 11.023 41.12 10.351 41.12C9.911 41.12 9.495 41.08 9.103 41C8.719 40.92 8.395 40.804 8.131 40.652V39.656C8.419 39.832 8.767 39.972 9.175 40.076C9.591 40.172 9.987 40.22 10.363 40.22C10.787 40.22 11.155 40.156 11.467 40.028C11.787 39.892 12.035 39.688 12.211 39.416C12.387 39.136 12.475 38.788 12.475 38.372C12.475 37.812 12.303 37.384 11.959 37.088C11.615 36.784 11.071 36.632 10.327 36.632C10.103 36.632 9.847 36.652 9.559 36.692C9.271 36.732 9.039 36.772 8.863 36.812L8.335 36.476L8.659 32.432H12.955V33.392H9.559L9.355 35.876C9.491 35.852 9.675 35.824 9.907 35.792C10.139 35.76 10.395 35.744 10.675 35.744ZM16.5462 39.74C16.4742 40.02 16.3822 40.324 16.2702 40.652C16.1582 40.98 16.0342 41.304 15.8982 41.624C15.7702 41.952 15.6422 42.26 15.5142 42.548H14.7342C14.8142 42.244 14.8902 41.916 14.9622 41.564C15.0422 41.22 15.1142 40.88 15.1782 40.544C15.2422 40.2 15.2942 39.888 15.3342 39.608H16.4622L16.5462 39.74ZM23.7291 36.704C23.7291 37.4 23.6771 38.02 23.5731 38.564C23.4691 39.108 23.3011 39.572 23.0691 39.956C22.8451 40.332 22.5491 40.62 22.1811 40.82C21.8211 41.02 21.3851 41.12 20.8731 41.12C20.2331 41.12 19.7011 40.944 19.2771 40.592C18.8611 40.24 18.5491 39.736 18.3411 39.08C18.1411 38.416 18.0411 37.624 18.0411 36.704C18.0411 35.776 18.1331 34.984 18.3171 34.328C18.5091 33.672 18.8131 33.172 19.2291 32.828C19.6451 32.476 20.1931 32.3 20.8731 32.3C21.5131 32.3 22.0451 32.476 22.4691 32.828C22.8931 33.172 23.2091 33.672 23.4171 34.328C23.6251 34.984 23.7291 35.776 23.7291 36.704ZM19.0971 36.704C19.0971 37.488 19.1531 38.14 19.2651 38.66C19.3851 39.18 19.5731 39.572 19.8291 39.836C20.0931 40.092 20.4411 40.22 20.8731 40.22C21.3051 40.22 21.6491 40.092 21.9051 39.836C22.1691 39.58 22.3611 39.192 22.4811 38.672C22.6011 38.144 22.6611 37.488 22.6611 36.704C22.6611 35.92 22.6011 35.272 22.4811 34.76C22.3611 34.24 22.1691 33.852 21.9051 33.596C21.6491 33.332 21.3051 33.2 20.8731 33.2C20.4411 33.2 20.0931 33.332 19.8291 33.596C19.5731 33.852 19.3851 34.24 19.2651 34.76C19.1531 35.272 19.0971 35.92 19.0971 36.704ZM30.5963 36.704C30.5963 37.4 30.5443 38.02 30.4403 38.564C30.3363 39.108 30.1683 39.572 29.9363 39.956C29.7123 40.332 29.4163 40.62 29.0483 40.82C28.6883 41.02 28.2523 41.12 27.7403 41.12C27.1003 41.12 26.5683 40.944 26.1443 40.592C25.7283 40.24 25.4163 39.736 25.2083 39.08C25.0083 38.416 24.9083 37.624 24.9083 36.704C24.9083 35.776 25.0003 34.984 25.1843 34.328C25.3763 33.672 25.6803 33.172 26.0963 32.828C26.5123 32.476 27.0603 32.3 27.7403 32.3C28.3803 32.3 28.9123 32.476 29.3363 32.828C29.7603 33.172 30.0763 33.672 30.2843 34.328C30.4923 34.984 30.5963 35.776 30.5963 36.704ZM25.9643 36.704C25.9643 37.488 26.0203 38.14 26.1323 38.66C26.2523 39.18 26.4403 39.572 26.6963 39.836C26.9603 40.092 27.3083 40.22 27.7403 40.22C28.1723 40.22 28.5163 40.092 28.7723 39.836C29.0363 39.58 29.2283 39.192 29.3483 38.672C29.4683 38.144 29.5283 37.488 29.5283 36.704C29.5283 35.92 29.4683 35.272 29.3483 34.76C29.2283 34.24 29.0363 33.852 28.7723 33.596C28.5163 33.332 28.1723 33.2 27.7403 33.2C27.3083 33.2 26.9603 33.332 26.6963 33.596C26.4403 33.852 26.2523 34.24 26.1323 34.76C26.0203 35.272 25.9643 35.92 25.9643 36.704ZM33.4915 39.74C33.4195 40.02 33.3275 40.324 33.2155 40.652C33.1035 40.98 32.9795 41.304 32.8435 41.624C32.7155 41.952 32.5875 42.26 32.4595 42.548H31.6795C31.7595 42.244 31.8355 41.916 31.9075 41.564C31.9875 41.22 32.0595 40.88 32.1235 40.544C32.1875 40.2 32.2395 39.888 32.2795 39.608H33.4075L33.4915 39.74ZM40.6744 36.704C40.6744 37.4 40.6224 38.02 40.5184 38.564C40.4144 39.108 40.2464 39.572 40.0144 39.956C39.7904 40.332 39.4944 40.62 39.1264 40.82C38.7664 41.02 38.3304 41.12 37.8184 41.12C37.1784 41.12 36.6464 40.944 36.2224 40.592C35.8064 40.24 35.4944 39.736 35.2864 39.08C35.0864 38.416 34.9864 37.624 34.9864 36.704C34.9864 35.776 35.0784 34.984 35.2624 34.328C35.4544 33.672 35.7584 33.172 36.1744 32.828C36.5904 32.476 37.1384 32.3 37.8184 32.3C38.4584 32.3 38.9904 32.476 39.4144 32.828C39.8384 33.172 40.1544 33.672 40.3624 34.328C40.5704 34.984 40.6744 35.776 40.6744 36.704ZM36.0424 36.704C36.0424 37.488 36.0984 38.14 36.2104 38.66C36.3304 39.18 36.5184 39.572 36.7744 39.836C37.0384 40.092 37.3864 40.22 37.8184 40.22C38.2504 40.22 38.5944 40.092 38.8504 39.836C39.1144 39.58 39.3064 39.192 39.4264 38.672C39.5464 38.144 39.6064 37.488 39.6064 36.704C39.6064 35.92 39.5464 35.272 39.4264 34.76C39.3064 34.24 39.1144 33.852 38.8504 33.596C38.5944 33.332 38.2504 33.2 37.8184 33.2C37.3864 33.2 37.0384 33.332 36.7744 33.596C36.5184 33.852 36.3304 34.24 36.2104 34.76C36.0984 35.272 36.0424 35.92 36.0424 36.704ZM47.5416 36.704C47.5416 37.4 47.4896 38.02 47.3856 38.564C47.2816 39.108 47.1136 39.572 46.8816 39.956C46.6576 40.332 46.3616 40.62 45.9936 40.82C45.6336 41.02 45.1976 41.12 44.6856 41.12C44.0456 41.12 43.5136 40.944 43.0896 40.592C42.6736 40.24 42.3616 39.736 42.1536 39.08C41.9536 38.416 41.8536 37.624 41.8536 36.704C41.8536 35.776 41.9456 34.984 42.1296 34.328C42.3216 33.672 42.6256 33.172 43.0416 32.828C43.4576 32.476 44.0056 32.3 44.6856 32.3C45.3256 32.3 45.8576 32.476 46.2816 32.828C46.7056 33.172 47.0216 33.672 47.2296 34.328C47.4376 34.984 47.5416 35.776 47.5416 36.704ZM42.9096 36.704C42.9096 37.488 42.9656 38.14 43.0776 38.66C43.1976 39.18 43.3856 39.572 43.6416 39.836C43.9056 40.092 44.2536 40.22 44.6856 40.22C45.1176 40.22 45.4616 40.092 45.7176 39.836C45.9816 39.58 46.1736 39.192 46.2936 38.672C46.4136 38.144 46.4736 37.488 46.4736 36.704C46.4736 35.92 46.4136 35.272 46.2936 34.76C46.1736 34.24 45.9816 33.852 45.7176 33.596C45.4616 33.332 45.1176 33.2 44.6856 33.2C44.2536 33.2 43.9056 33.332 43.6416 33.596C43.3856 33.852 43.1976 34.24 43.0776 34.76C42.9656 35.272 42.9096 35.92 42.9096 36.704ZM54.4088 36.704C54.4088 37.4 54.3568 38.02 54.2528 38.564C54.1488 39.108 53.9808 39.572 53.7488 39.956C53.5248 40.332 53.2288 40.62 52.8608 40.82C52.5008 41.02 52.0648 41.12 51.5528 41.12C50.9128 41.12 50.3808 40.944 49.9568 40.592C49.5408 40.24 49.2288 39.736 49.0208 39.08C48.8208 38.416 48.7208 37.624 48.7208 36.704C48.7208 35.776 48.8128 34.984 48.9968 34.328C49.1888 33.672 49.4928 33.172 49.9088 32.828C50.3248 32.476 50.8728 32.3 51.5528 32.3C52.1928 32.3 52.7248 32.476 53.1488 32.828C53.5728 33.172 53.8888 33.672 54.0968 34.328C54.3048 34.984 54.4088 35.776 54.4088 36.704ZM49.7768 36.704C49.7768 37.488 49.8328 38.14 49.9448 38.66C50.0648 39.18 50.2528 39.572 50.5088 39.836C50.7728 40.092 51.1208 40.22 51.5528 40.22C51.9848 40.22 52.3288 40.092 52.5848 39.836C52.8488 39.58 53.0408 39.192 53.1608 38.672C53.2808 38.144 53.3408 37.488 53.3408 36.704C53.3408 35.92 53.2808 35.272 53.1608 34.76C53.0408 34.24 52.8488 33.852 52.5848 33.596C52.3288 33.332 51.9848 33.2 51.5528 33.2C51.1208 33.2 50.7728 33.332 50.5088 33.596C50.2528 33.852 50.0648 34.24 49.9448 34.76C49.8328 35.272 49.7768 35.92 49.7768 36.704Z" fill="#121212"/>
<path d="M4.76781 14H3.73581V8.012C3.73581 7.78 3.73581 7.584 3.73581 7.424C3.74381 7.264 3.75181 7.116 3.75981 6.98C3.76781 6.836 3.77581 6.688 3.78381 6.536C3.65581 6.664 3.53981 6.772 3.43581 6.86C3.33181 6.948 3.19981 7.06 3.03981 7.196L2.12781 7.94L1.57581 7.232L3.89181 5.432H4.76781V14ZM13.651 9.704C13.651 10.4 13.599 11.02 13.495 11.564C13.391 12.108 13.223 12.572 12.991 12.956C12.767 13.332 12.471 13.62 12.103 13.82C11.743 14.02 11.307 14.12 10.795 14.12C10.155 14.12 9.623 13.944 9.199 13.592C8.783 13.24 8.471 12.736 8.263 12.08C8.063 11.416 7.963 10.624 7.963 9.704C7.963 8.776 8.055 7.984 8.239 7.328C8.431 6.672 8.735 6.172 9.151 5.828C9.567 5.476 10.115 5.3 10.795 5.3C11.435 5.3 11.967 5.476 12.391 5.828C12.815 6.172 13.131 6.672 13.339 7.328C13.547 7.984 13.651 8.776 13.651 9.704ZM9.019 9.704C9.019 10.488 9.075 11.14 9.187 11.66C9.307 12.18 9.495 12.572 9.751 12.836C10.015 13.092 10.363 13.22 10.795 13.22C11.227 13.22 11.571 13.092 11.827 12.836C12.091 12.58 12.283 12.192 12.403 11.672C12.523 11.144 12.583 10.488 12.583 9.704C12.583 8.92 12.523 8.272 12.403 7.76C12.283 7.24 12.091 6.852 11.827 6.596C11.571 6.332 11.227 6.2 10.795 6.2C10.363 6.2 10.015 6.332 9.751 6.596C9.495 6.852 9.307 7.24 9.187 7.76C9.075 8.272 9.019 8.92 9.019 9.704ZM16.5462 12.74C16.4742 13.02 16.3822 13.324 16.2702 13.652C16.1582 13.98 16.0342 14.304 15.8982 14.624C15.7702 14.952 15.6422 15.26 15.5142 15.548H14.7342C14.8142 15.244 14.8902 14.916 14.9622 14.564C15.0422 14.22 15.1142 13.88 15.1782 13.544C15.2422 13.2 15.2942 12.888 15.3342 12.608H16.4622L16.5462 12.74ZM23.7291 9.704C23.7291 10.4 23.6771 11.02 23.5731 11.564C23.4691 12.108 23.3011 12.572 23.0691 12.956C22.8451 13.332 22.5491 13.62 22.1811 13.82C21.8211 14.02 21.3851 14.12 20.8731 14.12C20.2331 14.12 19.7011 13.944 19.2771 13.592C18.8611 13.24 18.5491 12.736 18.3411 12.08C18.1411 11.416 18.0411 10.624 18.0411 9.704C18.0411 8.776 18.1331 7.984 18.3171 7.328C18.5091 6.672 18.8131 6.172 19.2291 5.828C19.6451 5.476 20.1931 5.3 20.8731 5.3C21.5131 5.3 22.0451 5.476 22.4691 5.828C22.8931 6.172 23.2091 6.672 23.4171 7.328C23.6251 7.984 23.7291 8.776 23.7291 9.704ZM19.0971 9.704C19.0971 10.488 19.1531 11.14 19.2651 11.66C19.3851 12.18 19.5731 12.572 19.8291 12.836C20.0931 13.092 20.4411 13.22 20.8731 13.22C21.3051 13.22 21.6491 13.092 21.9051 12.836C22.1691 12.58 22.3611 12.192 22.4811 11.672C22.6011 11.144 22.6611 10.488 22.6611 9.704C22.6611 8.92 22.6011 8.272 22.4811 7.76C22.3611 7.24 22.1691 6.852 21.9051 6.596C21.6491 6.332 21.3051 6.2 20.8731 6.2C20.4411 6.2 20.0931 6.332 19.8291 6.596C19.5731 6.852 19.3851 7.24 19.2651 7.76C19.1531 8.272 19.0971 8.92 19.0971 9.704ZM30.5963 9.704C30.5963 10.4 30.5443 11.02 30.4403 11.564C30.3363 12.108 30.1683 12.572 29.9363 12.956C29.7123 13.332 29.4163 13.62 29.0483 13.82C28.6883 14.02 28.2523 14.12 27.7403 14.12C27.1003 14.12 26.5683 13.944 26.1443 13.592C25.7283 13.24 25.4163 12.736 25.2083 12.08C25.0083 11.416 24.9083 10.624 24.9083 9.704C24.9083 8.776 25.0003 7.984 25.1843 7.328C25.3763 6.672 25.6803 6.172 26.0963 5.828C26.5123 5.476 27.0603 5.3 27.7403 5.3C28.3803 5.3 28.9123 5.476 29.3363 5.828C29.7603 6.172 30.0763 6.672 30.2843 7.328C30.4923 7.984 30.5963 8.776 30.5963 9.704ZM25.9643 9.704C25.9643 10.488 26.0203 11.14 26.1323 11.66C26.2523 12.18 26.4403 12.572 26.6963 12.836C26.9603 13.092 27.3083 13.22 27.7403 13.22C28.1723 13.22 28.5163 13.092 28.7723 12.836C29.0363 12.58 29.2283 12.192 29.3483 11.672C29.4683 11.144 29.5283 10.488 29.5283 9.704C29.5283 8.92 29.4683 8.272 29.3483 7.76C29.2283 7.24 29.0363 6.852 28.7723 6.596C28.5163 6.332 28.1723 6.2 27.7403 6.2C27.3083 6.2 26.9603 6.332 26.6963 6.596C26.4403 6.852 26.2523 7.24 26.1323 7.76C26.0203 8.272 25.9643 8.92 25.9643 9.704ZM33.4915 12.74C33.4195 13.02 33.3275 13.324 33.2155 13.652C33.1035 13.98 32.9795 14.304 32.8435 14.624C32.7155 14.952 32.5875 15.26 32.4595 15.548H31.6795C31.7595 15.244 31.8355 14.916 31.9075 14.564C31.9875 14.22 32.0595 13.88 32.1235 13.544C32.1875 13.2 32.2395 12.888 32.2795 12.608H33.4075L33.4915 12.74ZM40.6744 9.704C40.6744 10.4 40.6224 11.02 40.5184 11.564C40.4144 12.108 40.2464 12.572 40.0144 12.956C39.7904 13.332 39.4944 13.62 39.1264 13.82C38.7664 14.02 38.3304 14.12 37.8184 14.12C37.1784 14.12 36.6464 13.944 36.2224 13.592C35.8064 13.24 35.4944 12.736 35.2864 12.08C35.0864 11.416 34.9864 10.624 34.9864 9.704C34.9864 8.776 35.0784 7.984 35.2624 7.328C35.4544 6.672 35.7584 6.172 36.1744 5.828C36.5904 5.476 37.1384 5.3 37.8184 5.3C38.4584 5.3 38.9904 5.476 39.4144 5.828C39.8384 6.172 40.1544 6.672 40.3624 7.328C40.5704 7.984 40.6744 8.776 40.6744 9.704ZM36.0424 9.704C36.0424 10.488 36.0984 11.14 36.2104 11.66C36.3304 12.18 36.5184 12.572 36.7744 12.836C37.0384 13.092 37.3864 13.22 37.8184 13.22C38.2504 13.22 38.5944 13.092 38.8504 12.836C39.1144 12.58 39.3064 12.192 39.4264 11.672C39.5464 11.144 39.6064 10.488 39.6064 9.704C39.6064 8.92 39.5464 8.272 39.4264 7.76C39.3064 7.24 39.1144 6.852 38.8504 6.596C38.5944 6.332 38.2504 6.2 37.8184 6.2C37.3864 6.2 37.0384 6.332 36.7744 6.596C36.5184 6.852 36.3304 7.24 36.2104 7.76C36.0984 8.272 36.0424 8.92 36.0424 9.704ZM47.5416 9.704C47.5416 10.4 47.4896 11.02 47.3856 11.564C47.2816 12.108 47.1136 12.572 46.8816 12.956C46.6576 13.332 46.3616 13.62 45.9936 13.82C45.6336 14.02 45.1976 14.12 44.6856 14.12C44.0456 14.12 43.5136 13.944 43.0896 13.592C42.6736 13.24 42.3616 12.736 42.1536 12.08C41.9536 11.416 41.8536 10.624 41.8536 9.704C41.8536 8.776 41.9456 7.984 42.1296 7.328C42.3216 6.672 42.6256 6.172 43.0416 5.828C43.4576 5.476 44.0056 5.3 44.6856 5.3C45.3256 5.3 45.8576 5.476 46.2816 5.828C46.7056 6.172 47.0216 6.672 47.2296 7.328C47.4376 7.984 47.5416 8.776 47.5416 9.704ZM42.9096 9.704C42.9096 10.488 42.9656 11.14 43.0776 11.66C43.1976 12.18 43.3856 12.572 43.6416 12.836C43.9056 13.092 44.2536 13.22 44.6856 13.22C45.1176 13.22 45.4616 13.092 45.7176 12.836C45.9816 12.58 46.1736 12.192 46.2936 11.672C46.4136 11.144 46.4736 10.488 46.4736 9.704C46.4736 8.92 46.4136 8.272 46.2936 7.76C46.1736 7.24 45.9816 6.852 45.7176 6.596C45.4616 6.332 45.1176 6.2 44.6856 6.2C44.2536 6.2 43.9056 6.332 43.6416 6.596C43.3856 6.852 43.1976 7.24 43.0776 7.76C42.9656 8.272 42.9096 8.92 42.9096 9.704ZM54.4088 9.704C54.4088 10.4 54.3568 11.02 54.2528 11.564C54.1488 12.108 53.9808 12.572 53.7488 12.956C53.5248 13.332 53.2288 13.62 52.8608 13.82C52.5008 14.02 52.0648 14.12 51.5528 14.12C50.9128 14.12 50.3808 13.944 49.9568 13.592C49.5408 13.24 49.2288 12.736 49.0208 12.08C48.8208 11.416 48.7208 10.624 48.7208 9.704C48.7208 8.776 48.8128 7.984 48.9968 7.328C49.1888 6.672 49.4928 6.172 49.9088 5.828C50.3248 5.476 50.8728 5.3 51.5528 5.3C52.1928 5.3 52.7248 5.476 53.1488 5.828C53.5728 6.172 53.8888 6.672 54.0968 7.328C54.3048 7.984 54.4088 8.776 54.4088 9.704ZM49.7768 9.704C49.7768 10.488 49.8328 11.14 49.9448 11.66C50.0648 12.18 50.2528 12.572 50.5088 12.836C50.7728 13.092 51.1208 13.22 51.5528 13.22C51.9848 13.22 52.3288 13.092 52.5848 12.836C52.8488 12.58 53.0408 12.192 53.1608 11.672C53.2808 11.144 53.3408 10.488 53.3408 9.704C53.3408 8.92 53.2808 8.272 53.1608 7.76C53.0408 7.24 52.8488 6.852 52.5848 6.596C52.3288 6.332 51.9848 6.2 51.5528 6.2C51.1208 6.2 50.7728 6.332 50.5088 6.596C50.2528 6.852 50.0648 7.24 49.9448 7.76C49.8328 8.272 49.7768 8.92 49.7768 9.704Z" fill="#121212"/>
<path d="M80.3146 203.9C80.1546 203.9 80.0146 203.887 79.8946 203.86C79.7746 203.84 79.668 203.81 79.5746 203.77V203.01C79.6813 203.037 79.7946 203.06 79.9146 203.08C80.0346 203.1 80.1613 203.11 80.2946 203.11C80.4613 203.11 80.618 203.077 80.7646 203.01C80.918 202.943 81.0413 202.827 81.1346 202.66C81.228 202.493 81.2746 202.26 81.2746 201.96V194.86H82.1746V201.89C82.1746 202.35 82.098 202.727 81.9446 203.02C81.7913 203.32 81.5746 203.54 81.2946 203.68C81.0146 203.827 80.688 203.9 80.3146 203.9ZM85.969 196.55C86.6224 196.55 87.1057 196.693 87.419 196.98C87.7324 197.267 87.889 197.723 87.889 198.35V202H87.249L87.079 201.24H87.039C86.8857 201.433 86.7257 201.597 86.559 201.73C86.399 201.857 86.2124 201.95 85.999 202.01C85.7924 202.07 85.539 202.1 85.239 202.1C84.919 202.1 84.629 202.043 84.369 201.93C84.1157 201.817 83.9157 201.643 83.769 201.41C83.6224 201.17 83.549 200.87 83.549 200.51C83.549 199.977 83.759 199.567 84.179 199.28C84.599 198.987 85.2457 198.827 86.119 198.8L87.029 198.77V198.45C87.029 198.003 86.9324 197.693 86.739 197.52C86.5457 197.347 86.2724 197.26 85.919 197.26C85.639 197.26 85.3724 197.303 85.119 197.39C84.8657 197.47 84.629 197.563 84.409 197.67L84.139 197.01C84.3724 196.883 84.649 196.777 84.969 196.69C85.289 196.597 85.6224 196.55 85.969 196.55ZM86.229 199.41C85.5624 199.437 85.099 199.543 84.839 199.73C84.5857 199.917 84.459 200.18 84.459 200.52C84.459 200.82 84.549 201.04 84.729 201.18C84.9157 201.32 85.1524 201.39 85.439 201.39C85.8924 201.39 86.269 201.267 86.569 201.02C86.869 200.767 87.019 200.38 87.019 199.86V199.38L86.229 199.41ZM92.1245 196.54C92.7645 196.54 93.2478 196.697 93.5745 197.01C93.9012 197.317 94.0645 197.817 94.0645 198.51V202H93.1945V198.57C93.1945 198.137 93.0978 197.813 92.9045 197.6C92.7112 197.387 92.4078 197.28 91.9945 197.28C91.4012 197.28 90.9912 197.447 90.7645 197.78C90.5378 198.113 90.4245 198.593 90.4245 199.22V202H89.5445V196.64H90.2545L90.3845 197.37H90.4345C90.5545 197.183 90.7012 197.03 90.8745 196.91C91.0545 196.783 91.2512 196.69 91.4645 196.63C91.6778 196.57 91.8978 196.54 92.1245 196.54Z" fill="#121212"/>
<path d="M159.225 202H158.325V194.86H162.315V195.65H159.225V198.18H162.125V198.97H159.225V202ZM165.46 196.54C165.92 196.54 166.314 196.64 166.64 196.84C166.974 197.04 167.227 197.323 167.4 197.69C167.58 198.05 167.67 198.473 167.67 198.96V199.49H164C164.014 200.097 164.167 200.56 164.46 200.88C164.76 201.193 165.177 201.35 165.71 201.35C166.05 201.35 166.35 201.32 166.61 201.26C166.877 201.193 167.15 201.1 167.43 200.98V201.75C167.157 201.87 166.887 201.957 166.62 202.01C166.354 202.07 166.037 202.1 165.67 202.1C165.164 202.1 164.714 201.997 164.32 201.79C163.934 201.583 163.63 201.277 163.41 200.87C163.197 200.457 163.09 199.953 163.09 199.36C163.09 198.773 163.187 198.27 163.38 197.85C163.58 197.43 163.857 197.107 164.21 196.88C164.57 196.653 164.987 196.54 165.46 196.54ZM165.45 197.26C165.03 197.26 164.697 197.397 164.45 197.67C164.21 197.937 164.067 198.31 164.02 198.79H166.75C166.75 198.483 166.704 198.217 166.61 197.99C166.517 197.763 166.374 197.587 166.18 197.46C165.994 197.327 165.75 197.26 165.45 197.26ZM169.915 196.25C169.915 196.477 169.908 196.69 169.895 196.89C169.888 197.083 169.878 197.237 169.865 197.35H169.915C170.068 197.123 170.278 196.933 170.545 196.78C170.811 196.627 171.155 196.55 171.575 196.55C172.241 196.55 172.775 196.783 173.175 197.25C173.581 197.71 173.785 198.4 173.785 199.32C173.785 199.933 173.691 200.447 173.505 200.86C173.325 201.273 173.068 201.583 172.735 201.79C172.401 201.997 172.015 202.1 171.575 202.1C171.155 202.1 170.811 202.023 170.545 201.87C170.278 201.717 170.068 201.533 169.915 201.32H169.845L169.665 202H169.035V194.4H169.915V196.25ZM171.425 197.28C171.045 197.28 170.745 197.353 170.525 197.5C170.305 197.64 170.148 197.86 170.055 198.16C169.961 198.453 169.915 198.83 169.915 199.29V199.33C169.915 199.99 170.021 200.497 170.235 200.85C170.455 201.197 170.858 201.37 171.445 201.37C171.925 201.37 172.281 201.193 172.515 200.84C172.755 200.487 172.875 199.977 172.875 199.31C172.875 198.637 172.755 198.13 172.515 197.79C172.281 197.45 171.918 197.28 171.425 197.28Z" fill="#121212"/>
<path d="M238.793 202L236.443 195.74H236.403C236.416 195.873 236.426 196.043 236.433 196.25C236.446 196.457 236.456 196.683 236.463 196.93C236.469 197.17 236.473 197.417 236.473 197.67V202H235.643V194.86H236.973L239.173 200.71H239.213L241.453 194.86H242.773V202H241.883V197.61C241.883 197.377 241.886 197.147 241.893 196.92C241.899 196.687 241.909 196.47 241.923 196.27C241.936 196.063 241.946 195.89 241.953 195.75H241.913L239.533 202H238.793ZM246.625 196.55C247.278 196.55 247.761 196.693 248.075 196.98C248.388 197.267 248.545 197.723 248.545 198.35V202H247.905L247.735 201.24H247.695C247.541 201.433 247.381 201.597 247.215 201.73C247.055 201.857 246.868 201.95 246.655 202.01C246.448 202.07 246.195 202.1 245.895 202.1C245.575 202.1 245.285 202.043 245.025 201.93C244.771 201.817 244.571 201.643 244.425 201.41C244.278 201.17 244.205 200.87 244.205 200.51C244.205 199.977 244.415 199.567 244.835 199.28C245.255 198.987 245.901 198.827 246.775 198.8L247.685 198.77V198.45C247.685 198.003 247.588 197.693 247.395 197.52C247.201 197.347 246.928 197.26 246.575 197.26C246.295 197.26 246.028 197.303 245.775 197.39C245.521 197.47 245.285 197.563 245.065 197.67L244.795 197.01C245.028 196.883 245.305 196.777 245.625 196.69C245.945 196.597 246.278 196.55 246.625 196.55ZM246.885 199.41C246.218 199.437 245.755 199.543 245.495 199.73C245.241 199.917 245.115 200.18 245.115 200.52C245.115 200.82 245.205 201.04 245.385 201.18C245.571 201.32 245.808 201.39 246.095 201.39C246.548 201.39 246.925 201.267 247.225 201.02C247.525 200.767 247.675 200.38 247.675 199.86V199.38L246.885 199.41ZM252.7 196.54C252.8 196.54 252.907 196.547 253.02 196.56C253.14 196.567 253.244 196.58 253.33 196.6L253.22 197.41C253.134 197.39 253.037 197.373 252.93 197.36C252.83 197.347 252.734 197.34 252.64 197.34C252.434 197.34 252.237 197.383 252.05 197.47C251.864 197.557 251.697 197.68 251.55 197.84C251.404 197.993 251.287 198.18 251.2 198.4C251.12 198.62 251.08 198.867 251.08 199.14V202H250.2V196.64H250.92L251.02 197.62H251.06C251.174 197.42 251.31 197.24 251.47 197.08C251.63 196.913 251.814 196.783 252.02 196.69C252.227 196.59 252.454 196.54 252.7 196.54Z" fill="#121212"/>
<path d="M319.423 202L318.563 199.79H315.733L314.883 202H313.973L316.763 194.83H317.573L320.353 202H319.423ZM317.493 196.83C317.473 196.777 317.439 196.68 317.393 196.54C317.346 196.4 317.299 196.257 317.253 196.11C317.213 195.957 317.179 195.84 317.153 195.76C317.119 195.893 317.083 196.03 317.043 196.17C317.009 196.303 316.973 196.427 316.933 196.54C316.899 196.653 316.869 196.75 316.843 196.83L316.033 198.99H318.293L317.493 196.83ZM323.76 196.54C324.42 196.54 324.95 196.77 325.35 197.23C325.756 197.69 325.96 198.383 325.96 199.31C325.96 199.917 325.866 200.43 325.68 200.85C325.5 201.263 325.243 201.577 324.91 201.79C324.583 201.997 324.196 202.1 323.75 202.1C323.476 202.1 323.233 202.063 323.02 201.99C322.806 201.917 322.623 201.823 322.47 201.71C322.323 201.59 322.196 201.46 322.09 201.32H322.03C322.043 201.433 322.056 201.577 322.07 201.75C322.083 201.923 322.09 202.073 322.09 202.2V204.4H321.21V196.64H321.93L322.05 197.37H322.09C322.196 197.217 322.323 197.077 322.47 196.95C322.623 196.823 322.803 196.723 323.01 196.65C323.223 196.577 323.473 196.54 323.76 196.54ZM323.6 197.28C323.24 197.28 322.95 197.35 322.73 197.49C322.51 197.623 322.35 197.827 322.25 198.1C322.15 198.373 322.096 198.72 322.09 199.14V199.31C322.09 199.75 322.136 200.123 322.23 200.43C322.323 200.737 322.48 200.97 322.7 201.13C322.926 201.29 323.233 201.37 323.62 201.37C323.946 201.37 324.213 201.28 324.42 201.1C324.633 200.92 324.79 200.677 324.89 200.37C324.996 200.057 325.05 199.7 325.05 199.3C325.05 198.687 324.93 198.197 324.69 197.83C324.456 197.463 324.093 197.28 323.6 197.28ZM329.862 196.54C329.962 196.54 330.069 196.547 330.182 196.56C330.302 196.567 330.405 196.58 330.492 196.6L330.382 197.41C330.295 197.39 330.199 197.373 330.092 197.36C329.992 197.347 329.895 197.34 329.802 197.34C329.595 197.34 329.399 197.383 329.212 197.47C329.025 197.557 328.859 197.68 328.712 197.84C328.565 197.993 328.449 198.18 328.362 198.4C328.282 198.62 328.242 198.867 328.242 199.14V202H327.362V196.64H328.082L328.182 197.62H328.222C328.335 197.42 328.472 197.24 328.632 197.08C328.792 196.913 328.975 196.783 329.182 196.69C329.389 196.59 329.615 196.54 329.862 196.54Z" fill="#121212"/>
<path d="M394.771 202L392.421 195.74H392.381C392.394 195.873 392.404 196.043 392.411 196.25C392.424 196.457 392.434 196.683 392.441 196.93C392.447 197.17 392.451 197.417 392.451 197.67V202H391.621V194.86H392.951L395.151 200.71H395.191L397.431 194.86H398.751V202H397.861V197.61C397.861 197.377 397.864 197.147 397.871 196.92C397.877 196.687 397.887 196.47 397.901 196.27C397.914 196.063 397.924 195.89 397.931 195.75H397.891L395.511 202H394.771ZM402.603 196.55C403.256 196.55 403.739 196.693 404.053 196.98C404.366 197.267 404.523 197.723 404.523 198.35V202H403.883L403.713 201.24H403.673C403.519 201.433 403.359 201.597 403.193 201.73C403.033 201.857 402.846 201.95 402.633 202.01C402.426 202.07 402.173 202.1 401.873 202.1C401.553 202.1 401.263 202.043 401.003 201.93C400.749 201.817 400.549 201.643 400.403 201.41C400.256 201.17 400.183 200.87 400.183 200.51C400.183 199.977 400.393 199.567 400.813 199.28C401.233 198.987 401.879 198.827 402.753 198.8L403.663 198.77V198.45C403.663 198.003 403.566 197.693 403.373 197.52C403.179 197.347 402.906 197.26 402.553 197.26C402.273 197.26 402.006 197.303 401.753 197.39C401.499 197.47 401.263 197.563 401.043 197.67L400.773 197.01C401.006 196.883 401.283 196.777 401.603 196.69C401.923 196.597 402.256 196.55 402.603 196.55ZM402.863 199.41C402.196 199.437 401.733 199.543 401.473 199.73C401.219 199.917 401.093 200.18 401.093 200.52C401.093 200.82 401.183 201.04 401.363 201.18C401.549 201.32 401.786 201.39 402.073 201.39C402.526 201.39 402.903 201.267 403.203 201.02C403.503 200.767 403.653 200.38 403.653 199.86V199.38L402.863 199.41ZM405.338 196.64H406.278L407.438 199.69C407.505 199.87 407.565 200.043 407.618 200.21C407.678 200.377 407.732 200.54 407.778 200.7C407.825 200.853 407.862 201.003 407.888 201.15H407.928C407.968 200.983 408.032 200.767 408.118 200.5C408.205 200.227 408.295 199.953 408.388 199.68L409.478 196.64H410.428L408.118 202.74C407.992 203.073 407.842 203.363 407.668 203.61C407.502 203.863 407.295 204.057 407.048 204.19C406.808 204.33 406.515 204.4 406.168 204.4C406.008 204.4 405.868 204.39 405.748 204.37C405.628 204.357 405.525 204.34 405.438 204.32V203.62C405.512 203.633 405.598 203.647 405.698 203.66C405.805 203.673 405.915 203.68 406.028 203.68C406.235 203.68 406.412 203.64 406.558 203.56C406.712 203.487 406.842 203.377 406.948 203.23C407.055 203.09 407.145 202.923 407.218 202.73L407.498 202.02L405.338 196.64Z" fill="#121212"/>
<path d="M471.18 203.9C471.02 203.9 470.88 203.887 470.76 203.86C470.64 203.84 470.533 203.81 470.44 203.77V203.01C470.547 203.037 470.66 203.06 470.78 203.08C470.9 203.1 471.027 203.11 471.16 203.11C471.327 203.11 471.483 203.077 471.63 203.01C471.783 202.943 471.907 202.827 472 202.66C472.093 202.493 472.14 202.26 472.14 201.96V194.86H473.04V201.89C473.04 202.35 472.963 202.727 472.81 203.02C472.657 203.32 472.44 203.54 472.16 203.68C471.88 203.827 471.553 203.9 471.18 203.9ZM479.284 196.64V202H478.564L478.434 201.29H478.394C478.281 201.477 478.134 201.63 477.954 201.75C477.774 201.87 477.578 201.957 477.364 202.01C477.151 202.07 476.928 202.1 476.694 202.1C476.268 202.1 475.908 202.033 475.614 201.9C475.328 201.76 475.111 201.547 474.964 201.26C474.818 200.973 474.744 200.603 474.744 200.15V196.64H475.634V200.09C475.634 200.517 475.731 200.837 475.924 201.05C476.118 201.263 476.418 201.37 476.824 201.37C477.224 201.37 477.538 201.297 477.764 201.15C477.998 200.997 478.161 200.777 478.254 200.49C478.354 200.197 478.404 199.843 478.404 199.43V196.64H479.284ZM483.566 196.54C484.206 196.54 484.689 196.697 485.016 197.01C485.343 197.317 485.506 197.817 485.506 198.51V202H484.636V198.57C484.636 198.137 484.539 197.813 484.346 197.6C484.153 197.387 483.849 197.28 483.436 197.28C482.843 197.28 482.433 197.447 482.206 197.78C481.979 198.113 481.866 198.593 481.866 199.22V202H480.986V196.64H481.696L481.826 197.37H481.876C481.996 197.183 482.143 197.03 482.316 196.91C482.496 196.783 482.693 196.69 482.906 196.63C483.119 196.57 483.339 196.54 483.566 196.54Z" fill="#121212"/>
<path d="M551.551 204.4C551.384 204.4 551.237 204.387 551.111 204.36C550.984 204.34 550.874 204.313 550.781 204.28V203.57C550.881 203.597 550.984 203.62 551.091 203.64C551.197 203.66 551.314 203.67 551.441 203.67C551.654 203.67 551.831 203.61 551.971 203.49C552.111 203.377 552.181 203.157 552.181 202.83V196.64H553.061V202.8C553.061 203.133 553.007 203.42 552.901 203.66C552.794 203.9 552.631 204.083 552.411 204.21C552.191 204.337 551.904 204.4 551.551 204.4ZM552.111 195.19C552.111 194.997 552.161 194.857 552.261 194.77C552.361 194.677 552.484 194.63 552.631 194.63C552.764 194.63 552.881 194.677 552.981 194.77C553.087 194.857 553.141 194.997 553.141 195.19C553.141 195.377 553.087 195.517 552.981 195.61C552.881 195.703 552.764 195.75 552.631 195.75C552.484 195.75 552.361 195.703 552.261 195.61C552.161 195.517 552.111 195.377 552.111 195.19ZM559.239 196.64V202H558.519L558.389 201.29H558.349C558.236 201.477 558.089 201.63 557.909 201.75C557.729 201.87 557.532 201.957 557.319 202.01C557.106 202.07 556.882 202.1 556.649 202.1C556.222 202.1 555.862 202.033 555.569 201.9C555.282 201.76 555.066 201.547 554.919 201.26C554.772 200.973 554.699 200.603 554.699 200.15V196.64H555.589V200.09C555.589 200.517 555.686 200.837 555.879 201.05C556.072 201.263 556.372 201.37 556.779 201.37C557.179 201.37 557.492 201.297 557.719 201.15C557.952 200.997 558.116 200.777 558.209 200.49C558.309 200.197 558.359 199.843 558.359 199.43V196.64H559.239ZM561.82 202H560.94V194.4H561.82V202Z" fill="#121212"/>
<path d="M631.32 202L630.46 199.79H627.63L626.78 202H625.87L628.66 194.83H629.47L632.25 202H631.32ZM629.39 196.83C629.37 196.777 629.337 196.68 629.29 196.54C629.244 196.4 629.197 196.257 629.15 196.11C629.11 195.957 629.077 195.84 629.05 195.76C629.017 195.893 628.98 196.03 628.94 196.17C628.907 196.303 628.87 196.427 628.83 196.54C628.797 196.653 628.767 196.75 628.74 196.83L627.93 198.99H630.19L629.39 196.83ZM637.587 196.64V202H636.867L636.737 201.29H636.697C636.584 201.477 636.437 201.63 636.257 201.75C636.077 201.87 635.88 201.957 635.667 202.01C635.454 202.07 635.23 202.1 634.997 202.1C634.57 202.1 634.21 202.033 633.917 201.9C633.63 201.76 633.414 201.547 633.267 201.26C633.12 200.973 633.047 200.603 633.047 200.15V196.64H633.937V200.09C633.937 200.517 634.034 200.837 634.227 201.05C634.42 201.263 634.72 201.37 635.127 201.37C635.527 201.37 635.84 201.297 636.067 201.15C636.3 200.997 636.464 200.777 636.557 200.49C636.657 200.197 636.707 199.843 636.707 199.43V196.64H637.587ZM641.189 196.54C641.542 196.54 641.859 196.607 642.139 196.74C642.425 196.873 642.669 197.077 642.869 197.35H642.919L643.039 196.64H643.739V202.09C643.739 202.597 643.652 203.02 643.479 203.36C643.305 203.707 643.042 203.967 642.689 204.14C642.335 204.313 641.885 204.4 641.339 204.4C640.952 204.4 640.595 204.37 640.269 204.31C639.949 204.257 639.662 204.173 639.409 204.06V203.25C639.582 203.337 639.772 203.41 639.979 203.47C640.185 203.537 640.409 203.587 640.649 203.62C640.889 203.653 641.135 203.67 641.389 203.67C641.849 203.67 642.209 203.533 642.469 203.26C642.735 202.993 642.869 202.627 642.869 202.16V201.95C642.869 201.87 642.872 201.757 642.879 201.61C642.885 201.457 642.892 201.35 642.899 201.29H642.859C642.672 201.563 642.439 201.767 642.159 201.9C641.885 202.033 641.565 202.1 641.199 202.1C640.505 202.1 639.962 201.857 639.569 201.37C639.182 200.883 638.989 200.203 638.989 199.33C638.989 198.757 639.075 198.263 639.249 197.85C639.429 197.43 639.682 197.107 640.009 196.88C640.335 196.653 640.729 196.54 641.189 196.54ZM641.309 197.28C641.009 197.28 640.752 197.36 640.539 197.52C640.332 197.68 640.172 197.913 640.059 198.22C639.952 198.527 639.899 198.9 639.899 199.34C639.899 200 640.019 200.507 640.259 200.86C640.505 201.207 640.862 201.38 641.329 201.38C641.602 201.38 641.835 201.347 642.029 201.28C642.222 201.207 642.382 201.097 642.509 200.95C642.635 200.797 642.729 200.603 642.789 200.37C642.849 200.137 642.879 199.86 642.879 199.54V199.33C642.879 198.843 642.822 198.45 642.709 198.15C642.602 197.85 642.432 197.63 642.199 197.49C641.965 197.35 641.669 197.28 641.309 197.28Z" fill="#121212"/>
<path d="M790.777 198.42C790.777 198.973 790.707 199.477 790.567 199.93C790.427 200.377 790.217 200.763 789.937 201.09C789.663 201.417 789.32 201.667 788.907 201.84C788.5 202.013 788.027 202.1 787.487 202.1C786.927 202.1 786.44 202.013 786.027 201.84C785.613 201.66 785.27 201.41 784.997 201.09C784.723 200.763 784.52 200.373 784.387 199.92C784.253 199.467 784.187 198.963 784.187 198.41C784.187 197.677 784.307 197.037 784.547 196.49C784.787 195.943 785.15 195.517 785.637 195.21C786.13 194.903 786.75 194.75 787.497 194.75C788.21 194.75 788.81 194.903 789.297 195.21C789.783 195.51 790.15 195.937 790.397 196.49C790.65 197.037 790.777 197.68 790.777 198.42ZM785.137 198.42C785.137 199.02 785.22 199.537 785.387 199.97C785.553 200.403 785.81 200.737 786.157 200.97C786.51 201.203 786.953 201.32 787.487 201.32C788.027 201.32 788.467 201.203 788.807 200.97C789.153 200.737 789.41 200.403 789.577 199.97C789.743 199.537 789.827 199.02 789.827 198.42C789.827 197.52 789.64 196.817 789.267 196.31C788.893 195.797 788.303 195.54 787.497 195.54C786.957 195.54 786.51 195.657 786.157 195.89C785.81 196.117 785.553 196.447 785.387 196.88C785.22 197.307 785.137 197.82 785.137 198.42ZM794.389 202.1C793.916 202.1 793.493 202.003 793.119 201.81C792.753 201.617 792.463 201.317 792.249 200.91C792.043 200.503 791.939 199.983 791.939 199.35C791.939 198.69 792.049 198.153 792.269 197.74C792.489 197.327 792.786 197.023 793.159 196.83C793.539 196.637 793.969 196.54 794.449 196.54C794.723 196.54 794.986 196.57 795.239 196.63C795.493 196.683 795.699 196.75 795.859 196.83L795.589 197.56C795.429 197.5 795.243 197.443 795.029 197.39C794.816 197.337 794.616 197.31 794.429 197.31C794.069 197.31 793.773 197.387 793.539 197.54C793.306 197.693 793.133 197.92 793.019 198.22C792.906 198.52 792.849 198.893 792.849 199.34C792.849 199.767 792.906 200.13 793.019 200.43C793.133 200.73 793.303 200.957 793.529 201.11C793.756 201.263 794.039 201.34 794.379 201.34C794.673 201.34 794.929 201.31 795.149 201.25C795.376 201.19 795.583 201.117 795.769 201.03V201.81C795.589 201.903 795.389 201.973 795.169 202.02C794.956 202.073 794.696 202.1 794.389 202.1ZM798.834 201.38C798.967 201.38 799.104 201.37 799.244 201.35C799.384 201.323 799.497 201.297 799.584 201.27V201.94C799.491 201.987 799.357 202.023 799.184 202.05C799.011 202.083 798.844 202.1 798.684 202.1C798.404 202.1 798.144 202.053 797.904 201.96C797.671 201.86 797.481 201.69 797.334 201.45C797.187 201.21 797.114 200.873 797.114 200.44V197.32H796.354V196.9L797.124 196.55L797.474 195.41H797.994V196.64H799.544V197.32H797.994V200.42C797.994 200.747 798.071 200.99 798.224 201.15C798.384 201.303 798.587 201.38 798.834 201.38Z" fill="#121212"/>
<path d="M945.967 198.36C945.967 199.16 945.817 199.83 945.517 200.37C945.223 200.91 944.8 201.317 944.247 201.59C943.693 201.863 943.023 202 942.237 202H940.247V194.86H942.447C943.167 194.86 943.79 194.993 944.317 195.26C944.843 195.527 945.25 195.92 945.537 196.44C945.823 196.953 945.967 197.593 945.967 198.36ZM945.017 198.39C945.017 197.757 944.91 197.237 944.697 196.83C944.49 196.423 944.183 196.123 943.777 195.93C943.377 195.73 942.89 195.63 942.317 195.63H941.147V201.23H942.117C943.083 201.23 943.807 200.993 944.287 200.52C944.773 200.04 945.017 199.33 945.017 198.39ZM949.501 196.54C949.961 196.54 950.355 196.64 950.681 196.84C951.015 197.04 951.268 197.323 951.441 197.69C951.621 198.05 951.711 198.473 951.711 198.96V199.49H948.041C948.055 200.097 948.208 200.56 948.501 200.88C948.801 201.193 949.218 201.35 949.751 201.35C950.091 201.35 950.391 201.32 950.651 201.26C950.918 201.193 951.191 201.1 951.471 200.98V201.75C951.198 201.87 950.928 201.957 950.661 202.01C950.395 202.07 950.078 202.1 949.711 202.1C949.205 202.1 948.755 201.997 948.361 201.79C947.975 201.583 947.671 201.277 947.451 200.87C947.238 200.457 947.131 199.953 947.131 199.36C947.131 198.773 947.228 198.27 947.421 197.85C947.621 197.43 947.898 197.107 948.251 196.88C948.611 196.653 949.028 196.54 949.501 196.54ZM949.491 197.26C949.071 197.26 948.738 197.397 948.491 197.67C948.251 197.937 948.108 198.31 948.061 198.79H950.791C950.791 198.483 950.745 198.217 950.651 197.99C950.558 197.763 950.415 197.587 950.221 197.46C950.035 197.327 949.791 197.26 949.491 197.26ZM955.226 202.1C954.752 202.1 954.329 202.003 953.956 201.81C953.589 201.617 953.299 201.317 953.086 200.91C952.879 200.503 952.776 199.983 952.776 199.35C952.776 198.69 952.886 198.153 953.106 197.74C953.326 197.327 953.622 197.023 953.996 196.83C954.376 196.637 954.806 196.54 955.286 196.54C955.559 196.54 955.822 196.57 956.076 196.63C956.329 196.683 956.536 196.75 956.696 196.83L956.426 197.56C956.266 197.5 956.079 197.443 955.866 197.39C955.652 197.337 955.452 197.31 955.266 197.31C954.906 197.31 954.609 197.387 954.376 197.54C954.142 197.693 953.969 197.92 953.856 198.22C953.742 198.52 953.686 198.893 953.686 199.34C953.686 199.767 953.742 200.13 953.856 200.43C953.969 200.73 954.139 200.957 954.366 201.11C954.592 201.263 954.876 201.34 955.216 201.34C955.509 201.34 955.766 201.31 955.986 201.25C956.212 201.19 956.419 201.117 956.606 201.03V201.81C956.426 201.903 956.226 201.973 956.006 202.02C955.792 202.073 955.532 202.1 955.226 202.1Z" fill="#121212"/>
<path d="M708.032 200.09C708.032 200.517 707.929 200.88 707.722 201.18C707.515 201.473 707.219 201.7 706.832 201.86C706.452 202.02 706.002 202.1 705.482 202.1C705.215 202.1 704.959 202.087 704.712 202.06C704.472 202.033 704.252 201.997 704.052 201.95C703.852 201.897 703.675 201.833 703.522 201.76V200.9C703.762 201.007 704.059 201.103 704.412 201.19C704.772 201.277 705.142 201.32 705.522 201.32C705.875 201.32 706.172 201.273 706.412 201.18C706.652 201.087 706.832 200.953 706.952 200.78C707.072 200.607 707.132 200.403 707.132 200.17C707.132 199.937 707.082 199.74 706.982 199.58C706.882 199.42 706.709 199.273 706.462 199.14C706.222 199 705.885 198.853 705.452 198.7C705.145 198.587 704.875 198.467 704.642 198.34C704.415 198.207 704.225 198.057 704.072 197.89C703.919 197.723 703.802 197.533 703.722 197.32C703.649 197.107 703.612 196.86 703.612 196.58C703.612 196.2 703.709 195.877 703.902 195.61C704.095 195.337 704.362 195.127 704.702 194.98C705.049 194.833 705.445 194.76 705.892 194.76C706.285 194.76 706.645 194.797 706.972 194.87C707.299 194.943 707.595 195.04 707.862 195.16L707.582 195.93C707.335 195.823 707.065 195.733 706.772 195.66C706.485 195.587 706.185 195.55 705.872 195.55C705.572 195.55 705.322 195.593 705.122 195.68C704.922 195.767 704.772 195.89 704.672 196.05C704.572 196.203 704.522 196.383 704.522 196.59C704.522 196.83 704.572 197.03 704.672 197.19C704.772 197.35 704.935 197.493 705.162 197.62C705.389 197.747 705.695 197.883 706.082 198.03C706.502 198.183 706.855 198.35 707.142 198.53C707.435 198.703 707.655 198.913 707.802 199.16C707.955 199.407 708.032 199.717 708.032 200.09ZM711.42 196.54C711.88 196.54 712.273 196.64 712.6 196.84C712.933 197.04 713.187 197.323 713.36 197.69C713.54 198.05 713.63 198.473 713.63 198.96V199.49H709.96C709.973 200.097 710.127 200.56 710.42 200.88C710.72 201.193 711.137 201.35 711.67 201.35C712.01 201.35 712.31 201.32 712.57 201.26C712.837 201.193 713.11 201.1 713.39 200.98V201.75C713.117 201.87 712.847 201.957 712.58 202.01C712.313 202.07 711.997 202.1 711.63 202.1C711.123 202.1 710.673 201.997 710.28 201.79C709.893 201.583 709.59 201.277 709.37 200.87C709.157 200.457 709.05 199.953 709.05 199.36C709.05 198.773 709.147 198.27 709.34 197.85C709.54 197.43 709.817 197.107 710.17 196.88C710.53 196.653 710.947 196.54 711.42 196.54ZM711.41 197.26C710.99 197.26 710.657 197.397 710.41 197.67C710.17 197.937 710.027 198.31 709.98 198.79H712.71C712.71 198.483 712.663 198.217 712.57 197.99C712.477 197.763 712.333 197.587 712.14 197.46C711.953 197.327 711.71 197.26 711.41 197.26ZM717.545 196.54C718.205 196.54 718.735 196.77 719.135 197.23C719.541 197.69 719.745 198.383 719.745 199.31C719.745 199.917 719.651 200.43 719.465 200.85C719.285 201.263 719.028 201.577 718.695 201.79C718.368 201.997 717.981 202.1 717.535 202.1C717.261 202.1 717.018 202.063 716.805 201.99C716.591 201.917 716.408 201.823 716.255 201.71C716.108 201.59 715.981 201.46 715.875 201.32H715.815C715.828 201.433 715.841 201.577 715.855 201.75C715.868 201.923 715.875 202.073 715.875 202.2V204.4H714.995V196.64H715.715L715.835 197.37H715.875C715.981 197.217 716.108 197.077 716.255 196.95C716.408 196.823 716.588 196.723 716.795 196.65C717.008 196.577 717.258 196.54 717.545 196.54ZM717.385 197.28C717.025 197.28 716.735 197.35 716.515 197.49C716.295 197.623 716.135 197.827 716.035 198.1C715.935 198.373 715.881 198.72 715.875 199.14V199.31C715.875 199.75 715.921 200.123 716.015 200.43C716.108 200.737 716.265 200.97 716.485 201.13C716.711 201.29 717.018 201.37 717.405 201.37C717.731 201.37 717.998 201.28 718.205 201.1C718.418 200.92 718.575 200.677 718.675 200.37C718.781 200.057 718.835 199.7 718.835 199.3C718.835 198.687 718.715 198.197 718.475 197.83C718.241 197.463 717.878 197.28 717.385 197.28ZM722.937 201.38C723.07 201.38 723.207 201.37 723.347 201.35C723.487 201.323 723.6 201.297 723.687 201.27V201.94C723.594 201.987 723.46 202.023 723.287 202.05C723.114 202.083 722.947 202.1 722.787 202.1C722.507 202.1 722.247 202.053 722.007 201.96C721.774 201.86 721.584 201.69 721.437 201.45C721.29 201.21 721.217 200.873 721.217 200.44V197.32H720.457V196.9L721.227 196.55L721.577 195.41H722.097V196.64H723.647V197.32H722.097V200.42C722.097 200.747 722.174 200.99 722.327 201.15C722.487 201.303 722.69 201.38 722.937 201.38Z" fill="#121212"/>
<path d="M867.285 202H866.235L862.415 196.07H862.375C862.382 196.19 862.388 196.323 862.395 196.47C862.408 196.617 862.418 196.777 862.425 196.95C862.432 197.117 862.438 197.29 862.445 197.47C862.452 197.65 862.455 197.83 862.455 198.01V202H861.625V194.86H862.665L866.475 200.77H866.515C866.508 200.69 866.502 200.58 866.495 200.44C866.488 200.293 866.482 200.133 866.475 199.96C866.468 199.78 866.462 199.597 866.455 199.41C866.448 199.223 866.445 199.05 866.445 198.89V194.86H867.285V202ZM873.763 199.31C873.763 199.757 873.703 200.153 873.583 200.5C873.469 200.84 873.303 201.13 873.083 201.37C872.869 201.61 872.606 201.793 872.293 201.92C871.986 202.04 871.643 202.1 871.263 202.1C870.909 202.1 870.583 202.04 870.283 201.92C869.983 201.793 869.723 201.61 869.503 201.37C869.283 201.13 869.109 200.84 868.983 200.5C868.863 200.153 868.803 199.757 868.803 199.31C868.803 198.717 868.903 198.217 869.103 197.81C869.303 197.397 869.589 197.083 869.963 196.87C870.336 196.65 870.779 196.54 871.293 196.54C871.779 196.54 872.206 196.65 872.573 196.87C872.946 197.083 873.236 197.397 873.443 197.81C873.656 198.217 873.763 198.717 873.763 199.31ZM869.713 199.31C869.713 199.73 869.766 200.097 869.873 200.41C869.986 200.717 870.159 200.953 870.393 201.12C870.626 201.287 870.923 201.37 871.283 201.37C871.643 201.37 871.939 201.287 872.173 201.12C872.406 200.953 872.576 200.717 872.683 200.41C872.796 200.097 872.853 199.73 872.853 199.31C872.853 198.883 872.796 198.52 872.683 198.22C872.569 197.92 872.396 197.69 872.163 197.53C871.936 197.363 871.639 197.28 871.273 197.28C870.726 197.28 870.329 197.46 870.083 197.82C869.836 198.18 869.713 198.677 869.713 199.31ZM876.142 202L874.112 196.64H875.052L876.192 199.8C876.245 199.947 876.302 200.11 876.362 200.29C876.422 200.47 876.475 200.643 876.522 200.81C876.569 200.97 876.602 201.107 876.622 201.22H876.662C876.689 201.107 876.725 200.967 876.772 200.8C876.825 200.633 876.882 200.46 876.942 200.28C877.009 200.1 877.065 199.94 877.112 199.8L878.252 196.64H879.192L877.152 202H876.142Z" fill="#121212"/>
</svg>
